<svg width="64" height="64" viewBox="0 0 64 64" fill="none" xmlns="http://www.w3.org/2000/svg">
<rect width="64" height="64" rx="32" fill="#E6E8EB" style="fill:#E6E8EB;fill:color(display-p3 0.9009 0.9107 0.9231);fill-opacity:1;"/>
<path d="M13.0043 37.5V27.3182H14.8487V35.9538H19.3331V37.5H13.0043ZM29.6355 32.4091C29.6355 33.5062 29.43 34.4458 29.019 35.228C28.6113 36.0069 28.0545 36.6035 27.3485 37.0178C26.6459 37.4321 25.8488 37.6392 24.9572 37.6392C24.0656 37.6392 23.2669 37.4321 22.5609 37.0178C21.8583 36.6001 21.3014 36.0019 20.8904 35.223C20.4828 34.4408 20.2789 33.5028 20.2789 32.4091C20.2789 31.312 20.4828 30.3741 20.8904 29.5952C21.3014 28.813 21.8583 28.2147 22.5609 27.8004C23.2669 27.3861 24.0656 27.179 24.9572 27.179C25.8488 27.179 26.6459 27.3861 27.3485 27.8004C28.0545 28.2147 28.6113 28.813 29.019 29.5952C29.43 30.3741 29.6355 31.312 29.6355 32.4091ZM27.7811 32.4091C27.7811 31.6368 27.6601 30.9856 27.4181 30.4553C27.1795 29.9216 26.8481 29.5189 26.4238 29.2472C25.9996 28.9721 25.5107 28.8345 24.9572 28.8345C24.4037 28.8345 23.9148 28.9721 23.4906 29.2472C23.0663 29.5189 22.7333 29.9216 22.4913 30.4553C22.2527 30.9856 22.1333 31.6368 22.1333 32.4091C22.1333 33.1813 22.2527 33.8343 22.4913 34.3679C22.7333 34.8982 23.0663 35.3009 23.4906 35.576C23.9148 35.8478 24.4037 35.9837 24.9572 35.9837C25.5107 35.9837 25.9996 35.8478 26.4238 35.576C26.8481 35.3009 27.1795 34.8982 27.4181 34.3679C27.6601 33.8343 27.7811 33.1813 27.7811 32.4091ZM38.2003 30.5696C38.1174 30.3011 38.0031 30.0608 37.8572 29.8487C37.7147 29.6333 37.5424 29.4493 37.3402 29.2969C37.1413 29.1444 36.9126 29.0301 36.6541 28.9538C36.3956 28.8743 36.1139 28.8345 35.8089 28.8345C35.2621 28.8345 34.7749 28.9721 34.3473 29.2472C33.9197 29.5223 33.5833 29.9266 33.3381 30.4602C33.0961 30.9905 32.9751 31.6368 32.9751 32.3991C32.9751 33.1681 33.0961 33.8194 33.3381 34.353C33.58 34.8866 33.9164 35.2926 34.3473 35.571C34.7782 35.8461 35.2786 35.9837 35.8487 35.9837C36.3658 35.9837 36.8132 35.8842 37.1911 35.6854C37.5722 35.4865 37.8655 35.2048 38.071 34.8402C38.2765 34.4723 38.3793 34.0414 38.3793 33.5476L38.7969 33.6122H36.0327V32.1705H40.1641V33.3935C40.1641 34.2652 39.9785 35.0192 39.6072 35.6555C39.236 36.2919 38.7256 36.7824 38.076 37.1271C37.4264 37.4685 36.6806 37.6392 35.8388 37.6392C34.9008 37.6392 34.0772 37.4287 33.3679 37.0078C32.6619 36.5836 32.1101 35.982 31.7124 35.2031C31.3179 34.4209 31.1207 33.4929 31.1207 32.419C31.1207 31.5971 31.2367 30.8629 31.4688 30.2166C31.7041 29.5703 32.0322 29.0218 32.4531 28.571C32.8741 28.117 33.3679 27.7723 33.9347 27.5369C34.5014 27.2983 35.1179 27.179 35.7841 27.179C36.3475 27.179 36.8729 27.2618 37.3601 27.4276C37.8473 27.59 38.2798 27.822 38.6577 28.1236C39.0388 28.4252 39.352 28.7831 39.5973 29.1974C39.8426 29.6117 40.0033 30.0691 40.0795 30.5696H38.2003ZM51.0456 32.4091C51.0456 33.5062 50.8401 34.4458 50.4292 35.228C50.0215 36.0069 49.4647 36.6035 48.7587 37.0178C48.056 37.4321 47.2589 37.6392 46.3674 37.6392C45.4758 37.6392 44.677 37.4321 43.9711 37.0178C43.2684 36.6001 42.7116 36.0019 42.3006 35.223C41.8929 34.4408 41.6891 33.5028 41.6891 32.4091C41.6891 31.312 41.8929 30.3741 42.3006 29.5952C42.7116 28.813 43.2684 28.2147 43.9711 27.8004C44.677 27.3861 45.4758 27.179 46.3674 27.179C47.2589 27.179 48.056 27.3861 48.7587 27.8004C49.4647 28.2147 50.0215 28.813 50.4292 29.5952C50.8401 30.3741 51.0456 31.312 51.0456 32.4091ZM49.1912 32.4091C49.1912 31.6368 49.0703 30.9856 48.8283 30.4553C48.5897 29.9216 48.2582 29.5189 47.834 29.2472C47.4097 28.9721 46.9209 28.8345 46.3674 28.8345C45.8139 28.8345 45.325 28.9721 44.9007 29.2472C44.4765 29.5189 44.1434 29.9216 43.9015 30.4553C43.6628 30.9856 43.5435 31.6368 43.5435 32.4091C43.5435 33.1813 43.6628 33.8343 43.9015 34.3679C44.1434 34.8982 44.4765 35.3009 44.9007 35.576C45.325 35.8478 45.8139 35.9837 46.3674 35.9837C46.9209 35.9837 47.4097 35.8478 47.834 35.576C48.2582 35.3009 48.5897 34.8982 48.8283 34.3679C49.0703 33.8343 49.1912 33.1813 49.1912 32.4091Z" fill="#ABB7C8" style="fill:#ABB7C8;fill:color(display-p3 0.6706 0.7158 0.7837);fill-opacity:1;"/>
</svg>
