<svg width="24" height="24" viewBox="0 0 24 24" fill="none" xmlns="http://www.w3.org/2000/svg">
<g clip-path="url(#clip0_3500_35716)">
<path d="M9.75 9.75C10.9926 9.75 12 8.74264 12 7.5C12 6.25736 10.9926 5.25 9.75 5.25C8.50736 5.25 7.5 6.25736 7.5 7.5C7.5 8.74264 8.50736 9.75 9.75 9.75Z" stroke="white" style="stroke:white;stroke-opacity:1;" stroke-width="1.5" stroke-linecap="round" stroke-linejoin="round"/>
<path d="M15.75 18.75C16.9926 18.75 18 17.7426 18 16.5C18 15.2574 16.9926 14.25 15.75 14.25C14.5074 14.25 13.5 15.2574 13.5 16.5C13.5 17.7426 14.5074 18.75 15.75 18.75Z" stroke="#FF4040" style="stroke:#FF4040;stroke:color(display-p3 1.0000 0.2500 0.2500);stroke-opacity:1;" stroke-width="1.5" stroke-linecap="round" stroke-linejoin="round"/>
<path d="M12 7.5H20.25" stroke="white" style="stroke:white;stroke-opacity:1;" stroke-width="1.5" stroke-linecap="round" stroke-linejoin="round"/>
<path d="M3.75 7.5H7.5" stroke="white" style="stroke:white;stroke-opacity:1;" stroke-width="1.5" stroke-linecap="round" stroke-linejoin="round"/>
<path d="M18 16.5H20.25" stroke="#FF4040" style="stroke:#FF4040;stroke:color(display-p3 1.0000 0.2500 0.2500);stroke-opacity:1;" stroke-width="1.5" stroke-linecap="round" stroke-linejoin="round"/>
<path d="M3.75 16.5H13.5" stroke="#FF4040" style="stroke:#FF4040;stroke:color(display-p3 1.0000 0.2500 0.2500);stroke-opacity:1;" stroke-width="1.5" stroke-linecap="round" stroke-linejoin="round"/>
</g>
<defs>
<clipPath id="clip0_3500_35716">
<rect width="24" height="24" fill="white" style="fill:white;fill-opacity:1;"/>
</clipPath>
</defs>
</svg>
