<svg width="24" height="24" viewBox="0 0 24 24" fill="none" xmlns="http://www.w3.org/2000/svg">
<g clip-path="url(#clip0_3362_13416)">
<path d="M12.0011 1.74942L8.25098 5.49951L12.0011 9.24961L15.7512 5.49951L12.0011 1.74942Z" fill="white" stroke="#9D4141" style="fill:white;fill-opacity:1;stroke:#9D4141;stroke:color(display-p3 0.6157 0.2549 0.2549);stroke-opacity:1;" stroke-width="1.2" stroke-linecap="round" stroke-linejoin="round"/>
<path d="M12.0011 14.7504L8.25098 18.5005L12.0011 22.2506L15.7512 18.5005L12.0011 14.7504Z" fill="#CED9E5" style="fill:#CED9E5;fill:color(display-p3 0.8078 0.8510 0.8980);fill-opacity:1;"/>
<path d="M18.0011 8.24942L14.251 11.9995L18.0011 15.7496L21.7512 11.9995L18.0011 8.24942Z" fill="#FBE9EA" style="fill:#FBE9EA;fill:color(display-p3 0.9843 0.9137 0.9176);fill-opacity:1;"/>
<path d="M6.00107 8.25039L2.25098 12.0005L6.00107 15.7506L9.75117 12.0005L6.00107 8.25039Z" fill="white" style="fill:white;fill-opacity:1;"/>
<path d="M12.0011 1.74942L8.25098 5.49951L12.0011 9.24961L15.7512 5.49951L12.0011 1.74942Z" fill="#9D4141" stroke="#9D4141" style="fill:#9D4141;fill:color(display-p3 0.6157 0.2549 0.2549);fill-opacity:1;stroke:#9D4141;stroke:color(display-p3 0.6157 0.2549 0.2549);stroke-opacity:1;" stroke-width="1.2" stroke-linecap="round" stroke-linejoin="round"/>
<path d="M12.0011 14.7504L8.25098 18.5005L12.0011 22.2506L15.7512 18.5005L12.0011 14.7504Z" fill="#9D4141" stroke="#9D4141" style="fill:#9D4141;fill:color(display-p3 0.6157 0.2549 0.2549);fill-opacity:1;stroke:#9D4141;stroke:color(display-p3 0.6157 0.2549 0.2549);stroke-opacity:1;" stroke-width="1.2" stroke-linecap="round" stroke-linejoin="round"/>
<path d="M18.0011 8.24942L14.251 11.9995L18.0011 15.7496L21.7512 11.9995L18.0011 8.24942Z" stroke="#9D4141" style="stroke:#9D4141;stroke:color(display-p3 0.6157 0.2549 0.2549);stroke-opacity:1;" stroke-width="1.2" stroke-linecap="round" stroke-linejoin="round"/>
<path d="M6.00107 8.25039L2.25098 12.0005L6.00107 15.7506L9.75117 12.0005L6.00107 8.25039Z" fill="#FBE9EA" stroke="#9D4141" style="fill:#FBE9EA;fill:color(display-p3 0.9843 0.9137 0.9176);fill-opacity:1;stroke:#9D4141;stroke:color(display-p3 0.6157 0.2549 0.2549);stroke-opacity:1;" stroke-width="1.2" stroke-linecap="round" stroke-linejoin="round"/>
</g>
<defs>
<clipPath id="clip0_3362_13416">
<rect width="24" height="24" fill="white" style="fill:white;fill-opacity:1;"/>
</clipPath>
</defs>
</svg>
