<svg width="25" height="24" viewBox="0 0 25 24" fill="none" xmlns="http://www.w3.org/2000/svg">
<g clip-path="url(#clip0_3013_29221)">
<path d="M12.5011 1.74942L8.75098 5.49951L12.5011 9.24961L16.2512 5.49951L12.5011 1.74942Z" fill="#CED9E5" stroke="#1E1E1E" style="fill:#CED9E5;fill:color(display-p3 0.8092 0.8512 0.8966);fill-opacity:1;stroke:#1E1E1E;stroke:color(display-p3 0.1176 0.1176 0.1176);stroke-opacity:1;" stroke-width="1.5"/>
<path d="M12.5011 14.7504L8.75098 18.5005L12.5011 22.2506L16.2512 18.5005L12.5011 14.7504Z" fill="#CED9E5" style="fill:#CED9E5;fill:color(display-p3 0.8092 0.8512 0.8966);fill-opacity:1;"/>
<path d="M18.5011 8.24942L14.751 11.9995L18.5011 15.7496L22.2512 11.9995L18.5011 8.24942Z" fill="#CED9E5" style="fill:#CED9E5;fill:color(display-p3 0.8092 0.8512 0.8966);fill-opacity:1;"/>
<path d="M6.50107 8.25039L2.75098 12.0005L6.50107 15.7506L10.2512 12.0005L6.50107 8.25039Z" fill="#CED9E5" style="fill:#CED9E5;fill:color(display-p3 0.8092 0.8512 0.8966);fill-opacity:1;"/>
<path d="M12.5011 1.74942L8.75098 5.49951L12.5011 9.24961L16.2512 5.49951L12.5011 1.74942Z" fill="#CED9E5" stroke="#1E1E1E" style="fill:#CED9E5;fill:color(display-p3 0.8078 0.8510 0.8980);fill-opacity:1;stroke:#1E1E1E;stroke:color(display-p3 0.1176 0.1176 0.1176);stroke-opacity:1;" stroke-width="1.5" stroke-linecap="round" stroke-linejoin="round"/>
<path d="M12.5011 14.7504L8.75098 18.5005L12.5011 22.2506L16.2512 18.5005L12.5011 14.7504Z" fill="#CED9E5" stroke="#1E1E1E" style="fill:#CED9E5;fill:color(display-p3 0.8078 0.8510 0.8980);fill-opacity:1;stroke:#1E1E1E;stroke:color(display-p3 0.1176 0.1176 0.1176);stroke-opacity:1;" stroke-width="1.5" stroke-linecap="round" stroke-linejoin="round"/>
<path d="M18.5011 8.24942L14.751 11.9995L18.5011 15.7496L22.2512 11.9995L18.5011 8.24942Z" fill="white" stroke="#1E1E1E" style="fill:white;fill-opacity:1;stroke:#1E1E1E;stroke:color(display-p3 0.1176 0.1176 0.1176);stroke-opacity:1;" stroke-width="1.5" stroke-linecap="round" stroke-linejoin="round"/>
<path d="M6.50107 8.25039L2.75098 12.0005L6.50107 15.7506L10.2512 12.0005L6.50107 8.25039Z" fill="white" stroke="#1E1E1E" style="fill:white;fill-opacity:1;stroke:#1E1E1E;stroke:color(display-p3 0.1176 0.1176 0.1176);stroke-opacity:1;" stroke-width="1.5" stroke-linecap="round" stroke-linejoin="round"/>
</g>
<defs>
<clipPath id="clip0_3013_29221">
<rect width="24" height="24" fill="white" style="fill:white;fill-opacity:1;" transform="translate(0.5)"/>
</clipPath>
</defs>
</svg>
