<svg width="20" height="20" viewBox="0 0 20 20" fill="none" xmlns="http://www.w3.org/2000/svg">
<g clip-path="url(#clip0_10762_48815)">
<path d="M13.5624 15.4115L11.9374 8.90273L13.1449 7.42648C13.1983 7.36313 13.2386 7.28979 13.2635 7.21071C13.2883 7.13164 13.2972 7.04842 13.2895 6.96589C13.2819 6.88335 13.2579 6.80317 13.219 6.72999C13.1801 6.65681 13.127 6.5921 13.0629 6.53963C12.9987 6.48716 12.9247 6.44797 12.8453 6.42435C12.7659 6.40073 12.6825 6.39315 12.6001 6.40205C12.5177 6.41094 12.4379 6.43614 12.3653 6.47617C12.2927 6.51621 12.2289 6.57027 12.1774 6.63523L10.9536 8.1246H9.04612L7.82737 6.63523C7.77589 6.57027 7.71201 6.51621 7.63943 6.47617C7.56686 6.43614 7.48705 6.41094 7.40464 6.40205C7.32224 6.39315 7.23889 6.40073 7.15944 6.42435C7.08 6.44797 7.00604 6.48716 6.94189 6.53963C6.87773 6.5921 6.82465 6.65681 6.78573 6.72999C6.74682 6.80317 6.72285 6.88335 6.71521 6.96589C6.70758 7.04842 6.71644 7.13164 6.74128 7.21071C6.76611 7.28979 6.80642 7.36313 6.85987 7.42648L8.06737 8.90273L6.43737 15.4121C6.36013 15.7262 6.36498 16.055 6.45144 16.3667C6.53791 16.6784 6.7031 16.9626 6.93112 17.1921L9.55612 19.8171C9.67333 19.9343 9.83227 20.0001 9.998 20.0001C10.1637 20.0001 10.3227 19.9343 10.4399 19.8171L13.0649 17.1921C13.2937 16.963 13.4597 16.6788 13.5468 16.3669C13.634 16.0551 13.6393 15.726 13.5624 15.4115ZM12.1874 16.3084L9.99987 18.4909L7.81737 16.3084C7.74132 16.2318 7.68621 16.137 7.65732 16.033C7.62843 15.9291 7.62672 15.8194 7.65237 15.7146L9.23737 9.3746H10.7624L12.3467 15.714C12.3727 15.8188 12.3711 15.9286 12.3423 16.0327C12.3136 16.1368 12.2585 16.2317 12.1824 16.3084H12.1874Z" fill="#9D4141" fill-opacity="0.48" style="fill:#9D4141;fill:color(display-p3 0.6157 0.2549 0.2549);fill-opacity:0.48;"/>
<path d="M15.9715 1.355L14.0965 0.105C13.9932 0.0386332 13.8724 0.00467855 13.7496 0.0075V0H6.24964V0.0075C6.12688 0.00467855 6.00608 0.0386332 5.90276 0.105L4.02776 1.355C3.91383 1.43113 3.82807 1.5426 3.78369 1.67224C3.73931 1.80188 3.73876 1.94252 3.78214 2.0725L4.19901 3.3225C4.22495 3.40047 4.26599 3.47257 4.31979 3.53468C4.37359 3.5968 4.4391 3.6477 4.51257 3.6845C4.58605 3.72129 4.66605 3.74326 4.74801 3.74913C4.82997 3.75501 4.91229 3.74469 4.99026 3.71875C5.06823 3.69281 5.14034 3.65177 5.20245 3.59797C5.26456 3.54417 5.31547 3.47867 5.35226 3.40519C5.38906 3.33172 5.41102 3.25171 5.4169 3.16975C5.42277 3.08779 5.41245 3.00547 5.38651 2.9275L5.11839 2.13L6.17026 1.42938L9.11589 4.375L6.58839 6.9025L6.23089 5.47313C6.18965 5.31337 6.08692 5.17641 5.94511 5.0921C5.80329 5.00779 5.63388 4.98297 5.47384 5.02306C5.3138 5.06316 5.17611 5.16491 5.09078 5.30612C5.00546 5.44733 4.97944 5.61655 5.01839 5.77688L5.64339 8.27688C5.67006 8.38391 5.72458 8.48199 5.80142 8.56113C5.87826 8.64028 5.97468 8.69768 6.08089 8.7275C6.13587 8.74254 6.19263 8.75011 6.24964 8.75C6.41538 8.74997 6.57433 8.68409 6.69151 8.56688L9.99964 5.25875L13.3078 8.56688C13.4249 8.68409 13.5839 8.74997 13.7496 8.75C13.801 8.74993 13.8522 8.74363 13.9021 8.73125C14.0071 8.70484 14.1034 8.65161 14.1817 8.57678C14.2599 8.50195 14.3173 8.40808 14.3484 8.30438L16.2234 2.05438C16.2618 1.9262 16.2581 1.78907 16.2127 1.66317C16.1674 1.53728 16.0828 1.42925 15.9715 1.355ZM7.75839 1.25H12.2409L9.99964 3.49125L7.75839 1.25ZM13.4515 6.94313L10.8834 4.375L13.829 1.42938L14.8915 2.13813L13.4515 6.94313Z" fill="#9D4141" style="fill:#9D4141;fill:color(display-p3 0.6157 0.2549 0.2549);fill-opacity:1;"/>
</g>
<defs>
<clipPath id="clip0_10762_48815">
<rect width="20" height="20" fill="white" style="fill:white;fill-opacity:1;"/>
</clipPath>
</defs>
</svg>
