<svg width="24" height="24" viewBox="0 0 24 24" fill="none" xmlns="http://www.w3.org/2000/svg">
<g clip-path="url(#clip0_3652_18859)">
<path d="M12 5.25L15 4.5C15 4.5 17.4825 8.37656 18.6469 12.7228C18.7504 13.1039 18.7777 13.5016 18.7272 13.8933C18.6767 14.2849 18.5494 14.6627 18.3526 15.005C18.1557 15.3474 17.8932 15.6475 17.5802 15.8881C17.2671 16.1288 16.9096 16.3052 16.5281 16.4074C16.1467 16.5096 15.7488 16.5355 15.3574 16.4835C14.9659 16.4316 14.5886 16.3029 14.247 16.1048C13.9054 15.9067 13.6062 15.6432 13.3667 15.3292C13.1272 15.0153 12.952 14.6571 12.8513 14.2753C11.6869 9.92906 12 5.25 12 5.25Z" stroke="white" style="stroke:white;stroke-opacity:1;" stroke-width="1.5" stroke-linecap="round" stroke-linejoin="round"/>
<path d="M16.5253 16.397L17.8715 21.4192" stroke="white" style="stroke:white;stroke-opacity:1;" stroke-width="1.5" stroke-linecap="round" stroke-linejoin="round"/>
<path d="M20.25 20.7815L15.75 21.9871" stroke="white" style="stroke:white;stroke-opacity:1;" stroke-width="1.5" stroke-linecap="round" stroke-linejoin="round"/>
<path d="M12 3L8.99999 2.25C8.99999 2.25 6.51749 6.12656 5.35311 10.4728C5.24955 10.8539 5.22224 11.2516 5.27274 11.6433C5.32325 12.0349 5.45057 12.4127 5.64742 12.755C5.84426 13.0974 6.10675 13.3975 6.41983 13.6381C6.73291 13.8788 7.09042 14.0552 7.47185 14.1574C7.85329 14.2596 8.25114 14.2855 8.64259 14.2335C9.03405 14.1816 9.4114 14.0529 9.753 13.8548C10.0946 13.6567 10.3937 13.3932 10.6333 13.0792C10.8728 12.7653 11.0479 12.4071 11.1487 12.0253C12.2147 7.66875 12 3 12 3Z" stroke="#FF4040" style="stroke:#FF4040;stroke:color(display-p3 1.0000 0.2500 0.2500);stroke-opacity:1;" stroke-width="1.5" stroke-linecap="round" stroke-linejoin="round"/>
<path d="M7.4747 14.147L6.12845 19.1692" stroke="#FF4040" style="stroke:#FF4040;stroke:color(display-p3 1.0000 0.2500 0.2500);stroke-opacity:1;" stroke-width="1.5" stroke-linecap="round" stroke-linejoin="round"/>
<path d="M3.75 18.5315L8.25 19.7371" stroke="#FF4040" style="stroke:#FF4040;stroke:color(display-p3 1.0000 0.2500 0.2500);stroke-opacity:1;" stroke-width="1.5" stroke-linecap="round" stroke-linejoin="round"/>
<path d="M12.0459 9.17625L16.8694 7.96875" stroke="white" style="stroke:white;stroke-opacity:1;" stroke-width="1.5" stroke-linecap="round" stroke-linejoin="round"/>
<path d="M11.8988 7.09968L7.05283 5.88843" stroke="#FF4040" style="stroke:#FF4040;stroke:color(display-p3 1.0000 0.2500 0.2500);stroke-opacity:1;" stroke-width="1.5" stroke-linecap="round" stroke-linejoin="round"/>
<path d="M18 3.75L19.5 3" stroke="white" style="stroke:white;stroke-opacity:1;" stroke-width="1.5" stroke-linecap="round" stroke-linejoin="round"/>
<path d="M19.5 6.75H21" stroke="white" style="stroke:white;stroke-opacity:1;" stroke-width="1.5" stroke-linecap="round" stroke-linejoin="round"/>
<path d="M5.25 3L3.75 2.25" stroke="#FF4040" style="stroke:#FF4040;stroke:color(display-p3 1.0000 0.2500 0.2500);stroke-opacity:1;" stroke-width="1.5" stroke-linecap="round" stroke-linejoin="round"/>
<path d="M3.75 6H2.25" stroke="#FF4040" style="stroke:#FF4040;stroke:color(display-p3 1.0000 0.2500 0.2500);stroke-opacity:1;" stroke-width="1.5" stroke-linecap="round" stroke-linejoin="round"/>
</g>
<defs>
<clipPath id="clip0_3652_18859">
<rect width="24" height="24" fill="white" style="fill:white;fill-opacity:1;"/>
</clipPath>
</defs>
</svg>
