<svg width="44" height="44" viewBox="0 0 44 44" fill="none" xmlns="http://www.w3.org/2000/svg">
<rect width="44" height="44" rx="22" fill="#FFD4CC" style="fill:#FFD4CC;fill:color(display-p3 1.0000 0.8316 0.7984);fill-opacity:1;"/>
<g clip-path="url(#clip0_3652_20182)">
<path d="M12.25 31C12.25 31 16 28 22 28C28 28 31.75 31 31.75 31" stroke="#E97159" style="stroke:#E97159;stroke:color(display-p3 0.9133 0.4427 0.3486);stroke-opacity:1;" stroke-width="1.5" stroke-linecap="round" stroke-linejoin="round"/>
<path d="M26.5001 16.75C19.0001 20.5 22.0001 28 22.0001 28" stroke="#E97159" style="stroke:#E97159;stroke:color(display-p3 0.9133 0.4427 0.3486);stroke-opacity:1;" stroke-width="1.5" stroke-linecap="round" stroke-linejoin="round"/>
<path d="M26.5 16.7502C26.5 16.7502 24.8875 15.9458 23.125 16.0002C21.4881 16.0536 19.7219 16.8618 19 19.7502" stroke="#E97159" style="stroke:#E97159;stroke:color(display-p3 0.9133 0.4427 0.3486);stroke-opacity:1;" stroke-width="1.5" stroke-linecap="round" stroke-linejoin="round"/>
<path d="M26.5 16.75C26.5 16.75 25 10.8906 19.75 13.8203" stroke="#E97159" style="stroke:#E97159;stroke:color(display-p3 0.9133 0.4427 0.3486);stroke-opacity:1;" stroke-width="1.5" stroke-linecap="round" stroke-linejoin="round"/>
<path d="M31.75 22.75C31.75 16.75 26.5 16.75 26.5 16.75" stroke="#E97159" style="stroke:#E97159;stroke:color(display-p3 0.9133 0.4427 0.3486);stroke-opacity:1;" stroke-width="1.5" stroke-linecap="round" stroke-linejoin="round"/>
<path d="M26.5 16.7501C26.5 16.7501 28 11.7907 31.75 14.6247" stroke="#E97159" style="stroke:#E97159;stroke:color(display-p3 0.9133 0.4427 0.3486);stroke-opacity:1;" stroke-width="1.5" stroke-linecap="round" stroke-linejoin="round"/>
<path d="M27.25 22.75C27.25 22.75 29.3696 19.75 26.5046 16.75" stroke="#E97159" style="stroke:#E97159;stroke:color(display-p3 0.9133 0.4427 0.3486);stroke-opacity:1;" stroke-width="1.5" stroke-linecap="round" stroke-linejoin="round"/>
<path d="M14.875 25C15.9105 25 16.75 24.1605 16.75 23.125C16.75 22.0895 15.9105 21.25 14.875 21.25C13.8395 21.25 13 22.0895 13 23.125C13 24.1605 13.8395 25 14.875 25Z" stroke="#E97159" style="stroke:#E97159;stroke:color(display-p3 0.9133 0.4427 0.3486);stroke-opacity:1;" stroke-width="1.5" stroke-linecap="round" stroke-linejoin="round"/>
</g>
<defs>
<clipPath id="clip0_3652_20182">
<rect width="24" height="24" fill="white" style="fill:white;fill-opacity:1;" transform="translate(10 10)"/>
</clipPath>
</defs>
</svg>
