<svg width="24" height="24" viewBox="0 0 24 24" fill="none" xmlns="http://www.w3.org/2000/svg">
<g clip-path="url(#clip0_3500_35104)">
<path d="M12 15.75C13.6569 15.75 15 14.4069 15 12.75C15 11.0931 13.6569 9.75 12 9.75C10.3431 9.75 9 11.0931 9 12.75C9 14.4069 10.3431 15.75 12 15.75Z" stroke="#FF4040" style="stroke:#FF4040;stroke:color(display-p3 1.0000 0.2500 0.2500);stroke-opacity:1;" stroke-width="1.5" stroke-linecap="round" stroke-linejoin="round"/>
<path d="M7.5 18C8.02395 17.3014 8.70336 16.7344 9.48442 16.3438C10.2655 15.9533 11.1267 15.75 12 15.75C12.8733 15.75 13.7345 15.9533 14.5156 16.3438C15.2966 16.7344 15.976 17.3014 16.5 18" stroke="#FF4040" style="stroke:#FF4040;stroke:color(display-p3 1.0000 0.2500 0.2500);stroke-opacity:1;" stroke-width="1.5" stroke-linecap="round" stroke-linejoin="round"/>
<path d="M19.5 20.25V3.75C19.5 3.33579 19.1642 3 18.75 3L5.25 3C4.83579 3 4.5 3.33579 4.5 3.75L4.5 20.25C4.5 20.6642 4.83579 21 5.25 21H18.75C19.1642 21 19.5 20.6642 19.5 20.25Z" stroke="white" style="stroke:white;stroke-opacity:1;" stroke-width="1.5" stroke-linecap="round" stroke-linejoin="round"/>
<path d="M9 6H15" stroke="white" style="stroke:white;stroke-opacity:1;" stroke-width="1.5" stroke-linecap="round" stroke-linejoin="round"/>
</g>
<defs>
<clipPath id="clip0_3500_35104">
<rect width="24" height="24" fill="white" style="fill:white;fill-opacity:1;"/>
</clipPath>
</defs>
</svg>
