<svg width="24" height="24" viewBox="0 0 24 24" fill="none" xmlns="http://www.w3.org/2000/svg">
<g clip-path="url(#clip0_13507_47407)">
<path d="M15.7123 8.28751C15.5777 7.02037 15.0872 5.81719 14.2975 4.81712C13.5079 3.81705 12.4512 3.06093 11.2498 2.63621C10.0484 2.2115 8.75131 2.13552 7.50854 2.41708C6.26576 2.69864 5.12807 3.32623 4.22703 4.22727C3.32599 5.12832 2.6984 6.26601 2.41684 7.50878C2.13528 8.75155 2.21125 10.0486 2.63597 11.25C3.06069 12.4514 3.8168 13.5081 4.81687 14.2978C5.81695 15.0875 7.02012 15.578 8.28727 15.7125C8.42182 16.9797 8.9123 18.1828 9.70199 19.1829C10.4917 20.183 11.5483 20.9391 12.7497 21.3638C13.9511 21.7885 15.2482 21.8645 16.491 21.5829C17.7338 21.3014 18.8715 20.6738 19.7725 19.7727C20.6735 18.8717 21.3011 17.734 21.5827 16.4912C21.8643 15.2485 21.7883 13.9514 21.3636 12.75C20.9388 11.5486 20.1827 10.4919 19.1827 9.70224C18.1826 8.91254 16.9794 8.42206 15.7123 8.28751Z" fill="#CED9E5" style="fill:#CED9E5;fill:color(display-p3 0.8078 0.8510 0.8980);fill-opacity:1;"/>
<path d="M9 15.75C12.7279 15.75 15.75 12.7279 15.75 9C15.75 5.27208 12.7279 2.25 9 2.25C5.27208 2.25 2.25 5.27208 2.25 9C2.25 12.7279 5.27208 15.75 9 15.75Z" stroke="black" style="stroke:black;stroke-opacity:1;" stroke-width="1.2" stroke-linecap="round" stroke-linejoin="round"/>
<path d="M15 21.75C18.7279 21.75 21.75 18.7279 21.75 15C21.75 11.2721 18.7279 8.25 15 8.25C11.2721 8.25 8.25 11.2721 8.25 15C8.25 18.7279 11.2721 21.75 15 21.75Z" stroke="black" style="stroke:black;stroke-opacity:1;" stroke-width="1.2" stroke-linecap="round" stroke-linejoin="round"/>
</g>
<defs>
<clipPath id="clip0_13507_47407">
<rect width="24" height="24" fill="white" style="fill:white;fill-opacity:1;"/>
</clipPath>
</defs>
</svg>
