<svg width="52" height="52" viewBox="0 0 52 52" fill="none" xmlns="http://www.w3.org/2000/svg">
<rect width="52" height="52" rx="26" fill="#F4E7E7" style="fill:#F4E7E7;fill:color(display-p3 0.9583 0.9072 0.9072);fill-opacity:1;"/>
<path d="M33.5 28.25V25.625C33.5 24.7299 33.1444 23.8715 32.5115 23.2385C31.8786 22.6056 31.0201 22.25 30.125 22.25H28.625C28.3266 22.25 28.0405 22.1315 27.8295 21.9205C27.6185 21.7095 27.5 21.4234 27.5 21.125V19.625C27.5 18.7299 27.1444 17.8714 26.5115 17.2385C25.8785 16.6056 25.0201 16.25 24.125 16.25H22.25M24.5 25.25H28.25M23.75 27.875H28.25M26 32.75L23.75 30.5H24.125C24.8212 30.5 25.4889 30.2234 25.9812 29.7312C26.4734 29.2389 26.75 28.5712 26.75 27.875C26.75 27.1788 26.4734 26.5111 25.9812 26.0188C25.4889 25.5266 24.8212 25.25 24.125 25.25H23.75M24.5 16.25H19.625C19.004 16.25 18.5 16.754 18.5 17.375V34.625C18.5 35.246 19.004 35.75 19.625 35.75H32.375C32.996 35.75 33.5 35.246 33.5 34.625V25.25C33.5 22.8631 32.5518 20.5739 30.864 18.886C29.1761 17.1982 26.8869 16.25 24.5 16.25Z" stroke="#9D4141" style="stroke:#9D4141;stroke:color(display-p3 0.6157 0.2549 0.2549);stroke-opacity:1;" stroke-width="1.5" stroke-linecap="round" stroke-linejoin="round"/>
</svg>
