<svg width="44" height="44" viewBox="0 0 44 44" fill="none" xmlns="http://www.w3.org/2000/svg">
<rect width="44" height="44" rx="22" fill="#E9F1FD" style="fill:#E9F1FD;fill:color(display-p3 0.9137 0.9451 0.9922);fill-opacity:1;"/>
<g clip-path="url(#clip0_14231_46387)">
<path d="M22.0002 15.25L25.0002 14.5C25.0002 14.5 27.4827 18.3766 28.6471 22.7228C28.7506 23.1039 28.778 23.5016 28.7275 23.8933C28.677 24.2849 28.5496 24.6627 28.3528 25.005C28.1559 25.3474 27.8935 25.6475 27.5804 25.8881C27.2673 26.1288 26.9098 26.3052 26.5284 26.4074C26.1469 26.5096 25.7491 26.5355 25.3576 26.4835C24.9662 26.4316 24.5888 26.3029 24.2472 26.1048C23.9056 25.9067 23.6065 25.6432 23.3669 25.3292C23.1274 25.0153 22.9523 24.6571 22.8515 24.2753C21.6871 19.9291 22.0002 15.25 22.0002 15.25Z" stroke="#1E1E1E" style="stroke:#1E1E1E;stroke:color(display-p3 0.1176 0.1176 0.1176);stroke-opacity:1;" stroke-width="1.2" stroke-linecap="round" stroke-linejoin="round"/>
<path d="M26.5254 26.3969L27.8716 31.419" stroke="#1E1E1E" style="stroke:#1E1E1E;stroke:color(display-p3 0.1176 0.1176 0.1176);stroke-opacity:1;" stroke-width="1.2" stroke-linecap="round" stroke-linejoin="round"/>
<path d="M30.25 30.7816L25.75 31.9872" stroke="#1E1E1E" style="stroke:#1E1E1E;stroke:color(display-p3 0.1176 0.1176 0.1176);stroke-opacity:1;" stroke-width="1.2" stroke-linecap="round" stroke-linejoin="round"/>
<path d="M21.9999 13L18.9999 12.25C18.9999 12.25 16.5174 16.1266 15.3531 20.4728C15.2495 20.8539 15.2222 21.2516 15.2727 21.6433C15.3232 22.0349 15.4505 22.4127 15.6474 22.755C15.8442 23.0974 16.1067 23.3975 16.4198 23.6381C16.7328 23.8788 17.0904 24.0552 17.4718 24.1574C17.8532 24.2596 18.2511 24.2855 18.6425 24.2335C19.034 24.1816 19.4113 24.0529 19.7529 23.8548C20.0945 23.6567 20.3937 23.3932 20.6332 23.0792C20.8727 22.7653 21.0479 22.4071 21.1487 22.0253C22.2146 17.6688 21.9999 13 21.9999 13Z" stroke="#1E1E1E" style="stroke:#1E1E1E;stroke:color(display-p3 0.1176 0.1176 0.1176);stroke-opacity:1;" stroke-width="1.2" stroke-linecap="round" stroke-linejoin="round"/>
<path d="M17.4747 24.1469L16.1284 29.169" stroke="#1E1E1E" style="stroke:#1E1E1E;stroke:color(display-p3 0.1176 0.1176 0.1176);stroke-opacity:1;" stroke-width="1.2" stroke-linecap="round" stroke-linejoin="round"/>
<path d="M13.75 28.5316L18.25 29.7372" stroke="#1E1E1E" style="stroke:#1E1E1E;stroke:color(display-p3 0.1176 0.1176 0.1176);stroke-opacity:1;" stroke-width="1.2" stroke-linecap="round" stroke-linejoin="round"/>
<path d="M22.0459 19.1762L26.8693 17.9688" stroke="#1E1E1E" style="stroke:#1E1E1E;stroke:color(display-p3 0.1176 0.1176 0.1176);stroke-opacity:1;" stroke-width="1.2" stroke-linecap="round" stroke-linejoin="round"/>
<path d="M21.8987 17.0997L17.0527 15.8884" stroke="#1E1E1E" style="stroke:#1E1E1E;stroke:color(display-p3 0.1176 0.1176 0.1176);stroke-opacity:1;" stroke-width="1.2" stroke-linecap="round" stroke-linejoin="round"/>
<path d="M28 13.75L29.5 13" stroke="#1E1E1E" style="stroke:#1E1E1E;stroke:color(display-p3 0.1176 0.1176 0.1176);stroke-opacity:1;" stroke-width="1.2" stroke-linecap="round" stroke-linejoin="round"/>
<path d="M29.5 16.75H31" stroke="#1E1E1E" style="stroke:#1E1E1E;stroke:color(display-p3 0.1176 0.1176 0.1176);stroke-opacity:1;" stroke-width="1.2" stroke-linecap="round" stroke-linejoin="round"/>
<path d="M15.25 13L13.75 12.25" stroke="#1E1E1E" style="stroke:#1E1E1E;stroke:color(display-p3 0.1176 0.1176 0.1176);stroke-opacity:1;" stroke-width="1.2" stroke-linecap="round" stroke-linejoin="round"/>
<path d="M13.75 16H12.25" stroke="#1E1E1E" style="stroke:#1E1E1E;stroke:color(display-p3 0.1176 0.1176 0.1176);stroke-opacity:1;" stroke-width="1.2" stroke-linecap="round" stroke-linejoin="round"/>
</g>
<defs>
<clipPath id="clip0_14231_46387">
<rect width="24" height="24" fill="white" style="fill:white;fill-opacity:1;" transform="translate(10 10)"/>
</clipPath>
</defs>
</svg>
