<svg width="24" height="24" viewBox="0 0 24 24" fill="none" xmlns="http://www.w3.org/2000/svg">
<g clip-path="url(#clip0_5942_27211)">
<path d="M16.7103 9.69458C17.2364 9.69458 17.6632 10.1206 17.6634 10.6467C17.6634 11.173 17.2366 11.5999 16.7103 11.5999C16.1842 11.5996 15.7581 11.1729 15.7581 10.6467C15.7583 10.1207 16.1843 9.69479 16.7103 9.69458Z" stroke="white" style="stroke:white;stroke-opacity:1;" stroke-width="0.8"/>
<path d="M6.19791 12.9124C6.19791 12.9124 6.24639 10.311 6.68823 9.64365C7.54278 8.35291 8.45483 7.58044 9.92433 7.09379C11.2686 6.64861 14.25 6.7499 14.25 6.7499" stroke="#FF4040" style="stroke:#FF4040;stroke:color(display-p3 1.0000 0.2500 0.2500);stroke-opacity:1;" stroke-width="1.56" stroke-linecap="round" stroke-linejoin="round"/>
<path d="M20.25 3.75H13.5" stroke="white" style="stroke:white;stroke-opacity:1;" stroke-width="1.56" stroke-linecap="round" stroke-linejoin="round"/>
<path d="M0.75 13.5C0.75 12.9033 0.987053 12.331 1.40901 11.909C1.83097 11.4871 2.40326 11.25 3 11.25" stroke="white" style="stroke:white;stroke-opacity:1;" stroke-width="1.56" stroke-linecap="round" stroke-linejoin="round"/>
<path d="M20.6569 9H21C21.3978 9 21.7794 9.15804 22.0607 9.43934C22.342 9.72065 22.5 10.1022 22.5 10.5V13.5C22.5 13.8978 22.342 14.2794 22.0607 14.5607C21.7794 14.842 21.3978 15 21 15H20.25L18.5531 19.7522C18.5011 19.898 18.4052 20.0241 18.2786 20.1132C18.1521 20.2023 18.001 20.2501 17.8462 20.25H16.6537C16.499 20.2501 16.3479 20.2023 16.2214 20.1132C16.0948 20.0241 15.9989 19.898 15.9469 19.7522L15.5897 18.75H9.16031L8.80312 19.7522C8.75107 19.898 8.65519 20.0241 8.52863 20.1132C8.40208 20.2023 8.25104 20.2501 8.09625 20.25H6.90375C6.74895 20.2501 6.59792 20.2023 6.47136 20.1132C6.3448 20.0241 6.24892 19.898 6.19687 19.7522L4.96875 16.3125C3.70063 14.9317 2.99791 13.1247 3 11.25C3 9.26088 3.79017 7.35322 5.1967 5.9467C6.60322 4.54018 8.51087 3.75 10.5 3.75H13.5C14.9635 3.74958 16.3952 4.17736 17.6186 4.98062C18.842 5.78388 19.8036 6.92753 20.385 8.27063C20.4878 8.50902 20.5786 8.75245 20.6569 9Z" stroke="white" style="stroke:white;stroke-opacity:1;" stroke-width="1.56" stroke-linecap="round" stroke-linejoin="round"/>
</g>
<defs>
<clipPath id="clip0_5942_27211">
<rect width="24" height="24" fill="white" style="fill:white;fill-opacity:1;"/>
</clipPath>
</defs>
</svg>
