<svg width="250" height="250" viewBox="0 0 250 250" fill="none" xmlns="http://www.w3.org/2000/svg">
<rect x="0.75" y="0.75" width="248.5" height="248.5" rx="124.25" fill="#F7F9FC" style="fill:#F7F9FC;fill:color(display-p3 0.9686 0.9765 0.9882);fill-opacity:1;"/>
<rect x="0.75" y="0.75" width="248.5" height="248.5" rx="124.25" stroke="#D4DBE4" style="stroke:#D4DBE4;stroke:color(display-p3 0.8314 0.8588 0.8941);stroke-opacity:1;" stroke-width="1.5"/>
<path d="M157.946 110.757C166.568 96.919 168.757 75.7298 165.351 65.1893C168.865 60.1893 169.73 52.6758 162.73 46.3514C156.838 40.865 143.514 38.6487 133.919 38.5136C117.568 38.3514 102.568 44.5136 102.189 62.2163C95.2704 68.1623 95.2434 85.0271 105.595 98.865C106 100.108 106.487 101.297 107.054 102.46V125.676C74.1893 144.622 72.7298 155.081 72.1893 184.243C72.1353 186.919 73.2974 189.46 75.4055 191.189C92.5407 205.46 106.324 211.487 119.324 211.487C132.892 211.487 145.622 204.892 160.378 194.243C171.595 186.162 178.108 173.027 177.784 159.135C177.27 136.838 181.054 119.568 157.946 110.757ZM155.568 110.676C148.622 121.135 143.838 119.108 144.622 121.324C154.757 149.838 118.27 152.568 105.46 128.892C108.054 127.433 109.433 127.054 109.054 125.973C109.054 94.4055 109.649 105.405 107.243 97.2704C106.973 92.892 107.216 86.5677 110.865 86.1352C117.406 85.2974 116.568 92.4866 117.703 94.2974H119.838C122.027 90.6758 121.784 75.3244 122.351 71.1623C135.568 72.5136 155.027 76.0812 163.811 67.0812C166.649 78.0541 163.784 98.2433 155.568 110.676ZM76.7028 189.622C75.919 188.973 74.1623 187.541 74.2434 183.46C74.6488 160.595 75.0812 153.378 89.892 139.541C99.892 149.027 114.514 163.378 114.568 172.162L120.162 209.324C107.297 209.595 93.6758 203.784 76.7028 189.622ZM173.433 173.649L169.135 145.135C169.108 138.162 159.811 127.676 151 118.892C153.162 117.108 155.108 114.919 156.811 112.46C175.811 119.487 175.784 131.622 175.73 149.838C175.676 160.135 176.433 165.216 173.433 173.649Z" fill="#94A4BB" style="fill:#94A4BB;fill:color(display-p3 0.5804 0.6431 0.7333);fill-opacity:1;"/>
<path d="M136.162 121.27C130.649 120.46 124.216 118.162 118.649 114.216C126.46 122.054 132.811 122.189 136.162 121.27Z" fill="#94A4BB" style="fill:#94A4BB;fill:color(display-p3 0.5804 0.6431 0.7333);fill-opacity:1;"/>
</svg>
