<svg width="21" height="20" viewBox="0 0 21 20" fill="none" xmlns="http://www.w3.org/2000/svg">
<path d="M13.1641 8.75C13.1641 9.41304 12.9007 10.0489 12.4318 10.5178C11.963 10.9866 11.3271 11.25 10.6641 11.25C10.001 11.25 9.36514 10.9866 8.8963 10.5178C8.42745 10.0489 8.16406 9.41304 8.16406 8.75C8.16406 8.08696 8.42745 7.45107 8.8963 6.98223C9.36514 6.51339 10.001 6.25 10.6641 6.25C11.3271 6.25 11.963 6.51339 12.4318 6.98223C12.9007 7.45107 13.1641 8.08696 13.1641 8.75Z" stroke="#9D4141" style="stroke:#9D4141;stroke:color(display-p3 0.6157 0.2549 0.2549);stroke-opacity:1;" stroke-width="1.5" stroke-linecap="round" stroke-linejoin="round"/>
<path d="M16.9141 8.75C16.9141 14.7017 10.6641 18.125 10.6641 18.125C10.6641 18.125 4.41406 14.7017 4.41406 8.75C4.41406 7.0924 5.07254 5.50268 6.24465 4.33058C7.41675 3.15848 9.00646 2.5 10.6641 2.5C12.3217 2.5 13.9114 3.15848 15.0835 4.33058C16.2556 5.50268 16.9141 7.0924 16.9141 8.75Z" stroke="#9D4141" style="stroke:#9D4141;stroke:color(display-p3 0.6157 0.2549 0.2549);stroke-opacity:1;" stroke-width="1.5" stroke-linecap="round" stroke-linejoin="round"/>
</svg>
