<svg width="24" height="24" viewBox="0 0 24 24" fill="none" xmlns="http://www.w3.org/2000/svg">
<path d="M12 8.2499C12.6515 8.24907 13.2987 8.35452 13.9162 8.56208C14.01 8.59532 14.1094 8.60958 14.2088 8.60403C14.3081 8.59847 14.4053 8.57321 14.4948 8.52972C14.5842 8.48623 14.6642 8.42537 14.7299 8.3507C14.7956 8.27602 14.8458 8.18902 14.8776 8.09476C14.9094 8.00049 14.9221 7.90085 14.915 7.80163C14.9078 7.7024 14.8811 7.60559 14.8362 7.51681C14.7913 7.42804 14.7292 7.34908 14.6535 7.28453C14.5778 7.21998 14.4901 7.17113 14.3953 7.14083C13.2001 6.7379 11.9226 6.6429 10.681 6.86462C9.4393 7.08634 8.27362 7.61762 7.29175 8.4093C6.30987 9.20099 5.54351 10.2275 5.06357 11.3939C4.58362 12.5603 4.40559 13.8289 4.54594 15.0824C4.56623 15.2657 4.65335 15.4351 4.79067 15.5583C4.92799 15.6814 5.10587 15.7496 5.29031 15.7499C5.3175 15.7499 5.34562 15.7499 5.37375 15.7452C5.5714 15.7233 5.75226 15.6238 5.87656 15.4685C6.00085 15.3133 6.05841 15.1151 6.03656 14.9174C6.01216 14.6957 5.99995 14.4729 6 14.2499C6.00174 12.6591 6.63444 11.134 7.75928 10.0092C8.88412 8.88433 10.4092 8.25163 12 8.2499ZM21.3506 9.46865C21.3057 9.38099 21.2439 9.30304 21.1689 9.23925C21.0938 9.17546 21.0069 9.12709 20.9132 9.09688C20.8194 9.06667 20.7206 9.05522 20.6224 9.0632C20.5242 9.07117 20.4286 9.0984 20.3409 9.14333C20.2533 9.18827 20.1753 9.25003 20.1115 9.32509C20.0478 9.40016 19.9994 9.48705 19.9692 9.5808C19.939 9.67456 19.9275 9.77335 19.9355 9.87153C19.9435 9.96971 19.9707 10.0654 20.0156 10.153C20.5705 11.2427 20.8982 12.4337 20.9788 13.6538C21.0593 14.8739 20.8911 16.0977 20.4844 17.2508L3.50625 17.2443C3.03256 15.8864 2.8903 14.435 3.09134 13.011C3.29239 11.5871 3.83091 10.2318 4.66201 9.05813C5.49311 7.88449 6.59271 6.92653 7.86916 6.26409C9.1456 5.60165 10.5619 5.25392 12 5.2499H12.0825C13.4793 5.25868 14.8545 5.59588 16.0969 6.23427C16.1848 6.28265 16.2815 6.31289 16.3813 6.32322C16.4811 6.33355 16.5819 6.32375 16.6779 6.29441C16.7738 6.26506 16.8629 6.21676 16.9398 6.15237C17.0168 6.08798 17.08 6.00881 17.1258 5.91954C17.1716 5.83027 17.199 5.73272 17.2064 5.63267C17.2139 5.53261 17.2011 5.43209 17.169 5.33704C17.1369 5.24199 17.086 5.15436 17.0194 5.07933C16.9528 5.00429 16.8718 4.94338 16.7812 4.90021C14.9109 3.9422 12.7961 3.56744 10.7105 3.82442C8.62481 4.08139 6.66424 4.95827 5.08237 6.34162C3.5005 7.72498 2.37011 9.55116 1.83741 11.5839C1.30472 13.6167 1.39423 15.7626 2.09437 17.744C2.1978 18.0375 2.3896 18.2918 2.64343 18.472C2.89725 18.6521 3.20063 18.7492 3.51187 18.7499H20.4872C20.7983 18.7501 21.1017 18.6536 21.3555 18.4737C21.6093 18.2938 21.8009 18.0394 21.9037 17.7458C22.3768 16.4004 22.5717 14.973 22.4766 13.55C22.3815 12.1271 21.9984 10.7392 21.3506 9.46865Z" fill="white" style="fill:white;fill-opacity:1;"/>
<path d="M20.4424 4.49797C20.7195 4.19014 21.1941 4.16523 21.502 4.4423C21.8098 4.71941 21.8347 5.19401 21.5576 5.50188L12.5576 15.5019C12.2805 15.8097 11.8059 15.8346 11.498 15.5575C11.1902 15.2804 11.1653 14.8058 11.4424 14.498L20.4424 4.49797Z" fill="#FF4040" style="fill:#FF4040;fill:color(display-p3 1.0000 0.2510 0.2510);fill-opacity:1;"/>
</svg>
