<svg width="44" height="44" viewBox="0 0 44 44" fill="none" xmlns="http://www.w3.org/2000/svg">
<rect width="44" height="44" rx="22" fill="#D6F1D7" style="fill:#D6F1D7;fill:color(display-p3 0.8411 0.9433 0.8432);fill-opacity:1;"/>
<g clip-path="url(#clip0_3652_20309)">
<path opacity="0.12" d="M19.8503 28L21.3503 30.625C21.4159 30.74 21.5107 30.8356 21.6251 30.9021C21.7395 30.9685 21.8695 31.0036 22.0019 31.0036C22.1342 31.0036 22.2642 30.9685 22.3787 30.9021C22.4931 30.8356 22.5879 30.74 22.6534 30.625L24.1534 28H30.25C30.4489 28 30.6397 27.921 30.7803 27.7803C30.921 27.6397 31 27.4489 31 27.25V15.25C31 15.0511 30.921 14.8603 30.7803 14.7197C30.6397 14.579 30.4489 14.5 30.25 14.5H13.75C13.5511 14.5 13.3603 14.579 13.2197 14.7197C13.079 14.8603 13 15.0511 13 15.25V27.25C13 27.4489 13.079 27.6397 13.2197 27.7803C13.3603 27.921 13.5511 28 13.75 28H19.8503Z" fill="#0F7313" style="fill:#0F7313;fill:color(display-p3 0.0588 0.4510 0.0745);fill-opacity:1;"/>
<path d="M22 22.375C22.6213 22.375 23.125 21.8713 23.125 21.25C23.125 20.6287 22.6213 20.125 22 20.125C21.3787 20.125 20.875 20.6287 20.875 21.25C20.875 21.8713 21.3787 22.375 22 22.375Z" fill="#0F7313" style="fill:#0F7313;fill:color(display-p3 0.0588 0.4510 0.0745);fill-opacity:1;"/>
<path d="M17.875 22.375C18.4963 22.375 19 21.8713 19 21.25C19 20.6287 18.4963 20.125 17.875 20.125C17.2537 20.125 16.75 20.6287 16.75 21.25C16.75 21.8713 17.2537 22.375 17.875 22.375Z" fill="#0F7313" style="fill:#0F7313;fill:color(display-p3 0.0588 0.4510 0.0745);fill-opacity:1;"/>
<path d="M26.125 22.375C26.7463 22.375 27.25 21.8713 27.25 21.25C27.25 20.6287 26.7463 20.125 26.125 20.125C25.5037 20.125 25 20.6287 25 21.25C25 21.8713 25.5037 22.375 26.125 22.375Z" fill="#0F7313" style="fill:#0F7313;fill:color(display-p3 0.0588 0.4510 0.0745);fill-opacity:1;"/>
<path d="M19.8503 28L21.3503 30.625C21.4159 30.74 21.5107 30.8356 21.6251 30.9021C21.7395 30.9685 21.8695 31.0036 22.0019 31.0036C22.1342 31.0036 22.2642 30.9685 22.3787 30.9021C22.4931 30.8356 22.5879 30.74 22.6534 30.625L24.1534 28H30.25C30.4489 28 30.6397 27.921 30.7803 27.7803C30.921 27.6397 31 27.4489 31 27.25V15.25C31 15.0511 30.921 14.8603 30.7803 14.7197C30.6397 14.579 30.4489 14.5 30.25 14.5H13.75C13.5511 14.5 13.3603 14.579 13.2197 14.7197C13.079 14.8603 13 15.0511 13 15.25V27.25C13 27.4489 13.079 27.6397 13.2197 27.7803C13.3603 27.921 13.5511 28 13.75 28H19.8503Z" stroke="#0F7313" style="stroke:#0F7313;stroke:color(display-p3 0.0588 0.4510 0.0745);stroke-opacity:1;" stroke-width="1.5" stroke-linecap="round" stroke-linejoin="round"/>
</g>
<defs>
<clipPath id="clip0_3652_20309">
<rect width="24" height="24" fill="white" style="fill:white;fill-opacity:1;" transform="translate(10 10)"/>
</clipPath>
</defs>
</svg>
