<svg width="40" height="40" viewBox="0 0 40 40" fill="none" xmlns="http://www.w3.org/2000/svg">
<rect width="40" height="40" rx="20" fill="#E6EAF1" style="fill:#E6EAF1;fill:color(display-p3 0.9034 0.9193 0.9433);fill-opacity:1;"/>
<g clip-path="url(#clip0_6912_34287)">
<path opacity="0.2" d="M28.61 14.859L20.36 10.344C20.2496 10.2836 20.1258 10.252 20 10.252C19.8742 10.252 19.7504 10.2836 19.64 10.344L11.39 14.8609C11.2722 14.9253 11.1739 15.0202 11.1053 15.1357C11.0367 15.2511 11.0003 15.3828 11 15.5171V24.4834C11.0003 24.6177 11.0367 24.7494 11.1053 24.8648C11.1739 24.9803 11.2722 25.0752 11.39 25.1396L19.64 29.6565C19.7504 29.7169 19.8742 29.7486 20 29.7486C20.1258 29.7486 20.2496 29.7169 20.36 29.6565L28.61 25.1396C28.7278 25.0752 28.8261 24.9803 28.8947 24.8648C28.9633 24.7494 28.9997 24.6177 29 24.4834V15.5171C29 15.3825 28.9638 15.2504 28.8952 15.1346C28.8266 15.0188 28.7281 14.9236 28.61 14.859ZM20 23.7503C19.2583 23.7503 18.5333 23.5303 17.9166 23.1183C17.2999 22.7062 16.8193 22.1205 16.5355 21.4353C16.2516 20.7501 16.1774 19.9961 16.3221 19.2687C16.4667 18.5412 16.8239 17.873 17.3483 17.3486C17.8728 16.8242 18.541 16.467 19.2684 16.3223C19.9958 16.1776 20.7498 16.2519 21.4351 16.5357C22.1203 16.8195 22.706 17.3002 23.118 17.9169C23.5301 18.5335 23.75 19.2586 23.75 20.0003C23.75 20.9948 23.3549 21.9486 22.6517 22.6519C21.9484 23.3552 20.9946 23.7503 20 23.7503Z" fill="black" style="fill:black;fill-opacity:1;"/>
<path d="M20 23.75C22.0711 23.75 23.75 22.0711 23.75 20C23.75 17.9289 22.0711 16.25 20 16.25C17.9289 16.25 16.25 17.9289 16.25 20C16.25 22.0711 17.9289 23.75 20 23.75Z" stroke="black" style="stroke:black;stroke-opacity:1;" stroke-width="1.2" stroke-linecap="round" stroke-linejoin="round"/>
<path d="M28.61 25.1415L20.36 29.6584C20.2496 29.7188 20.1258 29.7504 20 29.7504C19.8742 29.7504 19.7504 29.7188 19.64 29.6584L11.39 25.1415C11.2722 25.077 11.1739 24.9821 11.1053 24.8667C11.0367 24.7513 11.0003 24.6195 11 24.4853V15.5171C11.0003 15.3828 11.0367 15.2511 11.1053 15.1357C11.1739 15.0202 11.2722 14.9253 11.39 14.8609L19.64 10.344C19.7504 10.2836 19.8742 10.252 20 10.252C20.1258 10.252 20.2496 10.2836 20.36 10.344L28.61 14.8609C28.7278 14.9253 28.8261 15.0202 28.8947 15.1357C28.9633 15.2511 28.9997 15.3828 29 15.5171V24.4834C29 24.618 28.9638 24.7501 28.8952 24.8659C28.8266 24.9817 28.7281 25.0769 28.61 25.1415Z" stroke="black" style="stroke:black;stroke-opacity:1;" stroke-width="1.2" stroke-linecap="round" stroke-linejoin="round"/>
</g>
<defs>
<clipPath id="clip0_6912_34287">
<rect width="24" height="24" fill="white" style="fill:white;fill-opacity:1;" transform="translate(8 8)"/>
</clipPath>
</defs>
</svg>
