<svg width="45" height="44" viewBox="0 0 45 44" fill="none" xmlns="http://www.w3.org/2000/svg">
<rect x="0.5" width="44" height="44" rx="22" fill="#E6EAF1" style="fill:#E6EAF1;fill:color(display-p3 0.9034 0.9193 0.9433);fill-opacity:1;"/>
<g clip-path="url(#clip0_6912_28626)">
<path opacity="0.2" d="M30.61 16.859L22.36 12.344C22.2496 12.2836 22.1258 12.252 22 12.252C21.8742 12.252 21.7504 12.2836 21.64 12.344L13.39 16.8609C13.2722 16.9253 13.1739 17.0202 13.1053 17.1357C13.0367 17.2511 13.0003 17.3828 13 17.5171V26.4834C13.0003 26.6177 13.0367 26.7494 13.1053 26.8648C13.1739 26.9803 13.2722 27.0752 13.39 27.1396L21.64 31.6565C21.7504 31.7169 21.8742 31.7486 22 31.7486C22.1258 31.7486 22.2496 31.7169 22.36 31.6565L30.61 27.1396C30.7278 27.0752 30.8261 26.9803 30.8947 26.8648C30.9633 26.7494 30.9997 26.6177 31 26.4834V17.5171C31 17.3825 30.9638 17.2504 30.8952 17.1346C30.8266 17.0188 30.7281 16.9236 30.61 16.859ZM22 25.7503C21.2583 25.7503 20.5333 25.5303 19.9166 25.1183C19.2999 24.7062 18.8193 24.1205 18.5355 23.4353C18.2516 22.7501 18.1774 21.9961 18.3221 21.2687C18.4667 20.5412 18.8239 19.873 19.3483 19.3486C19.8728 18.8242 20.541 18.467 21.2684 18.3223C21.9958 18.1776 22.7498 18.2519 23.4351 18.5357C24.1203 18.8195 24.706 19.3002 25.118 19.9169C25.5301 20.5335 25.75 21.2586 25.75 22.0003C25.75 22.9948 25.3549 23.9486 24.6517 24.6519C23.9484 25.3552 22.9946 25.7503 22 25.7503Z" fill="black" style="fill:black;fill-opacity:1;"/>
<path d="M22 25.75C24.0711 25.75 25.75 24.0711 25.75 22C25.75 19.9289 24.0711 18.25 22 18.25C19.9289 18.25 18.25 19.9289 18.25 22C18.25 24.0711 19.9289 25.75 22 25.75Z" stroke="black" style="stroke:black;stroke-opacity:1;" stroke-width="1.2" stroke-linecap="round" stroke-linejoin="round"/>
<path d="M30.61 27.1415L22.36 31.6584C22.2496 31.7188 22.1258 31.7504 22 31.7504C21.8742 31.7504 21.7504 31.7188 21.64 31.6584L13.39 27.1415C13.2722 27.077 13.1739 26.9821 13.1053 26.8667C13.0367 26.7513 13.0003 26.6195 13 26.4853V17.5171C13.0003 17.3828 13.0367 17.2511 13.1053 17.1357C13.1739 17.0202 13.2722 16.9253 13.39 16.8609L21.64 12.344C21.7504 12.2836 21.8742 12.252 22 12.252C22.1258 12.252 22.2496 12.2836 22.36 12.344L30.61 16.8609C30.7278 16.9253 30.8261 17.0202 30.8947 17.1357C30.9633 17.2511 30.9997 17.3828 31 17.5171V26.4834C31 26.618 30.9638 26.7501 30.8952 26.8659C30.8266 26.9817 30.7281 27.0769 30.61 27.1415Z" stroke="black" style="stroke:black;stroke-opacity:1;" stroke-width="1.2" stroke-linecap="round" stroke-linejoin="round"/>
</g>
<defs>
<clipPath id="clip0_6912_28626">
<rect width="24" height="24" fill="white" style="fill:white;fill-opacity:1;" transform="translate(10 10)"/>
</clipPath>
</defs>
</svg>
