<svg width="44" height="44" viewBox="0 0 44 44" fill="none" xmlns="http://www.w3.org/2000/svg">
<rect width="44" height="44" rx="22" fill="#E9F1FD" style="fill:#E9F1FD;fill:color(display-p3 0.9137 0.9451 0.9922);fill-opacity:1;"/>
<g clip-path="url(#clip0_14231_46323)">
<path d="M11.5 20.5H32.5" stroke="#1E1E1E" style="stroke:#1E1E1E;stroke:color(display-p3 0.1176 0.1176 0.1176);stroke-opacity:1;" stroke-width="1.2" stroke-linecap="round" stroke-linejoin="round"/>
<path d="M31 26.5V28.75C31 28.9489 30.921 29.1397 30.7803 29.2803C30.6397 29.421 30.4489 29.5 30.25 29.5H28C27.8011 29.5 27.6103 29.421 27.4697 29.2803C27.329 29.1397 27.25 28.9489 27.25 28.75V26.5" stroke="#1E1E1E" style="stroke:#1E1E1E;stroke:color(display-p3 0.1176 0.1176 0.1176);stroke-opacity:1;" stroke-width="1.2" stroke-linecap="round" stroke-linejoin="round"/>
<path d="M16.75 26.5V28.75C16.75 28.9489 16.671 29.1397 16.5303 29.2803C16.3897 29.421 16.1989 29.5 16 29.5H13.75C13.5511 29.5 13.3603 29.421 13.2197 29.2803C13.079 29.1397 13 28.9489 13 28.75V26.5" stroke="#1E1E1E" style="stroke:#1E1E1E;stroke:color(display-p3 0.1176 0.1176 0.1176);stroke-opacity:1;" stroke-width="1.2" stroke-linecap="round" stroke-linejoin="round"/>
<path d="M16 23.5H17.5" stroke="#1E1E1E" style="stroke:#1E1E1E;stroke:color(display-p3 0.1176 0.1176 0.1176);stroke-opacity:1;" stroke-width="1.2" stroke-linecap="round" stroke-linejoin="round"/>
<path d="M26.5 23.5H28" stroke="#1E1E1E" style="stroke:#1E1E1E;stroke:color(display-p3 0.1176 0.1176 0.1176);stroke-opacity:1;" stroke-width="1.2" stroke-linecap="round" stroke-linejoin="round"/>
<path d="M31 20.5L28.1978 14.1953C28.1389 14.0628 28.0428 13.9501 27.9211 13.8711C27.7995 13.7921 27.6576 13.75 27.5125 13.75H16.4875C16.3424 13.75 16.2005 13.7921 16.0789 13.8711C15.9572 13.9501 15.8611 14.0628 15.8022 14.1953L13 20.5V26.5H31V20.5Z" stroke="#1E1E1E" style="stroke:#1E1E1E;stroke:color(display-p3 0.1176 0.1176 0.1176);stroke-opacity:1;" stroke-width="1.2" stroke-linecap="round" stroke-linejoin="round"/>
</g>
<defs>
<clipPath id="clip0_14231_46323">
<rect width="24" height="24" fill="white" style="fill:white;fill-opacity:1;" transform="translate(10 10)"/>
</clipPath>
</defs>
</svg>
