<svg width="24" height="24" viewBox="0 0 24 24" fill="none" xmlns="http://www.w3.org/2000/svg">
<g clip-path="url(#clip0_3315_16357)">
<path d="M12 21C14.3869 21 16.6761 20.0518 18.364 18.364C20.0518 16.6761 21 14.3869 21 12C21 9.61305 20.0518 7.32387 18.364 5.63604C16.6761 3.94821 14.3869 3 12 3V8.25C12.9946 8.25 13.9484 8.64509 14.6517 9.34835C15.3549 10.0516 15.75 11.0054 15.75 12C15.75 12.9946 15.3549 13.9484 14.6517 14.6517C13.9484 15.3549 12.9946 15.75 12 15.75V21Z" fill="#CED9E5" style="fill:#CED9E5;fill:color(display-p3 0.8078 0.8510 0.8980);fill-opacity:1;"/>
<path d="M12 15.75V21" stroke="#1E1E1E" style="stroke:#1E1E1E;stroke:color(display-p3 0.1176 0.1176 0.1176);stroke-opacity:1;" stroke-width="1.2" stroke-linecap="round" stroke-linejoin="round"/>
<path d="M4.20481 7.5C3.21423 9.21574 2.81745 11.2104 3.07601 13.1746C3.33458 15.1388 4.23403 16.9628 5.63488 18.3638C7.03573 19.7647 8.8597 20.6643 10.8239 20.923C12.7881 21.1816 14.7828 20.785 16.4986 19.7945C18.2144 18.804 19.5554 17.2751 20.3137 15.4448C21.072 13.6145 21.2052 11.5851 20.6926 9.67141C20.18 7.75771 19.0503 6.06662 17.4786 4.8604C15.907 3.65418 13.9813 3.00024 12.0001 3V8.25C12.8256 8.25019 13.6279 8.52273 14.2827 9.02537C14.9375 9.52802 15.4082 10.2327 15.6217 11.03C15.8352 11.8274 15.7796 12.673 15.4636 13.4355C15.1476 14.1981 14.5888 14.8352 13.8739 15.2478C13.159 15.6605 12.3279 15.8257 11.5095 15.7179C10.6911 15.6101 9.93114 15.2352 9.34748 14.6515C8.76382 14.0678 8.38907 13.3078 8.28135 12.4894C8.17362 11.671 8.33895 10.8399 8.75168 10.125L4.20481 7.5Z" stroke="#1E1E1E" style="stroke:#1E1E1E;stroke:color(display-p3 0.1176 0.1176 0.1176);stroke-opacity:1;" stroke-width="1.2" stroke-linecap="round" stroke-linejoin="round"/>
<path d="M8.37656 12.9712L3.30469 14.3296" stroke="#1E1E1E" style="stroke:#1E1E1E;stroke:color(display-p3 0.1176 0.1176 0.1176);stroke-opacity:1;" stroke-width="1.2" stroke-linecap="round" stroke-linejoin="round"/>
</g>
<defs>
<clipPath id="clip0_3315_16357">
<rect width="24" height="24" fill="white" style="fill:white;fill-opacity:1;"/>
</clipPath>
</defs>
</svg>
