<svg width="44" height="45" viewBox="0 0 44 45" fill="none" xmlns="http://www.w3.org/2000/svg">
<rect y="0.408691" width="44" height="44" rx="22" fill="#E6EAF1" style="fill:#E6EAF1;fill:color(display-p3 0.9034 0.9193 0.9433);fill-opacity:1;"/>
<g clip-path="url(#clip0_6912_28739)">
<path d="M16.5156 17.1587H27.4806L21.9981 22.4087L16.5156 17.1587Z" fill="#CED9E5" style="fill:#CED9E5;fill:color(display-p3 0.8078 0.8510 0.8980);fill-opacity:1;"/>
<path d="M14.72 15.4393C14.6151 15.3345 14.5436 15.201 14.5145 15.0556C14.4855 14.9102 14.5002 14.7595 14.5568 14.6225C14.6133 14.4854 14.7093 14.3682 14.8324 14.2857C14.9556 14.2031 15.1005 14.1589 15.2487 14.1587H28.7487C28.8971 14.1586 29.0423 14.2025 29.1657 14.2849C29.2891 14.3673 29.3854 14.4845 29.4422 14.6216C29.499 14.7587 29.5139 14.9096 29.4849 15.0552C29.4559 15.2007 29.3844 15.3344 29.2793 15.4393L21.9987 22.4087L14.72 15.4393Z" stroke="#1E1E1E" style="stroke:#1E1E1E;stroke:color(display-p3 0.1176 0.1176 0.1176);stroke-opacity:1;" stroke-width="1.2" stroke-linecap="round" stroke-linejoin="round"/>
<path d="M14.72 29.3781C14.6151 29.4828 14.5436 29.6164 14.5145 29.7618C14.4855 29.9071 14.5002 30.0579 14.5568 30.1949C14.6133 30.332 14.7093 30.4492 14.8324 30.5317C14.9556 30.6142 15.1005 30.6584 15.2487 30.6587H28.7487C28.8971 30.6588 29.0423 30.6149 29.1657 30.5325C29.2891 30.4501 29.3854 30.3329 29.4422 30.1958C29.499 30.0587 29.5139 29.9078 29.4849 29.7622C29.4559 29.6166 29.3844 29.483 29.2793 29.3781L21.9987 22.4087L14.72 29.3781Z" stroke="#1E1E1E" style="stroke:#1E1E1E;stroke:color(display-p3 0.1176 0.1176 0.1176);stroke-opacity:1;" stroke-width="1.2" stroke-linecap="round" stroke-linejoin="round"/>
<path d="M16.5156 17.1587H27.4806" stroke="#1E1E1E" style="stroke:#1E1E1E;stroke:color(display-p3 0.1176 0.1176 0.1176);stroke-opacity:1;" stroke-width="1.2" stroke-linecap="round" stroke-linejoin="round"/>
</g>
<defs>
<clipPath id="clip0_6912_28739">
<rect width="24" height="24" fill="white" style="fill:white;fill-opacity:1;" transform="translate(10 10.4087)"/>
</clipPath>
</defs>
</svg>
