<svg width="24" height="24" viewBox="0 0 24 24" fill="none" xmlns="http://www.w3.org/2000/svg">
<g clip-path="url(#clip0_3315_16249)">
<path d="M6.51758 6.75H17.4826L12.0001 12L6.51758 6.75Z" fill="#CED9E5" style="fill:#CED9E5;fill:color(display-p3 0.8078 0.8510 0.8980);fill-opacity:1;"/>
<path d="M4.72119 5.03063C4.61629 4.92585 4.5448 4.79233 4.51576 4.64694C4.48671 4.50155 4.5014 4.35081 4.55799 4.21377C4.61457 4.07673 4.7105 3.95954 4.83366 3.87699C4.95681 3.79445 5.10168 3.75025 5.24994 3.75H18.7499C18.8984 3.74988 19.0435 3.79381 19.1669 3.87621C19.2904 3.95861 19.3866 4.07579 19.4434 4.21291C19.5002 4.35002 19.5151 4.50092 19.4861 4.64648C19.4571 4.79204 19.3856 4.92573 19.2806 5.03063L11.9999 12L4.72119 5.03063Z" stroke="#1E1E1E" style="stroke:#1E1E1E;stroke:color(display-p3 0.1176 0.1176 0.1176);stroke-opacity:1;" stroke-width="1.2" stroke-linecap="round" stroke-linejoin="round"/>
<path d="M4.72119 18.9694C4.61629 19.0742 4.5448 19.2077 4.51576 19.3531C4.48671 19.4984 4.5014 19.6492 4.55799 19.7862C4.61457 19.9233 4.7105 20.0405 4.83366 20.123C4.95681 20.2056 5.10168 20.2497 5.24994 20.25H18.7499C18.8984 20.2501 19.0435 20.2062 19.1669 20.1238C19.2904 20.0414 19.3866 19.9242 19.4434 19.7871C19.5002 19.65 19.5151 19.4991 19.4861 19.3535C19.4571 19.208 19.3856 19.0743 19.2806 18.9694L11.9999 12L4.72119 18.9694Z" stroke="#1E1E1E" style="stroke:#1E1E1E;stroke:color(display-p3 0.1176 0.1176 0.1176);stroke-opacity:1;" stroke-width="1.2" stroke-linecap="round" stroke-linejoin="round"/>
<path d="M6.51758 6.75H17.4826" stroke="#1E1E1E" style="stroke:#1E1E1E;stroke:color(display-p3 0.1176 0.1176 0.1176);stroke-opacity:1;" stroke-width="1.2" stroke-linecap="round" stroke-linejoin="round"/>
</g>
<defs>
<clipPath id="clip0_3315_16249">
<rect width="24" height="24" fill="white" style="fill:white;fill-opacity:1;"/>
</clipPath>
</defs>
</svg>
