<svg width="24" height="24" viewBox="0 0 24 24" fill="none" xmlns="http://www.w3.org/2000/svg">
<g clip-path="url(#clip0_3362_13498)">
<path d="M6.51746 6.75H17.4825L12 12L6.51746 6.75Z" fill="#9D4141" style="fill:#9D4141;fill:color(display-p3 0.6157 0.2549 0.2549);fill-opacity:1;"/>
<path d="M4.72131 5.03063C4.61641 4.92585 4.54493 4.79233 4.51588 4.64694C4.48683 4.50155 4.50153 4.35081 4.55811 4.21377C4.61469 4.07673 4.71062 3.95954 4.83378 3.87699C4.95694 3.79445 5.1018 3.75025 5.25006 3.75H18.7501C18.8985 3.74988 19.0436 3.79381 19.167 3.87621C19.2905 3.95861 19.3867 4.07579 19.4435 4.21291C19.5003 4.35002 19.5152 4.50092 19.4862 4.64648C19.4572 4.79204 19.3857 4.92573 19.2807 5.03063L12.0001 12L4.72131 5.03063Z" stroke="#9D4141" style="stroke:#9D4141;stroke:color(display-p3 0.6157 0.2549 0.2549);stroke-opacity:1;" stroke-width="1.2" stroke-linecap="round" stroke-linejoin="round"/>
<path d="M4.72131 18.9694C4.61641 19.0742 4.54493 19.2077 4.51588 19.3531C4.48683 19.4984 4.50153 19.6492 4.55811 19.7862C4.61469 19.9233 4.71062 20.0405 4.83378 20.123C4.95694 20.2056 5.1018 20.2497 5.25006 20.25H18.7501C18.8985 20.2501 19.0436 20.2062 19.167 20.1238C19.2905 20.0414 19.3867 19.9242 19.4435 19.7871C19.5003 19.65 19.5152 19.4991 19.4862 19.3535C19.4572 19.208 19.3857 19.0743 19.2807 18.9694L12.0001 12L4.72131 18.9694Z" stroke="#9D4141" style="stroke:#9D4141;stroke:color(display-p3 0.6157 0.2549 0.2549);stroke-opacity:1;" stroke-width="1.2" stroke-linecap="round" stroke-linejoin="round"/>
<path d="M6.51746 6.75H17.4825" stroke="#9D4141" style="stroke:#9D4141;stroke:color(display-p3 0.6157 0.2549 0.2549);stroke-opacity:1;" stroke-width="1.2" stroke-linecap="round" stroke-linejoin="round"/>
</g>
<defs>
<clipPath id="clip0_3362_13498">
<rect width="24" height="24" fill="white" style="fill:white;fill-opacity:1;"/>
</clipPath>
</defs>
</svg>
