<svg width="24" height="24" viewBox="0 0 24 24" fill="none" xmlns="http://www.w3.org/2000/svg">
<g clip-path="url(#clip0_10691_42986)">
<path opacity="0.2" d="M12 9C13.6569 9 15 7.65685 15 6C15 4.34315 13.6569 3 12 3C10.3431 3 9 4.34315 9 6C9 7.65685 10.3431 9 12 9Z" fill="white" style="fill:white;fill-opacity:1;"/>
<path d="M12 9C13.6569 9 15 7.65685 15 6C15 4.34315 13.6569 3 12 3C10.3431 3 9 4.34315 9 6C9 7.65685 10.3431 9 12 9Z" stroke="#E93838" style="stroke:#E93838;stroke:color(display-p3 0.9133 0.2184 0.2184);stroke-opacity:1;" stroke-width="1.5" stroke-linecap="round" stroke-linejoin="round"/>
<path d="M12 9V16.5" stroke="#E93838" style="stroke:#E93838;stroke:color(display-p3 0.9133 0.2184 0.2184);stroke-opacity:1;" stroke-width="1.5" stroke-linecap="round" stroke-linejoin="round"/>
<path d="M15.75 13.0378C19.2731 13.6003 21.75 14.94 21.75 16.5C21.75 18.571 17.385 20.25 12 20.25C6.615 20.25 2.25 18.571 2.25 16.5C2.25 14.94 4.72687 13.6022 8.25 13.0378" stroke="white" style="stroke:white;stroke-opacity:1;" stroke-width="1.5" stroke-linecap="round" stroke-linejoin="round"/>
</g>
<defs>
<clipPath id="clip0_10691_42986">
<rect width="24" height="24" fill="white" style="fill:white;fill-opacity:1;"/>
</clipPath>
</defs>
</svg>
