<svg width="354" height="311" viewBox="0 0 354 311" fill="none" xmlns="http://www.w3.org/2000/svg">
<path d="M0 12C0 5.37258 5.37258 0 12 0H342C348.627 0 354 5.37258 354 12V299C354 305.627 348.627 311 342 311H12C5.37258 311 0 305.627 0 299V12Z" fill="white" style="fill:white;fill-opacity:1;"/>
<path d="M147.14 44C147.007 44 146.92 43.9333 146.88 43.8L146.22 41.66C146.193 41.6067 146.16 41.58 146.12 41.58H140.84C140.8 41.58 140.767 41.6067 140.74 41.66L140.08 43.8C140.04 43.9333 139.953 44 139.82 44H137.82C137.74 44 137.68 43.98 137.64 43.94C137.6 43.8867 137.593 43.8133 137.62 43.72L141.96 30.2C142 30.0667 142.087 30 142.22 30H144.72C144.853 30 144.94 30.0667 144.98 30.2L149.34 43.72C149.353 43.7467 149.36 43.78 149.36 43.82C149.36 43.94 149.287 44 149.14 44H147.14ZM141.36 39.64C141.347 39.72 141.373 39.76 141.44 39.76H145.5C145.58 39.76 145.607 39.72 145.58 39.64L143.52 32.94C143.507 32.8867 143.487 32.86 143.46 32.86C143.433 32.86 143.413 32.8867 143.4 32.94L141.36 39.64ZM151.649 44C151.582 44 151.522 43.98 151.469 43.94C151.429 43.8867 151.409 43.8267 151.409 43.76V30.24C151.409 30.1733 151.429 30.12 151.469 30.08C151.522 30.0267 151.582 30 151.649 30H153.489C153.555 30 153.609 30.0267 153.649 30.08C153.702 30.12 153.729 30.1733 153.729 30.24V43.76C153.729 43.8267 153.702 43.8867 153.649 43.94C153.609 43.98 153.555 44 153.489 44H151.649ZM156.634 44C156.567 44 156.507 43.98 156.454 43.94C156.414 43.8867 156.394 43.8267 156.394 43.76V30.24C156.394 30.1733 156.414 30.12 156.454 30.08C156.507 30.0267 156.567 30 156.634 30H158.474C158.541 30 158.594 30.0267 158.634 30.08C158.687 30.12 158.714 30.1733 158.714 30.24V43.76C158.714 43.8267 158.687 43.8867 158.634 43.94C158.594 43.98 158.541 44 158.474 44H156.634ZM175.003 30C175.07 30 175.123 30.0267 175.163 30.08C175.216 30.12 175.243 30.1733 175.243 30.24V31.78C175.243 31.8467 175.216 31.9067 175.163 31.96C175.123 32 175.07 32.02 175.003 32.02H171.323C171.256 32.02 171.223 32.0533 171.223 32.12V43.76C171.223 43.8267 171.196 43.8867 171.143 43.94C171.103 43.98 171.05 44 170.983 44H169.143C169.076 44 169.016 43.98 168.963 43.94C168.923 43.8867 168.903 43.8267 168.903 43.76V32.12C168.903 32.0533 168.87 32.02 168.803 32.02H165.263C165.196 32.02 165.136 32 165.083 31.96C165.043 31.9067 165.023 31.8467 165.023 31.78V30.24C165.023 30.1733 165.043 30.12 165.083 30.08C165.136 30.0267 165.196 30 165.263 30H175.003ZM180.699 33.62C181.539 33.62 182.279 33.7667 182.919 34.06C183.559 34.3533 184.052 34.76 184.399 35.28C184.745 35.7867 184.919 36.3667 184.919 37.02V43.76C184.919 43.8267 184.892 43.8867 184.839 43.94C184.799 43.98 184.745 44 184.679 44H182.839C182.772 44 182.712 43.98 182.659 43.94C182.619 43.8867 182.599 43.8267 182.599 43.76V43.12C182.599 43.08 182.585 43.06 182.559 43.06C182.532 43.0467 182.505 43.0533 182.479 43.08C181.825 43.8 180.879 44.16 179.639 44.16C178.639 44.16 177.812 43.9067 177.159 43.4C176.519 42.8933 176.199 42.14 176.199 41.14C176.199 40.1 176.559 39.2933 177.279 38.72C178.012 38.1333 179.039 37.84 180.359 37.84H182.499C182.565 37.84 182.599 37.8067 182.599 37.74V37.26C182.599 36.74 182.445 36.34 182.139 36.06C181.832 35.7667 181.372 35.62 180.759 35.62C180.252 35.62 179.839 35.7133 179.519 35.9C179.212 36.0733 179.019 36.32 178.939 36.64C178.899 36.8 178.805 36.8667 178.659 36.84L176.719 36.6C176.652 36.5867 176.592 36.5667 176.539 36.54C176.499 36.5 176.485 36.4533 176.499 36.4C176.605 35.5867 177.039 34.92 177.799 34.4C178.572 33.88 179.539 33.62 180.699 33.62ZM180.219 42.32C180.872 42.32 181.432 42.1467 181.899 41.8C182.365 41.4533 182.599 41.0133 182.599 40.48V39.54C182.599 39.4733 182.565 39.44 182.499 39.44H180.819C180.112 39.44 179.552 39.5733 179.139 39.84C178.739 40.1067 178.539 40.4867 178.539 40.98C178.539 41.4067 178.692 41.74 178.999 41.98C179.319 42.2067 179.725 42.32 180.219 42.32ZM191.248 44.12C190.408 44.12 189.668 44 189.028 43.76C188.401 43.5067 187.914 43.1667 187.568 42.74C187.221 42.3 187.048 41.8133 187.048 41.28V41.1C187.048 41.0333 187.068 40.98 187.108 40.94C187.161 40.8867 187.221 40.86 187.288 40.86H189.048C189.114 40.86 189.168 40.8867 189.208 40.94C189.261 40.98 189.288 41.0333 189.288 41.1V41.14C189.288 41.4733 189.468 41.7667 189.828 42.02C190.201 42.26 190.668 42.38 191.228 42.38C191.761 42.38 192.194 42.2733 192.528 42.06C192.861 41.8333 193.028 41.5533 193.028 41.22C193.028 40.9133 192.888 40.6867 192.608 40.54C192.341 40.38 191.901 40.2133 191.288 40.04L190.528 39.8C189.848 39.6 189.274 39.3867 188.808 39.16C188.341 38.9333 187.948 38.6267 187.628 38.24C187.308 37.84 187.148 37.3333 187.148 36.72C187.148 35.7867 187.514 35.0467 188.248 34.5C188.981 33.94 189.948 33.66 191.148 33.66C191.961 33.66 192.674 33.7933 193.288 34.06C193.901 34.3133 194.374 34.6733 194.708 35.14C195.041 35.5933 195.208 36.1133 195.208 36.7C195.208 36.7667 195.181 36.8267 195.128 36.88C195.088 36.92 195.034 36.94 194.968 36.94H193.268C193.201 36.94 193.141 36.92 193.088 36.88C193.048 36.8267 193.028 36.7667 193.028 36.7C193.028 36.3533 192.854 36.0667 192.508 35.84C192.174 35.6 191.714 35.48 191.128 35.48C190.608 35.48 190.181 35.58 189.848 35.78C189.528 35.9667 189.368 36.2333 189.368 36.58C189.368 36.9 189.521 37.1467 189.828 37.32C190.148 37.48 190.674 37.66 191.408 37.86L191.848 37.98C192.554 38.1933 193.148 38.4133 193.628 38.64C194.108 38.8533 194.514 39.16 194.848 39.56C195.181 39.9467 195.348 40.4533 195.348 41.08C195.348 42.0267 194.974 42.7733 194.228 43.32C193.481 43.8533 192.488 44.12 191.248 44.12ZM197.751 44C197.684 44 197.624 43.98 197.571 43.94C197.531 43.8867 197.511 43.8267 197.511 43.76V30.24C197.511 30.1733 197.531 30.12 197.571 30.08C197.624 30.0267 197.684 30 197.751 30H199.591C199.658 30 199.711 30.0267 199.751 30.08C199.804 30.12 199.831 30.1733 199.831 30.24V37.46C199.831 37.5 199.844 37.5267 199.871 37.54C199.898 37.5533 199.924 37.54 199.951 37.5L203.191 33.92C203.284 33.8267 203.384 33.78 203.491 33.78H205.611C205.744 33.78 205.811 33.8267 205.811 33.92C205.811 33.96 205.791 34.0133 205.751 34.08L203.211 37.12C203.171 37.16 203.164 37.2067 203.191 37.26L206.191 43.72C206.218 43.7733 206.231 43.8133 206.231 43.84C206.231 43.9467 206.158 44 206.011 44H204.071C203.938 44 203.844 43.94 203.791 43.82L201.611 38.74C201.598 38.7133 201.571 38.7 201.531 38.7C201.504 38.6867 201.484 38.6933 201.471 38.72L199.871 40.56C199.844 40.6133 199.831 40.66 199.831 40.7V43.76C199.831 43.8267 199.804 43.8867 199.751 43.94C199.711 43.98 199.658 44 199.591 44H197.751ZM211.804 44.12C210.964 44.12 210.224 44 209.584 43.76C208.957 43.5067 208.471 43.1667 208.124 42.74C207.777 42.3 207.604 41.8133 207.604 41.28V41.1C207.604 41.0333 207.624 40.98 207.664 40.94C207.717 40.8867 207.777 40.86 207.844 40.86H209.604C209.671 40.86 209.724 40.8867 209.764 40.94C209.817 40.98 209.844 41.0333 209.844 41.1V41.14C209.844 41.4733 210.024 41.7667 210.384 42.02C210.757 42.26 211.224 42.38 211.784 42.38C212.317 42.38 212.751 42.2733 213.084 42.06C213.417 41.8333 213.584 41.5533 213.584 41.22C213.584 40.9133 213.444 40.6867 213.164 40.54C212.897 40.38 212.457 40.2133 211.844 40.04L211.084 39.8C210.404 39.6 209.831 39.3867 209.364 39.16C208.897 38.9333 208.504 38.6267 208.184 38.24C207.864 37.84 207.704 37.3333 207.704 36.72C207.704 35.7867 208.071 35.0467 208.804 34.5C209.537 33.94 210.504 33.66 211.704 33.66C212.517 33.66 213.231 33.7933 213.844 34.06C214.457 34.3133 214.931 34.6733 215.264 35.14C215.597 35.5933 215.764 36.1133 215.764 36.7C215.764 36.7667 215.737 36.8267 215.684 36.88C215.644 36.92 215.591 36.94 215.524 36.94H213.824C213.757 36.94 213.697 36.92 213.644 36.88C213.604 36.8267 213.584 36.7667 213.584 36.7C213.584 36.3533 213.411 36.0667 213.064 35.84C212.731 35.6 212.271 35.48 211.684 35.48C211.164 35.48 210.737 35.58 210.404 35.78C210.084 35.9667 209.924 36.2333 209.924 36.58C209.924 36.9 210.077 37.1467 210.384 37.32C210.704 37.48 211.231 37.66 211.964 37.86L212.404 37.98C213.111 38.1933 213.704 38.4133 214.184 38.64C214.664 38.8533 215.071 39.16 215.404 39.56C215.737 39.9467 215.904 40.4533 215.904 41.08C215.904 42.0267 215.531 42.7733 214.784 43.32C214.037 43.8533 213.044 44.12 211.804 44.12Z" fill="black" style="fill:black;fill-opacity:1;"/>
<path d="M70.5 73.5C70.5 66.3203 76.3203 60.5 83.5 60.5H111.5C118.68 60.5 124.5 66.3203 124.5 73.5C124.5 80.6797 118.68 86.5 111.5 86.5H83.5C76.3203 86.5 70.5 80.6797 70.5 73.5Z" stroke="#9D4141" style="stroke:#9D4141;stroke:color(display-p3 0.6157 0.2549 0.2549);stroke-opacity:1;"/>
<path d="M77.696 78H76.2983L79.4389 69.2727H80.9602L84.1009 78H82.7031L80.2358 70.858H80.1676L77.696 78ZM77.9304 74.5824H82.4645V75.6903H77.9304V74.5824ZM86.533 69.2727V78H85.2589V69.2727H86.533ZM89.5213 69.2727V78H88.2472V69.2727H89.5213ZM97.4666 71.4545V72.4773H93.8913V71.4545H97.4666ZM94.8501 69.8864H96.1243V76.0781C96.1243 76.3253 96.1612 76.5114 96.2351 76.6364C96.3089 76.7585 96.4041 76.8423 96.5206 76.8878C96.6399 76.9304 96.7692 76.9517 96.9084 76.9517C97.0107 76.9517 97.1001 76.9446 97.1768 76.9304C97.2536 76.9162 97.3132 76.9048 97.3558 76.8963L97.5859 77.9489C97.5121 77.9773 97.407 78.0057 97.2706 78.0341C97.1342 78.0653 96.9638 78.0824 96.7592 78.0852C96.424 78.0909 96.1115 78.0312 95.8217 77.9062C95.532 77.7812 95.2976 77.5881 95.1186 77.3267C94.9396 77.0653 94.8501 76.7372 94.8501 76.3423V69.8864ZM98.8761 78V71.4545H100.15V78H98.8761ZM99.5195 70.4446C99.2979 70.4446 99.1076 70.3707 98.9485 70.223C98.7923 70.0724 98.7141 69.8935 98.7141 69.6861C98.7141 69.4759 98.7923 69.2969 98.9485 69.1491C99.1076 68.9986 99.2979 68.9233 99.5195 68.9233C99.7411 68.9233 99.93 68.9986 100.086 69.1491C100.245 69.2969 100.325 69.4759 100.325 69.6861C100.325 69.8935 100.245 70.0724 100.086 70.223C99.93 70.3707 99.7411 70.4446 99.5195 70.4446ZM101.864 78V71.4545H103.087V72.5199H103.168C103.305 72.1591 103.528 71.8778 103.837 71.6761C104.147 71.4716 104.518 71.3693 104.95 71.3693C105.387 71.3693 105.754 71.4716 106.049 71.6761C106.347 71.8807 106.567 72.1619 106.71 72.5199H106.778C106.934 72.1705 107.183 71.892 107.523 71.6847C107.864 71.4744 108.271 71.3693 108.742 71.3693C109.336 71.3693 109.82 71.5554 110.195 71.9276C110.573 72.2997 110.762 72.8608 110.762 73.6108V78H109.488V73.7301C109.488 73.2869 109.367 72.9659 109.126 72.767C108.884 72.5682 108.596 72.4688 108.261 72.4688C107.846 72.4688 107.523 72.5966 107.293 72.8523C107.063 73.1051 106.948 73.4304 106.948 73.8281V78H105.678V73.6491C105.678 73.294 105.567 73.0085 105.346 72.7926C105.124 72.5767 104.836 72.4688 104.481 72.4688C104.239 72.4688 104.016 72.5327 103.812 72.6605C103.61 72.7855 103.447 72.9602 103.322 73.1847C103.2 73.4091 103.138 73.669 103.138 73.9645V78H101.864ZM115.291 78.1321C114.646 78.1321 114.091 77.9943 113.625 77.7188C113.162 77.4403 112.804 77.0497 112.551 76.5469C112.301 76.0412 112.176 75.4489 112.176 74.7699C112.176 74.0994 112.301 73.5085 112.551 72.9972C112.804 72.4858 113.156 72.0866 113.608 71.7997C114.062 71.5128 114.593 71.3693 115.201 71.3693C115.571 71.3693 115.929 71.4304 116.275 71.5526C116.622 71.6747 116.933 71.8665 117.208 72.1278C117.484 72.3892 117.701 72.7287 117.86 73.1463C118.02 73.5611 118.099 74.0653 118.099 74.6591V75.1108H112.896V74.1562H116.85C116.85 73.821 116.782 73.5241 116.646 73.2656C116.51 73.0043 116.318 72.7983 116.071 72.6477C115.826 72.4972 115.539 72.4219 115.21 72.4219C114.852 72.4219 114.539 72.5099 114.272 72.6861C114.008 72.8594 113.804 73.0866 113.659 73.3679C113.517 73.6463 113.446 73.9489 113.446 74.2756V75.0213C113.446 75.4588 113.522 75.831 113.676 76.1378C113.832 76.4446 114.049 76.679 114.328 76.8409C114.606 77 114.931 77.0795 115.304 77.0795C115.545 77.0795 115.765 77.0455 115.964 76.9773C116.163 76.9062 116.335 76.8011 116.48 76.6619C116.625 76.5227 116.735 76.3509 116.812 76.1463L118.018 76.3636C117.922 76.7187 117.748 77.0298 117.498 77.2969C117.251 77.5611 116.94 77.767 116.565 77.9148C116.193 78.0597 115.768 78.1321 115.291 78.1321Z" fill="#A11E1E" style="fill:#A11E1E;fill:color(display-p3 0.6316 0.1158 0.1158);fill-opacity:1;"/>
<rect x="133.5" y="60.5" width="65" height="26" rx="13" stroke="#C3CEDF" style="stroke:#C3CEDF;stroke:color(display-p3 0.7641 0.8085 0.8749);stroke-opacity:1;"/>
<path d="M139.528 70.4062V69.2727H146.283V70.4062H143.56V78H142.247V70.4062H139.528ZM148.947 74.1136V78H147.673V69.2727H148.93V72.5199H149.011C149.164 72.1676 149.399 71.8878 149.714 71.6804C150.029 71.473 150.441 71.3693 150.95 71.3693C151.399 71.3693 151.791 71.4616 152.126 71.6463C152.464 71.831 152.725 72.1065 152.91 72.473C153.098 72.8366 153.191 73.2912 153.191 73.8366V78H151.917V73.9901C151.917 73.5099 151.794 73.1378 151.547 72.8736C151.299 72.6065 150.956 72.473 150.515 72.473C150.214 72.473 149.944 72.5369 149.706 72.6648C149.47 72.7926 149.284 72.9801 149.147 73.2273C149.014 73.4716 148.947 73.767 148.947 74.1136ZM154.892 78V71.4545H156.166V78H154.892ZM155.535 70.4446C155.314 70.4446 155.123 70.3707 154.964 70.223C154.808 70.0724 154.73 69.8935 154.73 69.6861C154.73 69.4759 154.808 69.2969 154.964 69.1491C155.123 68.9986 155.314 68.9233 155.535 68.9233C155.757 68.9233 155.946 68.9986 156.102 69.1491C156.261 69.2969 156.341 69.4759 156.341 69.6861C156.341 69.8935 156.261 70.0724 156.102 70.223C155.946 70.3707 155.757 70.4446 155.535 70.4446ZM162.785 73.0526L161.63 73.2571C161.582 73.1094 161.505 72.9687 161.4 72.8352C161.298 72.7017 161.158 72.5923 160.982 72.5071C160.806 72.4219 160.586 72.3793 160.322 72.3793C159.961 72.3793 159.66 72.4602 159.418 72.6222C159.177 72.7812 159.056 72.9872 159.056 73.2401C159.056 73.4588 159.137 73.6349 159.299 73.7685C159.461 73.902 159.722 74.0114 160.083 74.0966L161.123 74.3352C161.725 74.4744 162.174 74.6889 162.469 74.9787C162.765 75.2685 162.913 75.6449 162.913 76.108C162.913 76.5 162.799 76.8494 162.572 77.1562C162.347 77.4602 162.033 77.6989 161.63 77.8722C161.229 78.0455 160.765 78.1321 160.237 78.1321C159.504 78.1321 158.906 77.9759 158.442 77.6634C157.979 77.348 157.695 76.9006 157.59 76.321L158.822 76.1335C158.898 76.4545 159.056 76.6974 159.295 76.8622C159.533 77.0241 159.844 77.1051 160.228 77.1051C160.646 77.1051 160.979 77.0185 161.229 76.8452C161.479 76.669 161.604 76.4545 161.604 76.2017C161.604 75.9972 161.528 75.8253 161.374 75.6861C161.224 75.5469 160.992 75.4418 160.68 75.3707L159.572 75.1278C158.961 74.9886 158.509 74.767 158.217 74.4631C157.927 74.1591 157.782 73.7741 157.782 73.3082C157.782 72.9219 157.89 72.5838 158.106 72.294C158.322 72.0043 158.62 71.7784 159.001 71.6165C159.381 71.4517 159.817 71.3693 160.309 71.3693C161.016 71.3693 161.573 71.5227 161.979 71.8295C162.386 72.1335 162.654 72.5412 162.785 73.0526ZM166.918 69.2727H168.414L170.694 73.2401H170.788L173.067 69.2727H174.563L171.397 74.5739V78H170.085V74.5739L166.918 69.2727ZM177.447 78.1321C176.802 78.1321 176.247 77.9943 175.781 77.7188C175.318 77.4403 174.96 77.0497 174.707 76.5469C174.457 76.0412 174.332 75.4489 174.332 74.7699C174.332 74.0994 174.457 73.5085 174.707 72.9972C174.96 72.4858 175.312 72.0866 175.764 71.7997C176.218 71.5128 176.75 71.3693 177.358 71.3693C177.727 71.3693 178.085 71.4304 178.431 71.5526C178.778 71.6747 179.089 71.8665 179.365 72.1278C179.64 72.3892 179.858 72.7287 180.017 73.1463C180.176 73.5611 180.255 74.0653 180.255 74.6591V75.1108H175.052V74.1562H179.007C179.007 73.821 178.939 73.5241 178.802 73.2656C178.666 73.0043 178.474 72.7983 178.227 72.6477C177.983 72.4972 177.696 72.4219 177.366 72.4219C177.008 72.4219 176.696 72.5099 176.429 72.6861C176.164 72.8594 175.96 73.0866 175.815 73.3679C175.673 73.6463 175.602 73.9489 175.602 74.2756V75.0213C175.602 75.4588 175.679 75.831 175.832 76.1378C175.988 76.4446 176.206 76.679 176.484 76.8409C176.762 77 177.088 77.0795 177.46 77.0795C177.701 77.0795 177.922 77.0455 178.12 76.9773C178.319 76.9062 178.491 76.8011 178.636 76.6619C178.781 76.5227 178.892 76.3509 178.968 76.1463L180.174 76.3636C180.078 76.7187 179.904 77.0298 179.654 77.2969C179.407 77.5611 179.096 77.767 178.721 77.9148C178.349 78.0597 177.924 78.1321 177.447 78.1321ZM183.574 78.1449C183.159 78.1449 182.784 78.0682 182.449 77.9148C182.114 77.7585 181.848 77.5327 181.652 77.2372C181.459 76.9418 181.362 76.5795 181.362 76.1506C181.362 75.7812 181.433 75.4773 181.575 75.2386C181.717 75 181.909 74.8111 182.151 74.6719C182.392 74.5327 182.662 74.4276 182.96 74.3565C183.259 74.2855 183.563 74.2315 183.872 74.1946C184.264 74.1491 184.582 74.1122 184.827 74.0838C185.071 74.0526 185.249 74.0028 185.359 73.9347C185.47 73.8665 185.526 73.7557 185.526 73.6023V73.5724C185.526 73.2003 185.42 72.9119 185.21 72.7074C185.003 72.5028 184.693 72.4006 184.281 72.4006C183.852 72.4006 183.514 72.4957 183.267 72.6861C183.023 72.8736 182.854 73.0824 182.76 73.3125L181.562 73.0398C181.705 72.642 181.912 72.321 182.185 72.0767C182.46 71.8295 182.777 71.6506 183.135 71.5398C183.493 71.4261 183.869 71.3693 184.264 71.3693C184.526 71.3693 184.803 71.4006 185.095 71.4631C185.391 71.5227 185.666 71.6335 185.922 71.7955C186.18 71.9574 186.392 72.1889 186.557 72.4901C186.722 72.7884 186.804 73.1761 186.804 73.6534V78H185.56V77.1051H185.509C185.426 77.2699 185.303 77.4318 185.138 77.5909C184.973 77.75 184.761 77.8821 184.503 77.9872C184.244 78.0923 183.935 78.1449 183.574 78.1449ZM183.851 77.1222C184.203 77.1222 184.504 77.0526 184.754 76.9134C185.007 76.7741 185.199 76.5923 185.33 76.3679C185.463 76.1406 185.53 75.8977 185.53 75.6392V74.7955C185.484 74.8409 185.396 74.8835 185.266 74.9233C185.138 74.9602 184.991 74.9929 184.827 75.0213C184.662 75.0469 184.501 75.071 184.345 75.0938C184.189 75.1136 184.058 75.1307 183.953 75.1449C183.706 75.1761 183.48 75.2287 183.276 75.3026C183.074 75.3764 182.912 75.483 182.79 75.6222C182.67 75.7585 182.611 75.9403 182.611 76.1676C182.611 76.483 182.727 76.7216 182.96 76.8835C183.193 77.0426 183.49 77.1222 183.851 77.1222ZM188.501 78V71.4545H189.733V72.4943H189.801C189.92 72.142 190.13 71.8651 190.431 71.6634C190.735 71.4588 191.079 71.3565 191.463 71.3565C191.542 71.3565 191.636 71.3594 191.744 71.3651C191.855 71.3707 191.941 71.3778 192.004 71.3864V72.6051C191.953 72.5909 191.862 72.5753 191.731 72.5582C191.6 72.5384 191.47 72.5284 191.339 72.5284C191.038 72.5284 190.77 72.5923 190.534 72.7202C190.301 72.8452 190.116 73.0199 189.98 73.2443C189.843 73.4659 189.775 73.7187 189.775 74.0028V78H188.501Z" fill="#747F8E" style="fill:#747F8E;fill:color(display-p3 0.4559 0.4969 0.5583);fill-opacity:1;"/>
<rect x="207.5" y="60.5" width="76" height="26" rx="13" stroke="#C3CEDF" style="stroke:#C3CEDF;stroke:color(display-p3 0.7641 0.8085 0.8749);stroke-opacity:1;"/>
<path d="M213.528 70.4062V69.2727H220.283V70.4062H217.56V78H216.247V70.4062H213.528ZM222.947 74.1136V78H221.673V69.2727H222.93V72.5199H223.011C223.164 72.1676 223.399 71.8878 223.714 71.6804C224.029 71.473 224.441 71.3693 224.95 71.3693C225.399 71.3693 225.791 71.4616 226.126 71.6463C226.464 71.831 226.725 72.1065 226.91 72.473C227.098 72.8366 227.191 73.2912 227.191 73.8366V78H225.917V73.9901C225.917 73.5099 225.794 73.1378 225.547 72.8736C225.299 72.6065 224.956 72.473 224.515 72.473C224.214 72.473 223.944 72.5369 223.706 72.6648C223.47 72.7926 223.284 72.9801 223.147 73.2273C223.014 73.4716 222.947 73.767 222.947 74.1136ZM228.892 78V71.4545H230.166V78H228.892ZM229.535 70.4446C229.314 70.4446 229.123 70.3707 228.964 70.223C228.808 70.0724 228.73 69.8935 228.73 69.6861C228.73 69.4759 228.808 69.2969 228.964 69.1491C229.123 68.9986 229.314 68.9233 229.535 68.9233C229.757 68.9233 229.946 68.9986 230.102 69.1491C230.261 69.2969 230.341 69.4759 230.341 69.6861C230.341 69.8935 230.261 70.0724 230.102 70.223C229.946 70.3707 229.757 70.4446 229.535 70.4446ZM236.785 73.0526L235.63 73.2571C235.582 73.1094 235.505 72.9687 235.4 72.8352C235.298 72.7017 235.158 72.5923 234.982 72.5071C234.806 72.4219 234.586 72.3793 234.322 72.3793C233.961 72.3793 233.66 72.4602 233.418 72.6222C233.177 72.7812 233.056 72.9872 233.056 73.2401C233.056 73.4588 233.137 73.6349 233.299 73.7685C233.461 73.902 233.722 74.0114 234.083 74.0966L235.123 74.3352C235.725 74.4744 236.174 74.6889 236.469 74.9787C236.765 75.2685 236.913 75.6449 236.913 76.108C236.913 76.5 236.799 76.8494 236.572 77.1562C236.347 77.4602 236.033 77.6989 235.63 77.8722C235.229 78.0455 234.765 78.1321 234.237 78.1321C233.504 78.1321 232.906 77.9759 232.442 77.6634C231.979 77.348 231.695 76.9006 231.59 76.321L232.822 76.1335C232.898 76.4545 233.056 76.6974 233.295 76.8622C233.533 77.0241 233.844 77.1051 234.228 77.1051C234.646 77.1051 234.979 77.0185 235.229 76.8452C235.479 76.669 235.604 76.4545 235.604 76.2017C235.604 75.9972 235.528 75.8253 235.374 75.6861C235.224 75.5469 234.992 75.4418 234.68 75.3707L233.572 75.1278C232.961 74.9886 232.509 74.767 232.217 74.4631C231.927 74.1591 231.782 73.7741 231.782 73.3082C231.782 72.9219 231.89 72.5838 232.106 72.294C232.322 72.0043 232.62 71.7784 233.001 71.6165C233.381 71.4517 233.817 71.3693 234.309 71.3693C235.016 71.3693 235.573 71.5227 235.979 71.8295C236.386 72.1335 236.654 72.5412 236.785 73.0526ZM241.592 69.2727H243.19L245.968 76.0568H246.07L248.849 69.2727H250.447V78H249.194V71.6847H249.113L246.539 77.9872H245.499L242.925 71.6804H242.844V78H241.592V69.2727ZM255.016 78.1321C254.402 78.1321 253.867 77.9915 253.409 77.7102C252.952 77.429 252.597 77.0355 252.344 76.5298C252.091 76.0241 251.965 75.4332 251.965 74.7571C251.965 74.0781 252.091 73.4844 252.344 72.9759C252.597 72.4673 252.952 72.0724 253.409 71.7912C253.867 71.5099 254.402 71.3693 255.016 71.3693C255.63 71.3693 256.165 71.5099 256.623 71.7912C257.08 72.0724 257.435 72.4673 257.688 72.9759C257.941 73.4844 258.067 74.0781 258.067 74.7571C258.067 75.4332 257.941 76.0241 257.688 76.5298C257.435 77.0355 257.08 77.429 256.623 77.7102C256.165 77.9915 255.63 78.1321 255.016 78.1321ZM255.02 77.0625C255.418 77.0625 255.748 76.9574 256.009 76.7472C256.27 76.5369 256.463 76.2571 256.588 75.9077C256.716 75.5582 256.78 75.1733 256.78 74.7528C256.78 74.3352 256.716 73.9517 256.588 73.6023C256.463 73.25 256.27 72.9673 256.009 72.7543C255.748 72.5412 255.418 72.4347 255.02 72.4347C254.62 72.4347 254.287 72.5412 254.023 72.7543C253.762 72.9673 253.567 73.25 253.439 73.6023C253.314 73.9517 253.252 74.3352 253.252 74.7528C253.252 75.1733 253.314 75.5582 253.439 75.9077C253.567 76.2571 253.762 76.5369 254.023 76.7472C254.287 76.9574 254.62 77.0625 255.02 77.0625ZM260.763 74.1136V78H259.489V71.4545H260.712V72.5199H260.793C260.944 72.1733 261.18 71.8949 261.501 71.6847C261.825 71.4744 262.232 71.3693 262.724 71.3693C263.17 71.3693 263.56 71.4631 263.896 71.6506C264.231 71.8352 264.491 72.1108 264.675 72.4773C264.86 72.8437 264.952 73.2969 264.952 73.8366V78H263.678V73.9901C263.678 73.5156 263.555 73.1449 263.308 72.8778C263.06 72.608 262.721 72.473 262.289 72.473C261.994 72.473 261.731 72.5369 261.501 72.6648C261.273 72.7926 261.093 72.9801 260.96 73.2273C260.829 73.4716 260.763 73.767 260.763 74.1136ZM269.717 71.4545V72.4773H266.141V71.4545H269.717ZM267.1 69.8864H268.374V76.0781C268.374 76.3253 268.411 76.5114 268.485 76.6364C268.559 76.7585 268.654 76.8423 268.771 76.8878C268.89 76.9304 269.019 76.9517 269.158 76.9517C269.261 76.9517 269.35 76.9446 269.427 76.9304C269.504 76.9162 269.563 76.9048 269.606 76.8963L269.836 77.9489C269.762 77.9773 269.657 78.0057 269.521 78.0341C269.384 78.0653 269.214 78.0824 269.009 78.0852C268.674 78.0909 268.362 78.0312 268.072 77.9062C267.782 77.7812 267.548 77.5881 267.369 77.3267C267.19 77.0653 267.1 76.7372 267.1 76.3423V69.8864ZM272.541 74.1136V78H271.267V69.2727H272.524V72.5199H272.605C272.758 72.1676 272.993 71.8878 273.308 71.6804C273.623 71.473 274.035 71.3693 274.544 71.3693C274.993 71.3693 275.385 71.4616 275.72 71.6463C276.058 71.831 276.319 72.1065 276.504 72.473C276.691 72.8366 276.785 73.2912 276.785 73.8366V78H275.511V73.9901C275.511 73.5099 275.387 73.1378 275.14 72.8736C274.893 72.6065 274.549 72.473 274.109 72.473C273.808 72.473 273.538 72.5369 273.299 72.6648C273.064 72.7926 272.877 72.9801 272.741 73.2273C272.608 73.4716 272.541 73.767 272.541 74.1136Z" fill="#747F8E" style="fill:#747F8E;fill:color(display-p3 0.4559 0.4969 0.5583);fill-opacity:1;"/>
<rect x="20" y="131" width="166" height="8" rx="4" fill="#C2C2C2" style="fill:#C2C2C2;fill:color(display-p3 0.7616 0.7616 0.7616);fill-opacity:1;"/>
<rect x="192" y="131" width="60" height="8" rx="4" fill="#EAEEF4" style="fill:#EAEEF4;fill:color(display-p3 0.9168 0.9320 0.9549);fill-opacity:1;"/>
<rect x="192" y="131" width="60" height="8" rx="4" fill="#77C16C" style="fill:#77C16C;fill:color(display-p3 0.4667 0.7569 0.4235);fill-opacity:1;"/>
<rect x="258" y="131" width="47" height="8" rx="4" fill="#276BC0" style="fill:#276BC0;fill:color(display-p3 0.1529 0.4196 0.7529);fill-opacity:1;"/>
<rect x="311" y="131" width="21" height="8" rx="4" fill="#D24E60" style="fill:#D24E60;fill:color(display-p3 0.8235 0.3059 0.3765);fill-opacity:1;"/>
<rect x="20" y="185.5" width="12" height="12" rx="6" fill="#77C16C" style="fill:#77C16C;fill:color(display-p3 0.4667 0.7569 0.4235);fill-opacity:1;"/>
<path d="M42.4659 186.818V197H41.233V186.818H42.4659ZM45.9522 192.406V197H44.7789V189.364H45.9125V190.557H46.0119C46.1909 190.169 46.4627 189.857 46.8272 189.622C47.1918 189.384 47.6625 189.264 48.2392 189.264C48.7562 189.264 49.2086 189.37 49.5964 189.582C49.9842 189.791 50.2858 190.109 50.5012 190.537C50.7167 190.961 50.8244 191.498 50.8244 192.148V197H49.6511V192.227C49.6511 191.627 49.4953 191.16 49.1838 190.825C48.8722 190.487 48.4447 190.318 47.9011 190.318C47.5266 190.318 47.1918 190.399 46.8968 190.562C46.6052 190.724 46.3748 190.961 46.2058 191.273C46.0368 191.584 45.9522 191.962 45.9522 192.406ZM56.9059 199.864V189.364H58.0394V190.577H58.1786C58.2648 190.444 58.3841 190.275 58.5366 190.07C58.6924 189.861 58.9144 189.675 59.2028 189.513C59.4944 189.347 59.8888 189.264 60.386 189.264C61.029 189.264 61.5958 189.425 62.0863 189.746C62.5768 190.068 62.9596 190.524 63.2347 191.114C63.5098 191.704 63.6474 192.4 63.6474 193.202C63.6474 194.01 63.5098 194.711 63.2347 195.305C62.9596 195.895 62.5785 196.352 62.0913 196.677C61.604 196.998 61.0423 197.159 60.4059 197.159C59.9154 197.159 59.5226 197.078 59.2276 196.915C58.9326 196.75 58.7056 196.562 58.5465 196.354C58.3874 196.142 58.2648 195.966 58.1786 195.827H58.0792V199.864H56.9059ZM58.0593 193.182C58.0593 193.759 58.1438 194.267 58.3129 194.708C58.4819 195.146 58.7288 195.489 59.0536 195.737C59.3784 195.982 59.7762 196.105 60.2468 196.105C60.7373 196.105 61.1467 195.976 61.4748 195.717C61.8062 195.455 62.0548 195.104 62.2205 194.663C62.3896 194.219 62.4741 193.725 62.4741 193.182C62.4741 192.645 62.3912 192.161 62.2255 191.73C62.0631 191.296 61.8162 190.953 61.4847 190.701C61.1566 190.446 60.744 190.318 60.2468 190.318C59.7695 190.318 59.3685 190.439 59.0437 190.681C58.7189 190.92 58.4736 191.254 58.3079 191.685C58.1422 192.113 58.0593 192.612 58.0593 193.182ZM65.4371 197V189.364H66.5707V190.517H66.6502C66.7894 190.139 67.0413 189.833 67.4059 189.597C67.7705 189.362 68.1815 189.244 68.6388 189.244C68.725 189.244 68.8327 189.246 68.962 189.249C69.0913 189.253 69.189 189.258 69.2553 189.264V190.457C69.2156 190.447 69.1244 190.433 68.9819 190.413C68.8427 190.389 68.6952 190.378 68.5394 190.378C68.1682 190.378 67.8368 190.456 67.5451 190.612C67.2567 190.764 67.0281 190.976 66.859 191.248C66.6933 191.516 66.6104 191.823 66.6104 192.168V197H65.4371ZM73.516 197.159C72.8266 197.159 72.2217 196.995 71.7013 196.667C71.1843 196.339 70.7799 195.88 70.4883 195.29C70.1999 194.7 70.0558 194.01 70.0558 193.222C70.0558 192.426 70.1999 191.732 70.4883 191.138C70.7799 190.545 71.1843 190.085 71.7013 189.756C72.2217 189.428 72.8266 189.264 73.516 189.264C74.2054 189.264 74.8086 189.428 75.3256 189.756C75.846 190.085 76.2504 190.545 76.5387 191.138C76.8304 191.732 76.9762 192.426 76.9762 193.222C76.9762 194.01 76.8304 194.7 76.5387 195.29C76.2504 195.88 75.846 196.339 75.3256 196.667C74.8086 196.995 74.2054 197.159 73.516 197.159ZM73.516 196.105C74.0397 196.105 74.4705 195.971 74.8086 195.702C75.1467 195.434 75.3969 195.081 75.5593 194.643C75.7217 194.206 75.8029 193.732 75.8029 193.222C75.8029 192.711 75.7217 192.236 75.5593 191.795C75.3969 191.354 75.1467 190.998 74.8086 190.726C74.4705 190.454 74.0397 190.318 73.516 190.318C72.9923 190.318 72.5614 190.454 72.2234 190.726C71.8853 190.998 71.6351 191.354 71.4727 191.795C71.3103 192.236 71.229 192.711 71.229 193.222C71.229 193.732 71.3103 194.206 71.4727 194.643C71.6351 195.081 71.8853 195.434 72.2234 195.702C72.5614 195.971 72.9923 196.105 73.516 196.105ZM81.8496 200.023C81.2828 200.023 80.7956 199.95 80.388 199.804C79.9803 199.661 79.6406 199.473 79.3688 199.237C79.1003 199.005 78.8865 198.757 78.7275 198.491L79.6621 197.835C79.7682 197.974 79.9024 198.134 80.0648 198.312C80.2272 198.495 80.4493 198.652 80.731 198.785C81.016 198.921 81.3889 198.989 81.8496 198.989C82.4661 198.989 82.9748 198.839 83.3759 198.541C83.7769 198.243 83.9775 197.776 83.9775 197.139V195.588H83.878C83.7918 195.727 83.6692 195.9 83.5101 196.105C83.3543 196.307 83.129 196.488 82.834 196.647C82.5423 196.803 82.1479 196.881 81.6507 196.881C81.0343 196.881 80.4808 196.735 79.9902 196.443C79.503 196.152 79.1169 195.727 78.8319 195.17C78.5501 194.614 78.4093 193.937 78.4093 193.142C78.4093 192.36 78.5468 191.679 78.8219 191.099C79.097 190.515 79.4798 190.065 79.9703 189.746C80.4609 189.425 81.0276 189.264 81.6706 189.264C82.1678 189.264 82.5622 189.347 82.8539 189.513C83.1489 189.675 83.3742 189.861 83.53 190.07C83.6891 190.275 83.8117 190.444 83.8979 190.577H84.0172V189.364H85.1507V197.219C85.1507 197.875 85.0016 198.409 84.7033 198.82C84.4083 199.234 84.0106 199.537 83.5101 199.729C83.013 199.925 82.4595 200.023 81.8496 200.023ZM81.8098 195.827C82.2805 195.827 82.6782 195.719 83.003 195.504C83.3278 195.288 83.5748 194.978 83.7438 194.574C83.9128 194.17 83.9973 193.686 83.9973 193.122C83.9973 192.572 83.9145 192.086 83.7488 191.665C83.583 191.245 83.3378 190.915 83.013 190.676C82.6882 190.437 82.2871 190.318 81.8098 190.318C81.3127 190.318 80.8984 190.444 80.5669 190.696C80.2388 190.948 79.9919 191.286 79.8262 191.71C79.6638 192.134 79.5826 192.605 79.5826 193.122C79.5826 193.652 79.6654 194.121 79.8311 194.529C80.0002 194.933 80.2488 195.252 80.5769 195.484C80.9083 195.712 81.3193 195.827 81.8098 195.827ZM87.2985 197V189.364H88.432V190.517H88.5115C88.6507 190.139 88.9026 189.833 89.2672 189.597C89.6318 189.362 90.0428 189.244 90.5002 189.244C90.5864 189.244 90.6941 189.246 90.8233 189.249C90.9526 189.253 91.0504 189.258 91.1167 189.264V190.457C91.0769 190.447 90.9857 190.433 90.8432 190.413C90.704 190.389 90.5565 190.378 90.4007 190.378C90.0295 190.378 89.6981 190.456 89.4064 190.612C89.1181 190.764 88.8894 190.976 88.7203 191.248C88.5546 191.516 88.4718 191.823 88.4718 192.168V197H87.2985ZM95.4767 197.159C94.7409 197.159 94.1062 196.997 93.5726 196.672C93.0423 196.344 92.633 195.886 92.3446 195.3C92.0596 194.71 91.9171 194.024 91.9171 193.241C91.9171 192.459 92.0596 191.77 92.3446 191.173C92.633 190.573 93.034 190.106 93.5478 189.771C94.0648 189.433 94.668 189.264 95.3574 189.264C95.7551 189.264 96.1479 189.33 96.5357 189.463C96.9235 189.596 97.2765 189.811 97.5946 190.109C97.9128 190.404 98.1664 190.795 98.3553 191.283C98.5442 191.77 98.6387 192.37 98.6387 193.082V193.58H92.7523V192.565H97.4455C97.4455 192.134 97.3593 191.75 97.187 191.412C97.0179 191.074 96.776 190.807 96.4611 190.612C96.1496 190.416 95.7817 190.318 95.3574 190.318C94.8901 190.318 94.4857 190.434 94.1444 190.666C93.8063 190.895 93.5461 191.193 93.3638 191.561C93.1815 191.929 93.0904 192.323 93.0904 192.744V193.42C93.0904 193.997 93.1898 194.486 93.3887 194.887C93.5908 195.285 93.8709 195.588 94.2289 195.797C94.5868 196.002 95.0028 196.105 95.4767 196.105C95.785 196.105 96.0634 196.062 96.312 195.976C96.5639 195.886 96.781 195.754 96.9632 195.578C97.1455 195.399 97.2864 195.177 97.3858 194.912L98.5194 195.23C98.4 195.615 98.1995 195.953 97.9178 196.244C97.6361 196.533 97.2881 196.758 96.8738 196.92C96.4595 197.08 95.9938 197.159 95.4767 197.159ZM105.833 191.074L104.779 191.372C104.712 191.196 104.615 191.026 104.485 190.86C104.359 190.691 104.187 190.552 103.968 190.442C103.749 190.333 103.469 190.278 103.128 190.278C102.661 190.278 102.271 190.386 101.96 190.602C101.651 190.814 101.497 191.084 101.497 191.412C101.497 191.704 101.603 191.934 101.816 192.103C102.028 192.272 102.359 192.413 102.81 192.526L103.943 192.804C104.626 192.97 105.135 193.223 105.47 193.565C105.804 193.903 105.972 194.339 105.972 194.872C105.972 195.31 105.846 195.701 105.594 196.045C105.345 196.39 104.997 196.662 104.55 196.861C104.102 197.06 103.582 197.159 102.989 197.159C102.21 197.159 101.565 196.99 101.055 196.652C100.544 196.314 100.221 195.82 100.085 195.17L101.199 194.892C101.305 195.303 101.506 195.611 101.801 195.817C102.099 196.022 102.488 196.125 102.969 196.125C103.516 196.125 103.95 196.009 104.271 195.777C104.596 195.542 104.759 195.26 104.759 194.932C104.759 194.667 104.666 194.445 104.48 194.266C104.295 194.083 104.01 193.947 103.625 193.858L102.352 193.56C101.653 193.394 101.139 193.137 100.811 192.789C100.486 192.438 100.324 191.999 100.324 191.472C100.324 191.041 100.445 190.66 100.687 190.328C100.932 189.997 101.265 189.737 101.686 189.548C102.11 189.359 102.591 189.264 103.128 189.264C103.884 189.264 104.477 189.43 104.908 189.761C105.342 190.093 105.65 190.53 105.833 191.074ZM113.147 191.074L112.093 191.372C112.027 191.196 111.929 191.026 111.8 190.86C111.674 190.691 111.501 190.552 111.283 190.442C111.064 190.333 110.784 190.278 110.442 190.278C109.975 190.278 109.586 190.386 109.274 190.602C108.966 190.814 108.812 191.084 108.812 191.412C108.812 191.704 108.918 191.934 109.13 192.103C109.342 192.272 109.674 192.413 110.124 192.526L111.258 192.804C111.941 192.97 112.449 193.223 112.784 193.565C113.119 193.903 113.286 194.339 113.286 194.872C113.286 195.31 113.16 195.701 112.908 196.045C112.66 196.39 112.312 196.662 111.864 196.861C111.417 197.06 110.897 197.159 110.303 197.159C109.524 197.159 108.88 196.99 108.369 196.652C107.859 196.314 107.536 195.82 107.4 195.17L108.513 194.892C108.62 195.303 108.82 195.611 109.115 195.817C109.413 196.022 109.803 196.125 110.283 196.125C110.83 196.125 111.264 196.009 111.586 195.777C111.911 195.542 112.073 195.26 112.073 194.932C112.073 194.667 111.98 194.445 111.795 194.266C111.609 194.083 111.324 193.947 110.94 193.858L109.667 193.56C108.968 193.394 108.454 193.137 108.126 192.789C107.801 192.438 107.638 191.999 107.638 191.472C107.638 191.041 107.759 190.66 108.001 190.328C108.247 189.997 108.58 189.737 109.001 189.548C109.425 189.359 109.906 189.264 110.442 189.264C111.198 189.264 111.791 189.43 112.222 189.761C112.656 190.093 112.965 190.53 113.147 191.074Z" fill="black" style="fill:black;fill-opacity:1;"/>
<path d="M329.42 197.139C328.707 197.139 328.077 197.017 327.531 196.771C326.987 196.526 326.561 196.188 326.253 195.757C325.945 195.326 325.792 194.836 325.795 194.286C325.792 193.855 325.88 193.459 326.059 193.097C326.241 192.733 326.488 192.429 326.8 192.188C327.111 191.942 327.459 191.786 327.844 191.72V191.661C327.337 191.538 326.931 191.266 326.626 190.845C326.321 190.424 326.17 189.94 326.173 189.393C326.17 188.873 326.308 188.409 326.586 188.001C326.868 187.59 327.254 187.267 327.744 187.032C328.235 186.797 328.793 186.679 329.42 186.679C330.04 186.679 330.593 186.798 331.08 187.037C331.571 187.272 331.957 187.595 332.239 188.006C332.52 188.414 332.663 188.876 332.666 189.393C332.663 189.94 332.507 190.424 332.199 190.845C331.891 191.266 331.49 191.538 330.996 191.661V191.72C331.377 191.786 331.72 191.942 332.025 192.188C332.333 192.429 332.578 192.733 332.761 193.097C332.946 193.459 333.041 193.855 333.044 194.286C333.041 194.836 332.885 195.326 332.577 195.757C332.268 196.188 331.841 196.526 331.294 196.771C330.75 197.017 330.126 197.139 329.42 197.139ZM329.42 195.881C329.841 195.881 330.205 195.812 330.513 195.673C330.822 195.53 331.06 195.333 331.229 195.081C331.398 194.826 331.485 194.527 331.488 194.186C331.485 193.831 331.392 193.518 331.21 193.246C331.031 192.975 330.787 192.761 330.479 192.605C330.17 192.449 329.817 192.371 329.42 192.371C329.019 192.371 328.662 192.449 328.351 192.605C328.039 192.761 327.794 192.975 327.615 193.246C327.436 193.518 327.348 193.831 327.352 194.186C327.348 194.527 327.429 194.826 327.595 195.081C327.764 195.333 328.004 195.53 328.316 195.673C328.628 195.812 328.996 195.881 329.42 195.881ZM329.42 191.143C329.758 191.143 330.058 191.076 330.32 190.94C330.581 190.804 330.787 190.615 330.936 190.373C331.089 190.131 331.166 189.848 331.17 189.523C331.166 189.205 331.09 188.926 330.941 188.688C330.795 188.449 330.591 188.265 330.33 188.136C330.068 188.003 329.764 187.937 329.42 187.937C329.068 187.937 328.76 188.003 328.495 188.136C328.233 188.265 328.029 188.449 327.884 188.688C327.738 188.926 327.666 189.205 327.67 189.523C327.666 189.848 327.739 190.131 327.888 190.373C328.038 190.615 328.243 190.804 328.505 190.94C328.77 191.076 329.075 191.143 329.42 191.143Z" fill="black" style="fill:black;fill-opacity:1;"/>
<rect x="20" y="214.5" width="12" height="12" rx="6" fill="#276BC0" style="fill:#276BC0;fill:color(display-p3 0.1529 0.4196 0.7529);fill-opacity:1;"/>
<path d="M41.233 226V215.818H44.7926C45.5019 215.818 46.0869 215.941 46.5476 216.186C47.0083 216.428 47.3513 216.754 47.5767 217.165C47.8021 217.573 47.9148 218.026 47.9148 218.523C47.9148 218.96 47.8369 219.321 47.6811 219.607C47.5286 219.892 47.3265 220.117 47.0746 220.283C46.826 220.448 46.5559 220.571 46.2642 220.651V220.75C46.5758 220.77 46.889 220.879 47.2038 221.078C47.5187 221.277 47.7822 221.562 47.9943 221.933C48.2064 222.304 48.3125 222.759 48.3125 223.295C48.3125 223.806 48.1965 224.265 47.9645 224.673C47.7325 225.08 47.3662 225.403 46.8658 225.642C46.3653 225.881 45.714 226 44.9119 226H41.233ZM42.4659 224.906H44.9119C45.7173 224.906 46.2891 224.75 46.6271 224.439C46.9685 224.124 47.1392 223.743 47.1392 223.295C47.1392 222.951 47.0514 222.633 46.8757 222.341C46.7 222.046 46.4498 221.811 46.125 221.635C45.8002 221.456 45.4157 221.366 44.9716 221.366H42.4659V224.906ZM42.4659 220.293H44.7528C45.1241 220.293 45.4588 220.22 45.7571 220.074C46.0587 219.928 46.2973 219.723 46.473 219.457C46.652 219.192 46.7415 218.881 46.7415 218.523C46.7415 218.075 46.5857 217.696 46.2741 217.384C45.9626 217.069 45.4688 216.912 44.7926 216.912H42.4659V220.293ZM53.381 226.159C52.6452 226.159 52.0105 225.997 51.4769 225.672C50.9466 225.344 50.5373 224.886 50.2489 224.3C49.9639 223.71 49.8214 223.024 49.8214 222.241C49.8214 221.459 49.9639 220.77 50.2489 220.173C50.5373 219.573 50.9383 219.106 51.4521 218.771C51.9691 218.433 52.5723 218.264 53.2617 218.264C53.6594 218.264 54.0522 218.33 54.44 218.463C54.8278 218.596 55.1808 218.811 55.4989 219.109C55.8171 219.404 56.0707 219.795 56.2596 220.283C56.4485 220.77 56.543 221.37 56.543 222.082V222.58H50.6566V221.565H55.3498C55.3498 221.134 55.2636 220.75 55.0913 220.412C54.9222 220.074 54.6803 219.807 54.3654 219.612C54.0539 219.416 53.686 219.318 53.2617 219.318C52.7944 219.318 52.39 219.434 52.0487 219.666C51.7106 219.895 51.4504 220.193 51.2681 220.561C51.0858 220.929 50.9947 221.323 50.9947 221.744V222.42C50.9947 222.997 51.0941 223.486 51.293 223.887C51.4951 224.285 51.7752 224.588 52.1332 224.797C52.4911 225.002 52.9071 225.105 53.381 225.105C53.6893 225.105 53.9677 225.062 54.2163 224.976C54.4682 224.886 54.6853 224.754 54.8675 224.578C55.0498 224.399 55.1907 224.177 55.2901 223.912L56.4237 224.23C56.3043 224.615 56.1038 224.953 55.8221 225.244C55.5404 225.533 55.1924 225.758 54.7781 225.92C54.3638 226.08 53.8981 226.159 53.381 226.159ZM58.3278 226V218.364H59.5011V226H58.3278ZM58.9244 217.091C58.6957 217.091 58.4985 217.013 58.3327 216.857C58.1703 216.701 58.0891 216.514 58.0891 216.295C58.0891 216.077 58.1703 215.889 58.3327 215.734C58.4985 215.578 58.6957 215.5 58.9244 215.5C59.1531 215.5 59.3486 215.578 59.511 215.734C59.6767 215.889 59.7596 216.077 59.7596 216.295C59.7596 216.514 59.6767 216.701 59.511 216.857C59.3486 217.013 59.1531 217.091 58.9244 217.091ZM62.8233 221.406V226H61.65V218.364H62.7836V219.557H62.883C63.062 219.169 63.3337 218.857 63.6983 218.622C64.0629 218.384 64.5336 218.264 65.1103 218.264C65.6273 218.264 66.0797 218.37 66.4675 218.582C66.8553 218.791 67.1569 219.109 67.3723 219.537C67.5878 219.961 67.6955 220.498 67.6955 221.148V226H66.5222V221.227C66.5222 220.627 66.3664 220.16 66.0549 219.825C65.7433 219.487 65.3158 219.318 64.7722 219.318C64.3977 219.318 64.0629 219.399 63.7679 219.562C63.4763 219.724 63.2459 219.961 63.0769 220.273C62.9078 220.584 62.8233 220.962 62.8233 221.406ZM72.9219 229.023C72.3551 229.023 71.8679 228.95 71.4602 228.804C71.0526 228.661 70.7128 228.473 70.4411 228.237C70.1726 228.005 69.9588 227.757 69.7997 227.491L70.7344 226.835C70.8404 226.974 70.9747 227.134 71.1371 227.312C71.2995 227.495 71.5215 227.652 71.8033 227.785C72.0883 227.921 72.4612 227.989 72.9219 227.989C73.5384 227.989 74.0471 227.839 74.4482 227.541C74.8492 227.243 75.0497 226.776 75.0497 226.139V224.588H74.9503C74.8641 224.727 74.7415 224.9 74.5824 225.105C74.4266 225.307 74.2012 225.488 73.9062 225.647C73.6146 225.803 73.2202 225.881 72.723 225.881C72.1065 225.881 71.553 225.735 71.0625 225.443C70.5753 225.152 70.1892 224.727 69.9041 224.17C69.6224 223.614 69.4815 222.937 69.4815 222.142C69.4815 221.36 69.6191 220.679 69.8942 220.099C70.1693 219.515 70.5521 219.065 71.0426 218.746C71.5331 218.425 72.0999 218.264 72.7429 218.264C73.2401 218.264 73.6345 218.347 73.9261 218.513C74.2211 218.675 74.4465 218.861 74.6023 219.07C74.7614 219.275 74.884 219.444 74.9702 219.577H75.0895V218.364H76.223V226.219C76.223 226.875 76.0739 227.409 75.7756 227.82C75.4806 228.234 75.0829 228.537 74.5824 228.729C74.0852 228.925 73.5317 229.023 72.9219 229.023ZM72.8821 224.827C73.3527 224.827 73.7505 224.719 74.0753 224.504C74.4001 224.288 74.647 223.978 74.8161 223.574C74.9851 223.17 75.0696 222.686 75.0696 222.122C75.0696 221.572 74.9867 221.086 74.821 220.665C74.6553 220.245 74.41 219.915 74.0852 219.676C73.7604 219.437 73.3594 219.318 72.8821 219.318C72.3849 219.318 71.9706 219.444 71.6392 219.696C71.3111 219.948 71.0642 220.286 70.8984 220.71C70.736 221.134 70.6548 221.605 70.6548 222.122C70.6548 222.652 70.7377 223.121 70.9034 223.529C71.0724 223.933 71.321 224.252 71.6491 224.484C71.9806 224.712 72.3916 224.827 72.8821 224.827ZM82.4673 226V215.818H85.9077C86.7031 215.818 87.3561 215.954 87.8665 216.226C88.3769 216.494 88.7547 216.864 89 217.335C89.2453 217.805 89.3679 218.34 89.3679 218.94C89.3679 219.54 89.2453 220.072 89 220.536C88.7547 221 88.3786 221.365 87.8714 221.63C87.3643 221.892 86.7164 222.023 85.9276 222.023H83.1435V220.909H85.8878C86.4313 220.909 86.8688 220.83 87.2003 220.67C87.535 220.511 87.777 220.286 87.9261 219.994C88.0786 219.699 88.1548 219.348 88.1548 218.94C88.1548 218.533 88.0786 218.176 87.9261 217.871C87.7737 217.567 87.5301 217.331 87.1953 217.165C86.8606 216.996 86.4181 216.912 85.8679 216.912H83.7003V226H82.4673ZM87.2599 221.426L89.7656 226H88.3338L85.8679 221.426H87.2599ZM94.383 226.159C93.6472 226.159 93.0125 225.997 92.4789 225.672C91.9486 225.344 91.5392 224.886 91.2509 224.3C90.9658 223.71 90.8233 223.024 90.8233 222.241C90.8233 221.459 90.9658 220.77 91.2509 220.173C91.5392 219.573 91.9403 219.106 92.454 218.771C92.9711 218.433 93.5743 218.264 94.2637 218.264C94.6614 218.264 95.0542 218.33 95.4419 218.463C95.8297 218.596 96.1827 218.811 96.5009 219.109C96.8191 219.404 97.0726 219.795 97.2615 220.283C97.4505 220.77 97.5449 221.37 97.5449 222.082V222.58H91.6586V221.565H96.3517C96.3517 221.134 96.2656 220.75 96.0932 220.412C95.9242 220.074 95.6822 219.807 95.3674 219.612C95.0558 219.416 94.6879 219.318 94.2637 219.318C93.7963 219.318 93.392 219.434 93.0506 219.666C92.7125 219.895 92.4524 220.193 92.2701 220.561C92.0878 220.929 91.9966 221.323 91.9966 221.744V222.42C91.9966 222.997 92.0961 223.486 92.2949 223.887C92.4971 224.285 92.7772 224.588 93.1351 224.797C93.4931 225.002 93.909 225.105 94.383 225.105C94.6912 225.105 94.9696 225.062 95.2182 224.976C95.4701 224.886 95.6872 224.754 95.8695 224.578C96.0518 224.399 96.1926 224.177 96.2921 223.912L97.4256 224.23C97.3063 224.615 97.1058 224.953 96.824 225.244C96.5423 225.533 96.1943 225.758 95.78 225.92C95.3657 226.08 94.9 226.159 94.383 226.159ZM105.342 218.364L102.518 226H101.325L98.5007 218.364H99.7734L101.881 224.449H101.961L104.069 218.364H105.342ZM106.89 226V218.364H108.064V226H106.89ZM107.487 217.091C107.258 217.091 107.061 217.013 106.895 216.857C106.733 216.701 106.652 216.514 106.652 216.295C106.652 216.077 106.733 215.889 106.895 215.734C107.061 215.578 107.258 215.5 107.487 215.5C107.716 215.5 107.911 215.578 108.074 215.734C108.239 215.889 108.322 216.077 108.322 216.295C108.322 216.514 108.239 216.701 108.074 216.857C107.911 217.013 107.716 217.091 107.487 217.091ZM113.414 226.159C112.678 226.159 112.044 225.997 111.51 225.672C110.98 225.344 110.57 224.886 110.282 224.3C109.997 223.71 109.855 223.024 109.855 222.241C109.855 221.459 109.997 220.77 110.282 220.173C110.57 219.573 110.972 219.106 111.485 218.771C112.002 218.433 112.606 218.264 113.295 218.264C113.693 218.264 114.085 218.33 114.473 218.463C114.861 218.596 115.214 218.811 115.532 219.109C115.85 219.404 116.104 219.795 116.293 220.283C116.482 220.77 116.576 221.37 116.576 222.082V222.58H110.69V221.565H115.383C115.383 221.134 115.297 220.75 115.124 220.412C114.955 220.074 114.713 219.807 114.399 219.612C114.087 219.416 113.719 219.318 113.295 219.318C112.828 219.318 112.423 219.434 112.082 219.666C111.744 219.895 111.484 220.193 111.301 220.561C111.119 220.929 111.028 221.323 111.028 221.744V222.42C111.028 222.997 111.127 223.486 111.326 223.887C111.528 224.285 111.808 224.588 112.166 224.797C112.524 225.002 112.94 225.105 113.414 225.105C113.722 225.105 114.001 225.062 114.249 224.976C114.501 224.886 114.718 224.754 114.901 224.578C115.083 224.399 115.224 224.177 115.323 223.912L116.457 224.23C116.338 224.615 116.137 224.953 115.855 225.244C115.574 225.533 115.226 225.758 114.811 225.92C114.397 226.08 113.931 226.159 113.414 226.159ZM120.091 226L117.764 218.364H118.997L120.648 224.21H120.727L122.358 218.364H123.611L125.222 224.19H125.301L126.952 218.364H128.185L125.858 226H124.705L123.034 220.134H122.915L121.244 226H120.091ZM132.678 226.159C131.942 226.159 131.307 225.997 130.774 225.672C130.243 225.344 129.834 224.886 129.546 224.3C129.261 223.71 129.118 223.024 129.118 222.241C129.118 221.459 129.261 220.77 129.546 220.173C129.834 219.573 130.235 219.106 130.749 218.771C131.266 218.433 131.869 218.264 132.559 218.264C132.956 218.264 133.349 218.33 133.737 218.463C134.125 218.596 134.478 218.811 134.796 219.109C135.114 219.404 135.368 219.795 135.556 220.283C135.745 220.77 135.84 221.37 135.84 222.082V222.58H129.953V221.565H134.647C134.647 221.134 134.56 220.75 134.388 220.412C134.219 220.074 133.977 219.807 133.662 219.612C133.351 219.416 132.983 219.318 132.559 219.318C132.091 219.318 131.687 219.434 131.346 219.666C131.007 219.895 130.747 220.193 130.565 220.561C130.383 220.929 130.292 221.323 130.292 221.744V222.42C130.292 222.997 130.391 223.486 130.59 223.887C130.792 224.285 131.072 224.588 131.43 224.797C131.788 225.002 132.204 225.105 132.678 225.105C132.986 225.105 133.265 225.062 133.513 224.976C133.765 224.886 133.982 224.754 134.164 224.578C134.347 224.399 134.488 224.177 134.587 223.912L135.721 224.23C135.601 224.615 135.401 224.953 135.119 225.244C134.837 225.533 134.489 225.758 134.075 225.92C133.661 226.08 133.195 226.159 132.678 226.159ZM140.508 226.159C139.872 226.159 139.31 225.998 138.823 225.677C138.336 225.352 137.954 224.895 137.679 224.305C137.404 223.711 137.267 223.01 137.267 222.202C137.267 221.4 137.404 220.704 137.679 220.114C137.954 219.524 138.337 219.068 138.828 218.746C139.318 218.425 139.885 218.264 140.528 218.264C141.025 218.264 141.418 218.347 141.706 218.513C141.998 218.675 142.22 218.861 142.373 219.07C142.528 219.275 142.649 219.444 142.735 219.577H142.835V215.818H144.008V226H142.875V224.827H142.735C142.649 224.966 142.527 225.142 142.368 225.354C142.208 225.562 141.981 225.75 141.686 225.915C141.391 226.078 140.999 226.159 140.508 226.159ZM140.667 225.105C141.138 225.105 141.536 224.982 141.86 224.737C142.185 224.489 142.432 224.146 142.601 223.708C142.77 223.267 142.855 222.759 142.855 222.182C142.855 221.612 142.772 221.113 142.606 220.685C142.44 220.254 142.195 219.92 141.87 219.681C141.546 219.439 141.145 219.318 140.667 219.318C140.17 219.318 139.756 219.446 139.424 219.701C139.096 219.953 138.849 220.296 138.684 220.73C138.521 221.161 138.44 221.645 138.44 222.182C138.44 222.725 138.523 223.219 138.689 223.663C138.858 224.104 139.106 224.455 139.434 224.717C139.766 224.976 140.177 225.105 140.667 225.105Z" fill="black" style="fill:black;fill-opacity:1;"/>
<path d="M329.42 226.139C328.707 226.139 328.077 226.017 327.531 225.771C326.987 225.526 326.561 225.188 326.253 224.757C325.945 224.326 325.792 223.836 325.795 223.286C325.792 222.855 325.88 222.459 326.059 222.097C326.241 221.733 326.488 221.429 326.8 221.188C327.111 220.942 327.459 220.786 327.844 220.72V220.661C327.337 220.538 326.931 220.266 326.626 219.845C326.321 219.424 326.17 218.94 326.173 218.393C326.17 217.873 326.308 217.409 326.586 217.001C326.868 216.59 327.254 216.267 327.744 216.032C328.235 215.797 328.793 215.679 329.42 215.679C330.04 215.679 330.593 215.798 331.08 216.037C331.571 216.272 331.957 216.595 332.239 217.006C332.52 217.414 332.663 217.876 332.666 218.393C332.663 218.94 332.507 219.424 332.199 219.845C331.891 220.266 331.49 220.538 330.996 220.661V220.72C331.377 220.786 331.72 220.942 332.025 221.188C332.333 221.429 332.578 221.733 332.761 222.097C332.946 222.459 333.041 222.855 333.044 223.286C333.041 223.836 332.885 224.326 332.577 224.757C332.268 225.188 331.841 225.526 331.294 225.771C330.75 226.017 330.126 226.139 329.42 226.139ZM329.42 224.881C329.841 224.881 330.205 224.812 330.513 224.673C330.822 224.53 331.06 224.333 331.229 224.081C331.398 223.826 331.485 223.527 331.488 223.186C331.485 222.831 331.392 222.518 331.21 222.246C331.031 221.975 330.787 221.761 330.479 221.605C330.17 221.449 329.817 221.371 329.42 221.371C329.019 221.371 328.662 221.449 328.351 221.605C328.039 221.761 327.794 221.975 327.615 222.246C327.436 222.518 327.348 222.831 327.352 223.186C327.348 223.527 327.429 223.826 327.595 224.081C327.764 224.333 328.004 224.53 328.316 224.673C328.628 224.812 328.996 224.881 329.42 224.881ZM329.42 220.143C329.758 220.143 330.058 220.076 330.32 219.94C330.581 219.804 330.787 219.615 330.936 219.373C331.089 219.131 331.166 218.848 331.17 218.523C331.166 218.205 331.09 217.926 330.941 217.688C330.795 217.449 330.591 217.265 330.33 217.136C330.068 217.003 329.764 216.937 329.42 216.937C329.068 216.937 328.76 217.003 328.495 217.136C328.233 217.265 328.029 217.449 327.884 217.688C327.738 217.926 327.666 218.205 327.67 218.523C327.666 218.848 327.739 219.131 327.888 219.373C328.038 219.615 328.243 219.804 328.505 219.94C328.77 220.076 329.075 220.143 329.42 220.143Z" fill="black" style="fill:black;fill-opacity:1;"/>
<rect x="20" y="243.5" width="12" height="12" rx="6" fill="#D24E60" style="fill:#D24E60;fill:color(display-p3 0.8235 0.3059 0.3765);fill-opacity:1;"/>
<path d="M49.8239 249.909C49.8239 250.983 49.63 251.911 49.2422 252.693C48.8544 253.475 48.3224 254.079 47.6463 254.503C46.9702 254.927 46.1979 255.139 45.3295 255.139C44.4612 255.139 43.6889 254.927 43.0128 254.503C42.3366 254.079 41.8047 253.475 41.4169 252.693C41.0291 251.911 40.8352 250.983 40.8352 249.909C40.8352 248.835 41.0291 247.907 41.4169 247.125C41.8047 246.343 42.3366 245.74 43.0128 245.315C43.6889 244.891 44.4612 244.679 45.3295 244.679C46.1979 244.679 46.9702 244.891 47.6463 245.315C48.3224 245.74 48.8544 246.343 49.2422 247.125C49.63 247.907 49.8239 248.835 49.8239 249.909ZM48.6307 249.909C48.6307 249.027 48.4832 248.283 48.1882 247.677C47.8965 247.07 47.5005 246.611 47 246.3C46.5028 245.988 45.946 245.832 45.3295 245.832C44.7131 245.832 44.1546 245.988 43.6541 246.3C43.157 246.611 42.7609 247.07 42.4659 247.677C42.1742 248.283 42.0284 249.027 42.0284 249.909C42.0284 250.791 42.1742 251.535 42.4659 252.141C42.7609 252.748 43.157 253.207 43.6541 253.518C44.1546 253.83 44.7131 253.986 45.3295 253.986C45.946 253.986 46.5028 253.83 47 253.518C47.5005 253.207 47.8965 252.748 48.1882 252.141C48.4832 251.535 48.6307 250.791 48.6307 249.909ZM52.9112 250.406V255H51.7379V247.364H52.8714V248.557H52.9709C53.1499 248.169 53.4216 247.857 53.7862 247.622C54.1508 247.384 54.6214 247.264 55.1982 247.264C55.7152 247.264 56.1676 247.37 56.5554 247.582C56.9432 247.791 57.2448 248.109 57.4602 248.537C57.6757 248.961 57.7834 249.498 57.7834 250.148V255H56.6101V250.227C56.6101 249.627 56.4543 249.16 56.1428 248.825C55.8312 248.487 55.4036 248.318 54.8601 248.318C54.4856 248.318 54.1508 248.399 53.8558 248.562C53.5642 248.724 53.3338 248.961 53.1648 249.273C52.9957 249.584 52.9112 249.962 52.9112 250.406ZM65.0382 250.406V255H63.8649V244.818H65.0382V248.557H65.1376C65.3166 248.162 65.585 247.849 65.943 247.617C66.3043 247.382 66.7849 247.264 67.3848 247.264C67.9051 247.264 68.3609 247.369 68.752 247.577C69.1431 247.783 69.4463 248.099 69.6618 248.527C69.8805 248.951 69.9899 249.491 69.9899 250.148V255H68.8166V250.227C68.8166 249.621 68.6592 249.152 68.3443 248.82C68.0327 248.486 67.6002 248.318 67.0467 248.318C66.6622 248.318 66.3175 248.399 66.0126 248.562C65.711 248.724 65.4724 248.961 65.2967 249.273C65.1243 249.584 65.0382 249.962 65.0382 250.406ZM75.2386 255.159C74.5492 255.159 73.9444 254.995 73.424 254.667C72.907 254.339 72.5026 253.88 72.2109 253.29C71.9226 252.7 71.7784 252.01 71.7784 251.222C71.7784 250.426 71.9226 249.732 72.2109 249.138C72.5026 248.545 72.907 248.085 73.424 247.756C73.9444 247.428 74.5492 247.264 75.2386 247.264C75.928 247.264 76.5313 247.428 77.0483 247.756C77.5687 248.085 77.973 248.545 78.2614 249.138C78.553 249.732 78.6989 250.426 78.6989 251.222C78.6989 252.01 78.553 252.7 78.2614 253.29C77.973 253.88 77.5687 254.339 77.0483 254.667C76.5313 254.995 75.928 255.159 75.2386 255.159ZM75.2386 254.105C75.7623 254.105 76.1932 253.971 76.5312 253.702C76.8693 253.434 77.1196 253.081 77.282 252.643C77.4444 252.206 77.5256 251.732 77.5256 251.222C77.5256 250.711 77.4444 250.236 77.282 249.795C77.1196 249.354 76.8693 248.998 76.5312 248.726C76.1932 248.454 75.7623 248.318 75.2386 248.318C74.715 248.318 74.2841 248.454 73.946 248.726C73.608 248.998 73.3577 249.354 73.1953 249.795C73.0329 250.236 72.9517 250.711 72.9517 251.222C72.9517 251.732 73.0329 252.206 73.1953 252.643C73.3577 253.081 73.608 253.434 73.946 253.702C74.2841 253.971 74.715 254.105 75.2386 254.105ZM81.6632 244.818V255H80.4899V244.818H81.6632ZM86.6957 255.159C86.0593 255.159 85.4975 254.998 85.0103 254.677C84.5231 254.352 84.1419 253.895 83.8668 253.305C83.5917 252.711 83.4542 252.01 83.4542 251.202C83.4542 250.4 83.5917 249.704 83.8668 249.114C84.1419 248.524 84.5247 248.068 85.0153 247.746C85.5058 247.425 86.0726 247.264 86.7156 247.264C87.2127 247.264 87.6055 247.347 87.8938 247.513C88.1855 247.675 88.4076 247.861 88.56 248.07C88.7158 248.275 88.8368 248.444 88.9229 248.577H89.0224V244.818H90.1957V255H89.0621V253.827H88.9229C88.8368 253.966 88.7141 254.142 88.555 254.354C88.396 254.562 88.1689 254.75 87.8739 254.915C87.579 255.078 87.1862 255.159 86.6957 255.159ZM86.8548 254.105C87.3254 254.105 87.7231 253.982 88.0479 253.737C88.3728 253.489 88.6197 253.146 88.7887 252.708C88.9577 252.267 89.0423 251.759 89.0423 251.182C89.0423 250.612 88.9594 250.113 88.7937 249.685C88.628 249.254 88.3827 248.92 88.0579 248.681C87.7331 248.439 87.332 248.318 86.8548 248.318C86.3576 248.318 85.9433 248.446 85.6119 248.701C85.2837 248.953 85.0368 249.296 84.8711 249.73C84.7087 250.161 84.6275 250.645 84.6275 251.182C84.6275 251.725 84.7103 252.219 84.8761 252.663C85.0451 253.104 85.2937 253.455 85.6218 253.717C85.9532 253.976 86.3642 254.105 86.8548 254.105Z" fill="black" style="fill:black;fill-opacity:1;"/>
<path d="M325.979 255V253.886L329.425 250.317C329.793 249.929 330.096 249.589 330.335 249.298C330.576 249.003 330.757 248.723 330.876 248.457C330.996 248.192 331.055 247.911 331.055 247.612C331.055 247.274 330.976 246.982 330.817 246.737C330.658 246.489 330.441 246.298 330.165 246.165C329.89 246.03 329.58 245.962 329.236 245.962C328.871 245.962 328.553 246.036 328.281 246.185C328.009 246.335 327.801 246.545 327.655 246.817C327.509 247.089 327.436 247.407 327.436 247.771H325.969C325.969 247.152 326.112 246.61 326.397 246.146C326.682 245.682 327.073 245.322 327.57 245.067C328.067 244.808 328.633 244.679 329.266 244.679C329.905 244.679 330.469 244.807 330.956 245.062C331.446 245.314 331.829 245.658 332.104 246.096C332.379 246.53 332.517 247.021 332.517 247.567C332.517 247.945 332.446 248.315 332.303 248.676C332.164 249.037 331.92 249.44 331.572 249.884C331.224 250.325 330.741 250.86 330.121 251.49L328.097 253.608V253.683H332.681V255H325.979Z" fill="black" style="fill:black;fill-opacity:1;"/>
<rect x="20" y="272.5" width="12" height="12" rx="6" fill="#C2C2C2" style="fill:#C2C2C2;fill:color(display-p3 0.7616 0.7616 0.7616);fill-opacity:1;"/>
<path d="M49.3068 273.818V284H48.1136L42.5653 276.006H42.4659V284H41.233V273.818H42.4261L47.9943 281.832H48.0938V273.818H49.3068ZM54.7172 284.159C54.0278 284.159 53.4229 283.995 52.9025 283.667C52.3855 283.339 51.9811 282.88 51.6895 282.29C51.4011 281.7 51.2569 281.01 51.2569 280.222C51.2569 279.426 51.4011 278.732 51.6895 278.138C51.9811 277.545 52.3855 277.085 52.9025 276.756C53.4229 276.428 54.0278 276.264 54.7172 276.264C55.4065 276.264 56.0098 276.428 56.5268 276.756C57.0472 277.085 57.4515 277.545 57.7399 278.138C58.0315 278.732 58.1774 279.426 58.1774 280.222C58.1774 281.01 58.0315 281.7 57.7399 282.29C57.4515 282.88 57.0472 283.339 56.5268 283.667C56.0098 283.995 55.4065 284.159 54.7172 284.159ZM54.7172 283.105C55.2408 283.105 55.6717 282.971 56.0098 282.702C56.3478 282.434 56.5981 282.081 56.7605 281.643C56.9229 281.206 57.0041 280.732 57.0041 280.222C57.0041 279.711 56.9229 279.236 56.7605 278.795C56.5981 278.354 56.3478 277.998 56.0098 277.726C55.6717 277.454 55.2408 277.318 54.7172 277.318C54.1935 277.318 53.7626 277.454 53.4245 277.726C53.0865 277.998 52.8362 278.354 52.6738 278.795C52.5114 279.236 52.4302 279.711 52.4302 280.222C52.4302 280.732 52.5114 281.206 52.6738 281.643C52.8362 282.081 53.0865 282.434 53.4245 282.702C53.7626 282.971 54.1935 283.105 54.7172 283.105ZM63.2894 276.364V277.358H59.332V276.364H63.2894ZM60.4854 274.534H61.6587V281.812C61.6587 282.144 61.7068 282.393 61.8029 282.558C61.9023 282.721 62.0283 282.83 62.1808 282.886C62.3365 282.939 62.5006 282.966 62.6729 282.966C62.8022 282.966 62.9083 282.959 62.9911 282.946C63.074 282.929 63.1403 282.916 63.19 282.906L63.4286 283.96C63.3491 283.99 63.238 284.02 63.0955 284.05C62.953 284.083 62.7724 284.099 62.5536 284.099C62.2222 284.099 61.8974 284.028 61.5792 283.886C61.2643 283.743 61.0025 283.526 60.7937 283.234C60.5882 282.943 60.4854 282.575 60.4854 282.131V274.534ZM74.4009 278.074L73.3469 278.372C73.2807 278.196 73.1829 278.026 73.0536 277.86C72.9277 277.691 72.7553 277.552 72.5366 277.442C72.3178 277.333 72.0378 277.278 71.6964 277.278C71.229 277.278 70.8396 277.386 70.5281 277.602C70.2198 277.814 70.0657 278.084 70.0657 278.412C70.0657 278.704 70.1718 278.934 70.3839 279.103C70.596 279.272 70.9274 279.413 71.3782 279.526L72.5117 279.804C73.1945 279.97 73.7032 280.223 74.038 280.565C74.3728 280.903 74.5401 281.339 74.5401 281.872C74.5401 282.31 74.4142 282.701 74.1623 283.045C73.9137 283.39 73.5657 283.662 73.1183 283.861C72.6708 284.06 72.1504 284.159 71.5572 284.159C70.7783 284.159 70.1336 283.99 69.6232 283.652C69.1128 283.314 68.7897 282.82 68.6538 282.17L69.7674 281.892C69.8735 282.303 70.074 282.611 70.369 282.817C70.6673 283.022 71.0567 283.125 71.5373 283.125C72.0842 283.125 72.5183 283.009 72.8398 282.777C73.1647 282.542 73.3271 282.26 73.3271 281.932C73.3271 281.667 73.2343 281.445 73.0487 281.266C72.863 281.083 72.578 280.947 72.1935 280.858L70.9208 280.56C70.2215 280.394 69.7077 280.137 69.3796 279.789C69.0548 279.438 68.8924 278.999 68.8924 278.472C68.8924 278.041 69.0134 277.66 69.2553 277.328C69.5006 276.997 69.8337 276.737 70.2546 276.548C70.6789 276.359 71.1594 276.264 71.6964 276.264C72.4521 276.264 73.0453 276.43 73.4762 276.761C73.9104 277.093 74.2186 277.53 74.4009 278.074ZM79.6273 276.364V277.358H75.6699V276.364H79.6273ZM76.8233 274.534H77.9966V281.812C77.9966 282.144 78.0447 282.393 78.1408 282.558C78.2402 282.721 78.3662 282.83 78.5186 282.886C78.6744 282.939 78.8385 282.966 79.0108 282.966C79.1401 282.966 79.2462 282.959 79.329 282.946C79.4119 282.929 79.4782 282.916 79.5279 282.906L79.7665 283.96C79.687 283.99 79.5759 284.02 79.4334 284.05C79.2909 284.083 79.1103 284.099 78.8915 284.099C78.5601 284.099 78.2353 284.028 77.9171 283.886C77.6022 283.743 77.3404 283.526 77.1316 283.234C76.9261 282.943 76.8233 282.575 76.8233 282.131V274.534ZM83.6394 284.179C83.1555 284.179 82.7163 284.088 82.3219 283.906C81.9275 283.72 81.6143 283.453 81.3823 283.105C81.1503 282.754 81.0343 282.33 81.0343 281.832C81.0343 281.395 81.1204 281.04 81.2928 280.768C81.4651 280.493 81.6955 280.278 81.9838 280.122C82.2722 279.966 82.5904 279.85 82.9384 279.774C83.2897 279.695 83.6427 279.632 83.9973 279.585C84.4614 279.526 84.8375 279.481 85.1259 279.451C85.4176 279.418 85.6297 279.363 85.7623 279.287C85.8981 279.211 85.9661 279.078 85.9661 278.889V278.849C85.9661 278.359 85.8319 277.978 85.5634 277.706C85.2982 277.434 84.8955 277.298 84.3553 277.298C83.7952 277.298 83.356 277.421 83.0378 277.666C82.7196 277.911 82.4959 278.173 82.3667 278.452L81.253 278.054C81.4519 277.59 81.717 277.229 82.0485 276.97C82.3832 276.708 82.7478 276.526 83.1422 276.423C83.54 276.317 83.931 276.264 84.3155 276.264C84.5608 276.264 84.8425 276.294 85.1607 276.354C85.4822 276.41 85.7921 276.528 86.0904 276.707C86.392 276.886 86.6422 277.156 86.8411 277.517C87.04 277.878 87.1394 278.362 87.1394 278.969V284H85.9661V282.966H85.9064C85.8269 283.132 85.6943 283.309 85.5087 283.498C85.3231 283.687 85.0762 283.848 84.7679 283.98C84.4597 284.113 84.0835 284.179 83.6394 284.179ZM83.8184 283.125C84.2824 283.125 84.6735 283.034 84.9917 282.852C85.3132 282.669 85.5551 282.434 85.7175 282.146C85.8832 281.857 85.9661 281.554 85.9661 281.236V280.162C85.9164 280.222 85.807 280.276 85.638 280.326C85.4722 280.372 85.28 280.414 85.0613 280.45C84.8458 280.483 84.6354 280.513 84.4299 280.54C84.2277 280.563 84.0636 280.583 83.9377 280.599C83.6328 280.639 83.3477 280.704 83.0826 280.793C82.8207 280.879 82.6086 281.01 82.4462 281.186C82.2871 281.358 82.2076 281.594 82.2076 281.892C82.2076 282.3 82.3584 282.608 82.66 282.817C82.9649 283.022 83.351 283.125 83.8184 283.125ZM89.2809 284V276.364H90.4144V277.517H90.494C90.6332 277.139 90.8851 276.833 91.2496 276.597C91.6142 276.362 92.0252 276.244 92.4826 276.244C92.5688 276.244 92.6765 276.246 92.8058 276.249C92.935 276.253 93.0328 276.258 93.0991 276.264V277.457C93.0593 277.447 92.9682 277.433 92.8256 277.413C92.6864 277.389 92.5389 277.378 92.3832 277.378C92.012 277.378 91.6805 277.456 91.3888 277.612C91.1005 277.764 90.8718 277.976 90.7028 278.248C90.5371 278.516 90.4542 278.823 90.4542 279.168V284H89.2809ZM98.2894 276.364V277.358H94.332V276.364H98.2894ZM95.4854 274.534H96.6587V281.812C96.6587 282.144 96.7068 282.393 96.8029 282.558C96.9023 282.721 97.0283 282.83 97.1808 282.886C97.3365 282.939 97.5006 282.966 97.6729 282.966C97.8022 282.966 97.9083 282.959 97.9911 282.946C98.074 282.929 98.1403 282.916 98.19 282.906L98.4286 283.96C98.3491 283.99 98.238 284.02 98.0955 284.05C97.953 284.083 97.7724 284.099 97.5536 284.099C97.2222 284.099 96.8974 284.028 96.5792 283.886C96.2643 283.743 96.0025 283.526 95.7937 283.234C95.5882 282.943 95.4854 282.575 95.4854 282.131V274.534ZM103.174 284.159C102.438 284.159 101.804 283.997 101.27 283.672C100.74 283.344 100.33 282.886 100.042 282.3C99.7569 281.71 99.6143 281.024 99.6143 280.241C99.6143 279.459 99.7569 278.77 100.042 278.173C100.33 277.573 100.731 277.106 101.245 276.771C101.762 276.433 102.365 276.264 103.055 276.264C103.452 276.264 103.845 276.33 104.233 276.463C104.621 276.596 104.974 276.811 105.292 277.109C105.61 277.404 105.864 277.795 106.053 278.283C106.241 278.77 106.336 279.37 106.336 280.082V280.58H100.45V279.565H105.143C105.143 279.134 105.057 278.75 104.884 278.412C104.715 278.074 104.473 277.807 104.158 277.612C103.847 277.416 103.479 277.318 103.055 277.318C102.587 277.318 102.183 277.434 101.842 277.666C101.504 277.895 101.243 278.193 101.061 278.561C100.879 278.929 100.788 279.323 100.788 279.744V280.42C100.788 280.997 100.887 281.486 101.086 281.887C101.288 282.285 101.568 282.588 101.926 282.797C102.284 283.002 102.7 283.105 103.174 283.105C103.482 283.105 103.761 283.062 104.009 282.976C104.261 282.886 104.478 282.754 104.661 282.578C104.843 282.399 104.984 282.177 105.083 281.912L106.217 282.23C106.097 282.615 105.897 282.953 105.615 283.244C105.333 283.533 104.985 283.758 104.571 283.92C104.157 284.08 103.691 284.159 103.174 284.159ZM111.004 284.159C110.368 284.159 109.806 283.998 109.319 283.677C108.832 283.352 108.451 282.895 108.175 282.305C107.9 281.711 107.763 281.01 107.763 280.202C107.763 279.4 107.9 278.704 108.175 278.114C108.451 277.524 108.833 277.068 109.324 276.746C109.814 276.425 110.381 276.264 111.024 276.264C111.521 276.264 111.914 276.347 112.202 276.513C112.494 276.675 112.716 276.861 112.869 277.07C113.024 277.275 113.145 277.444 113.232 277.577H113.331V273.818H114.504V284H113.371V282.827H113.232C113.145 282.966 113.023 283.142 112.864 283.354C112.705 283.562 112.478 283.75 112.183 283.915C111.888 284.078 111.495 284.159 111.004 284.159ZM111.163 283.105C111.634 283.105 112.032 282.982 112.357 282.737C112.681 282.489 112.928 282.146 113.097 281.708C113.266 281.267 113.351 280.759 113.351 280.182C113.351 279.612 113.268 279.113 113.102 278.685C112.937 278.254 112.691 277.92 112.366 277.681C112.042 277.439 111.641 277.318 111.163 277.318C110.666 277.318 110.252 277.446 109.92 277.701C109.592 277.953 109.345 278.296 109.18 278.73C109.017 279.161 108.936 279.645 108.936 280.182C108.936 280.725 109.019 281.219 109.185 281.663C109.354 282.104 109.602 282.455 109.93 282.717C110.262 282.976 110.673 283.105 111.163 283.105Z" fill="black" style="fill:black;fill-opacity:1;"/>
<path d="M318.979 284V282.886L322.425 279.317C322.793 278.929 323.096 278.589 323.335 278.298C323.576 278.003 323.757 277.723 323.876 277.457C323.996 277.192 324.055 276.911 324.055 276.612C324.055 276.274 323.976 275.982 323.817 275.737C323.658 275.489 323.441 275.298 323.165 275.165C322.89 275.03 322.58 274.962 322.236 274.962C321.871 274.962 321.553 275.036 321.281 275.185C321.009 275.335 320.801 275.545 320.655 275.817C320.509 276.089 320.436 276.407 320.436 276.771H318.969C318.969 276.152 319.112 275.61 319.397 275.146C319.682 274.682 320.073 274.322 320.57 274.067C321.067 273.808 321.633 273.679 322.266 273.679C322.905 273.679 323.469 273.807 323.956 274.062C324.446 274.314 324.829 274.658 325.104 275.096C325.379 275.53 325.517 276.021 325.517 276.567C325.517 276.945 325.446 277.315 325.303 277.676C325.164 278.037 324.92 278.44 324.572 278.884C324.224 279.325 323.741 279.86 323.121 280.49L321.097 282.608V282.683H325.681V284H318.979ZM331.428 273.818V284H329.887V275.359H329.827L327.391 276.95V275.479L329.932 273.818H331.428Z" fill="black" style="fill:black;fill-opacity:1;"/>
</svg>
