<svg width="352" height="311" viewBox="0 0 352 311" fill="none" xmlns="http://www.w3.org/2000/svg">
<path d="M0.333313 12C0.333313 5.37258 5.7059 0 12.3333 0H339.667C346.294 0 351.667 5.37258 351.667 12V299C351.667 305.627 346.294 311 339.667 311H12.3333C5.7059 311 0.333313 305.627 0.333313 299V12Z" fill="white" style="fill:white;fill-opacity:1;"/>
<path d="M109.2 44C109.133 44 109.073 43.98 109.02 43.94C108.98 43.8867 108.96 43.8267 108.96 43.76V30.24C108.96 30.1733 108.98 30.12 109.02 30.08C109.073 30.0267 109.133 30 109.2 30H111.04C111.107 30 111.16 30.0267 111.2 30.08C111.253 30.12 111.28 30.1733 111.28 30.24V43.76C111.28 43.8267 111.253 43.8867 111.2 43.94C111.16 43.98 111.107 44 111.04 44H109.2ZM125.114 33.62C126.141 33.62 126.941 33.9333 127.514 34.56C128.101 35.1733 128.394 36.0333 128.394 37.14V43.76C128.394 43.8267 128.368 43.8867 128.314 43.94C128.274 43.98 128.221 44 128.154 44H126.334C126.268 44 126.208 43.98 126.154 43.94C126.114 43.8867 126.094 43.8267 126.094 43.76V37.62C126.094 37.0067 125.928 36.52 125.594 36.16C125.274 35.8 124.841 35.62 124.294 35.62C123.748 35.62 123.301 35.8 122.954 36.16C122.608 36.52 122.434 37 122.434 37.6V43.76C122.434 43.8267 122.408 43.8867 122.354 43.94C122.314 43.98 122.261 44 122.194 44H120.374C120.308 44 120.248 43.98 120.194 43.94C120.154 43.8867 120.134 43.8267 120.134 43.76V37.62C120.134 37.0067 119.968 36.52 119.634 36.16C119.301 35.8 118.861 35.62 118.314 35.62C117.808 35.62 117.388 35.7667 117.054 36.06C116.734 36.3533 116.548 36.7533 116.494 37.26V43.76C116.494 43.8267 116.468 43.8867 116.414 43.94C116.374 43.98 116.321 44 116.254 44H114.414C114.348 44 114.288 43.98 114.234 43.94C114.194 43.8867 114.174 43.8267 114.174 43.76V34.02C114.174 33.9533 114.194 33.9 114.234 33.86C114.288 33.8067 114.348 33.78 114.414 33.78H116.254C116.321 33.78 116.374 33.8067 116.414 33.86C116.468 33.9 116.494 33.9533 116.494 34.02V34.68C116.494 34.72 116.508 34.7467 116.534 34.76C116.561 34.7733 116.588 34.76 116.614 34.72C116.908 34.3467 117.268 34.0733 117.694 33.9C118.134 33.7133 118.621 33.62 119.154 33.62C119.808 33.62 120.381 33.7533 120.874 34.02C121.368 34.2867 121.748 34.6733 122.014 35.18C122.054 35.2333 122.101 35.2333 122.154 35.18C122.448 34.6467 122.854 34.2533 123.374 34C123.894 33.7467 124.474 33.62 125.114 33.62ZM139.616 36.42C139.856 37.1 139.976 37.9333 139.976 38.92C139.976 39.8667 139.863 40.68 139.636 41.36C139.343 42.24 138.87 42.9267 138.216 43.42C137.576 43.9133 136.763 44.16 135.776 44.16C134.83 44.16 134.07 43.82 133.496 43.14C133.47 43.1133 133.443 43.1067 133.416 43.12C133.39 43.1333 133.376 43.16 133.376 43.2V47.54C133.376 47.6067 133.35 47.66 133.296 47.7C133.256 47.7533 133.203 47.78 133.136 47.78H131.296C131.23 47.78 131.17 47.7533 131.116 47.7C131.076 47.66 131.056 47.6067 131.056 47.54V34.02C131.056 33.9533 131.076 33.9 131.116 33.86C131.17 33.8067 131.23 33.78 131.296 33.78H133.136C133.203 33.78 133.256 33.8067 133.296 33.86C133.35 33.9 133.376 33.9533 133.376 34.02V34.62C133.376 34.66 133.39 34.6867 133.416 34.7C133.443 34.7133 133.47 34.7 133.496 34.66C134.083 33.9667 134.85 33.62 135.796 33.62C136.743 33.62 137.543 33.8667 138.196 34.36C138.85 34.8533 139.323 35.54 139.616 36.42ZM137.016 41.32C137.416 40.7067 137.616 39.8933 137.616 38.88C137.616 37.9067 137.456 37.14 137.136 36.58C136.763 35.9267 136.196 35.6 135.436 35.6C134.743 35.6 134.223 35.92 133.876 36.56C133.57 37.08 133.416 37.8533 133.416 38.88C133.416 39.9333 133.583 40.7333 133.916 41.28C134.263 41.8667 134.763 42.16 135.416 42.16C136.123 42.16 136.656 41.88 137.016 41.32ZM146.688 44.16C145.634 44.16 144.728 43.8933 143.968 43.36C143.221 42.8267 142.694 42.0867 142.388 41.14C142.161 40.42 142.048 39.66 142.048 38.86C142.048 38.0067 142.154 37.2467 142.368 36.58C142.674 35.6467 143.208 34.92 143.968 34.4C144.728 33.88 145.641 33.62 146.708 33.62C147.721 33.62 148.594 33.88 149.328 34.4C150.074 34.92 150.601 35.64 150.908 36.56C151.148 37.2 151.268 37.96 151.268 38.84C151.268 39.68 151.154 40.44 150.928 41.12C150.621 42.0667 150.094 42.8133 149.348 43.36C148.601 43.8933 147.714 44.16 146.688 44.16ZM146.688 42.16C147.181 42.16 147.601 42.02 147.948 41.74C148.308 41.46 148.568 41.0667 148.728 40.56C148.861 40.12 148.928 39.56 148.928 38.88C148.928 38.16 148.861 37.6 148.728 37.2C148.581 36.6933 148.328 36.3067 147.968 36.04C147.608 35.76 147.168 35.62 146.648 35.62C146.154 35.62 145.728 35.76 145.368 36.04C145.008 36.3067 144.748 36.6933 144.588 37.2C144.454 37.6667 144.388 38.2267 144.388 38.88C144.388 39.5333 144.454 40.0933 144.588 40.56C144.734 41.0667 144.988 41.46 145.348 41.74C145.721 42.02 146.168 42.16 146.688 42.16ZM158.421 33.66C158.848 33.66 159.221 33.7467 159.541 33.92C159.648 33.9733 159.688 34.0733 159.661 34.22L159.321 36.02C159.308 36.18 159.214 36.2267 159.041 36.16C158.841 36.0933 158.608 36.06 158.341 36.06C158.168 36.06 158.034 36.0667 157.941 36.08C157.381 36.1067 156.914 36.3067 156.541 36.68C156.168 37.04 155.981 37.5133 155.981 38.1V43.76C155.981 43.8267 155.954 43.8867 155.901 43.94C155.861 43.98 155.808 44 155.741 44H153.901C153.834 44 153.774 43.98 153.721 43.94C153.681 43.8867 153.661 43.8267 153.661 43.76V34.02C153.661 33.9533 153.681 33.9 153.721 33.86C153.774 33.8067 153.834 33.78 153.901 33.78H155.741C155.808 33.78 155.861 33.8067 155.901 33.86C155.954 33.9 155.981 33.9533 155.981 34.02V34.92C155.981 34.9733 155.988 35.0067 156.001 35.02C156.028 35.02 156.054 35 156.081 34.96C156.641 34.0933 157.421 33.66 158.421 33.66ZM166.976 35.42C166.976 35.4867 166.95 35.5467 166.896 35.6C166.856 35.64 166.803 35.66 166.736 35.66H164.696C164.63 35.66 164.596 35.6933 164.596 35.76V40.58C164.596 41.0867 164.703 41.4533 164.916 41.68C165.143 41.9067 165.496 42.02 165.976 42.02H166.576C166.643 42.02 166.696 42.0467 166.736 42.1C166.79 42.14 166.816 42.1933 166.816 42.26V43.76C166.816 43.9067 166.736 43.9933 166.576 44.02L165.536 44.04C164.483 44.04 163.696 43.86 163.176 43.5C162.656 43.14 162.39 42.46 162.376 41.46V35.76C162.376 35.6933 162.343 35.66 162.276 35.66H161.136C161.07 35.66 161.01 35.64 160.956 35.6C160.916 35.5467 160.896 35.4867 160.896 35.42V34.02C160.896 33.9533 160.916 33.9 160.956 33.86C161.01 33.8067 161.07 33.78 161.136 33.78H162.276C162.343 33.78 162.376 33.7467 162.376 33.68V31.34C162.376 31.2733 162.396 31.22 162.436 31.18C162.49 31.1267 162.55 31.1 162.616 31.1H164.356C164.423 31.1 164.476 31.1267 164.516 31.18C164.57 31.22 164.596 31.2733 164.596 31.34V33.68C164.596 33.7467 164.63 33.78 164.696 33.78H166.736C166.803 33.78 166.856 33.8067 166.896 33.86C166.95 33.9 166.976 33.9533 166.976 34.02V35.42ZM173.137 33.62C173.977 33.62 174.717 33.7667 175.357 34.06C175.997 34.3533 176.49 34.76 176.837 35.28C177.184 35.7867 177.357 36.3667 177.357 37.02V43.76C177.357 43.8267 177.33 43.8867 177.277 43.94C177.237 43.98 177.184 44 177.117 44H175.277C175.21 44 175.15 43.98 175.097 43.94C175.057 43.8867 175.037 43.8267 175.037 43.76V43.12C175.037 43.08 175.024 43.06 174.997 43.06C174.97 43.0467 174.944 43.0533 174.917 43.08C174.264 43.8 173.317 44.16 172.077 44.16C171.077 44.16 170.25 43.9067 169.597 43.4C168.957 42.8933 168.637 42.14 168.637 41.14C168.637 40.1 168.997 39.2933 169.717 38.72C170.45 38.1333 171.477 37.84 172.797 37.84H174.937C175.004 37.84 175.037 37.8067 175.037 37.74V37.26C175.037 36.74 174.884 36.34 174.577 36.06C174.27 35.7667 173.81 35.62 173.197 35.62C172.69 35.62 172.277 35.7133 171.957 35.9C171.65 36.0733 171.457 36.32 171.377 36.64C171.337 36.8 171.244 36.8667 171.097 36.84L169.157 36.6C169.09 36.5867 169.03 36.5667 168.977 36.54C168.937 36.5 168.924 36.4533 168.937 36.4C169.044 35.5867 169.477 34.92 170.237 34.4C171.01 33.88 171.977 33.62 173.137 33.62ZM172.657 42.32C173.31 42.32 173.87 42.1467 174.337 41.8C174.804 41.4533 175.037 41.0133 175.037 40.48V39.54C175.037 39.4733 175.004 39.44 174.937 39.44H173.257C172.55 39.44 171.99 39.5733 171.577 39.84C171.177 40.1067 170.977 40.4867 170.977 40.98C170.977 41.4067 171.13 41.74 171.437 41.98C171.757 42.2067 172.164 42.32 172.657 42.32ZM184.786 33.62C185.866 33.62 186.726 33.94 187.366 34.58C188.019 35.22 188.346 36.0933 188.346 37.2V43.76C188.346 43.8267 188.319 43.8867 188.266 43.94C188.226 43.98 188.173 44 188.106 44H186.266C186.199 44 186.139 43.98 186.086 43.94C186.046 43.8867 186.026 43.8267 186.026 43.76V37.68C186.026 37.0667 185.853 36.5733 185.506 36.2C185.159 35.8133 184.699 35.62 184.126 35.62C183.553 35.62 183.086 35.8067 182.726 36.18C182.379 36.5533 182.206 37.0467 182.206 37.66V43.76C182.206 43.8267 182.179 43.8867 182.126 43.94C182.086 43.98 182.033 44 181.966 44H180.126C180.059 44 179.999 43.98 179.946 43.94C179.906 43.8867 179.886 43.8267 179.886 43.76V34.02C179.886 33.9533 179.906 33.9 179.946 33.86C179.999 33.8067 180.059 33.78 180.126 33.78H181.966C182.033 33.78 182.086 33.8067 182.126 33.86C182.179 33.9 182.206 33.9533 182.206 34.02V34.66C182.206 34.7 182.219 34.7267 182.246 34.74C182.273 34.7533 182.293 34.74 182.306 34.7C182.853 33.98 183.679 33.62 184.786 33.62ZM196.385 35.42C196.385 35.4867 196.358 35.5467 196.305 35.6C196.265 35.64 196.212 35.66 196.145 35.66H194.105C194.038 35.66 194.005 35.6933 194.005 35.76V40.58C194.005 41.0867 194.112 41.4533 194.325 41.68C194.552 41.9067 194.905 42.02 195.385 42.02H195.985C196.052 42.02 196.105 42.0467 196.145 42.1C196.198 42.14 196.225 42.1933 196.225 42.26V43.76C196.225 43.9067 196.145 43.9933 195.985 44.02L194.945 44.04C193.892 44.04 193.105 43.86 192.585 43.5C192.065 43.14 191.798 42.46 191.785 41.46V35.76C191.785 35.6933 191.752 35.66 191.685 35.66H190.545C190.478 35.66 190.418 35.64 190.365 35.6C190.325 35.5467 190.305 35.4867 190.305 35.42V34.02C190.305 33.9533 190.325 33.9 190.365 33.86C190.418 33.8067 190.478 33.78 190.545 33.78H191.685C191.752 33.78 191.785 33.7467 191.785 33.68V31.34C191.785 31.2733 191.805 31.22 191.845 31.18C191.898 31.1267 191.958 31.1 192.025 31.1H193.765C193.832 31.1 193.885 31.1267 193.925 31.18C193.978 31.22 194.005 31.2733 194.005 31.34V33.68C194.005 33.7467 194.038 33.78 194.105 33.78H196.145C196.212 33.78 196.265 33.8067 196.305 33.86C196.358 33.9 196.385 33.9533 196.385 34.02V35.42ZM203.309 44C203.243 44 203.183 43.98 203.129 43.94C203.089 43.8867 203.069 43.8267 203.069 43.76V30.24C203.069 30.1733 203.089 30.12 203.129 30.08C203.183 30.0267 203.243 30 203.309 30H208.189C209.136 30 209.969 30.1667 210.689 30.5C211.409 30.8333 211.963 31.3133 212.349 31.94C212.749 32.5533 212.949 33.2733 212.949 34.1V39.9C212.949 40.7267 212.749 41.4533 212.349 42.08C211.963 42.6933 211.409 43.1667 210.689 43.5C209.969 43.8333 209.136 44 208.189 44H203.309ZM205.389 41.9C205.389 41.9667 205.423 42 205.489 42H208.289C208.996 42 209.556 41.78 209.969 41.34C210.396 40.8867 210.616 40.2867 210.629 39.54V34.48C210.629 33.72 210.416 33.12 209.989 32.68C209.563 32.2267 208.989 32 208.269 32H205.489C205.423 32 205.389 32.0333 205.389 32.1V41.9ZM219.235 33.62C220.075 33.62 220.815 33.7667 221.455 34.06C222.095 34.3533 222.588 34.76 222.935 35.28C223.281 35.7867 223.455 36.3667 223.455 37.02V43.76C223.455 43.8267 223.428 43.8867 223.375 43.94C223.335 43.98 223.281 44 223.215 44H221.375C221.308 44 221.248 43.98 221.195 43.94C221.155 43.8867 221.135 43.8267 221.135 43.76V43.12C221.135 43.08 221.121 43.06 221.095 43.06C221.068 43.0467 221.041 43.0533 221.015 43.08C220.361 43.8 219.415 44.16 218.175 44.16C217.175 44.16 216.348 43.9067 215.695 43.4C215.055 42.8933 214.735 42.14 214.735 41.14C214.735 40.1 215.095 39.2933 215.815 38.72C216.548 38.1333 217.575 37.84 218.895 37.84H221.035C221.101 37.84 221.135 37.8067 221.135 37.74V37.26C221.135 36.74 220.981 36.34 220.675 36.06C220.368 35.7667 219.908 35.62 219.295 35.62C218.788 35.62 218.375 35.7133 218.055 35.9C217.748 36.0733 217.555 36.32 217.475 36.64C217.435 36.8 217.341 36.8667 217.195 36.84L215.255 36.6C215.188 36.5867 215.128 36.5667 215.075 36.54C215.035 36.5 215.021 36.4533 215.035 36.4C215.141 35.5867 215.575 34.92 216.335 34.4C217.108 33.88 218.075 33.62 219.235 33.62ZM218.755 42.32C219.408 42.32 219.968 42.1467 220.435 41.8C220.901 41.4533 221.135 41.0133 221.135 40.48V39.54C221.135 39.4733 221.101 39.44 221.035 39.44H219.355C218.648 39.44 218.088 39.5733 217.675 39.84C217.275 40.1067 217.075 40.4867 217.075 40.98C217.075 41.4067 217.228 41.74 217.535 41.98C217.855 42.2067 218.261 42.32 218.755 42.32ZM225.569 47.98C225.529 47.98 225.496 47.9533 225.469 47.9C225.442 47.86 225.429 47.8067 225.429 47.74V46.3C225.429 46.2333 225.449 46.1733 225.489 46.12C225.542 46.08 225.602 46.06 225.669 46.06H225.689C226.236 46.0467 226.662 45.9867 226.969 45.88C227.276 45.7867 227.529 45.6 227.729 45.32C227.929 45.04 228.109 44.62 228.269 44.06C228.282 44.0333 228.282 43.9933 228.269 43.94L224.969 34.04C224.956 34.0133 224.949 33.98 224.949 33.94C224.949 33.82 225.016 33.76 225.149 33.76H227.109C227.256 33.76 227.349 33.8267 227.389 33.96L229.389 41C229.402 41.04 229.422 41.06 229.449 41.06C229.476 41.06 229.496 41.04 229.509 41L231.509 33.96C231.549 33.8267 231.642 33.76 231.789 33.76H233.689C233.769 33.76 233.822 33.7867 233.849 33.84C233.889 33.88 233.896 33.9467 233.869 34.04L230.349 44.56C230.016 45.5067 229.689 46.2133 229.369 46.68C229.049 47.1467 228.609 47.48 228.049 47.68C227.502 47.88 226.722 47.98 225.709 47.98H225.569ZM238.87 44.12C238.03 44.12 237.29 44 236.65 43.76C236.024 43.5067 235.537 43.1667 235.19 42.74C234.844 42.3 234.67 41.8133 234.67 41.28V41.1C234.67 41.0333 234.69 40.98 234.73 40.94C234.784 40.8867 234.844 40.86 234.91 40.86H236.67C236.737 40.86 236.79 40.8867 236.83 40.94C236.884 40.98 236.91 41.0333 236.91 41.1V41.14C236.91 41.4733 237.09 41.7667 237.45 42.02C237.824 42.26 238.29 42.38 238.85 42.38C239.384 42.38 239.817 42.2733 240.15 42.06C240.484 41.8333 240.65 41.5533 240.65 41.22C240.65 40.9133 240.51 40.6867 240.23 40.54C239.964 40.38 239.524 40.2133 238.91 40.04L238.15 39.8C237.47 39.6 236.897 39.3867 236.43 39.16C235.964 38.9333 235.57 38.6267 235.25 38.24C234.93 37.84 234.77 37.3333 234.77 36.72C234.77 35.7867 235.137 35.0467 235.87 34.5C236.604 33.94 237.57 33.66 238.77 33.66C239.584 33.66 240.297 33.7933 240.91 34.06C241.524 34.3133 241.997 34.6733 242.33 35.14C242.664 35.5933 242.83 36.1133 242.83 36.7C242.83 36.7667 242.804 36.8267 242.75 36.88C242.71 36.92 242.657 36.94 242.59 36.94H240.89C240.824 36.94 240.764 36.92 240.71 36.88C240.67 36.8267 240.65 36.7667 240.65 36.7C240.65 36.3533 240.477 36.0667 240.13 35.84C239.797 35.6 239.337 35.48 238.75 35.48C238.23 35.48 237.804 35.58 237.47 35.78C237.15 35.9667 236.99 36.2333 236.99 36.58C236.99 36.9 237.144 37.1467 237.45 37.32C237.77 37.48 238.297 37.66 239.03 37.86L239.47 37.98C240.177 38.1933 240.77 38.4133 241.25 38.64C241.73 38.8533 242.137 39.16 242.47 39.56C242.804 39.9467 242.97 40.4533 242.97 41.08C242.97 42.0267 242.597 42.7733 241.85 43.32C241.104 43.8533 240.11 44.12 238.87 44.12Z" fill="black" style="fill:black;fill-opacity:1;"/>
</svg>
