<svg width="711" height="574" viewBox="0 0 711 574" fill="none" xmlns="http://www.w3.org/2000/svg">
<path d="M0 12C0 5.37258 5.37258 0 12 0H699C705.627 0 711 5.37258 711 12V562C711 568.627 705.627 574 699 574H12C5.37259 574 0 568.627 0 562V12Z" fill="white" style="fill:white;fill-opacity:1;"/>
<path d="M21.7 44C21.6333 44 21.5733 43.98 21.52 43.94C21.48 43.8867 21.46 43.8267 21.46 43.76V30.24C21.46 30.1733 21.48 30.12 21.52 30.08C21.5733 30.0267 21.6333 30 21.7 30H23.54C23.6067 30 23.66 30.0267 23.7 30.08C23.7533 30.12 23.78 30.1733 23.78 30.24V41.9C23.78 41.9667 23.8133 42 23.88 42H30.58C30.6467 42 30.7 42.0267 30.74 42.08C30.7933 42.12 30.82 42.1733 30.82 42.24V43.76C30.82 43.8267 30.7933 43.8867 30.74 43.94C30.7 43.98 30.6467 44 30.58 44H21.7ZM36.7658 33.62C37.6058 33.62 38.3458 33.7667 38.9858 34.06C39.6258 34.3533 40.1191 34.76 40.4658 35.28C40.8124 35.7867 40.9858 36.3667 40.9858 37.02V43.76C40.9858 43.8267 40.9591 43.8867 40.9058 43.94C40.8658 43.98 40.8124 44 40.7458 44H38.9058C38.8391 44 38.7791 43.98 38.7258 43.94C38.6858 43.8867 38.6658 43.8267 38.6658 43.76V43.12C38.6658 43.08 38.6524 43.06 38.6258 43.06C38.5991 43.0467 38.5724 43.0533 38.5458 43.08C37.8924 43.8 36.9458 44.16 35.7058 44.16C34.7058 44.16 33.8791 43.9067 33.2258 43.4C32.5858 42.8933 32.2658 42.14 32.2658 41.14C32.2658 40.1 32.6258 39.2933 33.3458 38.72C34.0791 38.1333 35.1058 37.84 36.4258 37.84H38.5658C38.6324 37.84 38.6658 37.8067 38.6658 37.74V37.26C38.6658 36.74 38.5124 36.34 38.2058 36.06C37.8991 35.7667 37.4391 35.62 36.8258 35.62C36.3191 35.62 35.9058 35.7133 35.5858 35.9C35.2791 36.0733 35.0858 36.32 35.0058 36.64C34.9658 36.8 34.8724 36.8667 34.7258 36.84L32.7858 36.6C32.7191 36.5867 32.6591 36.5667 32.6058 36.54C32.5658 36.5 32.5524 36.4533 32.5658 36.4C32.6724 35.5867 33.1058 34.92 33.8658 34.4C34.6391 33.88 35.6058 33.62 36.7658 33.62ZM36.2858 42.32C36.9391 42.32 37.4991 42.1467 37.9658 41.8C38.4324 41.4533 38.6658 41.0133 38.6658 40.48V39.54C38.6658 39.4733 38.6324 39.44 38.5658 39.44H36.8858C36.1791 39.44 35.6191 39.5733 35.2058 39.84C34.8058 40.1067 34.6058 40.4867 34.6058 40.98C34.6058 41.4067 34.7591 41.74 35.0658 41.98C35.3858 42.2067 35.7924 42.32 36.2858 42.32ZM48.7787 35.42C48.7787 35.4867 48.7521 35.5467 48.6988 35.6C48.6587 35.64 48.6054 35.66 48.5387 35.66H46.4987C46.4321 35.66 46.3987 35.6933 46.3987 35.76V40.58C46.3987 41.0867 46.5054 41.4533 46.7187 41.68C46.9454 41.9067 47.2987 42.02 47.7788 42.02H48.3788C48.4454 42.02 48.4987 42.0467 48.5387 42.1C48.5921 42.14 48.6187 42.1933 48.6187 42.26V43.76C48.6187 43.9067 48.5388 43.9933 48.3788 44.02L47.3387 44.04C46.2854 44.04 45.4987 43.86 44.9787 43.5C44.4587 43.14 44.1921 42.46 44.1787 41.46V35.76C44.1787 35.6933 44.1454 35.66 44.0787 35.66H42.9387C42.8721 35.66 42.8121 35.64 42.7587 35.6C42.7187 35.5467 42.6987 35.4867 42.6987 35.42V34.02C42.6987 33.9533 42.7187 33.9 42.7587 33.86C42.8121 33.8067 42.8721 33.78 42.9387 33.78H44.0787C44.1454 33.78 44.1787 33.7467 44.1787 33.68V31.34C44.1787 31.2733 44.1987 31.22 44.2387 31.18C44.2921 31.1267 44.3521 31.1 44.4187 31.1H46.1587C46.2254 31.1 46.2787 31.1267 46.3187 31.18C46.3721 31.22 46.3987 31.2733 46.3987 31.34V33.68C46.3987 33.7467 46.4321 33.78 46.4987 33.78H48.5387C48.6054 33.78 48.6587 33.8067 48.6988 33.86C48.7521 33.9 48.7787 33.9533 48.7787 34.02V35.42ZM59.4639 37.74C59.5172 38.0733 59.5439 38.4467 59.5439 38.86L59.5239 39.48C59.5239 39.64 59.4439 39.72 59.2839 39.72H53.0239C52.9572 39.72 52.9239 39.7533 52.9239 39.82C52.9639 40.26 53.0239 40.56 53.1039 40.72C53.4239 41.68 54.2039 42.1667 55.4439 42.18C56.3506 42.18 57.0706 41.8067 57.6039 41.06C57.6572 40.98 57.7239 40.94 57.8039 40.94C57.8572 40.94 57.9039 40.96 57.9439 41L59.1839 42.02C59.3039 42.1133 59.3239 42.22 59.2439 42.34C58.8306 42.9267 58.2772 43.38 57.5839 43.7C56.9039 44.02 56.1439 44.18 55.3039 44.18C54.2639 44.18 53.3772 43.9467 52.6439 43.48C51.9239 43.0133 51.3972 42.36 51.0639 41.52C50.7572 40.8 50.6039 39.8 50.6039 38.52C50.6039 37.7467 50.6839 37.12 50.8439 36.64C51.1106 35.7067 51.6106 34.9733 52.3439 34.44C53.0906 33.8933 53.9839 33.62 55.0239 33.62C57.6506 33.62 59.1306 34.9933 59.4639 37.74ZM55.0239 35.62C54.5306 35.62 54.1172 35.7467 53.7839 36C53.4639 36.24 53.2372 36.58 53.1039 37.02C53.0239 37.2467 52.9706 37.54 52.9439 37.9C52.9172 37.9667 52.9439 38 53.0239 38H57.0839C57.1506 38 57.1839 37.9667 57.1839 37.9C57.1572 37.5667 57.1172 37.3133 57.0639 37.14C56.9439 36.66 56.7039 36.2867 56.3439 36.02C55.9972 35.7533 55.5572 35.62 55.0239 35.62ZM65.508 44.12C64.668 44.12 63.928 44 63.288 43.76C62.6613 43.5067 62.1746 43.1667 61.828 42.74C61.4813 42.3 61.308 41.8133 61.308 41.28V41.1C61.308 41.0333 61.328 40.98 61.368 40.94C61.4213 40.8867 61.4813 40.86 61.548 40.86H63.308C63.3746 40.86 63.428 40.8867 63.468 40.94C63.5213 40.98 63.548 41.0333 63.548 41.1V41.14C63.548 41.4733 63.728 41.7667 64.088 42.02C64.4613 42.26 64.928 42.38 65.488 42.38C66.0213 42.38 66.4546 42.2733 66.788 42.06C67.1213 41.8333 67.288 41.5533 67.288 41.22C67.288 40.9133 67.148 40.6867 66.868 40.54C66.6013 40.38 66.1613 40.2133 65.548 40.04L64.788 39.8C64.108 39.6 63.5346 39.3867 63.068 39.16C62.6013 38.9333 62.208 38.6267 61.888 38.24C61.568 37.84 61.408 37.3333 61.408 36.72C61.408 35.7867 61.7746 35.0467 62.508 34.5C63.2413 33.94 64.208 33.66 65.408 33.66C66.2213 33.66 66.9346 33.7933 67.548 34.06C68.1613 34.3133 68.6346 34.6733 68.968 35.14C69.3013 35.5933 69.468 36.1133 69.468 36.7C69.468 36.7667 69.4413 36.8267 69.388 36.88C69.348 36.92 69.2946 36.94 69.228 36.94H67.528C67.4613 36.94 67.4013 36.92 67.348 36.88C67.308 36.8267 67.288 36.7667 67.288 36.7C67.288 36.3533 67.1146 36.0667 66.768 35.84C66.4346 35.6 65.9746 35.48 65.388 35.48C64.868 35.48 64.4413 35.58 64.108 35.78C63.788 35.9667 63.628 36.2333 63.628 36.58C63.628 36.9 63.7813 37.1467 64.088 37.32C64.408 37.48 64.9346 37.66 65.668 37.86L66.108 37.98C66.8146 38.1933 67.408 38.4133 67.888 38.64C68.368 38.8533 68.7746 39.16 69.108 39.56C69.4413 39.9467 69.608 40.4533 69.608 41.08C69.608 42.0267 69.2346 42.7733 68.488 43.32C67.7413 43.8533 66.748 44.12 65.508 44.12ZM77.1717 35.42C77.1717 35.4867 77.1451 35.5467 77.0917 35.6C77.0517 35.64 76.9984 35.66 76.9317 35.66H74.8917C74.8251 35.66 74.7917 35.6933 74.7917 35.76V40.58C74.7917 41.0867 74.8984 41.4533 75.1117 41.68C75.3384 41.9067 75.6917 42.02 76.1717 42.02H76.7717C76.8384 42.02 76.8917 42.0467 76.9317 42.1C76.9851 42.14 77.0117 42.1933 77.0117 42.26V43.76C77.0117 43.9067 76.9317 43.9933 76.7717 44.02L75.7317 44.04C74.6784 44.04 73.8917 43.86 73.3717 43.5C72.8517 43.14 72.5851 42.46 72.5717 41.46V35.76C72.5717 35.6933 72.5384 35.66 72.4717 35.66H71.3317C71.2651 35.66 71.2051 35.64 71.1517 35.6C71.1117 35.5467 71.0917 35.4867 71.0917 35.42V34.02C71.0917 33.9533 71.1117 33.9 71.1517 33.86C71.2051 33.8067 71.2651 33.78 71.3317 33.78H72.4717C72.5384 33.78 72.5717 33.7467 72.5717 33.68V31.34C72.5717 31.2733 72.5917 31.22 72.6317 31.18C72.6851 31.1267 72.7451 31.1 72.8117 31.1H74.5517C74.6184 31.1 74.6717 31.1267 74.7117 31.18C74.7651 31.22 74.7917 31.2733 74.7917 31.34V33.68C74.7917 33.7467 74.8251 33.78 74.8917 33.78H76.9317C76.9984 33.78 77.0517 33.8067 77.0917 33.86C77.1451 33.9 77.1717 33.9533 77.1717 34.02V35.42ZM89.4761 29.98C90.3161 29.98 91.0561 30.1533 91.6961 30.5C92.3361 30.8467 92.8294 31.34 93.1761 31.98C93.5361 32.6067 93.7161 33.3333 93.7161 34.16C93.7161 34.9733 93.5361 35.6933 93.1761 36.32C92.8161 36.9467 92.3028 37.4333 91.6361 37.78C90.9828 38.1133 90.2228 38.28 89.3561 38.28H86.1561C86.0894 38.28 86.0561 38.3133 86.0561 38.38V43.76C86.0561 43.8267 86.0294 43.8867 85.9761 43.94C85.9361 43.98 85.8828 44 85.8161 44H83.9761C83.9094 44 83.8494 43.98 83.7961 43.94C83.7561 43.8867 83.7361 43.8267 83.7361 43.76V30.22C83.7361 30.1533 83.7561 30.1 83.7961 30.06C83.8494 30.0067 83.9094 29.98 83.9761 29.98H89.4761ZM89.1361 36.4C89.8161 36.4 90.3628 36.2 90.7761 35.8C91.1894 35.4 91.3961 34.8733 91.3961 34.22C91.3961 33.5533 91.1894 33.0133 90.7761 32.6C90.3628 32.1867 89.8161 31.98 89.1361 31.98H86.1561C86.0894 31.98 86.0561 32.0133 86.0561 32.08V36.3C86.0561 36.3667 86.0894 36.4 86.1561 36.4H89.1361ZM100.491 33.66C100.917 33.66 101.291 33.7467 101.611 33.92C101.717 33.9733 101.757 34.0733 101.731 34.22L101.391 36.02C101.377 36.18 101.284 36.2267 101.111 36.16C100.911 36.0933 100.677 36.06 100.411 36.06C100.237 36.06 100.104 36.0667 100.011 36.08C99.4506 36.1067 98.984 36.3067 98.6106 36.68C98.2373 37.04 98.0506 37.5133 98.0506 38.1V43.76C98.0506 43.8267 98.024 43.8867 97.9706 43.94C97.9306 43.98 97.8773 44 97.8106 44H95.9706C95.904 44 95.844 43.98 95.7906 43.94C95.7506 43.8867 95.7306 43.8267 95.7306 43.76V34.02C95.7306 33.9533 95.7506 33.9 95.7906 33.86C95.844 33.8067 95.904 33.78 95.9706 33.78H97.8106C97.8773 33.78 97.9306 33.8067 97.9706 33.86C98.024 33.9 98.0506 33.9533 98.0506 34.02V34.92C98.0506 34.9733 98.0573 35.0067 98.0706 35.02C98.0973 35.02 98.124 35 98.1506 34.96C98.7106 34.0933 99.4906 33.66 100.491 33.66ZM107.595 44.16C106.542 44.16 105.635 43.8933 104.875 43.36C104.128 42.8267 103.602 42.0867 103.295 41.14C103.068 40.42 102.955 39.66 102.955 38.86C102.955 38.0067 103.062 37.2467 103.275 36.58C103.582 35.6467 104.115 34.92 104.875 34.4C105.635 33.88 106.548 33.62 107.615 33.62C108.628 33.62 109.502 33.88 110.235 34.4C110.982 34.92 111.508 35.64 111.815 36.56C112.055 37.2 112.175 37.96 112.175 38.84C112.175 39.68 112.062 40.44 111.835 41.12C111.528 42.0667 111.002 42.8133 110.255 43.36C109.508 43.8933 108.622 44.16 107.595 44.16ZM107.595 42.16C108.088 42.16 108.508 42.02 108.855 41.74C109.215 41.46 109.475 41.0667 109.635 40.56C109.768 40.12 109.835 39.56 109.835 38.88C109.835 38.16 109.768 37.6 109.635 37.2C109.488 36.6933 109.235 36.3067 108.875 36.04C108.515 35.76 108.075 35.62 107.555 35.62C107.062 35.62 106.635 35.76 106.275 36.04C105.915 36.3067 105.655 36.6933 105.495 37.2C105.362 37.6667 105.295 38.2267 105.295 38.88C105.295 39.5333 105.362 40.0933 105.495 40.56C105.642 41.0667 105.895 41.46 106.255 41.74C106.628 42.02 107.075 42.16 107.595 42.16ZM115.808 32.38C115.395 32.38 115.055 32.2467 114.788 31.98C114.521 31.7133 114.388 31.3733 114.388 30.96C114.388 30.5467 114.521 30.2067 114.788 29.94C115.055 29.6733 115.395 29.54 115.808 29.54C116.221 29.54 116.561 29.6733 116.828 29.94C117.095 30.2067 117.228 30.5467 117.228 30.96C117.228 31.3733 117.095 31.7133 116.828 31.98C116.561 32.2467 116.221 32.38 115.808 32.38ZM112.548 48.1C112.388 48.1 112.308 48.02 112.308 47.86V46.38C112.308 46.22 112.395 46.1467 112.568 46.16C113.328 46.1733 113.868 46.0333 114.188 45.74C114.508 45.46 114.668 44.9933 114.668 44.34L114.648 34.02C114.648 33.9533 114.668 33.9 114.708 33.86C114.761 33.8067 114.821 33.78 114.888 33.78H116.728C116.795 33.78 116.848 33.8067 116.888 33.86C116.941 33.9 116.968 33.9533 116.968 34.02V44.32C116.968 45.2933 116.828 46.0533 116.548 46.6C116.281 47.1467 115.828 47.54 115.188 47.78C114.561 48.02 113.681 48.1267 112.548 48.1ZM128.408 37.74C128.461 38.0733 128.488 38.4467 128.488 38.86L128.468 39.48C128.468 39.64 128.388 39.72 128.228 39.72H121.968C121.901 39.72 121.868 39.7533 121.868 39.82C121.908 40.26 121.968 40.56 122.048 40.72C122.368 41.68 123.148 42.1667 124.388 42.18C125.294 42.18 126.014 41.8067 126.548 41.06C126.601 40.98 126.668 40.94 126.748 40.94C126.801 40.94 126.848 40.96 126.888 41L128.128 42.02C128.248 42.1133 128.268 42.22 128.188 42.34C127.774 42.9267 127.221 43.38 126.528 43.7C125.848 44.02 125.088 44.18 124.248 44.18C123.208 44.18 122.321 43.9467 121.588 43.48C120.868 43.0133 120.341 42.36 120.008 41.52C119.701 40.8 119.548 39.8 119.548 38.52C119.548 37.7467 119.628 37.12 119.788 36.64C120.054 35.7067 120.554 34.9733 121.288 34.44C122.034 33.8933 122.928 33.62 123.968 33.62C126.594 33.62 128.074 34.9933 128.408 37.74ZM123.968 35.62C123.474 35.62 123.061 35.7467 122.728 36C122.408 36.24 122.181 36.58 122.048 37.02C121.968 37.2467 121.914 37.54 121.888 37.9C121.861 37.9667 121.888 38 121.968 38H126.028C126.094 38 126.128 37.9667 126.128 37.9C126.101 37.5667 126.061 37.3133 126.008 37.14C125.888 36.66 125.648 36.2867 125.288 36.02C124.941 35.7533 124.501 35.62 123.968 35.62ZM135.068 44.16C134.041 44.16 133.155 43.9 132.408 43.38C131.661 42.8467 131.141 42.1333 130.848 41.24C130.635 40.64 130.528 39.84 130.528 38.84C130.528 37.88 130.635 37.0933 130.848 36.48C131.128 35.6 131.641 34.9067 132.388 34.4C133.148 33.88 134.041 33.62 135.068 33.62C136.108 33.62 137.015 33.88 137.788 34.4C138.561 34.92 139.075 35.5733 139.328 36.36C139.395 36.5733 139.441 36.7867 139.468 37V37.04C139.468 37.1733 139.395 37.2533 139.248 37.28L137.448 37.54H137.408C137.288 37.54 137.208 37.4733 137.168 37.34C137.168 37.2733 137.161 37.22 137.148 37.18C137.121 37.0733 137.095 36.98 137.068 36.9C136.948 36.5267 136.708 36.22 136.348 35.98C135.988 35.74 135.561 35.62 135.068 35.62C134.561 35.62 134.128 35.7533 133.768 36.02C133.421 36.2733 133.188 36.6267 133.068 37.08C132.935 37.5067 132.868 38.1 132.868 38.86C132.868 39.5933 132.928 40.1867 133.048 40.64C133.181 41.1067 133.421 41.48 133.768 41.76C134.115 42.0267 134.548 42.16 135.068 42.16C135.575 42.16 136.008 42.0333 136.368 41.78C136.741 41.5133 136.981 41.16 137.088 40.72C137.101 40.6933 137.108 40.66 137.108 40.62C137.121 40.6067 137.128 40.5867 137.128 40.56C137.168 40.4 137.261 40.3333 137.408 40.36L139.208 40.64C139.275 40.6533 139.328 40.6867 139.368 40.74C139.421 40.78 139.441 40.84 139.428 40.92C139.388 41.1333 139.355 41.2867 139.328 41.38C139.075 42.2333 138.561 42.9133 137.788 43.42C137.015 43.9133 136.108 44.16 135.068 44.16ZM147.053 35.42C147.053 35.4867 147.026 35.5467 146.973 35.6C146.933 35.64 146.88 35.66 146.813 35.66H144.773C144.706 35.66 144.673 35.6933 144.673 35.76V40.58C144.673 41.0867 144.78 41.4533 144.993 41.68C145.22 41.9067 145.573 42.02 146.053 42.02H146.653C146.72 42.02 146.773 42.0467 146.813 42.1C146.866 42.14 146.893 42.1933 146.893 42.26V43.76C146.893 43.9067 146.813 43.9933 146.653 44.02L145.613 44.04C144.56 44.04 143.773 43.86 143.253 43.5C142.733 43.14 142.466 42.46 142.453 41.46V35.76C142.453 35.6933 142.42 35.66 142.353 35.66H141.213C141.146 35.66 141.086 35.64 141.033 35.6C140.993 35.5467 140.973 35.4867 140.973 35.42V34.02C140.973 33.9533 140.993 33.9 141.033 33.86C141.086 33.8067 141.146 33.78 141.213 33.78H142.353C142.42 33.78 142.453 33.7467 142.453 33.68V31.34C142.453 31.2733 142.473 31.22 142.513 31.18C142.566 31.1267 142.626 31.1 142.693 31.1H144.433C144.5 31.1 144.553 31.1267 144.593 31.18C144.646 31.22 144.673 31.2733 144.673 31.34V33.68C144.673 33.7467 144.706 33.78 144.773 33.78H146.813C146.88 33.78 146.933 33.8067 146.973 33.86C147.026 33.9 147.053 33.9533 147.053 34.02V35.42ZM162.417 44C162.284 44 162.197 43.9333 162.157 43.8L161.497 41.66C161.471 41.6067 161.437 41.58 161.397 41.58H156.117C156.077 41.58 156.044 41.6067 156.017 41.66L155.357 43.8C155.317 43.9333 155.231 44 155.097 44H153.097C153.017 44 152.957 43.98 152.917 43.94C152.877 43.8867 152.871 43.8133 152.897 43.72L157.237 30.2C157.277 30.0667 157.364 30 157.497 30H159.997C160.131 30 160.217 30.0667 160.257 30.2L164.617 43.72C164.631 43.7467 164.637 43.78 164.637 43.82C164.637 43.94 164.564 44 164.417 44H162.417ZM156.637 39.64C156.624 39.72 156.651 39.76 156.717 39.76H160.777C160.857 39.76 160.884 39.72 160.857 39.64L158.797 32.94C158.784 32.8867 158.764 32.86 158.737 32.86C158.711 32.86 158.691 32.8867 158.677 32.94L156.637 39.64ZM170.634 44.16C169.607 44.16 168.72 43.9 167.974 43.38C167.227 42.8467 166.707 42.1333 166.414 41.24C166.2 40.64 166.094 39.84 166.094 38.84C166.094 37.88 166.2 37.0933 166.414 36.48C166.694 35.6 167.207 34.9067 167.954 34.4C168.714 33.88 169.607 33.62 170.634 33.62C171.674 33.62 172.58 33.88 173.354 34.4C174.127 34.92 174.64 35.5733 174.894 36.36C174.96 36.5733 175.007 36.7867 175.034 37V37.04C175.034 37.1733 174.96 37.2533 174.814 37.28L173.014 37.54H172.974C172.854 37.54 172.774 37.4733 172.734 37.34C172.734 37.2733 172.727 37.22 172.714 37.18C172.687 37.0733 172.66 36.98 172.634 36.9C172.514 36.5267 172.274 36.22 171.914 35.98C171.554 35.74 171.127 35.62 170.634 35.62C170.127 35.62 169.694 35.7533 169.334 36.02C168.987 36.2733 168.754 36.6267 168.634 37.08C168.5 37.5067 168.434 38.1 168.434 38.86C168.434 39.5933 168.494 40.1867 168.614 40.64C168.747 41.1067 168.987 41.48 169.334 41.76C169.68 42.0267 170.114 42.16 170.634 42.16C171.14 42.16 171.574 42.0333 171.934 41.78C172.307 41.5133 172.547 41.16 172.654 40.72C172.667 40.6933 172.674 40.66 172.674 40.62C172.687 40.6067 172.694 40.5867 172.694 40.56C172.734 40.4 172.827 40.3333 172.974 40.36L174.774 40.64C174.84 40.6533 174.894 40.6867 174.934 40.74C174.987 40.78 175.007 40.84 174.994 40.92C174.954 41.1333 174.92 41.2867 174.894 41.38C174.64 42.2333 174.127 42.9133 173.354 43.42C172.58 43.9133 171.674 44.16 170.634 44.16ZM182.619 35.42C182.619 35.4867 182.592 35.5467 182.539 35.6C182.499 35.64 182.445 35.66 182.379 35.66H180.339C180.272 35.66 180.239 35.6933 180.239 35.76V40.58C180.239 41.0867 180.345 41.4533 180.559 41.68C180.785 41.9067 181.139 42.02 181.619 42.02H182.219C182.285 42.02 182.339 42.0467 182.379 42.1C182.432 42.14 182.459 42.1933 182.459 42.26V43.76C182.459 43.9067 182.379 43.9933 182.219 44.02L181.179 44.04C180.125 44.04 179.339 43.86 178.819 43.5C178.299 43.14 178.032 42.46 178.019 41.46V35.76C178.019 35.6933 177.985 35.66 177.919 35.66H176.779C176.712 35.66 176.652 35.64 176.599 35.6C176.559 35.5467 176.539 35.4867 176.539 35.42V34.02C176.539 33.9533 176.559 33.9 176.599 33.86C176.652 33.8067 176.712 33.78 176.779 33.78H177.919C177.985 33.78 178.019 33.7467 178.019 33.68V31.34C178.019 31.2733 178.039 31.22 178.079 31.18C178.132 31.1267 178.192 31.1 178.259 31.1H179.999C180.065 31.1 180.119 31.1267 180.159 31.18C180.212 31.22 180.239 31.2733 180.239 31.34V33.68C180.239 33.7467 180.272 33.78 180.339 33.78H182.379C182.445 33.78 182.499 33.8067 182.539 33.86C182.592 33.9 182.619 33.9533 182.619 34.02V35.42ZM186.199 32.38C185.786 32.38 185.446 32.2467 185.179 31.98C184.912 31.7133 184.779 31.3733 184.779 30.96C184.779 30.5467 184.912 30.2067 185.179 29.94C185.446 29.6733 185.786 29.54 186.199 29.54C186.612 29.54 186.952 29.6733 187.219 29.94C187.486 30.2067 187.619 30.5467 187.619 30.96C187.619 31.3733 187.486 31.7133 187.219 31.98C186.952 32.2467 186.612 32.38 186.199 32.38ZM185.239 44C185.172 44 185.112 43.98 185.059 43.94C185.019 43.8867 184.999 43.8267 184.999 43.76V34C184.999 33.9333 185.019 33.88 185.059 33.84C185.112 33.7867 185.172 33.76 185.239 33.76H187.079C187.146 33.76 187.199 33.7867 187.239 33.84C187.292 33.88 187.319 33.9333 187.319 34V43.76C187.319 43.8267 187.292 43.8867 187.239 43.94C187.199 43.98 187.146 44 187.079 44H185.239ZM192.937 44C192.803 44 192.717 43.9333 192.677 43.8L189.457 34.04C189.443 34.0133 189.437 33.98 189.437 33.94C189.437 33.82 189.51 33.76 189.657 33.76H191.697C191.843 33.76 191.937 33.8267 191.977 33.96L193.917 40.64C193.93 40.68 193.95 40.7 193.977 40.7C194.003 40.7 194.023 40.68 194.037 40.64L195.977 33.96C196.017 33.8267 196.11 33.76 196.257 33.76L198.297 33.8C198.377 33.8 198.437 33.8267 198.477 33.88C198.517 33.92 198.523 33.9867 198.497 34.08L195.297 43.8C195.257 43.9333 195.17 44 195.037 44H192.937ZM201.775 32.38C201.362 32.38 201.022 32.2467 200.755 31.98C200.488 31.7133 200.355 31.3733 200.355 30.96C200.355 30.5467 200.488 30.2067 200.755 29.94C201.022 29.6733 201.362 29.54 201.775 29.54C202.188 29.54 202.528 29.6733 202.795 29.94C203.062 30.2067 203.195 30.5467 203.195 30.96C203.195 31.3733 203.062 31.7133 202.795 31.98C202.528 32.2467 202.188 32.38 201.775 32.38ZM200.815 44C200.748 44 200.688 43.98 200.635 43.94C200.595 43.8867 200.575 43.8267 200.575 43.76V34C200.575 33.9333 200.595 33.88 200.635 33.84C200.688 33.7867 200.748 33.76 200.815 33.76H202.655C202.722 33.76 202.775 33.7867 202.815 33.84C202.868 33.88 202.895 33.9333 202.895 34V43.76C202.895 43.8267 202.868 43.8867 202.815 43.94C202.775 43.98 202.722 44 202.655 44H200.815ZM211.172 35.42C211.172 35.4867 211.146 35.5467 211.092 35.6C211.052 35.64 210.999 35.66 210.932 35.66H208.892C208.826 35.66 208.792 35.6933 208.792 35.76V40.58C208.792 41.0867 208.899 41.4533 209.112 41.68C209.339 41.9067 209.692 42.02 210.172 42.02H210.772C210.839 42.02 210.892 42.0467 210.932 42.1C210.986 42.14 211.012 42.1933 211.012 42.26V43.76C211.012 43.9067 210.932 43.9933 210.772 44.02L209.732 44.04C208.679 44.04 207.892 43.86 207.372 43.5C206.852 43.14 206.586 42.46 206.572 41.46V35.76C206.572 35.6933 206.539 35.66 206.472 35.66H205.332C205.266 35.66 205.206 35.64 205.152 35.6C205.112 35.5467 205.092 35.4867 205.092 35.42V34.02C205.092 33.9533 205.112 33.9 205.152 33.86C205.206 33.8067 205.266 33.78 205.332 33.78H206.472C206.539 33.78 206.572 33.7467 206.572 33.68V31.34C206.572 31.2733 206.592 31.22 206.632 31.18C206.686 31.1267 206.746 31.1 206.812 31.1H208.552C208.619 31.1 208.672 31.1267 208.712 31.18C208.766 31.22 208.792 31.2733 208.792 31.34V33.68C208.792 33.7467 208.826 33.78 208.892 33.78H210.932C210.999 33.78 211.052 33.8067 211.092 33.86C211.146 33.9 211.172 33.9533 211.172 34.02V35.42ZM213.233 47.98C213.193 47.98 213.16 47.9533 213.133 47.9C213.106 47.86 213.093 47.8067 213.093 47.74V46.3C213.093 46.2333 213.113 46.1733 213.153 46.12C213.206 46.08 213.266 46.06 213.333 46.06H213.353C213.9 46.0467 214.326 45.9867 214.633 45.88C214.94 45.7867 215.193 45.6 215.393 45.32C215.593 45.04 215.773 44.62 215.933 44.06C215.946 44.0333 215.946 43.9933 215.933 43.94L212.633 34.04C212.62 34.0133 212.613 33.98 212.613 33.94C212.613 33.82 212.68 33.76 212.813 33.76H214.773C214.92 33.76 215.013 33.8267 215.053 33.96L217.053 41C217.066 41.04 217.086 41.06 217.113 41.06C217.14 41.06 217.16 41.04 217.173 41L219.173 33.96C219.213 33.8267 219.306 33.76 219.453 33.76H221.353C221.433 33.76 221.486 33.7867 221.513 33.84C221.553 33.88 221.56 33.9467 221.533 34.04L218.013 44.56C217.68 45.5067 217.353 46.2133 217.033 46.68C216.713 47.1467 216.273 47.48 215.713 47.68C215.166 47.88 214.386 47.98 213.373 47.98H213.233Z" fill="black" style="fill:black;fill-opacity:1;"/>
</svg>
