<svg width="25" height="24" viewBox="0 0 25 24" fill="none" xmlns="http://www.w3.org/2000/svg">
<path opacity="0.4" d="M9.59961 2C6.97961 2 4.84961 4.13 4.84961 6.75C4.84961 9.32 6.85961 11.4 9.47961 11.49C9.55961 11.48 9.63961 11.48 9.69961 11.49C9.71961 11.49 9.72961 11.49 9.74961 11.49C9.75961 11.49 9.75961 11.49 9.76961 11.49C12.3296 11.4 14.3396 9.32 14.3496 6.75C14.3496 4.13 12.2196 2 9.59961 2Z" fill="#8F257E" style="fill:#8F257E;fill:color(display-p3 0.5616 0.1441 0.4948);fill-opacity:1;"/>
<path d="M14.6805 14.1499C11.8905 12.2899 7.34055 12.2899 4.53055 14.1499C3.26055 14.9999 2.56055 16.1499 2.56055 17.3799C2.56055 18.6099 3.26055 19.7499 4.52055 20.5899C5.92055 21.5299 7.76055 21.9999 9.60055 21.9999C11.4405 21.9999 13.2805 21.5299 14.6805 20.5899C15.9405 19.7399 16.6405 18.5999 16.6405 17.3599C16.6305 16.1299 15.9405 14.9899 14.6805 14.1499Z" fill="#8F257E" style="fill:#8F257E;fill:color(display-p3 0.5616 0.1441 0.4948);fill-opacity:1;"/>
<path opacity="0.4" d="M20.589 7.3401C20.749 9.2801 19.369 10.9801 17.459 11.2101C17.449 11.2101 17.449 11.2101 17.439 11.2101H17.409C17.349 11.2101 17.289 11.2101 17.239 11.2301C16.269 11.2801 15.379 10.9701 14.709 10.4001C15.739 9.4801 16.329 8.1001 16.209 6.6001C16.139 5.7901 15.859 5.0501 15.439 4.4201C15.819 4.2301 16.259 4.1101 16.709 4.0701C18.669 3.9001 20.419 5.3601 20.589 7.3401Z" fill="#8F257E" style="fill:#8F257E;fill:color(display-p3 0.5616 0.1441 0.4948);fill-opacity:1;"/>
<path d="M22.5898 16.5899C22.5098 17.5599 21.8898 18.3999 20.8498 18.9699C19.8498 19.5199 18.5898 19.7799 17.3398 19.7499C18.0598 19.0999 18.4798 18.2899 18.5598 17.4299C18.6598 16.1899 18.0698 14.9999 16.8898 14.0499C16.2198 13.5199 15.4398 13.0999 14.5898 12.7899C16.7998 12.1499 19.5798 12.5799 21.2898 13.9599C22.2098 14.6999 22.6798 15.6299 22.5898 16.5899Z" fill="#8F257E" style="fill:#8F257E;fill:color(display-p3 0.5616 0.1441 0.4948);fill-opacity:1;"/>
</svg>
