<svg width="1078" height="100" viewBox="0 0 1078 100" fill="none" xmlns="http://www.w3.org/2000/svg">
<path d="M0.5 12C0.5 5.64873 5.64873 0.5 12 0.5H1066C1072.35 0.5 1077.5 5.64872 1077.5 12V88C1077.5 94.3513 1072.35 99.5 1066 99.5H12C5.6487 99.5 0.5 94.3513 0.5 88V12Z" stroke="#D4DBE4" style="stroke:#D4DBE4;stroke:color(display-p3 0.8323 0.8574 0.8949);stroke-opacity:1;"/>
<path d="M29.6 25.24C29.6 25.1733 29.62 25.12 29.66 25.08C29.7133 25.0267 29.7733 25 29.84 25H31.68C31.7467 25 31.8 25.0267 31.84 25.08C31.8933 25.12 31.92 25.1733 31.92 25.24V38.76C31.92 38.8267 31.8933 38.8867 31.84 38.94C31.8 38.98 31.7467 39 31.68 39H29.9C29.7667 39 29.6733 38.9467 29.62 38.84L23.86 29.4C23.8333 29.36 23.8067 29.3467 23.78 29.36C23.7533 29.36 23.74 29.3867 23.74 29.44L23.78 38.76C23.78 38.8267 23.7533 38.8867 23.7 38.94C23.66 38.98 23.6067 39 23.54 39H21.7C21.6333 39 21.5733 38.98 21.52 38.94C21.48 38.8867 21.46 38.8267 21.46 38.76V25.24C21.46 25.1733 21.48 25.12 21.52 25.08C21.5733 25.0267 21.6333 25 21.7 25H23.48C23.6133 25 23.7067 25.0533 23.76 25.16L29.5 34.6C29.5267 34.64 29.5533 34.66 29.58 34.66C29.6067 34.6467 29.62 34.6133 29.62 34.56L29.6 25.24ZM43.4389 32.74C43.4922 33.0733 43.5189 33.4467 43.5189 33.86L43.4989 34.48C43.4989 34.64 43.4189 34.72 43.2589 34.72H36.9989C36.9322 34.72 36.8989 34.7533 36.8989 34.82C36.9389 35.26 36.9989 35.56 37.0789 35.72C37.3989 36.68 38.1789 37.1667 39.4189 37.18C40.3256 37.18 41.0456 36.8067 41.5789 36.06C41.6322 35.98 41.6989 35.94 41.7789 35.94C41.8322 35.94 41.8789 35.96 41.9189 36L43.1589 37.02C43.2789 37.1133 43.2989 37.22 43.2189 37.34C42.8056 37.9267 42.2522 38.38 41.5589 38.7C40.8789 39.02 40.1189 39.18 39.2789 39.18C38.2389 39.18 37.3522 38.9467 36.6189 38.48C35.8989 38.0133 35.3722 37.36 35.0389 36.52C34.7322 35.8 34.5789 34.8 34.5789 33.52C34.5789 32.7467 34.6589 32.12 34.8189 31.64C35.0856 30.7067 35.5856 29.9733 36.3189 29.44C37.0656 28.8933 37.9589 28.62 38.9989 28.62C41.6256 28.62 43.1056 29.9933 43.4389 32.74ZM38.9989 30.62C38.5056 30.62 38.0922 30.7467 37.7589 31C37.4389 31.24 37.2122 31.58 37.0789 32.02C36.9989 32.2467 36.9456 32.54 36.9189 32.9C36.8922 32.9667 36.9189 33 36.9989 33H41.0589C41.1256 33 41.1589 32.9667 41.1589 32.9C41.1322 32.5667 41.0922 32.3133 41.0389 32.14C40.9189 31.66 40.6789 31.2867 40.3189 31.02C39.9722 30.7533 39.5322 30.62 38.9989 30.62ZM47.81 39C47.6633 39 47.57 38.9333 47.53 38.8L44.67 29.04L44.65 28.96C44.65 28.8267 44.7233 28.76 44.87 28.76H46.77C46.9167 28.76 47.01 28.8267 47.05 28.96L48.71 35.64C48.7233 35.68 48.7433 35.7 48.77 35.7C48.7967 35.7 48.8167 35.68 48.83 35.64L50.57 28.96C50.61 28.8267 50.7033 28.76 50.85 28.76H52.51C52.6567 28.76 52.75 28.8267 52.79 28.96L54.57 35.64C54.5833 35.68 54.6033 35.7 54.63 35.7C54.6567 35.7 54.6767 35.68 54.69 35.64L56.47 28.96C56.51 28.8267 56.6033 28.76 56.75 28.76L58.63 28.8C58.71 28.8 58.7633 28.8267 58.79 28.88C58.83 28.92 58.8433 28.98 58.83 29.06L55.95 38.8C55.91 38.9333 55.8233 39 55.69 39H53.77C53.6233 39 53.53 38.9333 53.49 38.8L51.73 32.7C51.7167 32.66 51.6967 32.64 51.67 32.64C51.6433 32.64 51.6233 32.66 51.61 32.7L49.99 38.8C49.95 38.9333 49.8567 39 49.71 39H47.81ZM63.9212 39.12C63.0812 39.12 62.3412 39 61.7012 38.76C61.0746 38.5067 60.5879 38.1667 60.2412 37.74C59.8946 37.3 59.7212 36.8133 59.7212 36.28V36.1C59.7212 36.0333 59.7412 35.98 59.7812 35.94C59.8346 35.8867 59.8946 35.86 59.9612 35.86H61.7212C61.7879 35.86 61.8412 35.8867 61.8812 35.94C61.9346 35.98 61.9612 36.0333 61.9612 36.1V36.14C61.9612 36.4733 62.1412 36.7667 62.5012 37.02C62.8746 37.26 63.3412 37.38 63.9012 37.38C64.4346 37.38 64.8679 37.2733 65.2012 37.06C65.5346 36.8333 65.7012 36.5533 65.7012 36.22C65.7012 35.9133 65.5612 35.6867 65.2812 35.54C65.0146 35.38 64.5746 35.2133 63.9612 35.04L63.2012 34.8C62.5212 34.6 61.9479 34.3867 61.4812 34.16C61.0146 33.9333 60.6212 33.6267 60.3012 33.24C59.9812 32.84 59.8212 32.3333 59.8212 31.72C59.8212 30.7867 60.1879 30.0467 60.9212 29.5C61.6546 28.94 62.6212 28.66 63.8212 28.66C64.6346 28.66 65.3479 28.7933 65.9612 29.06C66.5746 29.3133 67.0479 29.6733 67.3812 30.14C67.7146 30.5933 67.8812 31.1133 67.8812 31.7C67.8812 31.7667 67.8546 31.8267 67.8012 31.88C67.7612 31.92 67.7079 31.94 67.6412 31.94H65.9412C65.8746 31.94 65.8146 31.92 65.7612 31.88C65.7212 31.8267 65.7012 31.7667 65.7012 31.7C65.7012 31.3533 65.5279 31.0667 65.1812 30.84C64.8479 30.6 64.3879 30.48 63.8012 30.48C63.2812 30.48 62.8546 30.58 62.5212 30.78C62.2012 30.9667 62.0412 31.2333 62.0412 31.58C62.0412 31.9 62.1946 32.1467 62.5012 32.32C62.8212 32.48 63.3479 32.66 64.0812 32.86L64.5212 32.98C65.2279 33.1933 65.8212 33.4133 66.3012 33.64C66.7812 33.8533 67.1879 34.16 67.5212 34.56C67.8546 34.9467 68.0212 35.4533 68.0212 36.08C68.0212 37.0267 67.6479 37.7733 66.9012 38.32C66.1546 38.8533 65.1612 39.12 63.9212 39.12ZM82.4284 31.7C82.3484 31.74 82.3484 31.78 82.4284 31.82C83.7884 32.46 84.4684 33.56 84.4684 35.12C84.4684 36.3867 84.0418 37.3533 83.1884 38.02C82.3484 38.6733 81.2484 39 79.8884 39H74.8484C74.7818 39 74.7218 38.98 74.6684 38.94C74.6284 38.8867 74.6084 38.8267 74.6084 38.76V25.24C74.6084 25.1733 74.6284 25.12 74.6684 25.08C74.7218 25.0267 74.7818 25 74.8484 25H79.7284C81.1818 25 82.3018 25.3133 83.0884 25.94C83.8751 26.5667 84.2684 27.5133 84.2684 28.78C84.2684 30.18 83.6551 31.1533 82.4284 31.7ZM77.0284 27C76.9618 27 76.9284 27.0333 76.9284 27.1V30.8C76.9284 30.8667 76.9618 30.9 77.0284 30.9H79.7284C80.4351 30.9 80.9884 30.7333 81.3884 30.4C81.8018 30.0533 82.0084 29.58 82.0084 28.98C82.0084 28.3667 81.8018 27.8867 81.3884 27.54C80.9884 27.18 80.4351 27 79.7284 27H77.0284ZM79.8884 36.98C80.5818 36.98 81.1284 36.7933 81.5284 36.42C81.9418 36.0467 82.1484 35.54 82.1484 34.9C82.1484 34.2467 81.9418 33.74 81.5284 33.38C81.1151 33.0067 80.5551 32.82 79.8484 32.82H77.0284C76.9618 32.82 76.9284 32.8533 76.9284 32.92V36.88C76.9284 36.9467 76.9618 36.98 77.0284 36.98H79.8884ZM91.3698 39.16C90.3165 39.16 89.4098 38.8933 88.6498 38.36C87.9032 37.8267 87.3765 37.0867 87.0698 36.14C86.8432 35.42 86.7298 34.66 86.7298 33.86C86.7298 33.0067 86.8365 32.2467 87.0498 31.58C87.3565 30.6467 87.8898 29.92 88.6498 29.4C89.4098 28.88 90.3232 28.62 91.3898 28.62C92.4032 28.62 93.2765 28.88 94.0098 29.4C94.7565 29.92 95.2832 30.64 95.5898 31.56C95.8298 32.2 95.9498 32.96 95.9498 33.84C95.9498 34.68 95.8365 35.44 95.6098 36.12C95.3032 37.0667 94.7765 37.8133 94.0298 38.36C93.2832 38.8933 92.3965 39.16 91.3698 39.16ZM91.3698 37.16C91.8632 37.16 92.2832 37.02 92.6298 36.74C92.9898 36.46 93.2498 36.0667 93.4098 35.56C93.5432 35.12 93.6098 34.56 93.6098 33.88C93.6098 33.16 93.5432 32.6 93.4098 32.2C93.2632 31.6933 93.0098 31.3067 92.6498 31.04C92.2898 30.76 91.8498 30.62 91.3298 30.62C90.8365 30.62 90.4098 30.76 90.0498 31.04C89.6898 31.3067 89.4298 31.6933 89.2698 32.2C89.1365 32.6667 89.0698 33.2267 89.0698 33.88C89.0698 34.5333 89.1365 35.0933 89.2698 35.56C89.4165 36.0667 89.6698 36.46 90.0298 36.74C90.4032 37.02 90.8498 37.16 91.3698 37.16ZM102.243 28.62C103.083 28.62 103.823 28.7667 104.463 29.06C105.103 29.3533 105.596 29.76 105.943 30.28C106.29 30.7867 106.463 31.3667 106.463 32.02V38.76C106.463 38.8267 106.436 38.8867 106.383 38.94C106.343 38.98 106.29 39 106.223 39H104.383C104.316 39 104.256 38.98 104.203 38.94C104.163 38.8867 104.143 38.8267 104.143 38.76V38.12C104.143 38.08 104.13 38.06 104.103 38.06C104.076 38.0467 104.05 38.0533 104.023 38.08C103.37 38.8 102.423 39.16 101.183 39.16C100.183 39.16 99.3565 38.9067 98.7031 38.4C98.0631 37.8933 97.7431 37.14 97.7431 36.14C97.7431 35.1 98.1031 34.2933 98.8231 33.72C99.5565 33.1333 100.583 32.84 101.903 32.84H104.043C104.11 32.84 104.143 32.8067 104.143 32.74V32.26C104.143 31.74 103.99 31.34 103.683 31.06C103.376 30.7667 102.916 30.62 102.303 30.62C101.796 30.62 101.383 30.7133 101.063 30.9C100.756 31.0733 100.563 31.32 100.483 31.64C100.443 31.8 100.35 31.8667 100.203 31.84L98.2631 31.6C98.1965 31.5867 98.1365 31.5667 98.0831 31.54C98.0431 31.5 98.0298 31.4533 98.0431 31.4C98.1498 30.5867 98.5831 29.92 99.3431 29.4C100.116 28.88 101.083 28.62 102.243 28.62ZM101.763 37.32C102.416 37.32 102.976 37.1467 103.443 36.8C103.91 36.4533 104.143 36.0133 104.143 35.48V34.54C104.143 34.4733 104.11 34.44 104.043 34.44H102.363C101.656 34.44 101.096 34.5733 100.683 34.84C100.283 35.1067 100.083 35.4867 100.083 35.98C100.083 36.4067 100.236 36.74 100.543 36.98C100.863 37.2067 101.27 37.32 101.763 37.32ZM113.752 28.66C114.179 28.66 114.552 28.7467 114.872 28.92C114.979 28.9733 115.019 29.0733 114.992 29.22L114.652 31.02C114.639 31.18 114.546 31.2267 114.372 31.16C114.172 31.0933 113.939 31.06 113.672 31.06C113.499 31.06 113.366 31.0667 113.272 31.08C112.712 31.1067 112.246 31.3067 111.872 31.68C111.499 32.04 111.312 32.5133 111.312 33.1V38.76C111.312 38.8267 111.286 38.8867 111.232 38.94C111.192 38.98 111.139 39 111.072 39H109.232C109.166 39 109.106 38.98 109.052 38.94C109.012 38.8867 108.992 38.8267 108.992 38.76V29.02C108.992 28.9533 109.012 28.9 109.052 28.86C109.106 28.8067 109.166 28.78 109.232 28.78H111.072C111.139 28.78 111.192 28.8067 111.232 28.86C111.286 28.9 111.312 28.9533 111.312 29.02V29.92C111.312 29.9733 111.319 30.0067 111.332 30.02C111.359 30.02 111.386 30 111.412 29.96C111.972 29.0933 112.752 28.66 113.752 28.66ZM122.857 25.24C122.857 25.1733 122.877 25.12 122.917 25.08C122.97 25.0267 123.03 25 123.097 25H124.937C125.003 25 125.057 25.0267 125.097 25.08C125.15 25.12 125.177 25.1733 125.177 25.24V38.76C125.177 38.8267 125.15 38.8867 125.097 38.94C125.057 38.98 125.003 39 124.937 39H123.097C123.03 39 122.97 38.98 122.917 38.94C122.877 38.8867 122.857 38.8267 122.857 38.76V38.16C122.857 38.12 122.843 38.0933 122.817 38.08C122.79 38.0667 122.763 38.08 122.737 38.12C122.15 38.8133 121.383 39.16 120.437 39.16C119.49 39.16 118.69 38.9133 118.037 38.42C117.383 37.9267 116.91 37.24 116.617 36.36C116.377 35.6133 116.257 34.78 116.257 33.86C116.257 32.9133 116.37 32.1 116.597 31.42C116.89 30.54 117.363 29.8533 118.017 29.36C118.67 28.8667 119.49 28.62 120.477 28.62C121.397 28.62 122.15 28.9533 122.737 29.62C122.763 29.6467 122.79 29.66 122.817 29.66C122.843 29.6467 122.857 29.62 122.857 29.58V25.24ZM122.377 36.2C122.683 35.6533 122.837 34.88 122.837 33.88C122.837 32.84 122.67 32.0467 122.337 31.5C121.977 30.9133 121.47 30.62 120.817 30.62C120.137 30.62 119.603 30.9 119.217 31.46C118.817 32.0467 118.617 32.86 118.617 33.9C118.617 34.8333 118.777 35.6 119.097 36.2C119.47 36.84 120.037 37.16 120.797 37.16C121.477 37.16 122.003 36.84 122.377 36.2Z" fill="black" style="fill:black;fill-opacity:1;"/>
<path opacity="0.4" d="M32 78C37.5228 78 42 73.5228 42 68C42 62.4771 37.5228 58 32 58C26.4771 58 22 62.4771 22 68C22 73.5228 26.4771 78 32 78Z" fill="#99A2B0" style="fill:#99A2B0;fill:color(display-p3 0.6000 0.6353 0.6902);fill-opacity:1;"/>
<path d="M30.5795 71.5801C30.3795 71.5801 30.1895 71.5001 30.0495 71.3601L27.2195 68.5301C26.9295 68.2401 26.9295 67.7601 27.2195 67.4701C27.5095 67.1801 27.9895 67.1801 28.2795 67.4701L30.5795 69.7701L35.7195 64.6301C36.0095 64.3401 36.4895 64.3401 36.7795 64.6301C37.0695 64.9201 37.0695 65.4001 36.7795 65.6901L31.1095 71.3601C30.9695 71.5001 30.7795 71.5801 30.5795 71.5801Z" fill="#99A2B0" style="fill:#99A2B0;fill:color(display-p3 0.6000 0.6353 0.6902);fill-opacity:1;"/>
<path d="M65.3366 63.3182V73.5H63.9247L58.7493 66.0327H58.6548V73.5H57.1186V63.3182H58.5405L63.7209 70.7955H63.8153V63.3182H65.3366ZM70.6749 73.6541C69.959 73.6541 69.3342 73.4901 68.8006 73.1619C68.267 72.8338 67.8527 72.3748 67.5577 71.7848C67.2627 71.1948 67.1152 70.5054 67.1152 69.7166C67.1152 68.9245 67.2627 68.2318 67.5577 67.6385C67.8527 67.0452 68.267 66.5845 68.8006 66.2564C69.3342 65.9283 69.959 65.7642 70.6749 65.7642C71.3908 65.7642 72.0156 65.9283 72.5492 66.2564C73.0828 66.5845 73.4971 67.0452 73.7921 67.6385C74.0871 68.2318 74.2346 68.9245 74.2346 69.7166C74.2346 70.5054 74.0871 71.1948 73.7921 71.7848C73.4971 72.3748 73.0828 72.8338 72.5492 73.1619C72.0156 73.4901 71.3908 73.6541 70.6749 73.6541ZM70.6799 72.4062C71.1439 72.4062 71.5284 72.2836 71.8333 72.0384C72.1382 71.7931 72.3636 71.4666 72.5094 71.0589C72.6586 70.6513 72.7331 70.2022 72.7331 69.7116C72.7331 69.2244 72.6586 68.777 72.5094 68.3693C72.3636 67.9583 72.1382 67.6286 71.8333 67.38C71.5284 67.1314 71.1439 67.0071 70.6799 67.0071C70.2125 67.0071 69.8248 67.1314 69.5165 67.38C69.2116 67.6286 68.9846 67.9583 68.8354 68.3693C68.6896 68.777 68.6167 69.2244 68.6167 69.7116C68.6167 70.2022 68.6896 70.6513 68.8354 71.0589C68.9846 71.4666 69.2116 71.7931 69.5165 72.0384C69.8248 72.2836 70.2125 72.4062 70.6799 72.4062ZM79.4585 65.8636V67.0568H75.2873V65.8636H79.4585ZM76.4059 64.0341H77.8924V71.2578C77.8924 71.5462 77.9355 71.7633 78.0217 71.9091C78.1078 72.0516 78.2189 72.1494 78.3548 72.2024C78.494 72.2521 78.6448 72.277 78.8072 72.277C78.9265 72.277 79.0309 72.2687 79.1204 72.2521C79.2099 72.2356 79.2795 72.2223 79.3292 72.2124L79.5977 73.4403C79.5115 73.4735 79.3888 73.5066 79.2298 73.5398C79.0707 73.5762 78.8718 73.5961 78.6332 73.5994C78.2421 73.6061 77.8775 73.5365 77.5394 73.3906C77.2013 73.2448 76.9279 73.0194 76.7191 72.7145C76.5103 72.4096 76.4059 72.0268 76.4059 71.5661V64.0341ZM82.7534 68.9659V73.5H81.2669V63.3182H82.7335V67.1065H82.8279C83.0069 66.6955 83.2804 66.3691 83.6483 66.1271C84.0162 65.8852 84.4967 65.7642 85.09 65.7642C85.6137 65.7642 86.0711 65.8719 86.4622 66.0874C86.8566 66.3028 87.1615 66.6243 87.377 67.0518C87.5957 67.4761 87.7051 68.0064 87.7051 68.6428V73.5H86.2186V68.8217C86.2186 68.2616 86.0744 67.8274 85.786 67.5192C85.4977 67.2076 85.0967 67.0518 84.5829 67.0518C84.2316 67.0518 83.9167 67.1264 83.6383 67.2756C83.3632 67.4247 83.1461 67.6435 82.987 67.9318C82.8313 68.2169 82.7534 68.5616 82.7534 68.9659ZM89.6887 73.5V65.8636H91.1752V73.5H89.6887ZM90.4395 64.6854C90.1809 64.6854 89.9589 64.5992 89.7733 64.4268C89.591 64.2512 89.4998 64.0424 89.4998 63.8004C89.4998 63.5552 89.591 63.3464 89.7733 63.174C89.9589 62.9983 90.1809 62.9105 90.4395 62.9105C90.698 62.9105 90.9184 62.9983 91.1007 63.174C91.2863 63.3464 91.3791 63.5552 91.3791 63.8004C91.3791 64.0424 91.2863 64.2512 91.1007 64.4268C90.9184 64.5992 90.698 64.6854 90.4395 64.6854ZM94.6616 68.9659V73.5H93.1751V65.8636H94.6019V67.1065H94.6964C94.872 66.7022 95.1471 66.3774 95.5217 66.1321C95.8995 65.8868 96.3751 65.7642 96.9485 65.7642C97.4689 65.7642 97.9246 65.8736 98.3157 66.0923C98.7068 66.3078 99.0101 66.6293 99.2255 67.0568C99.4409 67.4844 99.5487 68.013 99.5487 68.6428V73.5H98.0621V68.8217C98.0621 68.2682 97.918 67.8357 97.6296 67.5241C97.3413 67.2093 96.9452 67.0518 96.4414 67.0518C96.0967 67.0518 95.7901 67.1264 95.5217 67.2756C95.2565 67.4247 95.046 67.6435 94.8903 67.9318C94.7378 68.2169 94.6616 68.5616 94.6616 68.9659ZM104.744 76.5227C104.137 76.5227 103.615 76.4432 103.178 76.2841C102.744 76.125 102.389 75.9145 102.114 75.6527C101.839 75.3909 101.633 75.1042 101.498 74.7926L102.775 74.2656C102.865 74.4115 102.984 74.5656 103.133 74.728C103.286 74.8937 103.491 75.0346 103.75 75.1506C104.011 75.2666 104.348 75.3246 104.759 75.3246C105.322 75.3246 105.788 75.187 106.156 74.9119C106.524 74.6402 106.708 74.206 106.708 73.6094V72.108H106.613C106.524 72.2704 106.395 72.451 106.225 72.6499C106.06 72.8487 105.831 73.0211 105.539 73.1669C105.248 73.3127 104.868 73.3857 104.401 73.3857C103.798 73.3857 103.254 73.2448 102.77 72.9631C102.29 72.678 101.908 72.2588 101.627 71.7053C101.348 71.1484 101.209 70.464 101.209 69.652C101.209 68.84 101.347 68.1439 101.622 67.5639C101.9 66.9839 102.281 66.5398 102.765 66.2315C103.249 65.92 103.798 65.7642 104.411 65.7642C104.885 65.7642 105.268 65.8438 105.559 66.0028C105.851 66.1586 106.078 66.3409 106.24 66.5497C106.406 66.7585 106.534 66.9425 106.623 67.1016H106.733V65.8636H108.189V73.669C108.189 74.3253 108.037 74.8639 107.732 75.2848C107.427 75.7057 107.014 76.0173 106.494 76.2195C105.977 76.4216 105.394 76.5227 104.744 76.5227ZM104.729 72.1527C105.157 72.1527 105.518 72.0533 105.813 71.8544C106.111 71.6522 106.337 71.3639 106.489 70.9893C106.645 70.6115 106.723 70.1591 106.723 69.6321C106.723 69.1184 106.646 68.666 106.494 68.2749C106.342 67.8838 106.118 67.5788 105.823 67.3601C105.528 67.138 105.163 67.027 104.729 67.027C104.282 67.027 103.909 67.143 103.61 67.375C103.312 67.6037 103.087 67.9152 102.934 68.3097C102.785 68.7041 102.711 69.1449 102.711 69.6321C102.711 70.1326 102.787 70.5717 102.939 70.9496C103.092 71.3274 103.317 71.6224 103.615 71.8345C103.917 72.0466 104.288 72.1527 104.729 72.1527ZM115.374 68.9659V73.5H113.888V65.8636H115.315V67.1065H115.409C115.585 66.7022 115.86 66.3774 116.235 66.1321C116.612 65.8868 117.088 65.7642 117.661 65.7642C118.182 65.7642 118.637 65.8736 119.029 66.0923C119.42 66.3078 119.723 66.6293 119.938 67.0568C120.154 67.4844 120.262 68.013 120.262 68.6428V73.5H118.775V68.8217C118.775 68.2682 118.631 67.8357 118.343 67.5241C118.054 67.2093 117.658 67.0518 117.154 67.0518C116.81 67.0518 116.503 67.1264 116.235 67.2756C115.969 67.4247 115.759 67.6435 115.603 67.9318C115.451 68.2169 115.374 68.5616 115.374 68.9659ZM125.546 73.6541C124.794 73.6541 124.146 73.4934 123.602 73.1719C123.062 72.8471 122.645 72.3913 122.35 71.8047C122.058 71.2147 121.912 70.5237 121.912 69.7315C121.912 68.9493 122.058 68.2599 122.35 67.6634C122.645 67.0668 123.056 66.6011 123.583 66.2663C124.113 65.9316 124.733 65.7642 125.442 65.7642C125.873 65.7642 126.29 65.8355 126.695 65.978C127.099 66.1205 127.462 66.3442 127.784 66.6491C128.105 66.9541 128.359 67.3501 128.544 67.8374C128.73 68.3213 128.823 68.9096 128.823 69.6023V70.1293H122.752V69.0156H127.366C127.366 68.6245 127.286 68.2782 127.127 67.9766C126.968 67.6716 126.744 67.4313 126.456 67.2557C126.171 67.08 125.836 66.9922 125.452 66.9922C125.034 66.9922 124.67 67.0949 124.358 67.3004C124.05 67.5026 123.811 67.7678 123.642 68.0959C123.477 68.4207 123.394 68.7737 123.394 69.1548V70.0249C123.394 70.5353 123.483 70.9695 123.662 71.3274C123.844 71.6854 124.098 71.9588 124.423 72.1477C124.748 72.3333 125.127 72.4261 125.561 72.4261C125.843 72.4261 126.1 72.3864 126.332 72.3068C126.564 72.224 126.764 72.1013 126.933 71.9389C127.102 71.7765 127.232 71.576 127.321 71.3374L128.728 71.5909C128.615 72.0052 128.413 72.3681 128.122 72.6797C127.833 72.9879 127.47 73.2282 127.033 73.4006C126.599 73.5696 126.103 73.6541 125.546 73.6541ZM132.114 73.5L129.867 65.8636H131.403L132.899 71.4716H132.974L134.475 65.8636H136.012L137.503 71.4467H137.578L139.064 65.8636H140.6L138.358 73.5H136.842L135.291 67.9865H135.176L133.625 73.5H132.114ZM147.203 68.9659V73.5H145.716V63.3182H147.183V67.1065H147.277C147.456 66.6955 147.73 66.3691 148.097 66.1271C148.465 65.8852 148.946 65.7642 149.539 65.7642C150.063 65.7642 150.52 65.8719 150.911 66.0874C151.306 66.3028 151.611 66.6243 151.826 67.0518C152.045 67.4761 152.154 68.0064 152.154 68.6428V73.5H150.668V68.8217C150.668 68.2616 150.524 67.8274 150.235 67.5192C149.947 67.2076 149.546 67.0518 149.032 67.0518C148.681 67.0518 148.366 67.1264 148.088 67.2756C147.812 67.4247 147.595 67.6435 147.436 67.9318C147.28 68.2169 147.203 68.5616 147.203 68.9659ZM157.429 73.6541C156.677 73.6541 156.029 73.4934 155.485 73.1719C154.945 72.8471 154.527 72.3913 154.232 71.8047C153.941 71.2147 153.795 70.5237 153.795 69.7315C153.795 68.9493 153.941 68.2599 154.232 67.6634C154.527 67.0668 154.938 66.6011 155.465 66.2663C155.996 65.9316 156.615 65.7642 157.325 65.7642C157.756 65.7642 158.173 65.8355 158.578 65.978C158.982 66.1205 159.345 66.3442 159.666 66.6491C159.988 66.9541 160.241 67.3501 160.427 67.8374C160.613 68.3213 160.705 68.9096 160.705 69.6023V70.1293H154.635V69.0156H159.249C159.249 68.6245 159.169 68.2782 159.01 67.9766C158.851 67.6716 158.627 67.4313 158.339 67.2557C158.054 67.08 157.719 66.9922 157.335 66.9922C156.917 66.9922 156.552 67.0949 156.241 67.3004C155.933 67.5026 155.694 67.7678 155.525 68.0959C155.359 68.4207 155.276 68.7737 155.276 69.1548V70.0249C155.276 70.5353 155.366 70.9695 155.545 71.3274C155.727 71.6854 155.981 71.9588 156.306 72.1477C156.63 72.3333 157.01 72.4261 157.444 72.4261C157.726 72.4261 157.983 72.3864 158.215 72.3068C158.447 72.224 158.647 72.1013 158.816 71.9389C158.985 71.7765 159.115 71.576 159.204 71.3374L160.611 71.5909C160.498 72.0052 160.296 72.3681 160.004 72.6797C159.716 72.9879 159.353 73.2282 158.916 73.4006C158.481 73.5696 157.986 73.6541 157.429 73.6541ZM162.355 73.5V65.8636H163.792V67.0767H163.871C164.01 66.6657 164.256 66.3426 164.607 66.1072C164.962 65.8686 165.363 65.7493 165.81 65.7493C165.903 65.7493 166.012 65.7526 166.138 65.7592C166.267 65.7659 166.368 65.7741 166.441 65.7841V67.206C166.382 67.1894 166.276 67.1712 166.123 67.1513C165.971 67.1281 165.818 67.1165 165.666 67.1165C165.315 67.1165 165.001 67.1911 164.726 67.3402C164.454 67.486 164.239 67.6899 164.08 67.9517C163.921 68.2102 163.841 68.5052 163.841 68.8366V73.5H162.355ZM170.746 73.6541C169.993 73.6541 169.345 73.4934 168.802 73.1719C168.261 72.8471 167.844 72.3913 167.549 71.8047C167.257 71.2147 167.111 70.5237 167.111 69.7315C167.111 68.9493 167.257 68.2599 167.549 67.6634C167.844 67.0668 168.255 66.6011 168.782 66.2663C169.312 65.9316 169.932 65.7642 170.641 65.7642C171.072 65.7642 171.49 65.8355 171.894 65.978C172.298 66.1205 172.661 66.3442 172.983 66.6491C173.304 66.9541 173.558 67.3501 173.743 67.8374C173.929 68.3213 174.022 68.9096 174.022 69.6023V70.1293H167.952V69.0156H172.565C172.565 68.6245 172.486 68.2782 172.327 67.9766C172.167 67.6716 171.944 67.4313 171.655 67.2557C171.37 67.08 171.036 66.9922 170.651 66.9922C170.233 66.9922 169.869 67.0949 169.557 67.3004C169.249 67.5026 169.01 67.7678 168.841 68.0959C168.676 68.4207 168.593 68.7737 168.593 69.1548V70.0249C168.593 70.5353 168.682 70.9695 168.861 71.3274C169.044 71.6854 169.297 71.9588 169.622 72.1477C169.947 72.3333 170.326 72.4261 170.76 72.4261C171.042 72.4261 171.299 72.3864 171.531 72.3068C171.763 72.224 171.964 72.1013 172.133 71.9389C172.302 71.7765 172.431 71.576 172.52 71.3374L173.927 71.5909C173.815 72.0052 173.613 72.3681 173.321 72.6797C173.032 72.9879 172.67 73.2282 172.232 73.4006C171.798 73.5696 171.302 73.6541 170.746 73.6541Z" fill="#8998AB" style="fill:#8998AB;fill:color(display-p3 0.5373 0.5972 0.6716);fill-opacity:1;"/>
</svg>
