<svg width="25" height="24" viewBox="0 0 25 24" fill="none" xmlns="http://www.w3.org/2000/svg">
<path opacity="0.4" d="M9.40039 2C6.78039 2 4.65039 4.13 4.65039 6.75C4.65039 9.32 6.66039 11.4 9.28039 11.49C9.36039 11.48 9.44039 11.48 9.50039 11.49C9.52039 11.49 9.53039 11.49 9.55039 11.49C9.56039 11.49 9.56039 11.49 9.57039 11.49C12.1304 11.4 14.1404 9.32 14.1504 6.75C14.1504 4.13 12.0204 2 9.40039 2Z" fill="#D68F4E" style="fill:#D68F4E;fill:color(display-p3 0.8383 0.5608 0.3046);fill-opacity:1;"/>
<path d="M14.4813 14.1499C11.6913 12.2899 7.14133 12.2899 4.33133 14.1499C3.06133 14.9999 2.36133 16.1499 2.36133 17.3799C2.36133 18.6099 3.06133 19.7499 4.32133 20.5899C5.72133 21.5299 7.56133 21.9999 9.40133 21.9999C11.2413 21.9999 13.0813 21.5299 14.4813 20.5899C15.7413 19.7399 16.4413 18.5999 16.4413 17.3599C16.4313 16.1299 15.7413 14.9899 14.4813 14.1499Z" fill="#D68F4E" style="fill:#D68F4E;fill:color(display-p3 0.8383 0.5608 0.3046);fill-opacity:1;"/>
<path opacity="0.4" d="M20.3898 7.3401C20.5498 9.2801 19.1698 10.9801 17.2598 11.2101C17.2498 11.2101 17.2498 11.2101 17.2398 11.2101H17.2098C17.1498 11.2101 17.0898 11.2101 17.0398 11.2301C16.0698 11.2801 15.1798 10.9701 14.5098 10.4001C15.5398 9.4801 16.1298 8.1001 16.0098 6.6001C15.9398 5.7901 15.6598 5.0501 15.2398 4.4201C15.6198 4.2301 16.0598 4.1101 16.5098 4.0701C18.4698 3.9001 20.2198 5.3601 20.3898 7.3401Z" fill="#D68F4E" style="fill:#D68F4E;fill:color(display-p3 0.8383 0.5608 0.3046);fill-opacity:1;"/>
<path d="M22.3906 16.5899C22.3106 17.5599 21.6906 18.3999 20.6506 18.9699C19.6506 19.5199 18.3906 19.7799 17.1406 19.7499C17.8606 19.0999 18.2806 18.2899 18.3606 17.4299C18.4606 16.1899 17.8706 14.9999 16.6906 14.0499C16.0206 13.5199 15.2406 13.0999 14.3906 12.7899C16.6006 12.1499 19.3806 12.5799 21.0906 13.9599C22.0106 14.6999 22.4806 15.6299 22.3906 16.5899Z" fill="#D68F4E" style="fill:#D68F4E;fill:color(display-p3 0.8383 0.5608 0.3046);fill-opacity:1;"/>
</svg>
