<svg width="1078" height="237" viewBox="0 0 1078 237" fill="none" xmlns="http://www.w3.org/2000/svg">
<path d="M0 12C0 5.37258 5.37258 0 12 0H1066C1072.63 0 1078 5.37258 1078 12V225C1078 231.627 1072.63 237 1066 237H12C5.37256 237 0 231.627 0 225V12Z" fill="white" style="fill:white;fill-opacity:1;"/>
<path d="M27.08 29.98C27.92 29.98 28.66 30.1533 29.3 30.5C29.94 30.8467 30.4333 31.34 30.78 31.98C31.14 32.6067 31.32 33.3333 31.32 34.16C31.32 34.9733 31.14 35.6933 30.78 36.32C30.42 36.9467 29.9067 37.4333 29.24 37.78C28.5867 38.1133 27.8267 38.28 26.96 38.28H23.76C23.6933 38.28 23.66 38.3133 23.66 38.38V43.76C23.66 43.8267 23.6333 43.8867 23.58 43.94C23.54 43.98 23.4867 44 23.42 44H21.58C21.5133 44 21.4533 43.98 21.4 43.94C21.36 43.8867 21.34 43.8267 21.34 43.76V30.22C21.34 30.1533 21.36 30.1 21.4 30.06C21.4533 30.0067 21.5133 29.98 21.58 29.98H27.08ZM26.74 36.4C27.42 36.4 27.9667 36.2 28.38 35.8C28.7933 35.4 29 34.8733 29 34.22C29 33.5533 28.7933 33.0133 28.38 32.6C27.9667 32.1867 27.42 31.98 26.74 31.98H23.76C23.6933 31.98 23.66 32.0133 23.66 32.08V36.3C23.66 36.3667 23.6933 36.4 23.76 36.4H26.74ZM38.0945 33.66C38.5212 33.66 38.8945 33.7467 39.2145 33.92C39.3212 33.9733 39.3612 34.0733 39.3345 34.22L38.9945 36.02C38.9812 36.18 38.8879 36.2267 38.7145 36.16C38.5145 36.0933 38.2812 36.06 38.0145 36.06C37.8412 36.06 37.7079 36.0667 37.6145 36.08C37.0545 36.1067 36.5879 36.3067 36.2145 36.68C35.8412 37.04 35.6545 37.5133 35.6545 38.1V43.76C35.6545 43.8267 35.6279 43.8867 35.5745 43.94C35.5345 43.98 35.4812 44 35.4145 44H33.5745C33.5079 44 33.4479 43.98 33.3945 43.94C33.3545 43.8867 33.3345 43.8267 33.3345 43.76V34.02C33.3345 33.9533 33.3545 33.9 33.3945 33.86C33.4479 33.8067 33.5079 33.78 33.5745 33.78H35.4145C35.4812 33.78 35.5345 33.8067 35.5745 33.86C35.6279 33.9 35.6545 33.9533 35.6545 34.02V34.92C35.6545 34.9733 35.6612 35.0067 35.6745 35.02C35.7012 35.02 35.7279 35 35.7545 34.96C36.3145 34.0933 37.0945 33.66 38.0945 33.66ZM45.1987 44.16C44.1454 44.16 43.2387 43.8933 42.4787 43.36C41.7321 42.8267 41.2054 42.0867 40.8987 41.14C40.6721 40.42 40.5587 39.66 40.5587 38.86C40.5587 38.0067 40.6654 37.2467 40.8787 36.58C41.1854 35.6467 41.7187 34.92 42.4787 34.4C43.2387 33.88 44.1521 33.62 45.2187 33.62C46.2321 33.62 47.1054 33.88 47.8387 34.4C48.5854 34.92 49.1121 35.64 49.4187 36.56C49.6587 37.2 49.7787 37.96 49.7787 38.84C49.7787 39.68 49.6654 40.44 49.4388 41.12C49.1321 42.0667 48.6054 42.8133 47.8588 43.36C47.1121 43.8933 46.2254 44.16 45.1987 44.16ZM45.1987 42.16C45.6921 42.16 46.1121 42.02 46.4587 41.74C46.8187 41.46 47.0787 41.0667 47.2387 40.56C47.3721 40.12 47.4388 39.56 47.4388 38.88C47.4388 38.16 47.3721 37.6 47.2387 37.2C47.0921 36.6933 46.8387 36.3067 46.4788 36.04C46.1187 35.76 45.6787 35.62 45.1587 35.62C44.6654 35.62 44.2387 35.76 43.8787 36.04C43.5187 36.3067 43.2587 36.6933 43.0987 37.2C42.9654 37.6667 42.8987 38.2267 42.8987 38.88C42.8987 39.5333 42.9654 40.0933 43.0987 40.56C43.2454 41.0667 43.4987 41.46 43.8587 41.74C44.2321 42.02 44.6787 42.16 45.1987 42.16ZM53.412 32.38C52.9987 32.38 52.6587 32.2467 52.392 31.98C52.1254 31.7133 51.992 31.3733 51.992 30.96C51.992 30.5467 52.1254 30.2067 52.392 29.94C52.6587 29.6733 52.9987 29.54 53.412 29.54C53.8254 29.54 54.1654 29.6733 54.432 29.94C54.6987 30.2067 54.832 30.5467 54.832 30.96C54.832 31.3733 54.6987 31.7133 54.432 31.98C54.1654 32.2467 53.8254 32.38 53.412 32.38ZM50.152 48.1C49.992 48.1 49.912 48.02 49.912 47.86V46.38C49.912 46.22 49.9987 46.1467 50.172 46.16C50.932 46.1733 51.472 46.0333 51.792 45.74C52.112 45.46 52.272 44.9933 52.272 44.34L52.252 34.02C52.252 33.9533 52.272 33.9 52.312 33.86C52.3654 33.8067 52.4254 33.78 52.492 33.78H54.332C54.3987 33.78 54.452 33.8067 54.492 33.86C54.5454 33.9 54.572 33.9533 54.572 34.02V44.32C54.572 45.2933 54.432 46.0533 54.152 46.6C53.8854 47.1467 53.432 47.54 52.792 47.78C52.1654 48.02 51.2854 48.1267 50.152 48.1ZM66.0116 37.74C66.0649 38.0733 66.0916 38.4467 66.0916 38.86L66.0716 39.48C66.0716 39.64 65.9916 39.72 65.8316 39.72H59.5716C59.5049 39.72 59.4716 39.7533 59.4716 39.82C59.5116 40.26 59.5716 40.56 59.6516 40.72C59.9716 41.68 60.7516 42.1667 61.9916 42.18C62.8982 42.18 63.6182 41.8067 64.1516 41.06C64.2049 40.98 64.2716 40.94 64.3516 40.94C64.4049 40.94 64.4516 40.96 64.4916 41L65.7316 42.02C65.8516 42.1133 65.8716 42.22 65.7916 42.34C65.3782 42.9267 64.8249 43.38 64.1316 43.7C63.4516 44.02 62.6916 44.18 61.8516 44.18C60.8116 44.18 59.9249 43.9467 59.1916 43.48C58.4716 43.0133 57.9449 42.36 57.6116 41.52C57.3049 40.8 57.1516 39.8 57.1516 38.52C57.1516 37.7467 57.2316 37.12 57.3916 36.64C57.6582 35.7067 58.1582 34.9733 58.8916 34.44C59.6382 33.8933 60.5316 33.62 61.5716 33.62C64.1982 33.62 65.6782 34.9933 66.0116 37.74ZM61.5716 35.62C61.0782 35.62 60.6649 35.7467 60.3316 36C60.0116 36.24 59.7849 36.58 59.6516 37.02C59.5716 37.2467 59.5182 37.54 59.4916 37.9C59.4649 37.9667 59.4916 38 59.5716 38H63.6316C63.6982 38 63.7316 37.9667 63.7316 37.9C63.7049 37.5667 63.6649 37.3133 63.6116 37.14C63.4916 36.66 63.2516 36.2867 62.8916 36.02C62.5449 35.7533 62.1049 35.62 61.5716 35.62ZM72.6719 44.16C71.6452 44.16 70.7585 43.9 70.0119 43.38C69.2652 42.8467 68.7452 42.1333 68.4519 41.24C68.2385 40.64 68.1319 39.84 68.1319 38.84C68.1319 37.88 68.2385 37.0933 68.4519 36.48C68.7319 35.6 69.2452 34.9067 69.9919 34.4C70.7519 33.88 71.6452 33.62 72.6719 33.62C73.7119 33.62 74.6185 33.88 75.3919 34.4C76.1652 34.92 76.6785 35.5733 76.9319 36.36C76.9985 36.5733 77.0452 36.7867 77.0719 37V37.04C77.0719 37.1733 76.9985 37.2533 76.8519 37.28L75.0519 37.54H75.0119C74.8919 37.54 74.8119 37.4733 74.7719 37.34C74.7719 37.2733 74.7652 37.22 74.7519 37.18C74.7252 37.0733 74.6985 36.98 74.6719 36.9C74.5519 36.5267 74.3119 36.22 73.9519 35.98C73.5919 35.74 73.1652 35.62 72.6719 35.62C72.1652 35.62 71.7319 35.7533 71.3719 36.02C71.0252 36.2733 70.7919 36.6267 70.6719 37.08C70.5385 37.5067 70.4719 38.1 70.4719 38.86C70.4719 39.5933 70.5319 40.1867 70.6519 40.64C70.7852 41.1067 71.0252 41.48 71.3719 41.76C71.7185 42.0267 72.1519 42.16 72.6719 42.16C73.1785 42.16 73.6119 42.0333 73.9719 41.78C74.3452 41.5133 74.5852 41.16 74.6919 40.72C74.7052 40.6933 74.7119 40.66 74.7119 40.62C74.7252 40.6067 74.7319 40.5867 74.7319 40.56C74.7719 40.4 74.8652 40.3333 75.0119 40.36L76.8119 40.64C76.8785 40.6533 76.9319 40.6867 76.9719 40.74C77.0252 40.78 77.0452 40.84 77.0319 40.92C76.9919 41.1333 76.9585 41.2867 76.9319 41.38C76.6785 42.2333 76.1652 42.9133 75.3919 43.42C74.6185 43.9133 73.7119 44.16 72.6719 44.16ZM84.6569 35.42C84.6569 35.4867 84.6302 35.5467 84.5769 35.6C84.5369 35.64 84.4835 35.66 84.4169 35.66H82.3769C82.3102 35.66 82.2769 35.6933 82.2769 35.76V40.58C82.2769 41.0867 82.3835 41.4533 82.5969 41.68C82.8235 41.9067 83.1769 42.02 83.6569 42.02H84.2569C84.3235 42.02 84.3769 42.0467 84.4169 42.1C84.4702 42.14 84.4969 42.1933 84.4969 42.26V43.76C84.4969 43.9067 84.4169 43.9933 84.2569 44.02L83.2169 44.04C82.1635 44.04 81.3769 43.86 80.8569 43.5C80.3369 43.14 80.0702 42.46 80.0569 41.46V35.76C80.0569 35.6933 80.0235 35.66 79.9569 35.66H78.8169C78.7502 35.66 78.6902 35.64 78.6369 35.6C78.5969 35.5467 78.5769 35.4867 78.5769 35.42V34.02C78.5769 33.9533 78.5969 33.9 78.6369 33.86C78.6902 33.8067 78.7502 33.78 78.8169 33.78H79.9569C80.0235 33.78 80.0569 33.7467 80.0569 33.68V31.34C80.0569 31.2733 80.0769 31.22 80.1169 31.18C80.1702 31.1267 80.2302 31.1 80.2969 31.1H82.0369C82.1035 31.1 82.1569 31.1267 82.1969 31.18C82.2502 31.22 82.2769 31.2733 82.2769 31.34V33.68C82.2769 33.7467 82.3102 33.78 82.3769 33.78H84.4169C84.4835 33.78 84.5369 33.8067 84.5769 33.86C84.6302 33.9 84.6569 33.9533 84.6569 34.02V35.42ZM90.7173 44.12C89.8773 44.12 89.1373 44 88.4973 43.76C87.8707 43.5067 87.384 43.1667 87.0373 42.74C86.6907 42.3 86.5173 41.8133 86.5173 41.28V41.1C86.5173 41.0333 86.5373 40.98 86.5773 40.94C86.6307 40.8867 86.6907 40.86 86.7573 40.86H88.5173C88.584 40.86 88.6373 40.8867 88.6773 40.94C88.7307 40.98 88.7573 41.0333 88.7573 41.1V41.14C88.7573 41.4733 88.9373 41.7667 89.2973 42.02C89.6707 42.26 90.1373 42.38 90.6973 42.38C91.2307 42.38 91.664 42.2733 91.9973 42.06C92.3307 41.8333 92.4973 41.5533 92.4973 41.22C92.4973 40.9133 92.3573 40.6867 92.0773 40.54C91.8107 40.38 91.3707 40.2133 90.7573 40.04L89.9973 39.8C89.3173 39.6 88.744 39.3867 88.2773 39.16C87.8107 38.9333 87.4173 38.6267 87.0973 38.24C86.7773 37.84 86.6173 37.3333 86.6173 36.72C86.6173 35.7867 86.984 35.0467 87.7173 34.5C88.4507 33.94 89.4173 33.66 90.6173 33.66C91.4307 33.66 92.144 33.7933 92.7573 34.06C93.3707 34.3133 93.844 34.6733 94.1773 35.14C94.5107 35.5933 94.6773 36.1133 94.6773 36.7C94.6773 36.7667 94.6507 36.8267 94.5973 36.88C94.5573 36.92 94.504 36.94 94.4373 36.94H92.7373C92.6707 36.94 92.6107 36.92 92.5573 36.88C92.5173 36.8267 92.4973 36.7667 92.4973 36.7C92.4973 36.3533 92.324 36.0667 91.9773 35.84C91.644 35.6 91.184 35.48 90.5973 35.48C90.0773 35.48 89.6507 35.58 89.3173 35.78C88.9973 35.9667 88.8373 36.2333 88.8373 36.58C88.8373 36.9 88.9907 37.1467 89.2973 37.32C89.6173 37.48 90.144 37.66 90.8773 37.86L91.3173 37.98C92.024 38.1933 92.6173 38.4133 93.0973 38.64C93.5773 38.8533 93.984 39.16 94.3173 39.56C94.6507 39.9467 94.8173 40.4533 94.8173 41.08C94.8173 42.0267 94.444 42.7733 93.6973 43.32C92.9507 43.8533 91.9573 44.12 90.7173 44.12Z" fill="black" style="fill:black;fill-opacity:1;"/>
</svg>
