<svg width="18" height="18" viewBox="0 0 18 18" fill="none" xmlns="http://www.w3.org/2000/svg">
<path d="M12.0173 7.01108H15.7613L13.3755 4.62383C12.6074 3.85573 11.6507 3.30337 10.6014 3.02228C9.5522 2.74119 8.44744 2.74127 7.39824 3.02252C6.34903 3.30377 5.39236 3.85627 4.62439 4.62448C3.85641 5.39269 3.30421 6.34954 3.02329 7.39883M2.23879 14.7331V10.9891M2.23879 10.9891H5.98279M2.23879 10.9891L4.62379 13.3763C5.39187 14.1444 6.34863 14.6968 7.39788 14.9779C8.44712 15.259 9.55188 15.2589 10.6011 14.9776C11.6503 14.6964 12.607 14.1439 13.3749 13.3757C14.1429 12.6075 14.6951 11.6506 14.976 10.6013M15.7613 3.26708V7.00958" stroke="#9D4141" style="stroke:#9D4141;stroke:color(display-p3 0.6157 0.2549 0.2549);stroke-opacity:1;" stroke-width="1.5" stroke-linecap="round" stroke-linejoin="round"/>
</svg>
