<svg width="352" height="311" viewBox="0 0 352 311" fill="none" xmlns="http://www.w3.org/2000/svg">
<path d="M0.666626 12C0.666626 5.37258 6.03921 0 12.6666 0H340C346.627 0 352 5.37258 352 12V299C352 305.627 346.627 311 340 311H12.6666C6.03921 311 0.666626 305.627 0.666626 299V12Z" fill="white" style="fill:white;fill-opacity:1;"/>
<path d="M137.153 44C137.02 44 136.927 43.94 136.873 43.82L134.233 38.06C134.207 38.0067 134.167 37.98 134.113 37.98H131.713C131.647 37.98 131.613 38.0133 131.613 38.08V43.76C131.613 43.8267 131.587 43.8867 131.533 43.94C131.493 43.98 131.44 44 131.373 44H129.533C129.467 44 129.407 43.98 129.353 43.94C129.313 43.8867 129.293 43.8267 129.293 43.76V30.24C129.293 30.1733 129.313 30.12 129.353 30.08C129.407 30.0267 129.467 30 129.533 30H135.033C135.847 30 136.567 30.1733 137.193 30.52C137.82 30.8533 138.307 31.3333 138.653 31.96C139 32.5733 139.173 33.28 139.173 34.08C139.173 35 138.933 35.7867 138.453 36.44C137.987 37.08 137.333 37.5267 136.493 37.78C136.467 37.78 136.447 37.7933 136.433 37.82C136.42 37.8467 136.42 37.8733 136.433 37.9L139.253 43.72C139.28 43.7733 139.293 43.8133 139.293 43.84C139.293 43.9467 139.22 44 139.073 44H137.153ZM131.713 32C131.647 32 131.613 32.0333 131.613 32.1V36.08C131.613 36.1467 131.647 36.18 131.713 36.18H134.713C135.353 36.18 135.867 35.9933 136.253 35.62C136.653 35.2333 136.853 34.7267 136.853 34.1C136.853 33.4733 136.653 32.9667 136.253 32.58C135.867 32.1933 135.353 32 134.713 32H131.713ZM150.042 37.74C150.095 38.0733 150.122 38.4467 150.122 38.86L150.102 39.48C150.102 39.64 150.022 39.72 149.862 39.72H143.602C143.535 39.72 143.502 39.7533 143.502 39.82C143.542 40.26 143.602 40.56 143.682 40.72C144.002 41.68 144.782 42.1667 146.022 42.18C146.928 42.18 147.648 41.8067 148.182 41.06C148.235 40.98 148.302 40.94 148.382 40.94C148.435 40.94 148.482 40.96 148.522 41L149.762 42.02C149.882 42.1133 149.902 42.22 149.822 42.34C149.408 42.9267 148.855 43.38 148.162 43.7C147.482 44.02 146.722 44.18 145.882 44.18C144.842 44.18 143.955 43.9467 143.222 43.48C142.502 43.0133 141.975 42.36 141.642 41.52C141.335 40.8 141.182 39.8 141.182 38.52C141.182 37.7467 141.262 37.12 141.422 36.64C141.688 35.7067 142.188 34.9733 142.922 34.44C143.668 33.8933 144.562 33.62 145.602 33.62C148.228 33.62 149.708 34.9933 150.042 37.74ZM145.602 35.62C145.108 35.62 144.695 35.7467 144.362 36C144.042 36.24 143.815 36.58 143.682 37.02C143.602 37.2467 143.548 37.54 143.522 37.9C143.495 37.9667 143.522 38 143.602 38H147.662C147.728 38 147.762 37.9667 147.762 37.9C147.735 37.5667 147.695 37.3133 147.642 37.14C147.522 36.66 147.282 36.2867 146.922 36.02C146.575 35.7533 146.135 35.62 145.602 35.62ZM163.382 33.62C164.409 33.62 165.209 33.9333 165.782 34.56C166.369 35.1733 166.662 36.0333 166.662 37.14V43.76C166.662 43.8267 166.635 43.8867 166.582 43.94C166.542 43.98 166.489 44 166.422 44H164.602C164.535 44 164.475 43.98 164.422 43.94C164.382 43.8867 164.362 43.8267 164.362 43.76V37.62C164.362 37.0067 164.195 36.52 163.862 36.16C163.542 35.8 163.109 35.62 162.562 35.62C162.015 35.62 161.569 35.8 161.222 36.16C160.875 36.52 160.702 37 160.702 37.6V43.76C160.702 43.8267 160.675 43.8867 160.622 43.94C160.582 43.98 160.529 44 160.462 44H158.642C158.575 44 158.515 43.98 158.462 43.94C158.422 43.8867 158.402 43.8267 158.402 43.76V37.62C158.402 37.0067 158.235 36.52 157.902 36.16C157.569 35.8 157.129 35.62 156.582 35.62C156.075 35.62 155.655 35.7667 155.322 36.06C155.002 36.3533 154.815 36.7533 154.762 37.26V43.76C154.762 43.8267 154.735 43.8867 154.682 43.94C154.642 43.98 154.589 44 154.522 44H152.682C152.615 44 152.555 43.98 152.502 43.94C152.462 43.8867 152.442 43.8267 152.442 43.76V34.02C152.442 33.9533 152.462 33.9 152.502 33.86C152.555 33.8067 152.615 33.78 152.682 33.78H154.522C154.589 33.78 154.642 33.8067 154.682 33.86C154.735 33.9 154.762 33.9533 154.762 34.02V34.68C154.762 34.72 154.775 34.7467 154.802 34.76C154.829 34.7733 154.855 34.76 154.882 34.72C155.175 34.3467 155.535 34.0733 155.962 33.9C156.402 33.7133 156.889 33.62 157.422 33.62C158.075 33.62 158.649 33.7533 159.142 34.02C159.635 34.2867 160.015 34.6733 160.282 35.18C160.322 35.2333 160.369 35.2333 160.422 35.18C160.715 34.6467 161.122 34.2533 161.642 34C162.162 33.7467 162.742 33.62 163.382 33.62ZM170.544 32.38C170.131 32.38 169.791 32.2467 169.524 31.98C169.257 31.7133 169.124 31.3733 169.124 30.96C169.124 30.5467 169.257 30.2067 169.524 29.94C169.791 29.6733 170.131 29.54 170.544 29.54C170.957 29.54 171.297 29.6733 171.564 29.94C171.831 30.2067 171.964 30.5467 171.964 30.96C171.964 31.3733 171.831 31.7133 171.564 31.98C171.297 32.2467 170.957 32.38 170.544 32.38ZM169.584 44C169.517 44 169.457 43.98 169.404 43.94C169.364 43.8867 169.344 43.8267 169.344 43.76V34C169.344 33.9333 169.364 33.88 169.404 33.84C169.457 33.7867 169.517 33.76 169.584 33.76H171.424C171.491 33.76 171.544 33.7867 171.584 33.84C171.637 33.88 171.664 33.9333 171.664 34V43.76C171.664 43.8267 171.637 43.8867 171.584 43.94C171.544 43.98 171.491 44 171.424 44H169.584ZM179.422 33.62C180.502 33.62 181.362 33.94 182.002 34.58C182.655 35.22 182.982 36.0933 182.982 37.2V43.76C182.982 43.8267 182.955 43.8867 182.902 43.94C182.862 43.98 182.808 44 182.742 44H180.902C180.835 44 180.775 43.98 180.722 43.94C180.682 43.8867 180.662 43.8267 180.662 43.76V37.68C180.662 37.0667 180.488 36.5733 180.142 36.2C179.795 35.8133 179.335 35.62 178.762 35.62C178.188 35.62 177.722 35.8067 177.362 36.18C177.015 36.5533 176.842 37.0467 176.842 37.66V43.76C176.842 43.8267 176.815 43.8867 176.762 43.94C176.722 43.98 176.668 44 176.602 44H174.762C174.695 44 174.635 43.98 174.582 43.94C174.542 43.8867 174.522 43.8267 174.522 43.76V34.02C174.522 33.9533 174.542 33.9 174.582 33.86C174.635 33.8067 174.695 33.78 174.762 33.78H176.602C176.668 33.78 176.722 33.8067 176.762 33.86C176.815 33.9 176.842 33.9533 176.842 34.02V34.66C176.842 34.7 176.855 34.7267 176.882 34.74C176.908 34.7533 176.928 34.74 176.942 34.7C177.488 33.98 178.315 33.62 179.422 33.62ZM191.863 30.24C191.863 30.1733 191.883 30.12 191.923 30.08C191.976 30.0267 192.036 30 192.103 30H193.943C194.009 30 194.063 30.0267 194.103 30.08C194.156 30.12 194.183 30.1733 194.183 30.24V43.76C194.183 43.8267 194.156 43.8867 194.103 43.94C194.063 43.98 194.009 44 193.943 44H192.103C192.036 44 191.976 43.98 191.923 43.94C191.883 43.8867 191.863 43.8267 191.863 43.76V43.16C191.863 43.12 191.849 43.0933 191.823 43.08C191.796 43.0667 191.769 43.08 191.743 43.12C191.156 43.8133 190.389 44.16 189.443 44.16C188.496 44.16 187.696 43.9133 187.043 43.42C186.389 42.9267 185.916 42.24 185.623 41.36C185.383 40.6133 185.263 39.78 185.263 38.86C185.263 37.9133 185.376 37.1 185.603 36.42C185.896 35.54 186.369 34.8533 187.023 34.36C187.676 33.8667 188.496 33.62 189.483 33.62C190.403 33.62 191.156 33.9533 191.743 34.62C191.769 34.6467 191.796 34.66 191.823 34.66C191.849 34.6467 191.863 34.62 191.863 34.58V30.24ZM191.383 41.2C191.689 40.6533 191.843 39.88 191.843 38.88C191.843 37.84 191.676 37.0467 191.343 36.5C190.983 35.9133 190.476 35.62 189.823 35.62C189.143 35.62 188.609 35.9 188.223 36.46C187.823 37.0467 187.623 37.86 187.623 38.9C187.623 39.8333 187.783 40.6 188.103 41.2C188.476 41.84 189.043 42.16 189.803 42.16C190.483 42.16 191.009 41.84 191.383 41.2ZM205.514 37.74C205.568 38.0733 205.594 38.4467 205.594 38.86L205.574 39.48C205.574 39.64 205.494 39.72 205.334 39.72H199.074C199.008 39.72 198.974 39.7533 198.974 39.82C199.014 40.26 199.074 40.56 199.154 40.72C199.474 41.68 200.254 42.1667 201.494 42.18C202.401 42.18 203.121 41.8067 203.654 41.06C203.708 40.98 203.774 40.94 203.854 40.94C203.908 40.94 203.954 40.96 203.994 41L205.234 42.02C205.354 42.1133 205.374 42.22 205.294 42.34C204.881 42.9267 204.328 43.38 203.634 43.7C202.954 44.02 202.194 44.18 201.354 44.18C200.314 44.18 199.428 43.9467 198.694 43.48C197.974 43.0133 197.448 42.36 197.114 41.52C196.808 40.8 196.654 39.8 196.654 38.52C196.654 37.7467 196.734 37.12 196.894 36.64C197.161 35.7067 197.661 34.9733 198.394 34.44C199.141 33.8933 200.034 33.62 201.074 33.62C203.701 33.62 205.181 34.9933 205.514 37.74ZM201.074 35.62C200.581 35.62 200.168 35.7467 199.834 36C199.514 36.24 199.288 36.58 199.154 37.02C199.074 37.2467 199.021 37.54 198.994 37.9C198.968 37.9667 198.994 38 199.074 38H203.134C203.201 38 203.234 37.9667 203.234 37.9C203.208 37.5667 203.168 37.3133 203.114 37.14C202.994 36.66 202.754 36.2867 202.394 36.02C202.048 35.7533 201.608 35.62 201.074 35.62ZM212.675 33.66C213.101 33.66 213.475 33.7467 213.795 33.92C213.901 33.9733 213.941 34.0733 213.915 34.22L213.575 36.02C213.561 36.18 213.468 36.2267 213.295 36.16C213.095 36.0933 212.861 36.06 212.595 36.06C212.421 36.06 212.288 36.0667 212.195 36.08C211.635 36.1067 211.168 36.3067 210.795 36.68C210.421 37.04 210.235 37.5133 210.235 38.1V43.76C210.235 43.8267 210.208 43.8867 210.155 43.94C210.115 43.98 210.061 44 209.995 44H208.155C208.088 44 208.028 43.98 207.975 43.94C207.935 43.8867 207.915 43.8267 207.915 43.76V34.02C207.915 33.9533 207.935 33.9 207.975 33.86C208.028 33.8067 208.088 33.78 208.155 33.78H209.995C210.061 33.78 210.115 33.8067 210.155 33.86C210.208 33.9 210.235 33.9533 210.235 34.02V34.92C210.235 34.9733 210.241 35.0067 210.255 35.02C210.281 35.02 210.308 35 210.335 34.96C210.895 34.0933 211.675 33.66 212.675 33.66ZM219.317 44.12C218.477 44.12 217.737 44 217.097 43.76C216.47 43.5067 215.984 43.1667 215.637 42.74C215.29 42.3 215.117 41.8133 215.117 41.28V41.1C215.117 41.0333 215.137 40.98 215.177 40.94C215.23 40.8867 215.29 40.86 215.357 40.86H217.117C217.184 40.86 217.237 40.8867 217.277 40.94C217.33 40.98 217.357 41.0333 217.357 41.1V41.14C217.357 41.4733 217.537 41.7667 217.897 42.02C218.27 42.26 218.737 42.38 219.297 42.38C219.83 42.38 220.264 42.2733 220.597 42.06C220.93 41.8333 221.097 41.5533 221.097 41.22C221.097 40.9133 220.957 40.6867 220.677 40.54C220.41 40.38 219.97 40.2133 219.357 40.04L218.597 39.8C217.917 39.6 217.344 39.3867 216.877 39.16C216.41 38.9333 216.017 38.6267 215.697 38.24C215.377 37.84 215.217 37.3333 215.217 36.72C215.217 35.7867 215.584 35.0467 216.317 34.5C217.05 33.94 218.017 33.66 219.217 33.66C220.03 33.66 220.744 33.7933 221.357 34.06C221.97 34.3133 222.444 34.6733 222.777 35.14C223.11 35.5933 223.277 36.1133 223.277 36.7C223.277 36.7667 223.25 36.8267 223.197 36.88C223.157 36.92 223.104 36.94 223.037 36.94H221.337C221.27 36.94 221.21 36.92 221.157 36.88C221.117 36.8267 221.097 36.7667 221.097 36.7C221.097 36.3533 220.924 36.0667 220.577 35.84C220.244 35.6 219.784 35.48 219.197 35.48C218.677 35.48 218.25 35.58 217.917 35.78C217.597 35.9667 217.437 36.2333 217.437 36.58C217.437 36.9 217.59 37.1467 217.897 37.32C218.217 37.48 218.744 37.66 219.477 37.86L219.917 37.98C220.624 38.1933 221.217 38.4133 221.697 38.64C222.177 38.8533 222.584 39.16 222.917 39.56C223.25 39.9467 223.417 40.4533 223.417 41.08C223.417 42.0267 223.044 42.7733 222.297 43.32C221.55 43.8533 220.557 44.12 219.317 44.12Z" fill="black" style="fill:black;fill-opacity:1;"/>
</svg>
