<svg width="351" height="574" viewBox="0 0 351 574" fill="none" xmlns="http://www.w3.org/2000/svg">
<path d="M0 12C0 5.37258 5.37258 0 12 0H339C345.627 0 351 5.37258 351 12V562C351 568.627 345.627 574 339 574H12C5.37258 574 0 568.627 0 562V12Z" fill="white" style="fill:white;fill-opacity:1;"/>
<path d="M26.36 44.16C25.3733 44.16 24.5 43.9667 23.74 43.58C22.98 43.1933 22.3867 42.6467 21.96 41.94C21.5467 41.22 21.34 40.3933 21.34 39.46V30.24C21.34 30.1733 21.36 30.12 21.4 30.08C21.4533 30.0267 21.5133 30 21.58 30H23.42C23.4867 30 23.54 30.0267 23.58 30.08C23.6333 30.12 23.66 30.1733 23.66 30.24V39.5C23.66 40.2867 23.9067 40.9267 24.4 41.42C24.8933 41.9133 25.5467 42.16 26.36 42.16C27.1733 42.16 27.8267 41.9133 28.32 41.42C28.8133 40.9267 29.06 40.2867 29.06 39.5V30.24C29.06 30.1733 29.08 30.12 29.12 30.08C29.1733 30.0267 29.2333 30 29.3 30H31.14C31.2067 30 31.26 30.0267 31.3 30.08C31.3533 30.12 31.38 30.1733 31.38 30.24V39.46C31.38 40.3933 31.1733 41.22 30.76 41.94C30.3467 42.6467 29.76 43.1933 29 43.58C28.24 43.9667 27.36 44.16 26.36 44.16ZM42.8148 36.42C43.0548 37.1 43.1748 37.9333 43.1748 38.92C43.1748 39.8667 43.0615 40.68 42.8348 41.36C42.5415 42.24 42.0682 42.9267 41.4148 43.42C40.7748 43.9133 39.9615 44.16 38.9748 44.16C38.0282 44.16 37.2682 43.82 36.6948 43.14C36.6682 43.1133 36.6415 43.1067 36.6148 43.12C36.5882 43.1333 36.5748 43.16 36.5748 43.2V47.54C36.5748 47.6067 36.5482 47.66 36.4948 47.7C36.4548 47.7533 36.4015 47.78 36.3348 47.78H34.4948C34.4282 47.78 34.3682 47.7533 34.3148 47.7C34.2748 47.66 34.2548 47.6067 34.2548 47.54V34.02C34.2548 33.9533 34.2748 33.9 34.3148 33.86C34.3682 33.8067 34.4282 33.78 34.4948 33.78H36.3348C36.4015 33.78 36.4548 33.8067 36.4948 33.86C36.5482 33.9 36.5748 33.9533 36.5748 34.02V34.62C36.5748 34.66 36.5882 34.6867 36.6148 34.7C36.6415 34.7133 36.6682 34.7 36.6948 34.66C37.2815 33.9667 38.0482 33.62 38.9948 33.62C39.9415 33.62 40.7415 33.8667 41.3948 34.36C42.0482 34.8533 42.5215 35.54 42.8148 36.42ZM40.2148 41.32C40.6148 40.7067 40.8148 39.8933 40.8148 38.88C40.8148 37.9067 40.6548 37.14 40.3348 36.58C39.9615 35.9267 39.3948 35.6 38.6348 35.6C37.9415 35.6 37.4215 35.92 37.0748 36.56C36.7682 37.08 36.6148 37.8533 36.6148 38.88C36.6148 39.9333 36.7815 40.7333 37.1148 41.28C37.4615 41.8667 37.9615 42.16 38.6148 42.16C39.3215 42.16 39.8548 41.88 40.2148 41.32ZM49.8062 44.16C48.7796 44.16 47.8929 43.9 47.1462 43.38C46.3996 42.8467 45.8796 42.1333 45.5862 41.24C45.3729 40.64 45.2662 39.84 45.2662 38.84C45.2662 37.88 45.3729 37.0933 45.5862 36.48C45.8662 35.6 46.3796 34.9067 47.1262 34.4C47.8862 33.88 48.7796 33.62 49.8062 33.62C50.8462 33.62 51.7529 33.88 52.5262 34.4C53.2996 34.92 53.8129 35.5733 54.0663 36.36C54.1329 36.5733 54.1796 36.7867 54.2063 37V37.04C54.2063 37.1733 54.1329 37.2533 53.9863 37.28L52.1863 37.54H52.1463C52.0262 37.54 51.9463 37.4733 51.9063 37.34C51.9063 37.2733 51.8996 37.22 51.8862 37.18C51.8596 37.0733 51.8329 36.98 51.8063 36.9C51.6863 36.5267 51.4463 36.22 51.0862 35.98C50.7262 35.74 50.2996 35.62 49.8062 35.62C49.2996 35.62 48.8662 35.7533 48.5062 36.02C48.1596 36.2733 47.9262 36.6267 47.8062 37.08C47.6729 37.5067 47.6062 38.1 47.6062 38.86C47.6062 39.5933 47.6662 40.1867 47.7862 40.64C47.9196 41.1067 48.1596 41.48 48.5062 41.76C48.8529 42.0267 49.2862 42.16 49.8062 42.16C50.3129 42.16 50.7462 42.0333 51.1062 41.78C51.4796 41.5133 51.7196 41.16 51.8262 40.72C51.8396 40.6933 51.8462 40.66 51.8462 40.62C51.8596 40.6067 51.8663 40.5867 51.8663 40.56C51.9062 40.4 51.9996 40.3333 52.1463 40.36L53.9463 40.64C54.0129 40.6533 54.0662 40.6867 54.1062 40.74C54.1596 40.78 54.1796 40.84 54.1663 40.92C54.1262 41.1333 54.0929 41.2867 54.0663 41.38C53.8129 42.2333 53.2996 42.9133 52.5262 43.42C51.7529 43.9133 50.8462 44.16 49.8062 44.16ZM60.6136 44.16C59.5603 44.16 58.6536 43.8933 57.8936 43.36C57.1469 42.8267 56.6203 42.0867 56.3136 41.14C56.0869 40.42 55.9736 39.66 55.9736 38.86C55.9736 38.0067 56.0803 37.2467 56.2936 36.58C56.6003 35.6467 57.1336 34.92 57.8936 34.4C58.6536 33.88 59.5669 33.62 60.6336 33.62C61.6469 33.62 62.5203 33.88 63.2536 34.4C64.0003 34.92 64.5269 35.64 64.8336 36.56C65.0736 37.2 65.1936 37.96 65.1936 38.84C65.1936 39.68 65.0803 40.44 64.8536 41.12C64.5469 42.0667 64.0203 42.8133 63.2736 43.36C62.5269 43.8933 61.6403 44.16 60.6136 44.16ZM60.6136 42.16C61.1069 42.16 61.5269 42.02 61.8736 41.74C62.2336 41.46 62.4936 41.0667 62.6536 40.56C62.7869 40.12 62.8536 39.56 62.8536 38.88C62.8536 38.16 62.7869 37.6 62.6536 37.2C62.5069 36.6933 62.2536 36.3067 61.8936 36.04C61.5336 35.76 61.0936 35.62 60.5736 35.62C60.0803 35.62 59.6536 35.76 59.2936 36.04C58.9336 36.3067 58.6736 36.6933 58.5136 37.2C58.3803 37.6667 58.3136 38.2267 58.3136 38.88C58.3136 39.5333 58.3803 40.0933 58.5136 40.56C58.6603 41.0667 58.9136 41.46 59.2736 41.74C59.6469 42.02 60.0936 42.16 60.6136 42.16ZM78.5269 33.62C79.5535 33.62 80.3535 33.9333 80.9269 34.56C81.5135 35.1733 81.8069 36.0333 81.8069 37.14V43.76C81.8069 43.8267 81.7802 43.8867 81.7269 43.94C81.6869 43.98 81.6335 44 81.5669 44H79.7469C79.6802 44 79.6202 43.98 79.5669 43.94C79.5269 43.8867 79.5069 43.8267 79.5069 43.76V37.62C79.5069 37.0067 79.3402 36.52 79.0069 36.16C78.6869 35.8 78.2535 35.62 77.7069 35.62C77.1602 35.62 76.7135 35.8 76.3669 36.16C76.0202 36.52 75.8469 37 75.8469 37.6V43.76C75.8469 43.8267 75.8202 43.8867 75.7669 43.94C75.7269 43.98 75.6735 44 75.6069 44H73.7869C73.7202 44 73.6602 43.98 73.6069 43.94C73.5669 43.8867 73.5469 43.8267 73.5469 43.76V37.62C73.5469 37.0067 73.3802 36.52 73.0469 36.16C72.7135 35.8 72.2735 35.62 71.7269 35.62C71.2202 35.62 70.8002 35.7667 70.4669 36.06C70.1469 36.3533 69.9602 36.7533 69.9069 37.26V43.76C69.9069 43.8267 69.8802 43.8867 69.8269 43.94C69.7869 43.98 69.7335 44 69.6669 44H67.8269C67.7602 44 67.7002 43.98 67.6469 43.94C67.6069 43.8867 67.5869 43.8267 67.5869 43.76V34.02C67.5869 33.9533 67.6069 33.9 67.6469 33.86C67.7002 33.8067 67.7602 33.78 67.8269 33.78H69.6669C69.7335 33.78 69.7869 33.8067 69.8269 33.86C69.8802 33.9 69.9069 33.9533 69.9069 34.02V34.68C69.9069 34.72 69.9202 34.7467 69.9469 34.76C69.9735 34.7733 70.0002 34.76 70.0269 34.72C70.3202 34.3467 70.6802 34.0733 71.1069 33.9C71.5469 33.7133 72.0335 33.62 72.5669 33.62C73.2202 33.62 73.7935 33.7533 74.2869 34.02C74.7802 34.2867 75.1602 34.6733 75.4269 35.18C75.4669 35.2333 75.5135 35.2333 75.5669 35.18C75.8602 34.6467 76.2669 34.2533 76.7869 34C77.3069 33.7467 77.8869 33.62 78.5269 33.62ZM85.6889 32.38C85.2756 32.38 84.9356 32.2467 84.6689 31.98C84.4022 31.7133 84.2689 31.3733 84.2689 30.96C84.2689 30.5467 84.4022 30.2067 84.6689 29.94C84.9356 29.6733 85.2756 29.54 85.6889 29.54C86.1022 29.54 86.4422 29.6733 86.7089 29.94C86.9756 30.2067 87.1089 30.5467 87.1089 30.96C87.1089 31.3733 86.9756 31.7133 86.7089 31.98C86.4422 32.2467 86.1022 32.38 85.6889 32.38ZM84.7289 44C84.6622 44 84.6022 43.98 84.5489 43.94C84.5089 43.8867 84.4889 43.8267 84.4889 43.76V34C84.4889 33.9333 84.5089 33.88 84.5489 33.84C84.6022 33.7867 84.6622 33.76 84.7289 33.76H86.5689C86.6356 33.76 86.6889 33.7867 86.7289 33.84C86.7822 33.88 86.8089 33.9333 86.8089 34V43.76C86.8089 43.8267 86.7822 43.8867 86.7289 43.94C86.6889 43.98 86.6356 44 86.5689 44H84.7289ZM94.5666 33.62C95.6466 33.62 96.5066 33.94 97.1466 34.58C97.7999 35.22 98.1266 36.0933 98.1266 37.2V43.76C98.1266 43.8267 98.0999 43.8867 98.0466 43.94C98.0066 43.98 97.9532 44 97.8866 44H96.0466C95.9799 44 95.9199 43.98 95.8666 43.94C95.8266 43.8867 95.8066 43.8267 95.8066 43.76V37.68C95.8066 37.0667 95.6332 36.5733 95.2866 36.2C94.9399 35.8133 94.4799 35.62 93.9066 35.62C93.3332 35.62 92.8666 35.8067 92.5066 36.18C92.1599 36.5533 91.9866 37.0467 91.9866 37.66V43.76C91.9866 43.8267 91.9599 43.8867 91.9066 43.94C91.8666 43.98 91.8132 44 91.7466 44H89.9066C89.8399 44 89.7799 43.98 89.7266 43.94C89.6866 43.8867 89.6666 43.8267 89.6666 43.76V34.02C89.6666 33.9533 89.6866 33.9 89.7266 33.86C89.7799 33.8067 89.8399 33.78 89.9066 33.78H91.7466C91.8132 33.78 91.8666 33.8067 91.9066 33.86C91.9599 33.9 91.9866 33.9533 91.9866 34.02V34.66C91.9866 34.7 91.9999 34.7267 92.0266 34.74C92.0532 34.7533 92.0732 34.74 92.0866 34.7C92.6332 33.98 93.4599 33.62 94.5666 33.62ZM107.005 34.02C107.005 33.9533 107.025 33.9 107.065 33.86C107.119 33.8067 107.179 33.78 107.245 33.78H109.085C109.152 33.78 109.205 33.8067 109.245 33.86C109.299 33.9 109.325 33.9533 109.325 34.02V43.32C109.325 44.9867 108.845 46.1733 107.885 46.88C106.939 47.6 105.692 47.96 104.145 47.96C103.732 47.96 103.325 47.94 102.925 47.9C102.779 47.8867 102.705 47.8 102.705 47.64L102.765 46C102.765 45.8533 102.859 45.78 103.045 45.78C103.432 45.82 103.779 45.84 104.085 45.84C105.085 45.84 105.819 45.64 106.285 45.24C106.765 44.8533 107.005 44.1933 107.005 43.26V43.1C107.005 43.06 106.992 43.04 106.965 43.04C106.939 43.0267 106.912 43.0333 106.885 43.06C106.339 43.6467 105.565 43.94 104.565 43.94C103.699 43.94 102.905 43.72 102.185 43.28C101.465 42.84 100.965 42.1667 100.685 41.26C100.512 40.6333 100.425 39.8267 100.425 38.84C100.425 37.7333 100.532 36.8867 100.745 36.3C101.012 35.4867 101.472 34.84 102.125 34.36C102.779 33.8667 103.545 33.62 104.425 33.62C105.479 33.62 106.299 33.9267 106.885 34.54C106.912 34.58 106.939 34.5933 106.965 34.58C106.992 34.5667 107.005 34.54 107.005 34.5V34.02ZM106.865 40.6C106.919 40.4 106.952 40.1867 106.965 39.96C106.992 39.72 107.005 39.34 107.005 38.82C107.005 38.3133 106.992 37.9533 106.965 37.74C106.952 37.5133 106.912 37.2933 106.845 37.08C106.739 36.64 106.519 36.2867 106.185 36.02C105.865 35.7533 105.452 35.62 104.945 35.62C104.465 35.62 104.059 35.7533 103.725 36.02C103.392 36.2867 103.152 36.64 103.005 37.08C102.845 37.4533 102.765 38.04 102.765 38.84C102.765 39.6667 102.832 40.2467 102.965 40.58C103.099 41.0067 103.339 41.36 103.685 41.64C104.045 41.9067 104.472 42.04 104.965 42.04C105.485 42.04 105.905 41.9067 106.225 41.64C106.545 41.3733 106.759 41.0267 106.865 40.6ZM125.826 31.76C125.826 31.8267 125.799 31.8867 125.746 31.94C125.706 31.98 125.653 32 125.586 32H118.766C118.699 32 118.666 32.0333 118.666 32.1V35.84C118.666 35.9067 118.699 35.94 118.766 35.94H123.346C123.413 35.94 123.466 35.9667 123.506 36.02C123.559 36.06 123.586 36.1133 123.586 36.18V37.7C123.586 37.7667 123.559 37.8267 123.506 37.88C123.466 37.92 123.413 37.94 123.346 37.94H118.766C118.699 37.94 118.666 37.9733 118.666 38.04V41.9C118.666 41.9667 118.699 42 118.766 42H125.586C125.653 42 125.706 42.0267 125.746 42.08C125.799 42.12 125.826 42.1733 125.826 42.24V43.76C125.826 43.8267 125.799 43.8867 125.746 43.94C125.706 43.98 125.653 44 125.586 44H116.586C116.519 44 116.459 43.98 116.406 43.94C116.366 43.8867 116.346 43.8267 116.346 43.76V30.24C116.346 30.1733 116.366 30.12 116.406 30.08C116.459 30.0267 116.519 30 116.586 30H125.586C125.653 30 125.706 30.0267 125.746 30.08C125.799 30.12 125.826 30.1733 125.826 30.24V31.76ZM130.922 44C130.789 44 130.702 43.9333 130.662 43.8L127.442 34.04C127.429 34.0133 127.422 33.98 127.422 33.94C127.422 33.82 127.495 33.76 127.642 33.76H129.682C129.829 33.76 129.922 33.8267 129.962 33.96L131.902 40.64C131.915 40.68 131.935 40.7 131.962 40.7C131.989 40.7 132.009 40.68 132.022 40.64L133.962 33.96C134.002 33.8267 134.095 33.76 134.242 33.76L136.282 33.8C136.362 33.8 136.422 33.8267 136.462 33.88C136.502 33.92 136.509 33.9867 136.482 34.08L133.282 43.8C133.242 43.9333 133.155 44 133.022 44H130.922ZM146.513 37.74C146.566 38.0733 146.593 38.4467 146.593 38.86L146.573 39.48C146.573 39.64 146.493 39.72 146.333 39.72H140.073C140.006 39.72 139.973 39.7533 139.973 39.82C140.013 40.26 140.073 40.56 140.153 40.72C140.473 41.68 141.253 42.1667 142.493 42.18C143.4 42.18 144.12 41.8067 144.653 41.06C144.706 40.98 144.773 40.94 144.853 40.94C144.906 40.94 144.953 40.96 144.993 41L146.233 42.02C146.353 42.1133 146.373 42.22 146.293 42.34C145.88 42.9267 145.326 43.38 144.633 43.7C143.953 44.02 143.193 44.18 142.353 44.18C141.313 44.18 140.426 43.9467 139.693 43.48C138.973 43.0133 138.446 42.36 138.113 41.52C137.806 40.8 137.653 39.8 137.653 38.52C137.653 37.7467 137.733 37.12 137.893 36.64C138.16 35.7067 138.66 34.9733 139.393 34.44C140.14 33.8933 141.033 33.62 142.073 33.62C144.7 33.62 146.18 34.9933 146.513 37.74ZM142.073 35.62C141.58 35.62 141.166 35.7467 140.833 36C140.513 36.24 140.286 36.58 140.153 37.02C140.073 37.2467 140.02 37.54 139.993 37.9C139.966 37.9667 139.993 38 140.073 38H144.133C144.2 38 144.233 37.9667 144.233 37.9C144.206 37.5667 144.166 37.3133 144.113 37.14C143.993 36.66 143.753 36.2867 143.393 36.02C143.046 35.7533 142.606 35.62 142.073 35.62ZM153.813 33.62C154.893 33.62 155.753 33.94 156.393 34.58C157.047 35.22 157.373 36.0933 157.373 37.2V43.76C157.373 43.8267 157.347 43.8867 157.293 43.94C157.253 43.98 157.2 44 157.133 44H155.293C155.227 44 155.167 43.98 155.113 43.94C155.073 43.8867 155.053 43.8267 155.053 43.76V37.68C155.053 37.0667 154.88 36.5733 154.533 36.2C154.187 35.8133 153.727 35.62 153.153 35.62C152.58 35.62 152.113 35.8067 151.753 36.18C151.407 36.5533 151.233 37.0467 151.233 37.66V43.76C151.233 43.8267 151.207 43.8867 151.153 43.94C151.113 43.98 151.06 44 150.993 44H149.153C149.087 44 149.027 43.98 148.973 43.94C148.933 43.8867 148.913 43.8267 148.913 43.76V34.02C148.913 33.9533 148.933 33.9 148.973 33.86C149.027 33.8067 149.087 33.78 149.153 33.78H150.993C151.06 33.78 151.113 33.8067 151.153 33.86C151.207 33.9 151.233 33.9533 151.233 34.02V34.66C151.233 34.7 151.247 34.7267 151.273 34.74C151.3 34.7533 151.32 34.74 151.333 34.7C151.88 33.98 152.707 33.62 153.813 33.62ZM165.412 35.42C165.412 35.4867 165.386 35.5467 165.332 35.6C165.292 35.64 165.239 35.66 165.172 35.66H163.132C163.066 35.66 163.032 35.6933 163.032 35.76V40.58C163.032 41.0867 163.139 41.4533 163.352 41.68C163.579 41.9067 163.932 42.02 164.412 42.02H165.012C165.079 42.02 165.132 42.0467 165.172 42.1C165.226 42.14 165.252 42.1933 165.252 42.26V43.76C165.252 43.9067 165.172 43.9933 165.012 44.02L163.972 44.04C162.919 44.04 162.132 43.86 161.612 43.5C161.092 43.14 160.826 42.46 160.812 41.46V35.76C160.812 35.6933 160.779 35.66 160.712 35.66H159.572C159.506 35.66 159.446 35.64 159.392 35.6C159.352 35.5467 159.332 35.4867 159.332 35.42V34.02C159.332 33.9533 159.352 33.9 159.392 33.86C159.446 33.8067 159.506 33.78 159.572 33.78H160.712C160.779 33.78 160.812 33.7467 160.812 33.68V31.34C160.812 31.2733 160.832 31.22 160.872 31.18C160.926 31.1267 160.986 31.1 161.052 31.1H162.792C162.859 31.1 162.912 31.1267 162.952 31.18C163.006 31.22 163.032 31.2733 163.032 31.34V33.68C163.032 33.7467 163.066 33.78 163.132 33.78H165.172C165.239 33.78 165.292 33.8067 165.332 33.86C165.386 33.9 165.412 33.9533 165.412 34.02V35.42ZM171.473 44.12C170.633 44.12 169.893 44 169.253 43.76C168.626 43.5067 168.139 43.1667 167.793 42.74C167.446 42.3 167.273 41.8133 167.273 41.28V41.1C167.273 41.0333 167.293 40.98 167.333 40.94C167.386 40.8867 167.446 40.86 167.513 40.86H169.273C169.339 40.86 169.393 40.8867 169.433 40.94C169.486 40.98 169.513 41.0333 169.513 41.1V41.14C169.513 41.4733 169.693 41.7667 170.053 42.02C170.426 42.26 170.893 42.38 171.453 42.38C171.986 42.38 172.419 42.2733 172.753 42.06C173.086 41.8333 173.253 41.5533 173.253 41.22C173.253 40.9133 173.113 40.6867 172.833 40.54C172.566 40.38 172.126 40.2133 171.513 40.04L170.753 39.8C170.073 39.6 169.499 39.3867 169.033 39.16C168.566 38.9333 168.173 38.6267 167.853 38.24C167.533 37.84 167.373 37.3333 167.373 36.72C167.373 35.7867 167.739 35.0467 168.473 34.5C169.206 33.94 170.173 33.66 171.373 33.66C172.186 33.66 172.899 33.7933 173.513 34.06C174.126 34.3133 174.599 34.6733 174.933 35.14C175.266 35.5933 175.433 36.1133 175.433 36.7C175.433 36.7667 175.406 36.8267 175.353 36.88C175.313 36.92 175.259 36.94 175.193 36.94H173.493C173.426 36.94 173.366 36.92 173.313 36.88C173.273 36.8267 173.253 36.7667 173.253 36.7C173.253 36.3533 173.079 36.0667 172.733 35.84C172.399 35.6 171.939 35.48 171.353 35.48C170.833 35.48 170.406 35.58 170.073 35.78C169.753 35.9667 169.593 36.2333 169.593 36.58C169.593 36.9 169.746 37.1467 170.053 37.32C170.373 37.48 170.899 37.66 171.633 37.86L172.073 37.98C172.779 38.1933 173.373 38.4133 173.853 38.64C174.333 38.8533 174.739 39.16 175.073 39.56C175.406 39.9467 175.573 40.4533 175.573 41.08C175.573 42.0267 175.199 42.7733 174.453 43.32C173.706 43.8533 172.713 44.12 171.473 44.12ZM191.36 30C191.427 30 191.48 30.0267 191.52 30.08C191.573 30.12 191.6 30.1733 191.6 30.24V31.78C191.6 31.8467 191.573 31.9067 191.52 31.96C191.48 32 191.427 32.02 191.36 32.02H187.68C187.613 32.02 187.58 32.0533 187.58 32.12V43.76C187.58 43.8267 187.553 43.8867 187.5 43.94C187.46 43.98 187.407 44 187.34 44H185.5C185.433 44 185.373 43.98 185.32 43.94C185.28 43.8867 185.26 43.8267 185.26 43.76V32.12C185.26 32.0533 185.227 32.02 185.16 32.02H181.62C181.553 32.02 181.493 32 181.44 31.96C181.4 31.9067 181.38 31.8467 181.38 31.78V30.24C181.38 30.1733 181.4 30.12 181.44 30.08C181.493 30.0267 181.553 30 181.62 30H191.36ZM198.622 33.62C199.702 33.62 200.562 33.94 201.202 34.58C201.855 35.22 202.182 36.0933 202.182 37.2V43.76C202.182 43.8267 202.155 43.8867 202.102 43.94C202.062 43.98 202.009 44 201.942 44H200.102C200.035 44 199.975 43.98 199.922 43.94C199.882 43.8867 199.862 43.8267 199.862 43.76V37.68C199.862 37.0667 199.689 36.5733 199.342 36.2C198.995 35.8133 198.535 35.62 197.962 35.62C197.389 35.62 196.922 35.8067 196.562 36.18C196.215 36.5533 196.042 37.0467 196.042 37.66V43.76C196.042 43.8267 196.015 43.8867 195.962 43.94C195.922 43.98 195.869 44 195.802 44H193.962C193.895 44 193.835 43.98 193.782 43.94C193.742 43.8867 193.722 43.8267 193.722 43.76V30.24C193.722 30.1733 193.742 30.12 193.782 30.08C193.835 30.0267 193.895 30 193.962 30H195.802C195.869 30 195.922 30.0267 195.962 30.08C196.015 30.12 196.042 30.1733 196.042 30.24V34.66C196.042 34.7 196.055 34.7267 196.082 34.74C196.109 34.7533 196.129 34.74 196.142 34.7C196.689 33.98 197.515 33.62 198.622 33.62ZM206.121 32.38C205.708 32.38 205.368 32.2467 205.101 31.98C204.834 31.7133 204.701 31.3733 204.701 30.96C204.701 30.5467 204.834 30.2067 205.101 29.94C205.368 29.6733 205.708 29.54 206.121 29.54C206.534 29.54 206.874 29.6733 207.141 29.94C207.408 30.2067 207.541 30.5467 207.541 30.96C207.541 31.3733 207.408 31.7133 207.141 31.98C206.874 32.2467 206.534 32.38 206.121 32.38ZM205.161 44C205.094 44 205.034 43.98 204.981 43.94C204.941 43.8867 204.921 43.8267 204.921 43.76V34C204.921 33.9333 204.941 33.88 204.981 33.84C205.034 33.7867 205.094 33.76 205.161 33.76H207.001C207.068 33.76 207.121 33.7867 207.161 33.84C207.214 33.88 207.241 33.9333 207.241 34V43.76C207.241 43.8267 207.214 43.8867 207.161 43.94C207.121 43.98 207.068 44 207.001 44H205.161ZM213.899 44.12C213.059 44.12 212.319 44 211.679 43.76C211.052 43.5067 210.565 43.1667 210.219 42.74C209.872 42.3 209.699 41.8133 209.699 41.28V41.1C209.699 41.0333 209.719 40.98 209.759 40.94C209.812 40.8867 209.872 40.86 209.939 40.86H211.699C211.765 40.86 211.819 40.8867 211.859 40.94C211.912 40.98 211.939 41.0333 211.939 41.1V41.14C211.939 41.4733 212.119 41.7667 212.479 42.02C212.852 42.26 213.319 42.38 213.879 42.38C214.412 42.38 214.845 42.2733 215.179 42.06C215.512 41.8333 215.679 41.5533 215.679 41.22C215.679 40.9133 215.539 40.6867 215.259 40.54C214.992 40.38 214.552 40.2133 213.939 40.04L213.179 39.8C212.499 39.6 211.925 39.3867 211.459 39.16C210.992 38.9333 210.599 38.6267 210.279 38.24C209.959 37.84 209.799 37.3333 209.799 36.72C209.799 35.7867 210.165 35.0467 210.899 34.5C211.632 33.94 212.599 33.66 213.799 33.66C214.612 33.66 215.325 33.7933 215.939 34.06C216.552 34.3133 217.025 34.6733 217.359 35.14C217.692 35.5933 217.859 36.1133 217.859 36.7C217.859 36.7667 217.832 36.8267 217.779 36.88C217.739 36.92 217.685 36.94 217.619 36.94H215.919C215.852 36.94 215.792 36.92 215.739 36.88C215.699 36.8267 215.679 36.7667 215.679 36.7C215.679 36.3533 215.505 36.0667 215.159 35.84C214.825 35.6 214.365 35.48 213.779 35.48C213.259 35.48 212.832 35.58 212.499 35.78C212.179 35.9667 212.019 36.2333 212.019 36.58C212.019 36.9 212.172 37.1467 212.479 37.32C212.799 37.48 213.325 37.66 214.059 37.86L214.499 37.98C215.205 38.1933 215.799 38.4133 216.279 38.64C216.759 38.8533 217.165 39.16 217.499 39.56C217.832 39.9467 217.999 40.4533 217.999 41.08C217.999 42.0267 217.625 42.7733 216.879 43.32C216.132 43.8533 215.139 44.12 213.899 44.12ZM233.606 30.16C233.672 30.0533 233.766 30 233.886 30H235.726C235.792 30 235.846 30.0267 235.886 30.08C235.939 30.12 235.966 30.1733 235.966 30.24V43.76C235.966 43.8267 235.939 43.8867 235.886 43.94C235.846 43.98 235.792 44 235.726 44H233.886C233.819 44 233.759 43.98 233.706 43.94C233.666 43.8867 233.646 43.8267 233.646 43.76V34.22C233.646 34.18 233.626 34.1533 233.586 34.14C233.559 34.1267 233.539 34.14 233.526 34.18L231.026 38.02C230.959 38.1267 230.866 38.18 230.746 38.18H229.826C229.706 38.18 229.612 38.1267 229.546 38.02L227.026 34.2C227.012 34.16 226.986 34.1467 226.946 34.16C226.919 34.1733 226.906 34.2 226.906 34.24V43.76C226.906 43.8267 226.879 43.8867 226.826 43.94C226.786 43.98 226.732 44 226.666 44H224.826C224.759 44 224.699 43.98 224.646 43.94C224.606 43.8867 224.586 43.8267 224.586 43.76V30.24C224.586 30.1733 224.606 30.12 224.646 30.08C224.699 30.0267 224.759 30 224.826 30H226.666C226.786 30 226.879 30.0533 226.946 30.16L230.206 35.1C230.232 35.1267 230.259 35.14 230.286 35.14C230.312 35.14 230.332 35.1267 230.346 35.1L233.606 30.16ZM243.203 44.16C242.149 44.16 241.243 43.8933 240.483 43.36C239.736 42.8267 239.209 42.0867 238.903 41.14C238.676 40.42 238.563 39.66 238.563 38.86C238.563 38.0067 238.669 37.2467 238.883 36.58C239.189 35.6467 239.723 34.92 240.483 34.4C241.243 33.88 242.156 33.62 243.223 33.62C244.236 33.62 245.109 33.88 245.843 34.4C246.589 34.92 247.116 35.64 247.423 36.56C247.663 37.2 247.783 37.96 247.783 38.84C247.783 39.68 247.669 40.44 247.443 41.12C247.136 42.0667 246.609 42.8133 245.863 43.36C245.116 43.8933 244.229 44.16 243.203 44.16ZM243.203 42.16C243.696 42.16 244.116 42.02 244.463 41.74C244.823 41.46 245.083 41.0667 245.243 40.56C245.376 40.12 245.443 39.56 245.443 38.88C245.443 38.16 245.376 37.6 245.243 37.2C245.096 36.6933 244.843 36.3067 244.483 36.04C244.123 35.76 243.683 35.62 243.163 35.62C242.669 35.62 242.243 35.76 241.883 36.04C241.523 36.3067 241.263 36.6933 241.103 37.2C240.969 37.6667 240.903 38.2267 240.903 38.88C240.903 39.5333 240.969 40.0933 241.103 40.56C241.249 41.0667 241.503 41.46 241.863 41.74C242.236 42.02 242.683 42.16 243.203 42.16ZM255.076 33.62C256.156 33.62 257.016 33.94 257.656 34.58C258.309 35.22 258.636 36.0933 258.636 37.2V43.76C258.636 43.8267 258.609 43.8867 258.556 43.94C258.516 43.98 258.463 44 258.396 44H256.556C256.489 44 256.429 43.98 256.376 43.94C256.336 43.8867 256.316 43.8267 256.316 43.76V37.68C256.316 37.0667 256.143 36.5733 255.796 36.2C255.449 35.8133 254.989 35.62 254.416 35.62C253.843 35.62 253.376 35.8067 253.016 36.18C252.669 36.5533 252.496 37.0467 252.496 37.66V43.76C252.496 43.8267 252.469 43.8867 252.416 43.94C252.376 43.98 252.323 44 252.256 44H250.416C250.349 44 250.289 43.98 250.236 43.94C250.196 43.8867 250.176 43.8267 250.176 43.76V34.02C250.176 33.9533 250.196 33.9 250.236 33.86C250.289 33.8067 250.349 33.78 250.416 33.78H252.256C252.323 33.78 252.376 33.8067 252.416 33.86C252.469 33.9 252.496 33.9533 252.496 34.02V34.66C252.496 34.7 252.509 34.7267 252.536 34.74C252.563 34.7533 252.583 34.74 252.596 34.7C253.143 33.98 253.969 33.62 255.076 33.62ZM266.675 35.42C266.675 35.4867 266.648 35.5467 266.595 35.6C266.555 35.64 266.502 35.66 266.435 35.66H264.395C264.328 35.66 264.295 35.6933 264.295 35.76V40.58C264.295 41.0867 264.402 41.4533 264.615 41.68C264.842 41.9067 265.195 42.02 265.675 42.02H266.275C266.342 42.02 266.395 42.0467 266.435 42.1C266.488 42.14 266.515 42.1933 266.515 42.26V43.76C266.515 43.9067 266.435 43.9933 266.275 44.02L265.235 44.04C264.182 44.04 263.395 43.86 262.875 43.5C262.355 43.14 262.088 42.46 262.075 41.46V35.76C262.075 35.6933 262.042 35.66 261.975 35.66H260.835C260.768 35.66 260.708 35.64 260.655 35.6C260.615 35.5467 260.595 35.4867 260.595 35.42V34.02C260.595 33.9533 260.615 33.9 260.655 33.86C260.708 33.8067 260.768 33.78 260.835 33.78H261.975C262.042 33.78 262.075 33.7467 262.075 33.68V31.34C262.075 31.2733 262.095 31.22 262.135 31.18C262.188 31.1267 262.248 31.1 262.315 31.1H264.055C264.122 31.1 264.175 31.1267 264.215 31.18C264.268 31.22 264.295 31.2733 264.295 31.34V33.68C264.295 33.7467 264.328 33.78 264.395 33.78H266.435C266.502 33.78 266.555 33.8067 266.595 33.86C266.648 33.9 266.675 33.9533 266.675 34.02V35.42ZM273.835 33.62C274.915 33.62 275.775 33.94 276.415 34.58C277.069 35.22 277.395 36.0933 277.395 37.2V43.76C277.395 43.8267 277.369 43.8867 277.315 43.94C277.275 43.98 277.222 44 277.155 44H275.315C275.249 44 275.189 43.98 275.135 43.94C275.095 43.8867 275.075 43.8267 275.075 43.76V37.68C275.075 37.0667 274.902 36.5733 274.555 36.2C274.209 35.8133 273.749 35.62 273.175 35.62C272.602 35.62 272.135 35.8067 271.775 36.18C271.429 36.5533 271.255 37.0467 271.255 37.66V43.76C271.255 43.8267 271.229 43.8867 271.175 43.94C271.135 43.98 271.082 44 271.015 44H269.175C269.109 44 269.049 43.98 268.995 43.94C268.955 43.8867 268.935 43.8267 268.935 43.76V30.24C268.935 30.1733 268.955 30.12 268.995 30.08C269.049 30.0267 269.109 30 269.175 30H271.015C271.082 30 271.135 30.0267 271.175 30.08C271.229 30.12 271.255 30.1733 271.255 30.24V34.66C271.255 34.7 271.269 34.7267 271.295 34.74C271.322 34.7533 271.342 34.74 271.355 34.7C271.902 33.98 272.729 33.62 273.835 33.62Z" fill="black" style="fill:black;fill-opacity:1;"/>
</svg>
