<svg width="32" height="33" viewBox="0 0 32 33" fill="none" xmlns="http://www.w3.org/2000/svg">
<g clip-path="url(#clip0_4412_10587)">
<path d="M12 10.5V25.5837C11.9999 25.7482 11.9592 25.9101 11.8816 26.0551C11.804 26.2001 11.6918 26.3237 11.555 26.415L10.18 27.3312C10.0466 27.4202 9.89383 27.4757 9.7345 27.4932C9.57516 27.5107 9.41394 27.4897 9.26445 27.4319C9.11495 27.374 8.98154 27.2811 8.87548 27.1609C8.76941 27.0407 8.6938 26.8968 8.655 26.7412L7 20.5" stroke="#9CAFC9" style="stroke:#9CAFC9;stroke:color(display-p3 0.6118 0.6863 0.7882);stroke-opacity:1;" stroke-width="1.5" stroke-linecap="round" stroke-linejoin="round"/>
<path d="M27 25.4985C27 25.689 26.9455 25.8754 26.8431 26.036C26.7407 26.1966 26.5946 26.3245 26.4219 26.4049C26.2493 26.4853 26.0573 26.5146 25.8685 26.4896C25.6797 26.4645 25.502 26.3861 25.3562 26.2635C18.8062 20.7685 12 20.4985 12 20.4985H7C5.67392 20.4985 4.40215 19.9717 3.46447 19.034C2.52678 18.0964 2 16.8246 2 15.4985C2 14.1724 2.52678 12.9007 3.46447 11.963C4.40215 11.0253 5.67392 10.4985 7 10.4985H12C12 10.4985 18.8062 10.2285 25.3562 4.73477C25.5019 4.61224 25.6795 4.53382 25.8682 4.50873C26.0568 4.48364 26.2488 4.51291 26.4214 4.59311C26.594 4.67332 26.7401 4.80112 26.8426 4.9615C26.9451 5.12188 26.9997 5.30818 27 5.49852V25.4985Z" stroke="#9CAFC9" style="stroke:#9CAFC9;stroke:color(display-p3 0.6118 0.6863 0.7882);stroke-opacity:1;" stroke-width="1.5" stroke-linecap="round" stroke-linejoin="round"/>
</g>
<defs>
<clipPath id="clip0_4412_10587">
<rect width="32" height="32" fill="white" style="fill:white;fill-opacity:1;" transform="matrix(-1 0 0 1 32 0.5)"/>
</clipPath>
</defs>
</svg>
