<svg width="229" height="56" viewBox="0 0 229 56" fill="none" xmlns="http://www.w3.org/2000/svg">
<path d="M28.2501 12.6523C19.6398 12.6523 12.6348 19.6574 12.6348 28.2677C12.6348 36.878 19.6398 43.8831 28.2501 43.8831C36.8605 43.8831 43.8655 36.878 43.8655 28.2677C43.8655 19.6574 36.8605 12.6523 28.2501 12.6523ZM32.0194 38.4267C32.0194 39.6539 31.021 40.6523 29.7937 40.6523H27.7834C26.5561 40.6523 25.5577 39.6539 25.5577 38.4267V36.4165C25.5577 35.1892 26.5561 34.1908 27.7834 34.1908H29.7937C31.021 34.1908 32.0194 35.1892 32.0194 36.4165V38.4267ZM32.946 18.5445L32.018 31.5368C31.9978 31.8186 31.7634 32.037 31.4809 32.037H26.0963C25.8138 32.037 25.5794 31.8187 25.5592 31.5368L24.6313 18.5445C24.5823 17.8589 24.8228 17.1774 25.2911 16.6744C25.7594 16.1715 26.4221 15.883 27.1094 15.883H30.468C31.1551 15.883 31.8179 16.1715 32.2861 16.6744C32.7545 17.1775 32.9951 17.8591 32.946 18.5445Z" fill="#B32828" style="fill:#B32828;fill:color(display-p3 0.7016 0.1567 0.1567);fill-opacity:1;"/>
<path d="M30.4673 16.9609H27.1087C26.7137 16.9609 26.3479 17.1202 26.0787 17.4093C25.8094 17.6984 25.6768 18.0747 25.7049 18.4687L26.5972 30.9609H30.9791L31.8713 18.4687C31.8996 18.0747 31.7667 17.6984 31.4974 17.4093C31.2281 17.1202 30.8624 16.9609 30.4673 16.9609Z" fill="#EB7979" style="fill:#EB7979;fill:color(display-p3 0.9216 0.4745 0.4745);fill-opacity:1;"/>
<path d="M29.7938 35.2695H27.7835C27.1502 35.2695 26.6348 35.7848 26.6348 36.4183V38.4285C26.6348 39.0619 27.1501 39.5772 27.7835 39.5772H29.7938C30.4273 39.5772 30.9426 39.0619 30.9426 38.4285V36.4183C30.9426 35.7848 30.4273 35.2695 29.7938 35.2695Z" fill="#EB7979" style="fill:#EB7979;fill:color(display-p3 0.9216 0.4745 0.4745);fill-opacity:1;"/>
<path d="M50.3267 28.2683C50.3267 16.095 40.423 6.19141 28.2498 6.19141C16.0765 6.19141 6.17285 16.095 6.17285 28.2683C6.17285 40.4415 16.0765 50.3453 28.2498 50.3453C40.423 50.3453 50.3267 40.4415 50.3267 28.2683ZM28.2498 44.9606C19.0456 44.9606 11.5575 37.4726 11.5575 28.2683C11.5575 19.0642 19.0456 11.576 28.2498 11.576C37.454 11.576 44.9421 19.0642 44.9421 28.2683C44.9421 37.4726 37.454 44.9606 28.2498 44.9606Z" fill="#EB7979" style="fill:#EB7979;fill:color(display-p3 0.9216 0.4745 0.4745);fill-opacity:1;"/>
<path d="M5.63454 43.3453C6.22931 43.3453 6.71146 42.8631 6.71146 42.2683C6.71146 41.6736 6.22931 41.1914 5.63454 41.1914C5.03977 41.1914 4.55762 41.6736 4.55762 42.2683C4.55762 42.8631 5.03977 43.3453 5.63454 43.3453Z" fill="#B32828" style="fill:#B32828;fill:color(display-p3 0.7016 0.1567 0.1567);fill-opacity:1;"/>
<path d="M50.865 43.3453C51.4598 43.3453 51.9419 42.8631 51.9419 42.2683C51.9419 41.6736 51.4598 41.1914 50.865 41.1914C50.2702 41.1914 49.7881 41.6736 49.7881 42.2683C49.7881 42.8631 50.2702 43.3453 50.865 43.3453Z" fill="#B32828" style="fill:#B32828;fill:color(display-p3 0.7016 0.1567 0.1567);fill-opacity:1;"/>
<path d="M50.865 15.3453C51.4598 15.3453 51.9419 14.8631 51.9419 14.2683C51.9419 13.6736 51.4598 13.1914 50.865 13.1914C50.2702 13.1914 49.7881 13.6736 49.7881 14.2683C49.7881 14.8631 50.2702 15.3453 50.865 15.3453Z" fill="#B32828" style="fill:#B32828;fill:color(display-p3 0.7016 0.1567 0.1567);fill-opacity:1;"/>
<path d="M5.63454 16.4234C6.22931 16.4234 6.71146 15.9412 6.71146 15.3465C6.71146 14.7517 6.22931 14.2695 5.63454 14.2695C5.03977 14.2695 4.55762 14.7517 4.55762 15.3465C4.55762 15.9412 5.03977 16.4234 5.63454 16.4234Z" fill="#B32828" style="fill:#B32828;fill:color(display-p3 0.7016 0.1567 0.1567);fill-opacity:1;"/>
<path d="M12.0965 51.9624C12.6912 51.9624 13.1734 51.4803 13.1734 50.8855C13.1734 50.2907 12.6912 49.8086 12.0965 49.8086C11.5017 49.8086 11.0195 50.2907 11.0195 50.8855C11.0195 51.4803 11.5017 51.9624 12.0965 51.9624Z" fill="#B32828" style="fill:#B32828;fill:color(display-p3 0.7016 0.1567 0.1567);fill-opacity:1;"/>
<path d="M43.3269 5.65385C43.9217 5.65385 44.4038 5.17169 44.4038 4.57692C44.4038 3.98215 43.9217 3.5 43.3269 3.5C42.7322 3.5 42.25 3.98215 42.25 4.57692C42.25 5.17169 42.7322 5.65385 43.3269 5.65385Z" fill="#B32828" style="fill:#B32828;fill:color(display-p3 0.7016 0.1567 0.1567);fill-opacity:1;"/>
<path d="M9.40362 11.5787C11.1851 11.5787 12.6344 10.1294 12.6344 8.34796C12.6344 6.56651 11.1851 5.11719 9.40362 5.11719C7.62217 5.11719 6.17285 6.56651 6.17285 8.34796C6.17285 10.1294 7.62217 11.5787 9.40362 11.5787Z" fill="#B32828" style="fill:#B32828;fill:color(display-p3 0.7016 0.1567 0.1567);fill-opacity:1;"/>
<path d="M45.4804 47.1172C43.9959 47.1172 42.7881 48.325 42.7881 49.8095C42.7881 51.294 43.9959 52.5018 45.4804 52.5018C46.9649 52.5018 48.1727 51.294 48.1727 49.8095C48.1727 48.325 46.9649 47.1172 45.4804 47.1172Z" fill="#B32828" style="fill:#B32828;fill:color(display-p3 0.7016 0.1567 0.1567);fill-opacity:1;"/>
<path d="M74.39 26.16C73.39 26.16 72.51 25.9667 71.75 25.58C70.99 25.18 70.4033 24.6267 69.99 23.92C69.5767 23.2133 69.37 22.3933 69.37 21.46V16.52C69.37 15.5867 69.5767 14.7667 69.99 14.06C70.4033 13.3533 70.99 12.8067 71.75 12.42C72.51 12.0333 73.39 11.84 74.39 11.84C75.3767 11.84 76.25 12.0267 77.01 12.4C77.77 12.7733 78.3567 13.3 78.77 13.98C79.1833 14.66 79.39 15.4467 79.39 16.34C79.39 16.4067 79.3633 16.4667 79.31 16.52C79.27 16.56 79.2167 16.58 79.15 16.58L77.31 16.68C77.15 16.68 77.07 16.6067 77.07 16.46C77.07 15.6733 76.8233 15.04 76.33 14.56C75.85 14.08 75.2033 13.84 74.39 13.84C73.5767 13.84 72.9233 14.08 72.43 14.56C71.9367 15.04 71.69 15.6733 71.69 16.46V21.56C71.69 22.3333 71.9367 22.96 72.43 23.44C72.9233 23.92 73.5767 24.16 74.39 24.16C75.2033 24.16 75.85 23.9267 76.33 23.46C76.8233 22.98 77.07 22.3467 77.07 21.56C77.07 21.4133 77.15 21.34 77.31 21.34L79.15 21.42C79.2167 21.42 79.27 21.44 79.31 21.48C79.3633 21.52 79.39 21.5667 79.39 21.62C79.39 22.5267 79.1833 23.3267 78.77 24.02C78.3567 24.7 77.77 25.2267 77.01 25.6C76.25 25.9733 75.3767 26.16 74.39 26.16ZM86.618 15.66C87.0446 15.66 87.418 15.7467 87.738 15.92C87.8446 15.9733 87.8846 16.0733 87.858 16.22L87.518 18.02C87.5046 18.18 87.4113 18.2267 87.238 18.16C87.038 18.0933 86.8046 18.06 86.538 18.06C86.3646 18.06 86.2313 18.0667 86.138 18.08C85.578 18.1067 85.1113 18.3067 84.738 18.68C84.3646 19.04 84.178 19.5133 84.178 20.1V25.76C84.178 25.8267 84.1513 25.8867 84.098 25.94C84.058 25.98 84.0046 26 83.938 26H82.098C82.0313 26 81.9713 25.98 81.918 25.94C81.878 25.8867 81.858 25.8267 81.858 25.76V16.02C81.858 15.9533 81.878 15.9 81.918 15.86C81.9713 15.8067 82.0313 15.78 82.098 15.78H83.938C84.0046 15.78 84.058 15.8067 84.098 15.86C84.1513 15.9 84.178 15.9533 84.178 16.02V16.92C84.178 16.9733 84.1846 17.0067 84.198 17.02C84.2246 17.02 84.2513 17 84.278 16.96C84.838 16.0933 85.618 15.66 86.618 15.66ZM90.8975 14.38C90.4842 14.38 90.1442 14.2467 89.8775 13.98C89.6108 13.7133 89.4775 13.3733 89.4775 12.96C89.4775 12.5467 89.6108 12.2067 89.8775 11.94C90.1442 11.6733 90.4842 11.54 90.8975 11.54C91.3108 11.54 91.6508 11.6733 91.9175 11.94C92.1842 12.2067 92.3175 12.5467 92.3175 12.96C92.3175 13.3733 92.1842 13.7133 91.9175 13.98C91.6508 14.2467 91.3108 14.38 90.8975 14.38ZM89.9375 26C89.8708 26 89.8108 25.98 89.7575 25.94C89.7175 25.8867 89.6975 25.8267 89.6975 25.76V16C89.6975 15.9333 89.7175 15.88 89.7575 15.84C89.8108 15.7867 89.8708 15.76 89.9375 15.76H91.7775C91.8442 15.76 91.8975 15.7867 91.9375 15.84C91.9908 15.88 92.0175 15.9333 92.0175 16V25.76C92.0175 25.8267 91.9908 25.8867 91.9375 25.94C91.8975 25.98 91.8442 26 91.7775 26H89.9375ZM100.295 17.42C100.295 17.4867 100.268 17.5467 100.215 17.6C100.175 17.64 100.122 17.66 100.055 17.66H98.0152C97.9485 17.66 97.9152 17.6933 97.9152 17.76V22.58C97.9152 23.0867 98.0218 23.4533 98.2352 23.68C98.4618 23.9067 98.8152 24.02 99.2952 24.02H99.8952C99.9618 24.02 100.015 24.0467 100.055 24.1C100.108 24.14 100.135 24.1933 100.135 24.26V25.76C100.135 25.9067 100.055 25.9933 99.8952 26.02L98.8552 26.04C97.8018 26.04 97.0152 25.86 96.4952 25.5C95.9752 25.14 95.7085 24.46 95.6952 23.46V17.76C95.6952 17.6933 95.6618 17.66 95.5952 17.66H94.4552C94.3885 17.66 94.3285 17.64 94.2752 17.6C94.2352 17.5467 94.2152 17.4867 94.2152 17.42V16.02C94.2152 15.9533 94.2352 15.9 94.2752 15.86C94.3285 15.8067 94.3885 15.78 94.4552 15.78H95.5952C95.6618 15.78 95.6952 15.7467 95.6952 15.68V13.34C95.6952 13.2733 95.7152 13.22 95.7552 13.18C95.8085 13.1267 95.8685 13.1 95.9352 13.1H97.6752C97.7418 13.1 97.7952 13.1267 97.8352 13.18C97.8885 13.22 97.9152 13.2733 97.9152 13.34V15.68C97.9152 15.7467 97.9485 15.78 98.0152 15.78H100.055C100.122 15.78 100.175 15.8067 100.215 15.86C100.268 15.9 100.295 15.9533 100.295 16.02V17.42ZM103.876 14.38C103.462 14.38 103.122 14.2467 102.856 13.98C102.589 13.7133 102.456 13.3733 102.456 12.96C102.456 12.5467 102.589 12.2067 102.856 11.94C103.122 11.6733 103.462 11.54 103.876 11.54C104.289 11.54 104.629 11.6733 104.896 11.94C105.162 12.2067 105.296 12.5467 105.296 12.96C105.296 13.3733 105.162 13.7133 104.896 13.98C104.629 14.2467 104.289 14.38 103.876 14.38ZM102.916 26C102.849 26 102.789 25.98 102.736 25.94C102.696 25.8867 102.676 25.8267 102.676 25.76V16C102.676 15.9333 102.696 15.88 102.736 15.84C102.789 15.7867 102.849 15.76 102.916 15.76H104.756C104.822 15.76 104.876 15.7867 104.916 15.84C104.969 15.88 104.996 15.9333 104.996 16V25.76C104.996 25.8267 104.969 25.8867 104.916 25.94C104.876 25.98 104.822 26 104.756 26H102.916ZM112.113 26.16C111.087 26.16 110.2 25.9 109.453 25.38C108.707 24.8467 108.187 24.1333 107.893 23.24C107.68 22.64 107.573 21.84 107.573 20.84C107.573 19.88 107.68 19.0933 107.893 18.48C108.173 17.6 108.687 16.9067 109.433 16.4C110.193 15.88 111.087 15.62 112.113 15.62C113.153 15.62 114.06 15.88 114.833 16.4C115.607 16.92 116.12 17.5733 116.373 18.36C116.44 18.5733 116.487 18.7867 116.513 19V19.04C116.513 19.1733 116.44 19.2533 116.293 19.28L114.493 19.54H114.453C114.333 19.54 114.253 19.4733 114.213 19.34C114.213 19.2733 114.207 19.22 114.193 19.18C114.167 19.0733 114.14 18.98 114.113 18.9C113.993 18.5267 113.753 18.22 113.393 17.98C113.033 17.74 112.607 17.62 112.113 17.62C111.607 17.62 111.173 17.7533 110.813 18.02C110.467 18.2733 110.233 18.6267 110.113 19.08C109.98 19.5067 109.913 20.1 109.913 20.86C109.913 21.5933 109.973 22.1867 110.093 22.64C110.227 23.1067 110.467 23.48 110.813 23.76C111.16 24.0267 111.593 24.16 112.113 24.16C112.62 24.16 113.053 24.0333 113.413 23.78C113.787 23.5133 114.027 23.16 114.133 22.72C114.147 22.6933 114.153 22.66 114.153 22.62C114.167 22.6067 114.173 22.5867 114.173 22.56C114.213 22.4 114.307 22.3333 114.453 22.36L116.253 22.64C116.32 22.6533 116.373 22.6867 116.413 22.74C116.467 22.78 116.487 22.84 116.473 22.92C116.433 23.1333 116.4 23.2867 116.373 23.38C116.12 24.2333 115.607 24.9133 114.833 25.42C114.06 25.9133 113.153 26.16 112.113 26.16ZM122.578 15.62C123.418 15.62 124.158 15.7667 124.798 16.06C125.438 16.3533 125.932 16.76 126.278 17.28C126.625 17.7867 126.798 18.3667 126.798 19.02V25.76C126.798 25.8267 126.772 25.8867 126.718 25.94C126.678 25.98 126.625 26 126.558 26H124.718C124.652 26 124.592 25.98 124.538 25.94C124.498 25.8867 124.478 25.8267 124.478 25.76V25.12C124.478 25.08 124.465 25.06 124.438 25.06C124.412 25.0467 124.385 25.0533 124.358 25.08C123.705 25.8 122.758 26.16 121.518 26.16C120.518 26.16 119.692 25.9067 119.038 25.4C118.398 24.8933 118.078 24.14 118.078 23.14C118.078 22.1 118.438 21.2933 119.158 20.72C119.892 20.1333 120.918 19.84 122.238 19.84H124.378C124.445 19.84 124.478 19.8067 124.478 19.74V19.26C124.478 18.74 124.325 18.34 124.018 18.06C123.712 17.7667 123.252 17.62 122.638 17.62C122.132 17.62 121.718 17.7133 121.398 17.9C121.092 18.0733 120.898 18.32 120.818 18.64C120.778 18.8 120.685 18.8667 120.538 18.84L118.598 18.6C118.532 18.5867 118.472 18.5667 118.418 18.54C118.378 18.5 118.365 18.4533 118.378 18.4C118.485 17.5867 118.918 16.92 119.678 16.4C120.452 15.88 121.418 15.62 122.578 15.62ZM122.098 24.32C122.752 24.32 123.312 24.1467 123.778 23.8C124.245 23.4533 124.478 23.0133 124.478 22.48V21.54C124.478 21.4733 124.445 21.44 124.378 21.44H122.698C121.992 21.44 121.432 21.5733 121.018 21.84C120.618 22.1067 120.418 22.4867 120.418 22.98C120.418 23.4067 120.572 23.74 120.878 23.98C121.198 24.2067 121.605 24.32 122.098 24.32ZM129.568 26C129.501 26 129.441 25.98 129.388 25.94C129.348 25.8867 129.328 25.8267 129.328 25.76V12.24C129.328 12.1733 129.348 12.12 129.388 12.08C129.441 12.0267 129.501 12 129.568 12H131.408C131.474 12 131.528 12.0267 131.568 12.08C131.621 12.12 131.648 12.1733 131.648 12.24V25.76C131.648 25.8267 131.621 25.8867 131.568 25.94C131.528 25.98 131.474 26 131.408 26H129.568Z" fill="#B32828" style="fill:#B32828;fill:color(display-p3 0.7016 0.1567 0.1567);fill-opacity:1;"/>
<path d="M75.3686 37.5455H76.7997V43.7638C76.7997 44.4255 76.6443 45.0118 76.3335 45.5227C76.0226 46.0305 75.5856 46.4306 75.0224 46.723C74.4592 47.0123 73.799 47.157 73.0419 47.157C72.2879 47.157 71.6293 47.0123 71.0661 46.723C70.5028 46.4306 70.0658 46.0305 69.755 45.5227C69.4441 45.0118 69.2887 44.4255 69.2887 43.7638V37.5455H70.7152V43.6484C70.7152 44.0762 70.8091 44.4563 70.9968 44.7887C71.1876 45.1211 71.4569 45.3827 71.8047 45.5735C72.1525 45.7612 72.5649 45.8551 73.0419 45.8551C73.522 45.8551 73.936 45.7612 74.2837 45.5735C74.6346 45.3827 74.9023 45.1211 75.087 44.7887C75.2747 44.4563 75.3686 44.0762 75.3686 43.6484V37.5455ZM78.7629 47V39.9091H80.097V41.0355H80.1709C80.3002 40.6539 80.5279 40.3538 80.8541 40.1353C81.1834 39.9137 81.5558 39.8029 81.9713 39.8029C82.0575 39.8029 82.1591 39.806 82.276 39.8121C82.396 39.8183 82.4899 39.826 82.5576 39.8352V41.1555C82.5022 41.1402 82.4037 41.1232 82.2622 41.1048C82.1206 41.0832 81.979 41.0724 81.8374 41.0724C81.5112 41.0724 81.2204 41.1417 80.9649 41.2802C80.7126 41.4156 80.5125 41.6049 80.3648 41.848C80.2171 42.0881 80.1432 42.362 80.1432 42.6697V47H78.7629ZM86.4712 49.8068C85.908 49.8068 85.4233 49.733 85.017 49.5852C84.6139 49.4375 84.2846 49.2421 84.0291 48.9989C83.7737 48.7558 83.5829 48.4896 83.4567 48.2003L84.6431 47.7109C84.7262 47.8464 84.837 47.9895 84.9755 48.1403C85.1171 48.2942 85.3079 48.425 85.5479 48.5327C85.7911 48.6404 86.1035 48.6942 86.4851 48.6942C87.0083 48.6942 87.4407 48.5665 87.7823 48.3111C88.1239 48.0587 88.2947 47.6555 88.2947 47.1016V45.7074H88.207C88.1239 45.8582 88.0039 46.0259 87.8469 46.2106C87.6931 46.3952 87.4807 46.5553 87.2099 46.6907C86.939 46.8261 86.5866 46.8938 86.1527 46.8938C85.5926 46.8938 85.0878 46.763 84.6385 46.5014C84.1922 46.2367 83.8383 45.8474 83.5767 45.3335C83.3182 44.8164 83.1889 44.1809 83.1889 43.4268C83.1889 42.6728 83.3166 42.0265 83.5721 41.4879C83.8306 40.9493 84.1845 40.5369 84.6339 40.2507C85.0832 39.9614 85.5926 39.8168 86.1619 39.8168C86.602 39.8168 86.9575 39.8906 87.2283 40.0384C87.4992 40.183 87.71 40.3523 87.8608 40.5462C88.0147 40.7401 88.1332 40.9109 88.2163 41.0586H88.3178V39.9091H89.6705V47.157C89.6705 47.7663 89.5289 48.2665 89.2457 48.6573C88.9626 49.0482 88.5794 49.3375 88.0962 49.5252C87.6161 49.7129 87.0745 49.8068 86.4712 49.8068ZM86.4574 45.7489C86.8544 45.7489 87.1899 45.6566 87.4638 45.4719C87.7408 45.2842 87.95 45.0165 88.0916 44.6687C88.2363 44.3178 88.3086 43.8977 88.3086 43.4084C88.3086 42.9313 88.2378 42.5112 88.0962 42.1481C87.9547 41.7849 87.7469 41.5018 87.473 41.2987C87.1991 41.0924 86.8606 40.9893 86.4574 40.9893C86.0419 40.9893 85.6957 41.0971 85.4187 41.3125C85.1417 41.5249 84.9324 41.8142 84.7908 42.1804C84.6523 42.5466 84.5831 42.956 84.5831 43.4084C84.5831 43.8731 84.6539 44.2809 84.7955 44.6317C84.937 44.9826 85.1463 45.2565 85.4233 45.4535C85.7034 45.6504 86.0481 45.7489 86.4574 45.7489ZM94.5778 47.1431C93.8791 47.1431 93.2775 46.9938 92.7727 46.6953C92.2711 46.3937 91.8833 45.9705 91.6094 45.4258C91.3385 44.878 91.2031 44.2363 91.2031 43.5007C91.2031 42.7744 91.3385 42.1342 91.6094 41.5803C91.8833 41.0263 92.2649 40.5939 92.7543 40.283C93.2467 39.9722 93.8222 39.8168 94.4808 39.8168C94.8809 39.8168 95.2687 39.8829 95.6442 40.0153C96.0196 40.1476 96.3567 40.3554 96.6552 40.6385C96.9537 40.9216 97.1892 41.2894 97.3615 41.7418C97.5339 42.1912 97.62 42.7375 97.62 43.3807V43.87H91.9833V42.8359H96.2674C96.2674 42.4728 96.1935 42.1512 96.0458 41.8711C95.8981 41.5879 95.6903 41.3648 95.4226 41.2017C95.1579 41.0386 94.8471 40.957 94.4901 40.957C94.1023 40.957 93.7637 41.0524 93.4744 41.2433C93.1882 41.431 92.9666 41.6772 92.8097 41.9819C92.6558 42.2835 92.5788 42.6113 92.5788 42.9652V43.7731C92.5788 44.247 92.6619 44.6502 92.8281 44.9826C92.9974 45.315 93.2328 45.5689 93.5344 45.7443C93.8361 45.9167 94.1884 46.0028 94.5916 46.0028C94.8532 46.0028 95.0917 45.9659 95.3072 45.892C95.5226 45.8151 95.7088 45.7012 95.8658 45.5504C96.0227 45.3996 96.1428 45.2134 96.2259 44.9918L97.5323 45.2273C97.4277 45.612 97.2399 45.949 96.9691 46.2383C96.7013 46.5245 96.3643 46.7476 95.9581 46.9077C95.5549 47.0646 95.0948 47.1431 94.5778 47.1431ZM100.532 42.7898V47H99.1515V39.9091H100.476V41.0632H100.564C100.727 40.6877 100.983 40.3861 101.331 40.1584C101.681 39.9306 102.123 39.8168 102.655 39.8168C103.139 39.8168 103.562 39.9183 103.925 40.1214C104.288 40.3215 104.57 40.62 104.77 41.017C104.97 41.4141 105.07 41.9049 105.07 42.4897V47H103.69V42.6559C103.69 42.1419 103.556 41.7403 103.288 41.451C103.02 41.1586 102.652 41.0124 102.185 41.0124C101.864 41.0124 101.58 41.0817 101.331 41.2202C101.084 41.3587 100.889 41.5618 100.744 41.8295C100.603 42.0942 100.532 42.4143 100.532 42.7898ZM110.231 39.9091V41.017H106.358V39.9091H110.231ZM107.397 38.2102H108.777V44.918C108.777 45.1857 108.817 45.3873 108.897 45.5227C108.977 45.6551 109.08 45.7459 109.206 45.7951C109.335 45.8413 109.476 45.8643 109.626 45.8643C109.737 45.8643 109.834 45.8567 109.917 45.8413C110 45.8259 110.065 45.8136 110.111 45.8043L110.36 46.9446C110.28 46.9754 110.166 47.0062 110.019 47.0369C109.871 47.0708 109.686 47.0893 109.465 47.0923C109.102 47.0985 108.763 47.0339 108.449 46.8984C108.135 46.763 107.881 46.5537 107.687 46.2706C107.494 45.9875 107.397 45.632 107.397 45.2042V38.2102ZM117.262 47.157C116.813 47.157 116.406 47.0739 116.043 46.9077C115.68 46.7384 115.392 46.4937 115.18 46.1737C114.971 45.8536 114.866 45.4612 114.866 44.9964C114.866 44.5964 114.943 44.267 115.097 44.0085C115.251 43.75 115.458 43.5453 115.72 43.3945C115.982 43.2437 116.274 43.1299 116.597 43.0529C116.92 42.976 117.25 42.9175 117.585 42.8775C118.01 42.8282 118.355 42.7882 118.619 42.7575C118.884 42.7236 119.076 42.6697 119.196 42.5959C119.316 42.522 119.376 42.402 119.376 42.2358V42.2035C119.376 41.8003 119.262 41.4879 119.035 41.2663C118.81 41.0447 118.475 40.9339 118.028 40.9339C117.564 40.9339 117.197 41.037 116.93 41.2433C116.665 41.4464 116.482 41.6726 116.38 41.9219L115.083 41.6264C115.237 41.1955 115.462 40.8478 115.757 40.5831C116.056 40.3153 116.399 40.1214 116.786 40.0014C117.174 39.8783 117.582 39.8168 118.01 39.8168C118.293 39.8168 118.593 39.8506 118.91 39.9183C119.23 39.983 119.529 40.103 119.806 40.2784C120.086 40.4538 120.315 40.7047 120.494 41.0309C120.672 41.354 120.761 41.7741 120.761 42.2912V47H119.413V46.0305H119.358C119.269 46.209 119.135 46.3845 118.956 46.5568C118.778 46.7292 118.548 46.8723 118.268 46.9862C117.988 47.1 117.653 47.157 117.262 47.157ZM117.562 46.049C117.944 46.049 118.27 45.9736 118.541 45.8228C118.815 45.672 119.022 45.475 119.164 45.2319C119.309 44.9857 119.381 44.7225 119.381 44.4425V43.5284C119.332 43.5777 119.236 43.6238 119.095 43.6669C118.956 43.7069 118.798 43.7423 118.619 43.7731C118.441 43.8008 118.267 43.8269 118.098 43.8516C117.928 43.8731 117.787 43.8916 117.673 43.907C117.405 43.9408 117.16 43.9978 116.939 44.0778C116.72 44.1578 116.545 44.2732 116.413 44.424C116.283 44.5717 116.219 44.7687 116.219 45.0149C116.219 45.3565 116.345 45.6151 116.597 45.7905C116.85 45.9628 117.171 46.049 117.562 46.049ZM125.91 39.9091V41.017H122.037V39.9091H125.91ZM123.075 38.2102H124.456V44.918C124.456 45.1857 124.496 45.3873 124.576 45.5227C124.656 45.6551 124.759 45.7459 124.885 45.7951C125.014 45.8413 125.154 45.8643 125.305 45.8643C125.416 45.8643 125.513 45.8567 125.596 45.8413C125.679 45.8259 125.744 45.8136 125.79 45.8043L126.039 46.9446C125.959 46.9754 125.845 47.0062 125.697 47.0369C125.55 47.0708 125.365 47.0893 125.143 47.0923C124.78 47.0985 124.442 47.0339 124.128 46.8984C123.814 46.763 123.56 46.5537 123.366 46.2706C123.172 45.9875 123.075 45.632 123.075 45.2042V38.2102ZM130.747 39.9091V41.017H126.873V39.9091H130.747ZM127.912 38.2102H129.293V44.918C129.293 45.1857 129.333 45.3873 129.413 45.5227C129.493 45.6551 129.596 45.7459 129.722 45.7951C129.851 45.8413 129.991 45.8643 130.142 45.8643C130.253 45.8643 130.35 45.8567 130.433 45.8413C130.516 45.8259 130.581 45.8136 130.627 45.8043L130.876 46.9446C130.796 46.9754 130.682 47.0062 130.534 47.0369C130.387 47.0708 130.202 47.0893 129.98 47.0923C129.617 47.0985 129.279 47.0339 128.965 46.8984C128.651 46.763 128.397 46.5537 128.203 46.2706C128.009 45.9875 127.912 45.632 127.912 45.2042V38.2102ZM135.254 47.1431C134.555 47.1431 133.953 46.9938 133.449 46.6953C132.947 46.3937 132.559 45.9705 132.285 45.4258C132.014 44.878 131.879 44.2363 131.879 43.5007C131.879 42.7744 132.014 42.1342 132.285 41.5803C132.559 41.0263 132.941 40.5939 133.43 40.283C133.922 39.9722 134.498 39.8168 135.157 39.8168C135.557 39.8168 135.944 39.8829 136.32 40.0153C136.695 40.1476 137.032 40.3554 137.331 40.6385C137.629 40.9216 137.865 41.2894 138.037 41.7418C138.21 42.1912 138.296 42.7375 138.296 43.3807V43.87H132.659V42.8359H136.943C136.943 42.4728 136.869 42.1512 136.722 41.8711C136.574 41.5879 136.366 41.3648 136.098 41.2017C135.834 41.0386 135.523 40.957 135.166 40.957C134.778 40.957 134.44 41.0524 134.15 41.2433C133.864 41.431 133.642 41.6772 133.485 41.9819C133.332 42.2835 133.255 42.6113 133.255 42.9652V43.7731C133.255 44.247 133.338 44.6502 133.504 44.9826C133.673 45.315 133.909 45.5689 134.21 45.7443C134.512 45.9167 134.864 46.0028 135.267 46.0028C135.529 46.0028 135.768 45.9659 135.983 45.892C136.198 45.8151 136.385 45.7012 136.542 45.5504C136.699 45.3996 136.819 45.2134 136.902 44.9918L138.208 45.2273C138.103 45.612 137.916 45.949 137.645 46.2383C137.377 46.5245 137.04 46.7476 136.634 46.9077C136.231 47.0646 135.771 47.1431 135.254 47.1431ZM141.208 42.7898V47H139.827V39.9091H141.152V41.0632H141.24C141.403 40.6877 141.659 40.3861 142.006 40.1584C142.357 39.9306 142.799 39.8168 143.331 39.8168C143.814 39.8168 144.238 39.9183 144.601 40.1214C144.964 40.3215 145.246 40.62 145.446 41.017C145.646 41.4141 145.746 41.9049 145.746 42.4897V47H144.365V42.6559C144.365 42.1419 144.231 41.7403 143.964 41.451C143.696 41.1586 143.328 41.0124 142.86 41.0124C142.54 41.0124 142.256 41.0817 142.006 41.2202C141.76 41.3587 141.565 41.5618 141.42 41.8295C141.278 42.0942 141.208 42.4143 141.208 42.7898ZM150.907 39.9091V41.017H147.034V39.9091H150.907ZM148.072 38.2102H149.453V44.918C149.453 45.1857 149.493 45.3873 149.573 45.5227C149.653 45.6551 149.756 45.7459 149.882 45.7951C150.011 45.8413 150.151 45.8643 150.302 45.8643C150.413 45.8643 150.51 45.8567 150.593 45.8413C150.676 45.8259 150.741 45.8136 150.787 45.8043L151.036 46.9446C150.956 46.9754 150.842 47.0062 150.695 47.0369C150.547 47.0708 150.362 47.0893 150.141 47.0923C149.777 47.0985 149.439 47.0339 149.125 46.8984C148.811 46.763 148.557 46.5537 148.363 46.2706C148.169 45.9875 148.072 45.632 148.072 45.2042V38.2102ZM152.434 47V39.9091H153.814V47H152.434ZM153.131 38.815C152.891 38.815 152.685 38.735 152.512 38.5749C152.343 38.4118 152.258 38.2179 152.258 37.9933C152.258 37.7655 152.343 37.5716 152.512 37.4116C152.685 37.2485 152.891 37.1669 153.131 37.1669C153.371 37.1669 153.576 37.2485 153.745 37.4116C153.917 37.5716 154.003 37.7655 154.003 37.9933C154.003 38.2179 153.917 38.4118 153.745 38.5749C153.576 38.735 153.371 38.815 153.131 38.815ZM158.658 47.1431C157.993 47.1431 157.413 46.9908 156.918 46.6861C156.422 46.3814 156.037 45.9551 155.763 45.4073C155.489 44.8595 155.353 44.2193 155.353 43.4869C155.353 42.7513 155.489 42.1081 155.763 41.5572C156.037 41.0063 156.422 40.5785 156.918 40.2738C157.413 39.9691 157.993 39.8168 158.658 39.8168C159.323 39.8168 159.903 39.9691 160.398 40.2738C160.894 40.5785 161.279 41.0063 161.552 41.5572C161.826 42.1081 161.963 42.7513 161.963 43.4869C161.963 44.2193 161.826 44.8595 161.552 45.4073C161.279 45.9551 160.894 46.3814 160.398 46.6861C159.903 46.9908 159.323 47.1431 158.658 47.1431ZM158.663 45.9844C159.093 45.9844 159.45 45.8705 159.734 45.6428C160.017 45.415 160.226 45.1119 160.361 44.7333C160.5 44.3548 160.569 43.9377 160.569 43.4822C160.569 43.0298 160.5 42.6143 160.361 42.2358C160.226 41.8542 160.017 41.5479 159.734 41.3171C159.45 41.0863 159.093 40.9709 158.663 40.9709C158.229 40.9709 157.869 41.0863 157.582 41.3171C157.299 41.5479 157.088 41.8542 156.95 42.2358C156.814 42.6143 156.747 43.0298 156.747 43.4822C156.747 43.9377 156.814 44.3548 156.95 44.7333C157.088 45.1119 157.299 45.415 157.582 45.6428C157.869 45.8705 158.229 45.9844 158.663 45.9844ZM164.884 42.7898V47H163.504V39.9091H164.829V41.0632H164.917C165.08 40.6877 165.335 40.3861 165.683 40.1584C166.034 39.9306 166.476 39.8168 167.008 39.8168C167.491 39.8168 167.914 39.9183 168.278 40.1214C168.641 40.3215 168.922 40.62 169.122 41.017C169.322 41.4141 169.422 41.9049 169.422 42.4897V47H168.042V42.6559C168.042 42.1419 167.908 41.7403 167.64 41.451C167.373 41.1586 167.005 41.0124 166.537 41.0124C166.217 41.0124 165.932 41.0817 165.683 41.2202C165.437 41.3587 165.241 41.5618 165.097 41.8295C164.955 42.0942 164.884 42.4143 164.884 42.7898ZM176.094 42.7898V47H174.714V39.9091H176.039V41.0632H176.127C176.29 40.6877 176.545 40.3861 176.893 40.1584C177.244 39.9306 177.686 39.8168 178.218 39.8168C178.701 39.8168 179.124 39.9183 179.487 40.1214C179.851 40.3215 180.132 40.62 180.332 41.017C180.532 41.4141 180.632 41.9049 180.632 42.4897V47H179.252V42.6559C179.252 42.1419 179.118 41.7403 178.85 41.451C178.583 41.1586 178.215 41.0124 177.747 41.0124C177.427 41.0124 177.142 41.0817 176.893 41.2202C176.647 41.3587 176.451 41.5618 176.307 41.8295C176.165 42.0942 176.094 42.4143 176.094 42.7898ZM185.54 47.1431C184.841 47.1431 184.239 46.9938 183.735 46.6953C183.233 46.3937 182.845 45.9705 182.571 45.4258C182.3 44.878 182.165 44.2363 182.165 43.5007C182.165 42.7744 182.3 42.1342 182.571 41.5803C182.845 41.0263 183.227 40.5939 183.716 40.283C184.209 39.9722 184.784 39.8168 185.443 39.8168C185.843 39.8168 186.231 39.8829 186.606 40.0153C186.982 40.1476 187.319 40.3554 187.617 40.6385C187.916 40.9216 188.151 41.2894 188.323 41.7418C188.496 42.1912 188.582 42.7375 188.582 43.3807V43.87H182.945V42.8359H187.229C187.229 42.4728 187.155 42.1512 187.008 41.8711C186.86 41.5879 186.652 41.3648 186.384 41.2017C186.12 41.0386 185.809 40.957 185.452 40.957C185.064 40.957 184.726 41.0524 184.436 41.2433C184.15 41.431 183.929 41.6772 183.772 41.9819C183.618 42.2835 183.541 42.6113 183.541 42.9652V43.7731C183.541 44.247 183.624 44.6502 183.79 44.9826C183.959 45.315 184.195 45.5689 184.496 45.7443C184.798 45.9167 185.15 46.0028 185.554 46.0028C185.815 46.0028 186.054 45.9659 186.269 45.892C186.485 45.8151 186.671 45.7012 186.828 45.5504C186.985 45.3996 187.105 45.2134 187.188 44.9918L188.494 45.2273C188.39 45.612 188.202 45.949 187.931 46.2383C187.663 46.5245 187.326 46.7476 186.92 46.9077C186.517 47.0646 186.057 47.1431 185.54 47.1431ZM193.17 47.1431C192.471 47.1431 191.869 46.9938 191.365 46.6953C190.863 46.3937 190.475 45.9705 190.201 45.4258C189.93 44.878 189.795 44.2363 189.795 43.5007C189.795 42.7744 189.93 42.1342 190.201 41.5803C190.475 41.0263 190.857 40.5939 191.346 40.283C191.838 39.9722 192.414 39.8168 193.073 39.8168C193.473 39.8168 193.86 39.8829 194.236 40.0153C194.611 40.1476 194.948 40.3554 195.247 40.6385C195.546 40.9216 195.781 41.2894 195.953 41.7418C196.126 42.1912 196.212 42.7375 196.212 43.3807V43.87H190.575V42.8359H194.859C194.859 42.4728 194.785 42.1512 194.638 41.8711C194.49 41.5879 194.282 41.3648 194.014 41.2017C193.75 41.0386 193.439 40.957 193.082 40.957C192.694 40.957 192.356 41.0524 192.066 41.2433C191.78 41.431 191.558 41.6772 191.401 41.9819C191.248 42.2835 191.171 42.6113 191.171 42.9652V43.7731C191.171 44.247 191.254 44.6502 191.42 44.9826C191.589 45.315 191.825 45.5689 192.126 45.7443C192.428 45.9167 192.78 46.0028 193.183 46.0028C193.445 46.0028 193.684 45.9659 193.899 45.892C194.114 45.8151 194.301 45.7012 194.458 45.5504C194.615 45.3996 194.735 45.2134 194.818 44.9918L196.124 45.2273C196.019 45.612 195.832 45.949 195.561 46.2383C195.293 46.5245 194.956 46.7476 194.55 46.9077C194.147 47.0646 193.687 47.1431 193.17 47.1431ZM200.398 47.1385C199.825 47.1385 199.314 46.9923 198.865 46.6999C198.419 46.4045 198.068 45.9844 197.813 45.4396C197.56 44.8918 197.434 44.2347 197.434 43.4684C197.434 42.7021 197.562 42.0465 197.817 41.5018C198.076 40.957 198.43 40.54 198.879 40.2507C199.328 39.9614 199.838 39.8168 200.407 39.8168C200.847 39.8168 201.201 39.8906 201.469 40.0384C201.74 40.183 201.949 40.3523 202.097 40.5462C202.247 40.7401 202.364 40.9109 202.448 41.0586H202.531V37.5455H203.911V47H202.563V45.8967H202.448C202.364 46.0475 202.244 46.2198 202.087 46.4137C201.934 46.6076 201.721 46.7769 201.45 46.9215C201.18 47.0662 200.829 47.1385 200.398 47.1385ZM200.703 45.9613C201.1 45.9613 201.435 45.8567 201.709 45.6474C201.986 45.435 202.195 45.1411 202.337 44.7656C202.481 44.3902 202.554 43.9531 202.554 43.4545C202.554 42.9621 202.483 42.5312 202.341 42.1619C202.2 41.7926 201.992 41.5049 201.718 41.2987C201.444 41.0924 201.106 40.9893 200.703 40.9893C200.287 40.9893 199.941 41.0971 199.664 41.3125C199.387 41.5279 199.178 41.8219 199.036 42.1942C198.897 42.5666 198.828 42.9867 198.828 43.4545C198.828 43.9285 198.899 44.3548 199.041 44.7333C199.182 45.1119 199.391 45.4119 199.668 45.6335C199.948 45.852 200.293 45.9613 200.703 45.9613ZM208.937 47.1431C208.239 47.1431 207.637 46.9938 207.132 46.6953C206.63 46.3937 206.243 45.9705 205.969 45.4258C205.698 44.878 205.562 44.2363 205.562 43.5007C205.562 42.7744 205.698 42.1342 205.969 41.5803C206.243 41.0263 206.624 40.5939 207.114 40.283C207.606 39.9722 208.182 39.8168 208.84 39.8168C209.24 39.8168 209.628 39.8829 210.004 40.0153C210.379 40.1476 210.716 40.3554 211.015 40.6385C211.313 40.9216 211.549 41.2894 211.721 41.7418C211.893 42.1912 211.979 42.7375 211.979 43.3807V43.87H206.343V42.8359H210.627C210.627 42.4728 210.553 42.1512 210.405 41.8711C210.257 41.5879 210.05 41.3648 209.782 41.2017C209.517 41.0386 209.206 40.957 208.849 40.957C208.462 40.957 208.123 41.0524 207.834 41.2433C207.548 41.431 207.326 41.6772 207.169 41.9819C207.015 42.2835 206.938 42.6113 206.938 42.9652V43.7731C206.938 44.247 207.021 44.6502 207.188 44.9826C207.357 45.315 207.592 45.5689 207.894 45.7443C208.195 45.9167 208.548 46.0028 208.951 46.0028C209.213 46.0028 209.451 45.9659 209.667 45.892C209.882 45.8151 210.068 45.7012 210.225 45.5504C210.382 45.3996 210.502 45.2134 210.585 44.9918L211.892 45.2273C211.787 45.612 211.599 45.949 211.328 46.2383C211.061 46.5245 210.724 46.7476 210.317 46.9077C209.914 47.0646 209.454 47.1431 208.937 47.1431ZM216.165 47.1385C215.593 47.1385 215.082 46.9923 214.633 46.6999C214.186 46.4045 213.836 45.9844 213.58 45.4396C213.328 44.8918 213.202 44.2347 213.202 43.4684C213.202 42.7021 213.329 42.0465 213.585 41.5018C213.843 40.957 214.197 40.54 214.647 40.2507C215.096 39.9614 215.605 39.8168 216.175 39.8168C216.615 39.8168 216.969 39.8906 217.236 40.0384C217.507 40.183 217.717 40.3523 217.864 40.5462C218.015 40.7401 218.132 40.9109 218.215 41.0586H218.298V37.5455H219.679V47H218.331V45.8967H218.215C218.132 46.0475 218.012 46.2198 217.855 46.4137C217.701 46.6076 217.489 46.7769 217.218 46.9215C216.947 47.0662 216.596 47.1385 216.165 47.1385ZM216.47 45.9613C216.867 45.9613 217.203 45.8567 217.476 45.6474C217.753 45.435 217.963 45.1411 218.104 44.7656C218.249 44.3902 218.321 43.9531 218.321 43.4545C218.321 42.9621 218.251 42.5312 218.109 42.1619C217.967 41.7926 217.76 41.5049 217.486 41.2987C217.212 41.0924 216.873 40.9893 216.47 40.9893C216.055 40.9893 215.708 41.0971 215.431 41.3125C215.154 41.5279 214.945 41.8219 214.804 42.1942C214.665 42.5666 214.596 42.9867 214.596 43.4545C214.596 43.9285 214.667 44.3548 214.808 44.7333C214.95 45.1119 215.159 45.4119 215.436 45.6335C215.716 45.852 216.061 45.9613 216.47 45.9613Z" fill="#70829A" style="fill:#70829A;fill:color(display-p3 0.4379 0.5116 0.6033);fill-opacity:1;"/>
</svg>
