<svg width="58" height="57" viewBox="0 0 58 57" fill="none" xmlns="http://www.w3.org/2000/svg">
<rect width="58" height="57" rx="28.5" fill="white" style="fill:white;fill-opacity:1;"/>
<g clip-path="url(#clip0_4991_17755)">
<path d="M39.069 35.876C38.106 34.269 36.0365 33.5749 34.3055 34.2189C33.7128 34.4342 33.0414 34.1728 32.7208 33.6365L31.6619 31.8652L29.3887 35.5472L29.3898 35.5489L32.2493 40.0222C33.4043 41.8952 35.8595 42.5242 37.7414 41.3831C39.6373 40.2331 40.2312 37.7601 39.069 35.876ZM35.6842 39.6041C34.7652 39.6208 34.0071 38.8894 33.9904 37.9704C33.9737 37.052 34.7051 36.2934 35.6241 36.2767C36.5425 36.26 37.3012 36.9914 37.3179 37.9103C37.3345 38.8294 36.6032 39.5874 35.6842 39.6041Z" stroke="#9D4141" style="stroke:#9D4141;stroke:color(display-p3 0.6157 0.2549 0.2549);stroke-opacity:1;" stroke-width="1.5" stroke-miterlimit="10" stroke-linecap="round" stroke-linejoin="round"/>
<path d="M28.769 29.9512L27.491 31.8648L26.1915 33.7329C25.8467 34.2287 25.2145 34.4249 24.6461 34.219C22.915 33.575 20.8455 34.2691 19.8826 35.8761C18.7203 37.7608 19.3142 40.2327 21.2106 41.3827C23.092 42.5237 25.5472 41.8953 26.7022 40.0223L29.3896 35.5485L31.6617 31.8649L28.769 29.9512ZM23.328 39.6043C22.409 39.621 21.6509 38.8896 21.6342 37.9707C21.6175 37.0522 22.3489 36.2936 23.2679 36.2769C24.1863 36.2602 24.945 36.9916 24.9617 37.9106C24.9783 38.8295 24.2469 39.5876 23.328 39.6043Z" stroke="#9D4141" style="stroke:#9D4141;stroke:color(display-p3 0.6157 0.2549 0.2549);stroke-opacity:1;" stroke-width="1.5" stroke-miterlimit="10" stroke-linecap="round" stroke-linejoin="round"/>
<path d="M22.391 18.1463H19.7355C19.7258 17.2758 19.8885 16.1015 20.2281 15.2732L20.3207 15.0469L22.391 18.1463Z" stroke="#9D4141" style="stroke:#9D4141;stroke:color(display-p3 0.6157 0.2549 0.2549);stroke-opacity:1;" stroke-width="1.5" stroke-miterlimit="10" stroke-linecap="round" stroke-linejoin="round"/>
<path d="M26.6711 18.1465H16.1636V31.8645H27.4908L28.9624 29.6614L35.183 20.3479L36.6529 18.1465H31.5818" stroke="black" style="stroke:black;stroke-opacity:1;" stroke-width="1.5" stroke-miterlimit="10" stroke-linecap="round" stroke-linejoin="round"/>
<path d="M41.8364 18.1465V31.8645H31.6619L33.044 29.6614L38.241 21.3777L38.3265 21.2415C38.9106 20.2932 39.2378 19.2282 39.2982 18.1465H41.8364Z" stroke="black" style="stroke:black;stroke-opacity:1;" stroke-width="1.5" stroke-miterlimit="10" stroke-linecap="round" stroke-linejoin="round"/>
<path d="M35.1827 20.3477L28.9621 29.6613H20.1704C20.1841 28.7519 19.3976 27.9745 18.4973 27.9882V22.0207C19.421 22.0207 20.1704 21.2719 20.1704 20.3477L35.1827 20.3477Z" stroke="black" style="stroke:black;stroke-opacity:1;" stroke-width="1.5" stroke-miterlimit="10" stroke-linecap="round" stroke-linejoin="round"/>
<path d="M39.559 22.0219V27.9894C38.6587 27.9757 37.8722 28.7531 37.8859 29.6625H33.0439L38.2409 21.3789C38.5467 21.7705 39.0234 22.0219 39.559 22.0219Z" stroke="black" style="stroke:black;stroke-opacity:1;" stroke-width="1.5" stroke-miterlimit="10" stroke-linecap="round" stroke-linejoin="round"/>
<path d="M29.0442 27.3295C30.3282 27.3295 31.3691 26.2886 31.3691 25.0046C31.3691 23.7206 30.3282 22.6797 29.0442 22.6797C27.7601 22.6797 26.7192 23.7206 26.7192 25.0046C26.7192 26.2886 27.7601 27.3295 29.0442 27.3295Z" stroke="black" style="stroke:black;stroke-opacity:1;" stroke-width="1.5" stroke-miterlimit="10" stroke-linecap="round" stroke-linejoin="round"/>
<circle cx="29.0442" cy="32.7324" r="0.546875" fill="black" style="fill:black;fill-opacity:1;"/>
<circle cx="29.1628" cy="18.1465" r="0.546875" fill="black" style="fill:black;fill-opacity:1;"/>
<path d="M38.3265 21.2413L31.6618 31.8643L28.769 29.951L38.7235 15.0469L38.8162 15.2731C39.6165 17.2265 39.4345 19.4447 38.3265 21.2413Z" stroke="#9D4141" style="stroke:#9D4141;stroke:color(display-p3 0.6157 0.2549 0.2549);stroke-opacity:1;" stroke-width="1.5" stroke-miterlimit="10" stroke-linecap="round" stroke-linejoin="round"/>
</g>
<defs>
<clipPath id="clip0_4991_17755">
<rect width="28" height="28" fill="white" style="fill:white;fill-opacity:1;" transform="translate(15 14.5)"/>
</clipPath>
</defs>
</svg>
