<svg width="201" height="62" viewBox="0 0 201 62" fill="none" xmlns="http://www.w3.org/2000/svg">
<path d="M33.2009 16.0955L36.2728 8.72266H21.7344L24.8064 16.0955H33.2009Z" fill="#0F49A6" style="fill:#0F49A6;fill:color(display-p3 0.0580 0.2846 0.6490);fill-opacity:1;"/>
<path d="M29.0023 29.5391C23.7891 29.5391 19.5479 33.7803 19.5479 38.9935C19.5479 44.2083 23.7891 48.4507 29.0023 48.4507C34.217 48.4507 38.4596 44.2082 38.4596 38.9935C38.4596 33.7803 34.2169 29.5391 29.0023 29.5391ZM34.7117 37.7526L31.6961 39.9436L32.8479 43.4888C32.92 43.7106 32.841 43.9536 32.6523 44.0908C32.4636 44.2279 32.2082 44.2279 32.0193 44.0908L29.0038 41.8998L25.9881 44.0908C25.7994 44.2279 25.5438 44.2279 25.3551 44.0908C25.1664 43.9537 25.0873 43.7106 25.1595 43.4888L26.3114 39.9436L23.2957 37.7526C23.107 37.6157 23.0279 37.3725 23.1001 37.1506C23.1721 36.9288 23.3789 36.7786 23.6122 36.7786H27.3397L28.4917 33.2336C28.5637 33.0116 28.7705 32.8615 29.0038 32.8615C29.237 32.8615 29.4438 33.0117 29.5159 33.2336L30.6677 36.7786H34.3952C34.6284 36.7786 34.8352 36.9288 34.9072 37.1506C34.9795 37.3725 34.9005 37.6154 34.7117 37.7526Z" fill="#0F49A6" style="fill:#0F49A6;fill:color(display-p3 0.0580 0.2846 0.6490);fill-opacity:1;"/>
<path d="M29.7645 37.4855L29.0039 35.1445L28.2431 37.4855C28.1711 37.7075 27.9643 37.8576 27.7311 37.8576H25.2695L27.261 39.3045C27.4498 39.4417 27.5287 39.6846 27.4565 39.9065L26.6959 42.2476L28.6875 40.8007C28.8761 40.6637 29.1316 40.6637 29.3205 40.8007L31.3117 42.2476L30.5511 39.9066C30.4789 39.6847 30.558 39.4418 30.7467 39.3046L32.738 37.8577H30.2766C30.0433 37.8576 29.8365 37.7074 29.7645 37.4855Z" fill="#0F49A6" style="fill:#0F49A6;fill:color(display-p3 0.0580 0.2846 0.6490);fill-opacity:1;"/>
<path d="M25.0997 24.4227C25.5153 23.9075 26.0228 23.4856 26.5904 23.174C25.95 21.6372 21.3648 10.6327 20.7008 9.03906L14.8271 13.5795L19.6601 25.6441C21.0347 24.2022 23.1578 23.6777 25.0997 24.4227Z" fill="#0F49A6" style="fill:#0F49A6;fill:color(display-p3 0.0580 0.2846 0.6490);fill-opacity:1;"/>
<path d="M31.4189 23.1709C31.9872 23.4824 32.495 23.9047 32.9101 24.4204C34.8297 23.6839 36.9592 24.1845 38.346 25.6366L43.1417 13.5769L37.3072 9.03906C36.6406 10.639 32.0608 21.6306 31.4189 23.1709Z" fill="#0F49A6" style="fill:#0F49A6;fill:color(display-p3 0.0580 0.2846 0.6490);fill-opacity:1;"/>
<path d="M9.36538 25.9531C8.47466 25.9531 7.75 26.6778 7.75 27.5685C7.75 28.4592 8.47466 29.1839 9.36538 29.1839C10.2561 29.1839 10.9808 28.4592 10.9808 27.5685C10.9808 26.6778 10.2561 25.9531 9.36538 25.9531Z" fill="#0F49A6" style="fill:#0F49A6;fill:color(display-p3 0.0580 0.2846 0.6490);fill-opacity:1;"/>
<path d="M50.827 23.7978C50.827 22.3132 49.6192 21.1055 48.1347 21.1055C46.6502 21.1055 45.4424 22.3132 45.4424 23.7978C45.4424 25.2823 46.6502 26.4901 48.1347 26.4901C49.6192 26.4901 50.827 25.2823 50.827 23.7978Z" fill="#0F49A6" style="fill:#0F49A6;fill:color(display-p3 0.0580 0.2846 0.6490);fill-opacity:1;"/>
<path d="M42.6135 35.7143C42.3894 35.5643 42.311 35.2714 42.43 35.0295C43.6772 32.4931 41.9356 29.5313 39.1521 29.3501C38.8826 29.3325 38.6679 29.1182 38.6498 28.8488C38.6054 28.1863 38.398 27.5587 38.0581 27.0144C38.0559 27.0112 38.0539 27.0081 38.0518 27.005C36.974 25.2898 34.7821 24.6773 32.9676 25.5698C32.7251 25.6888 32.4316 25.61 32.2817 25.385C30.7287 23.0525 27.2896 23.0448 25.7254 25.3857C25.5754 25.6102 25.2823 25.6889 25.0401 25.5697C22.4913 24.3161 19.541 26.0741 19.3607 28.8476C19.3431 29.1175 19.1282 29.3324 18.8583 29.35C16.0734 29.531 14.3303 32.4877 15.5806 35.0292C15.6997 35.2716 15.6211 35.5646 15.3965 35.7146C13.0569 37.2782 13.0618 40.7167 15.3958 42.2708C15.6209 42.4207 15.6999 42.7141 15.5806 42.9567C14.336 45.4871 16.0559 48.4508 18.8595 48.6389C19.1288 48.657 19.3433 48.8717 19.3608 49.1411C19.5425 51.9303 22.5113 53.663 25.0401 52.4193C25.2842 52.2993 25.5761 52.3803 25.7251 52.6027C27.2903 54.9386 30.7264 54.9338 32.2822 52.6034C32.4321 52.3788 32.7253 52.3002 32.9675 52.4193C35.4923 53.6608 38.4617 51.9425 38.6498 49.1402C38.6679 48.8712 38.8821 48.6571 39.151 48.639C41.9556 48.4507 43.6707 45.479 42.4301 42.9568C42.3109 42.7144 42.3896 42.4211 42.6144 42.2713C43.7105 41.5397 44.3648 40.3141 44.3648 38.9932C44.3648 37.6748 43.7101 36.4492 42.6135 35.7143ZM29.0023 49.5272C23.1953 49.5272 18.4709 44.8016 18.4709 38.9931C18.4709 33.1861 23.1953 28.4617 29.0023 28.4617C34.811 28.4617 39.5365 33.1861 39.5365 38.9931C39.5365 44.8016 34.8109 49.5272 29.0023 49.5272Z" fill="#0F49A6" style="fill:#0F49A6;fill:color(display-p3 0.0580 0.2846 0.6490);fill-opacity:1;"/>
<path d="M48.4034 12.2209C48.8495 12.2209 49.2111 11.8592 49.2111 11.4132C49.2111 10.9671 48.8495 10.6055 48.4034 10.6055C47.9573 10.6055 47.5957 10.9671 47.5957 11.4132C47.5957 11.8592 47.9573 12.2209 48.4034 12.2209Z" fill="#0F49A6" style="fill:#0F49A6;fill:color(display-p3 0.0580 0.2846 0.6490);fill-opacity:1;"/>
<path d="M11.7882 9.25992C12.2342 9.25992 12.5959 8.8983 12.5959 8.45222C12.5959 8.00615 12.2342 7.64453 11.7882 7.64453C11.3421 7.64453 10.9805 8.00615 10.9805 8.45222C10.9805 8.8983 11.3421 9.25992 11.7882 9.25992Z" fill="#0F49A6" style="fill:#0F49A6;fill:color(display-p3 0.0580 0.2846 0.6490);fill-opacity:1;"/>
<path d="M7.48054 18.4123C7.92662 18.4123 8.28824 18.0506 8.28824 17.6046C8.28824 17.1585 7.92662 16.7969 7.48054 16.7969C7.03447 16.7969 6.67285 17.1585 6.67285 17.6046C6.67285 18.0506 7.03447 18.4123 7.48054 18.4123Z" fill="#0F49A6" style="fill:#0F49A6;fill:color(display-p3 0.0580 0.2846 0.6490);fill-opacity:1;"/>
<path d="M48.9425 34.0294C49.3885 34.0294 49.7502 33.6678 49.7502 33.2218C49.7502 32.7757 49.3885 32.4141 48.9425 32.4141C48.4964 32.4141 48.1348 32.7757 48.1348 33.2218C48.1348 33.6678 48.4964 34.0294 48.9425 34.0294Z" fill="#0F49A6" style="fill:#0F49A6;fill:color(display-p3 0.0580 0.2846 0.6490);fill-opacity:1;"/>
<path d="M50.0186 50.1818C50.4647 50.1818 50.8263 49.8202 50.8263 49.3741C50.8263 48.928 50.4647 48.5664 50.0186 48.5664C49.5726 48.5664 49.2109 48.928 49.2109 49.3741C49.2109 49.8202 49.5726 50.1818 50.0186 50.1818Z" fill="#0F49A6" style="fill:#0F49A6;fill:color(display-p3 0.0580 0.2846 0.6490);fill-opacity:1;"/>
<path d="M13.9425 51.799C14.3885 51.799 14.7502 51.4374 14.7502 50.9913C14.7502 50.5452 14.3885 50.1836 13.9425 50.1836C13.4964 50.1836 13.1348 50.5452 13.1348 50.9913C13.1348 51.4374 13.4964 51.799 13.9425 51.799Z" fill="#0F49A6" style="fill:#0F49A6;fill:color(display-p3 0.0580 0.2846 0.6490);fill-opacity:1;"/>
<path d="M7.48054 37.799C7.92662 37.799 8.28824 37.4374 8.28824 36.9913C8.28824 36.5452 7.92662 36.1836 7.48054 36.1836C7.03447 36.1836 6.67285 36.5452 6.67285 36.9913C6.67285 37.4374 7.03447 37.799 7.48054 37.799Z" fill="#0F49A6" style="fill:#0F49A6;fill:color(display-p3 0.0580 0.2846 0.6490);fill-opacity:1;"/>
<path d="M33.2009 16.0955L36.2728 8.72266H21.7344L24.8064 16.0955H33.2009Z" fill="#0F49A6" style="fill:#0F49A6;fill:color(display-p3 0.0580 0.2846 0.6490);fill-opacity:1;"/>
<path d="M29.0023 29.5391C23.7891 29.5391 19.5479 33.7803 19.5479 38.9935C19.5479 44.2083 23.7891 48.4507 29.0023 48.4507C34.217 48.4507 38.4596 44.2082 38.4596 38.9935C38.4596 33.7803 34.2169 29.5391 29.0023 29.5391ZM34.7117 37.7526L31.6961 39.9436L32.8479 43.4888C32.92 43.7106 32.841 43.9536 32.6523 44.0908C32.4636 44.2279 32.2082 44.2279 32.0193 44.0908L29.0038 41.8998L25.9881 44.0908C25.7994 44.2279 25.5438 44.2279 25.3551 44.0908C25.1664 43.9537 25.0873 43.7106 25.1595 43.4888L26.3114 39.9436L23.2957 37.7526C23.107 37.6157 23.0279 37.3725 23.1001 37.1506C23.1721 36.9288 23.3789 36.7786 23.6122 36.7786H27.3397L28.4917 33.2336C28.5637 33.0116 28.7705 32.8615 29.0038 32.8615C29.237 32.8615 29.4438 33.0117 29.5159 33.2336L30.6677 36.7786H34.3952C34.6284 36.7786 34.8352 36.9288 34.9072 37.1506C34.9795 37.3725 34.9005 37.6154 34.7117 37.7526Z" fill="#0F49A6" style="fill:#0F49A6;fill:color(display-p3 0.0580 0.2846 0.6490);fill-opacity:1;"/>
<path d="M29.7645 37.4855L29.0039 35.1445L28.2431 37.4855C28.1711 37.7075 27.9643 37.8576 27.7311 37.8576H25.2695L27.261 39.3045C27.4498 39.4417 27.5287 39.6846 27.4565 39.9065L26.6959 42.2476L28.6875 40.8007C28.8761 40.6637 29.1316 40.6637 29.3205 40.8007L31.3117 42.2476L30.5511 39.9066C30.4789 39.6847 30.558 39.4418 30.7467 39.3046L32.738 37.8577H30.2766C30.0433 37.8576 29.8365 37.7074 29.7645 37.4855Z" fill="#6E8EF8" style="fill:#6E8EF8;fill:color(display-p3 0.4309 0.5572 0.9721);fill-opacity:1;"/>
<path d="M25.0997 24.4227C25.5153 23.9075 26.0228 23.4856 26.5904 23.174C25.95 21.6372 21.3648 10.6327 20.7008 9.03906L14.8271 13.5795L19.6601 25.6441C21.0347 24.2022 23.1578 23.6777 25.0997 24.4227Z" fill="#0F49A6" style="fill:#0F49A6;fill:color(display-p3 0.0580 0.2846 0.6490);fill-opacity:1;"/>
<path d="M31.4189 23.1709C31.9872 23.4824 32.495 23.9047 32.9101 24.4204C34.8297 23.6839 36.9592 24.1845 38.346 25.6366L43.1417 13.5769L37.3072 9.03906C36.6406 10.639 32.0608 21.6306 31.4189 23.1709Z" fill="#0F49A6" style="fill:#0F49A6;fill:color(display-p3 0.0580 0.2846 0.6490);fill-opacity:1;"/>
<path d="M9.36538 25.9531C8.47466 25.9531 7.75 26.6778 7.75 27.5685C7.75 28.4592 8.47466 29.1839 9.36538 29.1839C10.2561 29.1839 10.9808 28.4592 10.9808 27.5685C10.9808 26.6778 10.2561 25.9531 9.36538 25.9531Z" fill="#0F49A6" style="fill:#0F49A6;fill:color(display-p3 0.0580 0.2846 0.6490);fill-opacity:1;"/>
<path d="M50.827 23.7978C50.827 22.3132 49.6192 21.1055 48.1347 21.1055C46.6502 21.1055 45.4424 22.3132 45.4424 23.7978C45.4424 25.2823 46.6502 26.4901 48.1347 26.4901C49.6192 26.4901 50.827 25.2823 50.827 23.7978Z" fill="#0F49A6" style="fill:#0F49A6;fill:color(display-p3 0.0580 0.2846 0.6490);fill-opacity:1;"/>
<path d="M42.6135 35.7143C42.3894 35.5643 42.311 35.2714 42.43 35.0295C43.6772 32.4931 41.9356 29.5313 39.1521 29.3501C38.8826 29.3325 38.6679 29.1182 38.6498 28.8488C38.6054 28.1863 38.398 27.5587 38.0581 27.0144C38.0559 27.0112 38.0539 27.0081 38.0518 27.005C36.974 25.2898 34.7821 24.6773 32.9676 25.5698C32.7251 25.6888 32.4316 25.61 32.2817 25.385C30.7287 23.0525 27.2896 23.0448 25.7254 25.3857C25.5754 25.6102 25.2823 25.6889 25.0401 25.5697C22.4913 24.3161 19.541 26.0741 19.3607 28.8476C19.3431 29.1175 19.1282 29.3324 18.8583 29.35C16.0734 29.531 14.3303 32.4877 15.5806 35.0292C15.6997 35.2716 15.6211 35.5646 15.3965 35.7146C13.0569 37.2782 13.0618 40.7167 15.3958 42.2708C15.6209 42.4207 15.6999 42.7141 15.5806 42.9567C14.336 45.4871 16.0559 48.4508 18.8595 48.6389C19.1288 48.657 19.3433 48.8717 19.3608 49.1411C19.5425 51.9303 22.5113 53.663 25.0401 52.4193C25.2842 52.2993 25.5761 52.3803 25.7251 52.6027C27.2903 54.9386 30.7264 54.9338 32.2822 52.6034C32.4321 52.3788 32.7253 52.3002 32.9675 52.4193C35.4923 53.6608 38.4617 51.9425 38.6498 49.1402C38.6679 48.8712 38.8821 48.6571 39.151 48.639C41.9556 48.4507 43.6707 45.479 42.4301 42.9568C42.3109 42.7144 42.3896 42.4211 42.6144 42.2713C43.7105 41.5397 44.3648 40.3141 44.3648 38.9932C44.3648 37.6748 43.7101 36.4492 42.6135 35.7143ZM29.0023 49.5272C23.1953 49.5272 18.4709 44.8016 18.4709 38.9931C18.4709 33.1861 23.1953 28.4617 29.0023 28.4617C34.811 28.4617 39.5365 33.1861 39.5365 38.9931C39.5365 44.8016 34.8109 49.5272 29.0023 49.5272Z" fill="#6E8EF8" style="fill:#6E8EF8;fill:color(display-p3 0.4309 0.5572 0.9721);fill-opacity:1;"/>
<path d="M48.4034 12.2209C48.8495 12.2209 49.2111 11.8592 49.2111 11.4132C49.2111 10.9671 48.8495 10.6055 48.4034 10.6055C47.9573 10.6055 47.5957 10.9671 47.5957 11.4132C47.5957 11.8592 47.9573 12.2209 48.4034 12.2209Z" fill="#0F49A6" style="fill:#0F49A6;fill:color(display-p3 0.0580 0.2846 0.6490);fill-opacity:1;"/>
<path d="M11.7882 9.25992C12.2342 9.25992 12.5959 8.8983 12.5959 8.45222C12.5959 8.00615 12.2342 7.64453 11.7882 7.64453C11.3421 7.64453 10.9805 8.00615 10.9805 8.45222C10.9805 8.8983 11.3421 9.25992 11.7882 9.25992Z" fill="#0F49A6" style="fill:#0F49A6;fill:color(display-p3 0.0580 0.2846 0.6490);fill-opacity:1;"/>
<path d="M7.48054 18.4123C7.92662 18.4123 8.28824 18.0506 8.28824 17.6046C8.28824 17.1585 7.92662 16.7969 7.48054 16.7969C7.03447 16.7969 6.67285 17.1585 6.67285 17.6046C6.67285 18.0506 7.03447 18.4123 7.48054 18.4123Z" fill="#0F49A6" style="fill:#0F49A6;fill:color(display-p3 0.0580 0.2846 0.6490);fill-opacity:1;"/>
<path d="M48.9425 34.0294C49.3885 34.0294 49.7502 33.6678 49.7502 33.2218C49.7502 32.7757 49.3885 32.4141 48.9425 32.4141C48.4964 32.4141 48.1348 32.7757 48.1348 33.2218C48.1348 33.6678 48.4964 34.0294 48.9425 34.0294Z" fill="#0F49A6" style="fill:#0F49A6;fill:color(display-p3 0.0580 0.2846 0.6490);fill-opacity:1;"/>
<path d="M50.0186 50.1818C50.4647 50.1818 50.8263 49.8202 50.8263 49.3741C50.8263 48.928 50.4647 48.5664 50.0186 48.5664C49.5726 48.5664 49.2109 48.928 49.2109 49.3741C49.2109 49.8202 49.5726 50.1818 50.0186 50.1818Z" fill="#0F49A6" style="fill:#0F49A6;fill:color(display-p3 0.0580 0.2846 0.6490);fill-opacity:1;"/>
<path d="M13.9425 51.799C14.3885 51.799 14.7502 51.4374 14.7502 50.9913C14.7502 50.5452 14.3885 50.1836 13.9425 50.1836C13.4964 50.1836 13.1348 50.5452 13.1348 50.9913C13.1348 51.4374 13.4964 51.799 13.9425 51.799Z" fill="#0F49A6" style="fill:#0F49A6;fill:color(display-p3 0.0580 0.2846 0.6490);fill-opacity:1;"/>
<path d="M7.48054 37.799C7.92662 37.799 8.28824 37.4374 8.28824 36.9913C8.28824 36.5452 7.92662 36.1836 7.48054 36.1836C7.03447 36.1836 6.67285 36.5452 6.67285 36.9913C6.67285 37.4374 7.03447 37.799 7.48054 37.799Z" fill="#0F49A6" style="fill:#0F49A6;fill:color(display-p3 0.0580 0.2846 0.6490);fill-opacity:1;"/>
<path d="M74.89 29.16C73.89 29.16 73.01 28.9667 72.25 28.58C71.49 28.18 70.9033 27.62 70.49 26.9C70.0767 26.18 69.87 25.3533 69.87 24.42V19.58C69.87 18.6333 70.0767 17.8067 70.49 17.1C70.9033 16.38 71.49 15.8267 72.25 15.44C73.01 15.04 73.89 14.84 74.89 14.84C75.8767 14.84 76.7433 15.0333 77.49 15.42C78.25 15.8067 78.8367 16.3333 79.25 17C79.6633 17.6667 79.87 18.42 79.87 19.26V19.42C79.87 19.4867 79.8433 19.5467 79.79 19.6C79.75 19.64 79.6967 19.66 79.63 19.66H77.81C77.7433 19.66 77.6833 19.64 77.63 19.6C77.59 19.5467 77.57 19.4867 77.57 19.42V19.32C77.57 18.6 77.3233 18.0067 76.83 17.54C76.35 17.0733 75.7033 16.84 74.89 16.84C74.0767 16.84 73.4233 17.0867 72.93 17.58C72.4367 18.06 72.19 18.7 72.19 19.5V24.5C72.19 25.3 72.45 25.9467 72.97 26.44C73.49 26.92 74.1633 27.16 74.99 27.16C75.79 27.16 76.4167 26.9533 76.87 26.54C77.3367 26.1133 77.57 25.5333 77.57 24.8V23.56C77.57 23.4933 77.5367 23.46 77.47 23.46H75.01C74.9433 23.46 74.8833 23.44 74.83 23.4C74.79 23.3467 74.77 23.2867 74.77 23.22V21.74C74.77 21.6733 74.79 21.62 74.83 21.58C74.8833 21.5267 74.9433 21.5 75.01 21.5H79.63C79.6967 21.5 79.75 21.5267 79.79 21.58C79.8433 21.62 79.87 21.6733 79.87 21.74V24.3C79.87 25.8333 79.4167 27.0267 78.51 27.88C77.6167 28.7333 76.41 29.16 74.89 29.16ZM86.7761 29.16C85.7228 29.16 84.8161 28.8933 84.0561 28.36C83.3094 27.8267 82.7828 27.0867 82.4761 26.14C82.2494 25.42 82.1361 24.66 82.1361 23.86C82.1361 23.0067 82.2428 22.2467 82.4561 21.58C82.7628 20.6467 83.2961 19.92 84.0561 19.4C84.8161 18.88 85.7294 18.62 86.7961 18.62C87.8094 18.62 88.6828 18.88 89.4161 19.4C90.1628 19.92 90.6894 20.64 90.9961 21.56C91.2361 22.2 91.3561 22.96 91.3561 23.84C91.3561 24.68 91.2428 25.44 91.0161 26.12C90.7094 27.0667 90.1828 27.8133 89.4361 28.36C88.6894 28.8933 87.8028 29.16 86.7761 29.16ZM86.7761 27.16C87.2694 27.16 87.6894 27.02 88.0361 26.74C88.3961 26.46 88.6561 26.0667 88.8161 25.56C88.9494 25.12 89.0161 24.56 89.0161 23.88C89.0161 23.16 88.9494 22.6 88.8161 22.2C88.6694 21.6933 88.4161 21.3067 88.0561 21.04C87.6961 20.76 87.2561 20.62 86.7361 20.62C86.2428 20.62 85.8161 20.76 85.4561 21.04C85.0961 21.3067 84.8361 21.6933 84.6761 22.2C84.5428 22.6667 84.4761 23.2267 84.4761 23.88C84.4761 24.5333 84.5428 25.0933 84.6761 25.56C84.8228 26.0667 85.0761 26.46 85.4361 26.74C85.8094 27.02 86.2561 27.16 86.7761 27.16ZM98.0894 29.16C97.036 29.16 96.1294 28.8933 95.3694 28.36C94.6227 27.8267 94.096 27.0867 93.7894 26.14C93.5627 25.42 93.4494 24.66 93.4494 23.86C93.4494 23.0067 93.556 22.2467 93.7694 21.58C94.076 20.6467 94.6094 19.92 95.3694 19.4C96.1294 18.88 97.0427 18.62 98.1094 18.62C99.1227 18.62 99.996 18.88 100.729 19.4C101.476 19.92 102.003 20.64 102.309 21.56C102.549 22.2 102.669 22.96 102.669 23.84C102.669 24.68 102.556 25.44 102.329 26.12C102.023 27.0667 101.496 27.8133 100.749 28.36C100.003 28.8933 99.116 29.16 98.0894 29.16ZM98.0894 27.16C98.5827 27.16 99.0027 27.02 99.3494 26.74C99.7094 26.46 99.9694 26.0667 100.129 25.56C100.263 25.12 100.329 24.56 100.329 23.88C100.329 23.16 100.263 22.6 100.129 22.2C99.9827 21.6933 99.7294 21.3067 99.3694 21.04C99.0094 20.76 98.5694 20.62 98.0494 20.62C97.556 20.62 97.1294 20.76 96.7694 21.04C96.4094 21.3067 96.1494 21.6933 95.9894 22.2C95.856 22.6667 95.7894 23.2267 95.7894 23.88C95.7894 24.5333 95.856 25.0933 95.9894 25.56C96.136 26.0667 96.3894 26.46 96.7494 26.74C97.1227 27.02 97.5694 27.16 98.0894 27.16ZM111.403 15.24C111.403 15.1733 111.423 15.12 111.463 15.08C111.516 15.0267 111.576 15 111.643 15H113.483C113.549 15 113.603 15.0267 113.643 15.08C113.696 15.12 113.723 15.1733 113.723 15.24V28.76C113.723 28.8267 113.696 28.8867 113.643 28.94C113.603 28.98 113.549 29 113.483 29H111.643C111.576 29 111.516 28.98 111.463 28.94C111.423 28.8867 111.403 28.8267 111.403 28.76V28.16C111.403 28.12 111.389 28.0933 111.363 28.08C111.336 28.0667 111.309 28.08 111.283 28.12C110.696 28.8133 109.929 29.16 108.983 29.16C108.036 29.16 107.236 28.9133 106.583 28.42C105.929 27.9267 105.456 27.24 105.163 26.36C104.923 25.6133 104.803 24.78 104.803 23.86C104.803 22.9133 104.916 22.1 105.143 21.42C105.436 20.54 105.909 19.8533 106.563 19.36C107.216 18.8667 108.036 18.62 109.023 18.62C109.943 18.62 110.696 18.9533 111.283 19.62C111.309 19.6467 111.336 19.66 111.363 19.66C111.389 19.6467 111.403 19.62 111.403 19.58V15.24ZM110.923 26.2C111.229 25.6533 111.383 24.88 111.383 23.88C111.383 22.84 111.216 22.0467 110.883 21.5C110.523 20.9133 110.016 20.62 109.363 20.62C108.683 20.62 108.149 20.9 107.763 21.46C107.363 22.0467 107.163 22.86 107.163 23.9C107.163 24.8333 107.323 25.6 107.643 26.2C108.016 26.84 108.583 27.16 109.343 27.16C110.023 27.16 110.549 26.84 110.923 26.2Z" fill="#0F49A6" style="fill:#0F49A6;fill:color(display-p3 0.0580 0.2846 0.6490);fill-opacity:1;"/>
<path d="M72.8494 50H69.7887V40.5455H72.9464C73.8728 40.5455 74.6683 40.7347 75.3331 41.1133C75.9979 41.4888 76.5072 42.0289 76.8612 42.7337C77.2182 43.4354 77.3967 44.2771 77.3967 45.2589C77.3967 46.2437 77.2166 47.0901 76.8565 47.7979C76.4995 48.5058 75.9825 49.0505 75.3054 49.4322C74.6283 49.8107 73.8097 50 72.8494 50ZM71.2152 48.7536H72.771C73.4911 48.7536 74.0897 48.6181 74.5668 48.3473C75.0438 48.0734 75.4008 47.6779 75.6378 47.1609C75.8748 46.6407 75.9933 46.0067 75.9933 45.2589C75.9933 44.5172 75.8748 43.8878 75.6378 43.3707C75.4039 42.8537 75.0546 42.4613 74.5898 42.1935C74.1251 41.9258 73.5481 41.7919 72.8587 41.7919H71.2152V48.7536ZM82.0466 50.1431C81.3818 50.1431 80.8017 49.9908 80.3062 49.6861C79.8107 49.3814 79.426 48.9551 79.1521 48.4073C78.8782 47.8595 78.7412 47.2193 78.7412 46.4869C78.7412 45.7513 78.8782 45.1081 79.1521 44.5572C79.426 44.0063 79.8107 43.5785 80.3062 43.2738C80.8017 42.9691 81.3818 42.8168 82.0466 42.8168C82.7114 42.8168 83.2915 42.9691 83.787 43.2738C84.2825 43.5785 84.6672 44.0063 84.9411 44.5572C85.2151 45.1081 85.352 45.7513 85.352 46.4869C85.352 47.2193 85.2151 47.8595 84.9411 48.4073C84.6672 48.9551 84.2825 49.3814 83.787 49.6861C83.2915 49.9908 82.7114 50.1431 82.0466 50.1431ZM82.0512 48.9844C82.4821 48.9844 82.8391 48.8705 83.1222 48.6428C83.4054 48.415 83.6147 48.1119 83.7501 47.7333C83.8886 47.3548 83.9578 46.9377 83.9578 46.4822C83.9578 46.0298 83.8886 45.6143 83.7501 45.2358C83.6147 44.8542 83.4054 44.5479 83.1222 44.3171C82.8391 44.0863 82.4821 43.9709 82.0512 43.9709C81.6173 43.9709 81.2572 44.0863 80.971 44.3171C80.6878 44.5479 80.477 44.8542 80.3385 45.2358C80.2031 45.6143 80.1354 46.0298 80.1354 46.4822C80.1354 46.9377 80.2031 47.3548 80.3385 47.7333C80.477 48.1119 80.6878 48.415 80.971 48.6428C81.2572 48.8705 81.6173 48.9844 82.0512 48.9844ZM86.8928 50V42.9091H88.2731V50H86.8928ZM87.5898 41.815C87.3498 41.815 87.1436 41.735 86.9712 41.5749C86.802 41.4118 86.7173 41.2179 86.7173 40.9933C86.7173 40.7655 86.802 40.5716 86.9712 40.4116C87.1436 40.2485 87.3498 40.1669 87.5898 40.1669C87.8299 40.1669 88.0346 40.2485 88.2038 40.4116C88.3762 40.5716 88.4624 40.7655 88.4624 40.9933C88.4624 41.2179 88.3762 41.4118 88.2038 41.5749C88.0346 41.735 87.8299 41.815 87.5898 41.815ZM91.5104 45.7898V50H90.1301V42.9091H91.455V44.0632H91.5427C91.7058 43.6877 91.9613 43.3861 92.309 43.1584C92.6599 42.9306 93.1015 42.8168 93.634 42.8168C94.1172 42.8168 94.5403 42.9183 94.9035 43.1214C95.2667 43.3215 95.5483 43.62 95.7483 44.017C95.9484 44.4141 96.0484 44.9049 96.0484 45.4897V50H94.6681V45.6559C94.6681 45.1419 94.5342 44.7403 94.2664 44.451C93.9987 44.1586 93.6309 44.0124 93.1631 44.0124C92.843 44.0124 92.5583 44.0817 92.309 44.2202C92.0628 44.3587 91.8674 44.5618 91.7227 44.8295C91.5812 45.0942 91.5104 45.4143 91.5104 45.7898ZM100.873 52.8068C100.309 52.8068 99.8247 52.733 99.4184 52.5852C99.0152 52.4375 98.6859 52.2421 98.4305 51.9989C98.175 51.7558 97.9842 51.4896 97.858 51.2003L99.0445 50.7109C99.1276 50.8464 99.2384 50.9895 99.3769 51.1403C99.5184 51.2942 99.7093 51.425 99.9493 51.5327C100.192 51.6404 100.505 51.6942 100.886 51.6942C101.41 51.6942 101.842 51.5665 102.184 51.3111C102.525 51.0587 102.696 50.6555 102.696 50.1016V48.7074H102.608C102.525 48.8582 102.405 49.0259 102.248 49.2106C102.094 49.3952 101.882 49.5553 101.611 49.6907C101.34 49.8261 100.988 49.8938 100.554 49.8938C99.9939 49.8938 99.4892 49.763 99.0399 49.5014C98.5936 49.2367 98.2397 48.8474 97.9781 48.3335C97.7195 47.8164 97.5903 47.1809 97.5903 46.4268C97.5903 45.6728 97.718 45.0265 97.9735 44.4879C98.232 43.9493 98.5859 43.5369 99.0352 43.2507C99.4846 42.9614 99.9939 42.8168 100.563 42.8168C101.003 42.8168 101.359 42.8906 101.63 43.0384C101.901 43.183 102.111 43.3523 102.262 43.5462C102.416 43.7401 102.535 43.9109 102.618 44.0586H102.719V42.9091H104.072V50.157C104.072 50.7663 103.93 51.2665 103.647 51.6573C103.364 52.0482 102.981 52.3375 102.498 52.5252C102.017 52.7129 101.476 52.8068 100.873 52.8068ZM100.859 48.7489C101.256 48.7489 101.591 48.6566 101.865 48.4719C102.142 48.2842 102.351 48.0165 102.493 47.6687C102.638 47.3178 102.71 46.8977 102.71 46.4084C102.71 45.9313 102.639 45.5112 102.498 45.1481C102.356 44.7849 102.148 44.5018 101.874 44.2987C101.6 44.0924 101.262 43.9893 100.859 43.9893C100.443 43.9893 100.097 44.0971 99.82 44.3125C99.5431 44.5249 99.3338 44.8142 99.1922 45.1804C99.0537 45.5466 98.9845 45.956 98.9845 46.4084C98.9845 46.8731 99.0552 47.2809 99.1968 47.6317C99.3384 47.9826 99.5477 48.2565 99.8247 48.4535C100.105 48.6504 100.449 48.7489 100.859 48.7489ZM109.363 50V42.9091H110.698V44.0355H110.771C110.901 43.6539 111.128 43.3538 111.455 43.1353C111.784 42.9137 112.156 42.8029 112.572 42.8029C112.658 42.8029 112.76 42.806 112.877 42.8121C112.997 42.8183 113.09 42.826 113.158 42.8352V44.1555C113.103 44.1402 113.004 44.1232 112.863 44.1048C112.721 44.0832 112.58 44.0724 112.438 44.0724C112.112 44.0724 111.821 44.1417 111.566 44.2802C111.313 44.4156 111.113 44.6049 110.965 44.848C110.818 45.0881 110.744 45.362 110.744 45.6697V50H109.363ZM117.155 50.1431C116.456 50.1431 115.855 49.9938 115.35 49.6953C114.848 49.3937 114.46 48.9705 114.187 48.4258C113.916 47.878 113.78 47.2363 113.78 46.5007C113.78 45.7744 113.916 45.1342 114.187 44.5803C114.46 44.0263 114.842 43.5939 115.331 43.283C115.824 42.9722 116.399 42.8168 117.058 42.8168C117.458 42.8168 117.846 42.8829 118.221 43.0153C118.597 43.1476 118.934 43.3554 119.232 43.6385C119.531 43.9216 119.766 44.2894 119.939 44.7418C120.111 45.1912 120.197 45.7375 120.197 46.3807V46.87H114.56V45.8359H118.845C118.845 45.4728 118.771 45.1512 118.623 44.8711C118.475 44.5879 118.267 44.3648 118 44.2017C117.735 44.0386 117.424 43.957 117.067 43.957C116.679 43.957 116.341 44.0524 116.052 44.2433C115.765 44.431 115.544 44.6772 115.387 44.9819C115.233 45.2835 115.156 45.6113 115.156 45.9652V46.7731C115.156 47.247 115.239 47.6502 115.405 47.9826C115.575 48.315 115.81 48.5689 116.112 48.7443C116.413 48.9167 116.766 49.0028 117.169 49.0028C117.43 49.0028 117.669 48.9659 117.884 48.892C118.1 48.8151 118.286 48.7012 118.443 48.5504C118.6 48.3996 118.72 48.2134 118.803 47.9918L120.109 48.2273C120.005 48.612 119.817 48.949 119.546 49.2383C119.278 49.5245 118.941 49.7476 118.535 49.9077C118.132 50.0646 117.672 50.1431 117.155 50.1431ZM123.792 50.157C123.343 50.157 122.937 50.0739 122.574 49.9077C122.21 49.7384 121.923 49.4937 121.71 49.1737C121.501 48.8536 121.396 48.4612 121.396 47.9964C121.396 47.5964 121.473 47.267 121.627 47.0085C121.781 46.75 121.989 46.5453 122.25 46.3945C122.512 46.2437 122.804 46.1299 123.127 46.0529C123.451 45.976 123.78 45.9175 124.115 45.8775C124.54 45.8282 124.885 45.7882 125.15 45.7575C125.414 45.7236 125.607 45.6697 125.727 45.5959C125.847 45.522 125.907 45.402 125.907 45.2358V45.2035C125.907 44.8003 125.793 44.4879 125.565 44.2663C125.34 44.0447 125.005 43.9339 124.559 43.9339C124.094 43.9339 123.728 44.037 123.46 44.2433C123.195 44.4464 123.012 44.6726 122.911 44.9219L121.613 44.6264C121.767 44.1955 121.992 43.8478 122.287 43.5831C122.586 43.3153 122.929 43.1214 123.317 43.0014C123.705 42.8783 124.112 42.8168 124.54 42.8168C124.823 42.8168 125.123 42.8506 125.44 42.9183C125.76 42.983 126.059 43.103 126.336 43.2784C126.616 43.4538 126.845 43.7047 127.024 44.0309C127.202 44.354 127.292 44.7741 127.292 45.2912V50H125.944V49.0305H125.888C125.799 49.209 125.665 49.3845 125.487 49.5568C125.308 49.7292 125.079 49.8723 124.799 49.9862C124.519 50.1 124.183 50.157 123.792 50.157ZM124.092 49.049C124.474 49.049 124.8 48.9736 125.071 48.8228C125.345 48.672 125.553 48.475 125.694 48.2319C125.839 47.9857 125.911 47.7225 125.911 47.4425V46.5284C125.862 46.5777 125.767 46.6238 125.625 46.6669C125.487 46.7069 125.328 46.7423 125.15 46.7731C124.971 46.8008 124.797 46.8269 124.628 46.8516C124.459 46.8731 124.317 46.8916 124.203 46.907C123.935 46.9408 123.691 46.9978 123.469 47.0778C123.251 47.1578 123.075 47.2732 122.943 47.424C122.814 47.5717 122.749 47.7687 122.749 48.0149C122.749 48.3565 122.875 48.6151 123.127 48.7905C123.38 48.9628 123.701 49.049 124.092 49.049ZM130.51 40.5455V50H129.13V40.5455H130.51ZM133.748 40.5455V50H132.367V40.5455H133.748ZM136.477 52.6591C136.271 52.6591 136.083 52.6422 135.914 52.6083C135.745 52.5775 135.619 52.5437 135.535 52.5067L135.868 51.3757C136.12 51.4434 136.345 51.4727 136.542 51.4634C136.739 51.4542 136.913 51.3803 137.063 51.2418C137.217 51.1033 137.353 50.8771 137.47 50.5632L137.641 50.0923L135.046 42.9091H136.523L138.319 48.4119H138.393L140.189 42.9091H141.671L138.748 50.9464C138.613 51.3157 138.441 51.6281 138.231 51.8835C138.022 52.142 137.773 52.3359 137.484 52.4652C137.194 52.5945 136.859 52.6591 136.477 52.6591ZM147.946 50L145.859 42.9091H147.286L148.675 48.1165H148.744L150.138 42.9091H151.565L152.95 48.0934H153.019L154.4 42.9091H155.826L153.744 50H152.336L150.896 44.8803H150.789L149.349 50H147.946ZM159.976 50.1431C159.278 50.1431 158.676 49.9938 158.171 49.6953C157.67 49.3937 157.282 48.9705 157.008 48.4258C156.737 47.878 156.602 47.2363 156.602 46.5007C156.602 45.7744 156.737 45.1342 157.008 44.5803C157.282 44.0263 157.663 43.5939 158.153 43.283C158.645 42.9722 159.221 42.8168 159.879 42.8168C160.279 42.8168 160.667 42.8829 161.043 43.0153C161.418 43.1476 161.755 43.3554 162.054 43.6385C162.352 43.9216 162.588 44.2894 162.76 44.7418C162.932 45.1912 163.018 45.7375 163.018 46.3807V46.87H157.382V45.8359H161.666C161.666 45.4728 161.592 45.1512 161.444 44.8711C161.297 44.5879 161.089 44.3648 160.821 44.2017C160.556 44.0386 160.246 43.957 159.888 43.957C159.501 43.957 159.162 44.0524 158.873 44.2433C158.587 44.431 158.365 44.6772 158.208 44.9819C158.054 45.2835 157.977 45.6113 157.977 45.9652V46.7731C157.977 47.247 158.06 47.6502 158.227 47.9826C158.396 48.315 158.631 48.5689 158.933 48.7443C159.234 48.9167 159.587 49.0028 159.99 49.0028C160.252 49.0028 160.49 48.9659 160.706 48.892C160.921 48.8151 161.107 48.7012 161.264 48.5504C161.421 48.3996 161.541 48.2134 161.624 47.9918L162.931 48.2273C162.826 48.612 162.638 48.949 162.368 49.2383C162.1 49.5245 161.763 49.7476 161.357 49.9077C160.953 50.0646 160.493 50.1431 159.976 50.1431ZM165.93 40.5455V50H164.55V40.5455H165.93ZM169.168 40.5455V50H167.787V40.5455H169.168Z" fill="#70829A" style="fill:#70829A;fill:color(display-p3 0.4379 0.5116 0.6033);fill-opacity:1;"/>
</svg>
