<svg width="58" height="57" viewBox="0 0 58 57" fill="none" xmlns="http://www.w3.org/2000/svg">
<rect width="58" height="57" rx="28.5" fill="white" style="fill:white;fill-opacity:1;"/>
<g clip-path="url(#clip0_4991_17664)">
<path d="M16 24.5H42L29 16.5L16 24.5Z" stroke="white" style="stroke:white;stroke-opacity:1;" stroke-width="1.5" stroke-linecap="round" stroke-linejoin="round"/>
<path d="M20 24.5V34.5" stroke="white" style="stroke:white;stroke-opacity:1;" stroke-width="1.5" stroke-linecap="round" stroke-linejoin="round"/>
<path d="M26 24.5V34.5" stroke="white" style="stroke:white;stroke-opacity:1;" stroke-width="1.5" stroke-linecap="round" stroke-linejoin="round"/>
<path d="M32 24.5V34.5" stroke="white" style="stroke:white;stroke-opacity:1;" stroke-width="1.5" stroke-linecap="round" stroke-linejoin="round"/>
<path d="M38 24.5V34.5" stroke="white" style="stroke:white;stroke-opacity:1;" stroke-width="1.5" stroke-linecap="round" stroke-linejoin="round"/>
<path d="M17 34.5H41" stroke="white" style="stroke:white;stroke-opacity:1;" stroke-width="1.5" stroke-linecap="round" stroke-linejoin="round"/>
<path d="M15 38.5H43" stroke="white" style="stroke:white;stroke-opacity:1;" stroke-width="1.5" stroke-linecap="round" stroke-linejoin="round"/>
</g>
<path d="M44.3751 13.9648H22.5314C22.1862 13.9648 21.9064 14.2447 21.9064 14.5898V27.3132C21.9064 27.6583 22.1862 27.9382 22.5314 27.9382H44.3751C44.7202 27.9382 45.0001 27.6583 45.0001 27.3132V14.5898C45.0001 14.2447 44.7202 13.9648 44.3751 13.9648ZM43.7501 15.2148V18.0679C42.3024 17.8082 41.1577 16.6631 40.8982 15.2148H43.7501ZM23.1564 15.2148H26.0082C25.7488 16.6631 24.6041 17.8082 23.1564 18.0679V15.2148ZM23.1564 26.6882V23.8351C24.6041 24.0948 25.7488 25.2399 26.0082 26.6882H23.1564ZM27.273 26.6882C26.9927 24.5494 25.2946 22.8508 23.1564 22.5704V19.3326C25.2946 19.0522 26.9927 17.3535 27.273 15.2148H30.8395C28.6648 16.2102 27.1503 18.4072 27.1503 20.9515C27.1503 23.4958 28.6649 25.6928 30.8395 26.6882H27.273ZM28.4003 20.9515C28.4003 18.1643 30.6671 15.8968 33.4532 15.8968C36.2394 15.8968 38.5062 18.1643 38.5062 20.9515C38.5062 23.7386 36.2395 26.0061 33.4532 26.0061C30.667 26.0062 28.4003 23.7386 28.4003 20.9515ZM43.7501 26.6882H40.8982C41.1576 25.2399 42.3024 24.0948 43.7501 23.8351V26.6882ZM43.7501 22.5704C41.612 22.8508 39.9138 24.5494 39.6336 26.6882H36.0671C38.2417 25.6928 39.7562 23.4958 39.7562 20.9515C39.7562 18.4072 38.2417 16.2101 36.0671 15.2148H39.6336C39.9138 17.3535 41.612 19.0522 43.7501 19.3326V22.5704Z" fill="black" style="fill:black;fill-opacity:1;"/>
<path d="M33.4532 17.375C31.4816 17.375 29.8776 18.9794 29.8776 20.9515C29.8776 22.9236 31.4816 24.528 33.4532 24.528C35.4248 24.528 37.0288 22.9236 37.0288 20.9515C37.0288 18.9794 35.4248 17.375 33.4532 17.375ZM33.4532 23.278C32.1708 23.278 31.1276 22.2344 31.1276 20.9515C31.1276 19.6686 32.1708 18.625 33.4532 18.625C34.7356 18.625 35.7788 19.6686 35.7788 20.9515C35.7788 22.2344 34.7356 23.278 33.4532 23.278Z" fill="black" style="fill:black;fill-opacity:1;"/>
<path d="M24.6006 34.5109C24.5712 34.4822 24.5393 34.4559 24.505 34.4334C24.4712 34.4109 24.435 34.3916 24.3975 34.3759C24.3593 34.3603 24.3206 34.3484 24.2806 34.3403C24.2 34.3241 24.1168 34.3241 24.0362 34.3403C23.9962 34.3484 23.9568 34.3603 23.9193 34.3759C23.8818 34.3916 23.845 34.4109 23.8112 34.4334C23.7775 34.4559 23.745 34.4822 23.7162 34.5109C23.6 34.6272 23.5331 34.7884 23.5331 34.9528C23.5331 34.9941 23.5375 35.0347 23.5456 35.0753C23.5537 35.1153 23.5656 35.1547 23.5812 35.1922C23.5968 35.2297 23.6162 35.2659 23.6387 35.3003C23.6612 35.3341 23.6875 35.3659 23.7162 35.3953C23.745 35.4241 23.7775 35.4497 23.8112 35.4728C23.845 35.4953 23.8818 35.5147 23.9193 35.5303C23.9568 35.5459 23.9962 35.5578 24.0362 35.5659C24.0768 35.5741 24.1175 35.5784 24.1581 35.5784C24.1993 35.5784 24.24 35.5741 24.2806 35.5659C24.3206 35.5578 24.3593 35.5459 24.3975 35.5303C24.435 35.5147 24.4712 35.4953 24.505 35.4728C24.5393 35.4497 24.5712 35.4241 24.6006 35.3953C24.6293 35.3659 24.655 35.3341 24.6781 35.3003C24.7006 35.2659 24.72 35.2297 24.7356 35.1922C24.7512 35.1547 24.7631 35.1153 24.7712 35.0753C24.7793 35.0347 24.7831 34.9941 24.7831 34.9528C24.7831 34.7884 24.7168 34.6272 24.6006 34.5109Z" fill="black" style="fill:black;fill-opacity:1;"/>
<path d="M44.5957 35.0548C44.5933 35.0485 44.5907 35.0423 44.5881 35.0361C43.9679 33.5844 42.5101 33.0491 40.7833 33.6391L35.9154 34.9858C35.6569 34.1372 34.9686 33.4112 33.9859 33.0464C33.9803 33.0443 33.9748 33.0424 33.9692 33.0405L28.6706 31.2416C28.2531 30.6938 26.895 29.2285 24.3148 29.2285C22.5243 29.2285 20.9403 30.4686 20.0421 31.8122H13.625C13.2798 31.8122 13 32.092 13 32.4372V41.1338C13 41.479 13.2798 41.7588 13.625 41.7588H17.7251C18.0703 41.7588 18.3501 41.479 18.3501 41.1338V40.4735H20.3374C20.6826 40.4735 20.9624 40.1936 20.9624 39.8485V39.5801C22.1588 39.6793 22.5428 39.9008 23.5781 40.498C24.3687 40.954 25.5634 41.6431 27.7152 42.6108C27.7242 42.6149 27.7334 42.6188 27.7426 42.6224C28.1517 42.7834 28.9516 43.0364 29.9375 43.0363C30.624 43.0363 31.4009 42.9136 32.1982 42.5516L42.8196 38.7475C42.8367 38.7414 42.8536 38.7345 42.8702 38.7269C43.8643 38.2695 45.3465 36.9812 44.5957 35.0548ZM17.1001 40.5089H14.25V33.0622H17.1001V40.5089ZM19.7124 39.2235H18.3501V33.0622H19.7124V39.2235ZM42.3707 37.5806C42.3707 37.5806 31.7039 41.4032 31.6998 41.4051C30.1978 42.0955 28.7713 41.6816 28.2139 41.4646C26.1286 40.5261 25.0157 39.8842 24.2028 39.4152C23.0691 38.7613 22.5299 38.4503 20.9625 38.3275V32.6938C21.6229 31.6018 22.9169 30.4785 24.3149 30.4785C26.5644 30.4785 27.5889 31.8637 27.7293 32.0708C27.802 32.2019 27.9218 32.3074 28.0749 32.3594L33.5588 34.2211C34.4674 34.562 34.9466 35.3442 34.7244 36.1261C34.6215 36.488 34.3839 36.7882 34.0553 36.9714C33.7292 37.1531 33.3523 37.198 32.9931 37.0981L26.8138 35.1393C26.4844 35.0351 26.1334 35.2171 26.0291 35.5462C25.9248 35.8753 26.1069 36.2265 26.436 36.3308L32.625 38.2927C32.6309 38.2946 32.6369 38.2964 32.6429 38.2981C32.8841 38.3667 33.1297 38.4006 33.3738 38.4006C33.8207 38.4006 34.2627 38.2868 34.6638 38.0632C35.2841 37.7175 35.7326 37.151 35.9268 36.4678C35.9459 36.4006 35.9622 36.3333 35.9759 36.266L41.1876 34.822C41.9615 34.5575 42.9784 34.4643 43.4347 35.518C43.9102 36.7572 42.6824 37.4324 42.3707 37.5806Z" fill="#179A1C" style="fill:#179A1C;fill:color(display-p3 0.0907 0.6048 0.1079);fill-opacity:1;"/>
<defs>
<clipPath id="clip0_4991_17664">
<rect width="32" height="32" fill="white" style="fill:white;fill-opacity:1;" transform="translate(13 12.5)"/>
</clipPath>
</defs>
</svg>
