<svg width="41" height="40" viewBox="0 0 41 40" fill="none" xmlns="http://www.w3.org/2000/svg">
<rect x="0.5" width="40" height="40" rx="20" fill="#ECEFF4" style="fill:#ECEFF4;fill:color(display-p3 0.9236 0.9389 0.9586);fill-opacity:1;"/>
<g clip-path="url(#clip0_6202_16016)">
<path d="M20.5 13.25L23.5 12.5C23.5 12.5 25.9825 16.3766 27.1468 20.7228C27.2504 21.1039 27.2777 21.5016 27.2272 21.8933C27.1767 22.2849 27.0494 22.6627 26.8525 23.005C26.6557 23.3474 26.3932 23.6475 26.0801 23.8881C25.7671 24.1288 25.4095 24.3052 25.0281 24.4074C24.6467 24.5096 24.2488 24.5355 23.8574 24.4835C23.4659 24.4316 23.0886 24.3029 22.747 24.1048C22.4054 23.9067 22.1062 23.6432 21.8667 23.3292C21.6272 23.0153 21.452 22.6571 21.3512 22.2753C20.1868 17.9291 20.5 13.25 20.5 13.25Z" stroke="#6C6F74" style="stroke:#6C6F74;stroke:color(display-p3 0.4216 0.4370 0.4567);stroke-opacity:1;" stroke-width="1.5" stroke-linecap="round" stroke-linejoin="round"/>
<path d="M25.0253 24.3984L26.3715 29.4206" stroke="#6C6F74" style="stroke:#6C6F74;stroke:color(display-p3 0.4216 0.4370 0.4567);stroke-opacity:1;" stroke-width="1.5" stroke-linecap="round" stroke-linejoin="round"/>
<path d="M28.75 28.7812L24.25 29.9869" stroke="#6C6F74" style="stroke:#6C6F74;stroke:color(display-p3 0.4216 0.4370 0.4567);stroke-opacity:1;" stroke-width="1.5" stroke-linecap="round" stroke-linejoin="round"/>
<path d="M20.5001 11L17.5001 10.25C17.5001 10.25 15.0175 14.1266 13.8532 18.4728C13.7496 18.8539 13.7223 19.2516 13.7728 19.6433C13.8233 20.0349 13.9506 20.4127 14.1475 20.755C14.3443 21.0974 14.6068 21.3975 14.9199 21.6381C15.233 21.8788 15.5905 22.0552 15.9719 22.1574C16.3533 22.2596 16.7512 22.2855 17.1427 22.2335C17.5341 22.1816 17.9115 22.0529 18.2531 21.8548C18.5947 21.6567 18.8938 21.3932 19.1333 21.0792C19.3728 20.7653 19.548 20.4071 19.6488 20.0253C20.7147 15.6688 20.5001 11 20.5001 11Z" stroke="#6C6F74" style="stroke:#6C6F74;stroke:color(display-p3 0.4216 0.4370 0.4567);stroke-opacity:1;" stroke-width="1.5" stroke-linecap="round" stroke-linejoin="round"/>
<path d="M15.9747 22.1484L14.6284 27.1706" stroke="#6C6F74" style="stroke:#6C6F74;stroke:color(display-p3 0.4216 0.4370 0.4567);stroke-opacity:1;" stroke-width="1.5" stroke-linecap="round" stroke-linejoin="round"/>
<path d="M12.25 26.5312L16.75 27.7369" stroke="#6C6F74" style="stroke:#6C6F74;stroke:color(display-p3 0.4216 0.4370 0.4567);stroke-opacity:1;" stroke-width="1.5" stroke-linecap="round" stroke-linejoin="round"/>
<path d="M20.5459 17.1762L25.3693 15.9688" stroke="#6C6F74" style="stroke:#6C6F74;stroke:color(display-p3 0.4216 0.4370 0.4567);stroke-opacity:1;" stroke-width="1.5" stroke-linecap="round" stroke-linejoin="round"/>
<path d="M20.3988 15.098L15.5529 13.8867" stroke="#6C6F74" style="stroke:#6C6F74;stroke:color(display-p3 0.4216 0.4370 0.4567);stroke-opacity:1;" stroke-width="1.5" stroke-linecap="round" stroke-linejoin="round"/>
<path d="M26.5 11.75L28 11" stroke="#6C6F74" style="stroke:#6C6F74;stroke:color(display-p3 0.4216 0.4370 0.4567);stroke-opacity:1;" stroke-width="1.5" stroke-linecap="round" stroke-linejoin="round"/>
<path d="M28 14.75H29.5" stroke="#6C6F74" style="stroke:#6C6F74;stroke:color(display-p3 0.4216 0.4370 0.4567);stroke-opacity:1;" stroke-width="1.5" stroke-linecap="round" stroke-linejoin="round"/>
<path d="M13.75 11L12.25 10.25" stroke="#6C6F74" style="stroke:#6C6F74;stroke:color(display-p3 0.4216 0.4370 0.4567);stroke-opacity:1;" stroke-width="1.5" stroke-linecap="round" stroke-linejoin="round"/>
<path d="M12.25 14H10.75" stroke="#6C6F74" style="stroke:#6C6F74;stroke:color(display-p3 0.4216 0.4370 0.4567);stroke-opacity:1;" stroke-width="1.5" stroke-linecap="round" stroke-linejoin="round"/>
</g>
<defs>
<clipPath id="clip0_6202_16016">
<rect width="24" height="24" fill="white" style="fill:white;fill-opacity:1;" transform="translate(8.5 8)"/>
</clipPath>
</defs>
</svg>
