<svg width="229" height="62" viewBox="0 0 229 62" fill="none" xmlns="http://www.w3.org/2000/svg">
<path d="M35.4333 34.9717L34.9043 33.3438L34.3754 34.9717C34.3022 35.1971 34.0922 35.3496 33.8553 35.3496H32.1436L33.5285 36.3557C33.7201 36.495 33.8003 36.7418 33.727 36.9671L33.198 38.5951L34.5828 37.589C34.6786 37.5194 34.7914 37.4846 34.9042 37.4846C35.0169 37.4846 35.1298 37.5194 35.2256 37.589L36.6105 38.5951L36.0816 36.9671C36.0083 36.7418 36.0885 36.4951 36.2801 36.3557L37.6649 35.3496H35.9533C35.7165 35.3496 35.5065 35.1971 35.4333 34.9717Z" fill="#CB69F2" style="fill:#CB69F2;fill:color(display-p3 0.7961 0.4118 0.9490);fill-opacity:1;"/>
<path d="M44.4222 39.6017C45.0145 37.0987 44.4705 33.8176 42.8056 29.8497C42.0725 28.1026 41.7525 26.2339 41.8807 24.4457C42.0238 22.455 42.6578 20.6036 43.8599 18.6875L11.5962 18.6877C12.8426 20.6772 13.4808 22.6089 13.5888 24.6966C13.6778 26.4208 13.3617 28.1551 12.6494 29.8515C10.9833 33.8187 10.439 37.0994 11.0319 39.6025C11.5628 41.8436 12.9861 43.5242 15.3831 44.7404C16.5703 45.3426 17.9113 45.6622 19.261 45.6647C24.0966 45.6745 26.1309 47.2779 27.7262 49.1818C29.3256 47.2779 31.3629 45.6742 36.195 45.6647C37.5451 45.6623 38.8861 45.3426 40.0734 44.74C42.4693 43.5238 43.8918 41.8432 44.4222 39.6017ZM25.9985 35.2436L23.5734 37.0055L24.4997 39.8563C24.573 40.0815 24.4928 40.3283 24.3012 40.4677C24.2053 40.5373 24.0925 40.5721 23.9798 40.5721C23.867 40.5721 23.7541 40.5373 23.6584 40.4677L21.2335 38.706L18.8083 40.4677C18.6167 40.6069 18.3572 40.6069 18.1654 40.4677C17.9738 40.3284 17.8936 40.0816 17.9669 39.8563L18.8932 37.0055L16.4681 35.2436C16.2765 35.1044 16.1963 34.8575 16.2696 34.6322C16.3428 34.4068 16.5528 34.2543 16.7897 34.2543H19.7871L20.7135 31.4035C20.7867 31.1782 20.9967 31.0257 21.2336 31.0257C21.4705 31.0257 21.6805 31.1782 21.7536 31.4035L22.6798 34.2543H25.6774C25.9143 34.2543 26.1243 34.4069 26.1974 34.6322C26.2705 34.8575 26.1902 35.1044 25.9985 35.2436ZM28.0227 29.7065L25.5976 31.4683C25.5018 31.538 25.389 31.5728 25.2763 31.5728C25.1635 31.5728 25.0506 31.538 24.9549 31.4683C24.7632 31.3291 24.683 31.0822 24.7563 30.8569L25.6825 28.0061L23.2575 26.2443C23.0659 26.1051 22.9858 25.8582 23.059 25.6329C23.1322 25.4075 23.3422 25.255 23.5791 25.255H26.5764L27.5028 22.4043C27.576 22.179 27.786 22.0264 28.0229 22.0264C28.2598 22.0264 28.4698 22.179 28.543 22.4043L29.4693 25.255H32.4667C32.7036 25.255 32.9136 25.4076 32.9868 25.6329C33.0601 25.8582 32.9798 26.1051 32.7882 26.2443L30.3632 28.0061L31.2895 30.8569C31.3628 31.0822 31.2826 31.329 31.091 31.4683C30.8991 31.6075 30.6397 31.6075 30.4481 31.4683L28.0227 29.7065ZM39.6704 35.2436L37.2454 37.0055L38.1716 39.8563C38.2449 40.0815 38.1647 40.3283 37.973 40.4677C37.7813 40.6069 37.5218 40.6069 37.3302 40.4677L34.9051 38.706L32.48 40.4677C32.2884 40.6069 32.029 40.6069 31.8371 40.4677C31.6455 40.3284 31.5653 40.0816 31.6386 39.8563L32.5649 37.0055L30.1399 35.2436C29.9482 35.1044 29.8681 34.8575 29.9413 34.6322C30.0145 34.4068 30.2245 34.2543 30.4614 34.2543H33.4588L34.3851 31.4035C34.4583 31.1782 34.6683 31.0257 34.9052 31.0257C35.1421 31.0257 35.3521 31.1782 35.4253 31.4035L36.3517 34.2543H39.349C39.5859 34.2543 39.7959 34.4069 39.8691 34.6322C39.9423 34.8575 39.862 35.1044 39.6704 35.2436Z" fill="#691889" style="fill:#691889;fill:color(display-p3 0.4121 0.0935 0.5375);fill-opacity:1;"/>
<path d="M29.3984 27.3556L30.7831 26.3495H29.0715C28.8346 26.3495 28.6246 26.1969 28.5514 25.9716L28.0225 24.3438L27.4934 25.9717C27.4202 26.197 27.2102 26.3496 26.9733 26.3496H25.2617L26.6465 27.3557C26.8381 27.495 26.9183 27.7418 26.845 27.9671L26.3161 29.5951L27.701 28.589C27.8926 28.4498 28.1522 28.4498 28.3438 28.589L29.7286 29.5951L29.1997 27.9672C29.1265 27.7417 29.2067 27.4948 29.3984 27.3556Z" fill="#CB69F2" style="fill:#CB69F2;fill:color(display-p3 0.7961 0.4118 0.9490);fill-opacity:1;"/>
<path d="M38.7385 13.1024C36.784 14.0248 35.0435 14.4738 33.4285 14.4738C33.4285 14.4738 33.4284 14.4738 33.4282 14.4738C31.3592 14.4738 29.5357 13.7324 27.7256 12.1484C25.9186 13.733 24.0963 14.4741 22.0261 14.4741C20.4103 14.4741 18.6692 14.0251 16.7127 13.1027C15.1544 14.5736 14.3761 15.3061 11.9512 17.5939L43.5033 17.5937C41.5666 15.7686 40.2437 14.5202 38.7385 13.1024Z" fill="#CB69F2" style="fill:#CB69F2;fill:color(display-p3 0.7961 0.4118 0.9490);fill-opacity:1;"/>
<path d="M8.58594 49.8594C7.6813 49.8594 6.94531 50.5952 6.94531 51.5C6.94531 52.4046 7.6813 53.1406 8.58594 53.1406C9.49058 53.1406 10.2266 52.4046 10.2266 51.5C10.2266 50.5954 9.49058 49.8594 8.58594 49.8594Z" fill="#691889" style="fill:#691889;fill:color(display-p3 0.4121 0.0935 0.5375);fill-opacity:1;"/>
<path d="M21.7614 34.9716L21.2325 33.3438L20.7035 34.9716C20.6303 35.197 20.4203 35.3495 20.1834 35.3495H18.4717L19.8566 36.3556C20.0482 36.4948 20.1284 36.7417 20.0551 36.967L19.5262 38.595L20.9111 37.5889C21.1027 37.4497 21.3622 37.4497 21.5539 37.5889L22.9386 38.5948L22.4096 36.967C22.3363 36.7417 22.4165 36.495 22.6082 36.3556L23.993 35.3495H22.2813C22.0445 35.3495 21.8345 35.197 21.7614 34.9716Z" fill="#CB69F2" style="fill:#CB69F2;fill:color(display-p3 0.7961 0.4118 0.9490);fill-opacity:1;"/>
<path d="M49.3281 6.65625C47.9712 6.65625 46.8672 7.76017 46.8672 9.11719C46.8672 10.4742 47.9712 11.5781 49.3281 11.5781C50.685 11.5781 51.7891 10.4742 51.7891 9.11719C51.7891 7.76017 50.685 6.65625 49.3281 6.65625Z" fill="#691889" style="fill:#691889;fill:color(display-p3 0.4121 0.0935 0.5375);fill-opacity:1;"/>
<path d="M46.8394 28.1554C46.3707 27.0387 46.1648 25.8639 46.2442 24.7579C46.3572 23.1847 46.9313 21.685 47.9993 20.1739L49.6412 18.0405C49.8125 17.8178 49.7873 17.5016 49.5828 17.309L39.8053 8.09649C39.6391 7.93975 39.393 7.903 39.1881 8.00417L37.1449 9.01294C35.6862 9.73296 34.4356 10.0979 33.4281 10.0979C32.3427 10.0979 31.4791 9.68341 30.3476 8.61963L28.0976 6.50399C27.8871 6.3058 27.5585 6.30602 27.3481 6.50431L25.1002 8.62214C23.9729 9.68417 23.1109 10.0979 22.0261 10.0979C21.0171 10.0979 19.765 9.73263 18.3046 9.01228L16.259 8.0033C16.0541 7.90235 15.8079 7.9391 15.6418 8.09605L5.8747 17.312C5.67049 17.5047 5.64534 17.8207 5.81662 18.0433L7.45626 20.1739C8.55799 21.7329 9.13473 23.2857 9.21917 24.921C9.2732 25.9679 9.06429 27.0867 8.6152 28.1562C6.55403 33.064 5.95192 37.1375 6.77453 40.6096C7.60851 44.13 9.83888 46.8321 13.4036 48.6408C15.1991 49.5513 17.2215 50.0346 19.252 50.0383C22.8499 50.0454 23.6744 51.0921 24.7183 52.4172L27.2922 55.6845C27.3958 55.816 27.554 55.8928 27.7214 55.8929H27.7218C27.889 55.8929 28.0472 55.8164 28.1509 55.6851L30.7294 52.4214C31.7783 51.0938 32.6068 50.0452 36.2031 50.0383C38.2349 50.0347 40.2579 49.551 42.0532 48.6399C45.6171 46.8309 47.8465 44.1285 48.6795 40.6077C49.5007 37.1369 48.8988 33.0635 46.8394 28.1554ZM28.1543 50.3878C28.0506 50.519 27.8923 50.5956 27.7251 50.5956C27.725 50.5956 27.7249 50.5956 27.7249 50.5956C27.5573 50.5955 27.399 50.5187 27.2955 50.3871C25.7354 48.407 24.0539 46.7669 19.2583 46.7573C17.7384 46.7544 16.2269 46.3939 14.8876 45.7146C12.2237 44.363 10.5682 42.391 9.96707 39.8535C9.31049 37.0816 9.85781 33.6711 11.6403 29.4268C12.2886 27.8833 12.5764 26.3104 12.4959 24.7518C12.3822 22.5502 11.6519 20.6083 10.1281 18.4556C10.1269 18.454 10.1262 18.4521 10.1251 18.4504C10.1167 18.4382 10.1101 18.4247 10.1028 18.4118C10.0692 18.3536 10.0756 18.3629 10.0609 18.3212C10.054 18.3016 10.0471 18.2821 10.0425 18.262C10.0392 18.2473 10.0307 18.1935 10.0294 18.1576C10.0292 18.1514 10.0276 18.1456 10.0276 18.1394C10.0276 18.1315 10.0295 18.1243 10.0299 18.1165C10.0314 18.0784 10.0385 18.035 10.0441 18.0115C10.0516 17.9804 10.0709 17.9282 10.077 17.9146C10.0851 17.8966 10.0953 17.8795 10.1054 17.8624C10.1272 17.8254 10.1221 17.8295 10.1647 17.7807C10.238 17.6968 9.80706 18.1169 16.2356 12.0475C16.4018 11.8907 16.648 11.8538 16.853 11.9547C18.796 12.913 20.4881 13.3789 22.0261 13.3789C23.9695 13.3789 25.6114 12.6483 27.3503 11.0101C27.5608 10.8117 27.8892 10.8117 28.0999 11.0097C29.8425 12.6479 31.4857 13.3785 33.4282 13.3785H33.4284C34.9658 13.3785 36.6567 12.9127 38.5975 11.9545C38.8024 11.8535 39.0484 11.8902 39.2146 12.0467C40.0888 12.8699 45.071 17.5665 45.2615 17.7471C45.2724 17.7577 45.2817 17.7697 45.2917 17.7813C45.3323 17.8279 45.3277 17.8236 45.3503 17.8624C45.38 17.9125 45.3811 17.9192 45.3937 17.9547C45.4084 17.995 45.4134 18.016 45.4192 18.0533C45.4225 18.0742 45.4247 18.095 45.4256 18.1162C45.4259 18.124 45.4279 18.1313 45.4279 18.1392C45.4279 18.1454 45.4262 18.1511 45.426 18.1572C45.4252 18.179 45.4228 18.2004 45.4194 18.222C45.4139 18.2588 45.414 18.2656 45.3944 18.3211C45.3805 18.3605 45.3852 18.3554 45.3522 18.4121C45.345 18.4247 45.3386 18.4379 45.3303 18.4499C45.3291 18.4517 45.3284 18.4536 45.3272 18.4553C43.8491 20.5429 43.1226 22.4141 42.9712 24.5225C42.8553 26.1403 43.1465 27.8356 43.8136 29.425C45.5948 33.67 46.1419 37.0808 45.4861 39.8522C44.8856 42.3901 43.2309 44.3623 40.5678 45.7139C39.2286 46.3936 37.717 46.7543 36.1964 46.757C31.4041 46.7668 29.719 48.4071 28.1543 50.3878Z" fill="#CB69F2" style="fill:#CB69F2;fill:color(display-p3 0.7961 0.4118 0.9490);fill-opacity:1;"/>
<path d="M49.3281 26.3438C49.7812 26.3438 50.1484 25.9765 50.1484 25.5234C50.1484 25.0704 49.7812 24.7031 49.3281 24.7031C48.8751 24.7031 48.5078 25.0704 48.5078 25.5234C48.5078 25.9765 48.8751 26.3438 49.3281 26.3438Z" fill="#691889" style="fill:#691889;fill:color(display-p3 0.4121 0.0935 0.5375);fill-opacity:1;"/>
<path d="M42.7656 7.75C43.2187 7.75 43.5859 7.38273 43.5859 6.92969C43.5859 6.47664 43.2187 6.10938 42.7656 6.10938C42.3126 6.10938 41.9453 6.47664 41.9453 6.92969C41.9453 7.38273 42.3126 7.75 42.7656 7.75Z" fill="#691889" style="fill:#691889;fill:color(display-p3 0.4121 0.0935 0.5375);fill-opacity:1;"/>
<path d="M10.5 7.75C10.953 7.75 11.3203 7.38273 11.3203 6.92969C11.3203 6.47664 10.953 6.10938 10.5 6.10938C10.047 6.10938 9.67969 6.47664 9.67969 6.92969C9.67969 7.38273 10.047 7.75 10.5 7.75Z" fill="#691889" style="fill:#691889;fill:color(display-p3 0.4121 0.0935 0.5375);fill-opacity:1;"/>
<path d="M5.03125 23.6094C5.4843 23.6094 5.85156 23.2421 5.85156 22.7891C5.85156 22.336 5.4843 21.9688 5.03125 21.9688C4.5782 21.9688 4.21094 22.336 4.21094 22.7891C4.21094 23.2421 4.5782 23.6094 5.03125 23.6094Z" fill="#691889" style="fill:#691889;fill:color(display-p3 0.4121 0.0935 0.5375);fill-opacity:1;"/>
<path d="M49.3281 46.0312C49.7812 46.0312 50.1484 45.664 50.1484 45.2109C50.1484 44.7579 49.7812 44.3906 49.3281 44.3906C48.8751 44.3906 48.5078 44.7579 48.5078 45.2109C48.5078 45.664 48.8751 46.0312 49.3281 46.0312Z" fill="#691889" style="fill:#691889;fill:color(display-p3 0.4121 0.0935 0.5375);fill-opacity:1;"/>
<path d="M42.7656 53.6875C43.2187 53.6875 43.5859 53.3202 43.5859 52.8672C43.5859 52.4141 43.2187 52.0469 42.7656 52.0469C42.3126 52.0469 41.9453 52.4141 41.9453 52.8672C41.9453 53.3202 42.3126 53.6875 42.7656 53.6875Z" fill="#691889" style="fill:#691889;fill:color(display-p3 0.4121 0.0935 0.5375);fill-opacity:1;"/>
<path d="M18.7031 53.9609C19.1562 53.9609 19.5234 53.5937 19.5234 53.1406C19.5234 52.6876 19.1562 52.3203 18.7031 52.3203C18.2501 52.3203 17.8828 52.6876 17.8828 53.1406C17.8828 53.5937 18.2501 53.9609 18.7031 53.9609Z" fill="#691889" style="fill:#691889;fill:color(display-p3 0.4121 0.0935 0.5375);fill-opacity:1;"/>
<path d="M5.03125 43.2969C5.4843 43.2969 5.85156 42.9296 5.85156 42.4766C5.85156 42.0235 5.4843 41.6562 5.03125 41.6562C4.5782 41.6562 4.21094 42.0235 4.21094 42.4766C4.21094 42.9296 4.5782 43.2969 5.03125 43.2969Z" fill="#691889" style="fill:#691889;fill:color(display-p3 0.4121 0.0935 0.5375);fill-opacity:1;"/>
<path d="M74.2 29.2C73.2 29.2 72.3133 29 71.54 28.6C70.7667 28.1867 70.1667 27.6067 69.74 26.86C69.3267 26.1133 69.12 25.2533 69.12 24.28V19.72C69.12 18.76 69.3333 17.9133 69.76 17.18C70.1867 16.4333 70.78 15.86 71.54 15.46C72.3133 15.0467 73.2 14.84 74.2 14.84C75.2133 14.84 76.1 15.0467 76.86 15.46C77.6333 15.86 78.2333 16.4333 78.66 17.18C79.0867 17.9133 79.3 18.76 79.3 19.72V24.28C79.3 25.2533 79.0867 26.1133 78.66 26.86C78.2333 27.6067 77.6333 28.1867 76.86 28.6C76.1 29 75.2133 29.2 74.2 29.2ZM74.2 27.2C75.04 27.2 75.7133 26.94 76.22 26.42C76.7267 25.9 76.98 25.2133 76.98 24.36V19.7C76.98 18.8333 76.7267 18.14 76.22 17.62C75.7133 17.1 75.04 16.84 74.2 16.84C73.3733 16.84 72.7067 17.1 72.2 17.62C71.6933 18.14 71.44 18.8333 71.44 19.7V24.36C71.44 25.2133 71.6933 25.9 72.2 26.42C72.7067 26.94 73.3733 27.2 74.2 27.2ZM87.9019 19.02C87.9019 18.9533 87.9219 18.9 87.9619 18.86C88.0152 18.8067 88.0752 18.78 88.1419 18.78H89.9619C90.0285 18.78 90.0819 18.8067 90.1219 18.86C90.1752 18.9 90.2019 18.9533 90.2019 19.02V28.76C90.2019 28.8267 90.1752 28.8867 90.1219 28.94C90.0819 28.98 90.0285 29 89.9619 29H88.1419C88.0752 29 88.0152 28.98 87.9619 28.94C87.9219 28.8867 87.9019 28.8267 87.9019 28.76V28.12C87.9019 28.08 87.8885 28.0533 87.8619 28.04C87.8352 28.0267 87.8085 28.04 87.7819 28.08C87.2352 28.7867 86.4152 29.14 85.3219 29.14C84.3085 29.14 83.4552 28.8467 82.7619 28.26C82.0819 27.6733 81.7419 26.84 81.7419 25.76V19.02C81.7419 18.9533 81.7619 18.9 81.8019 18.86C81.8552 18.8067 81.9152 18.78 81.9819 18.78H83.8219C83.8885 18.78 83.9419 18.8067 83.9819 18.86C84.0352 18.9 84.0619 18.9533 84.0619 19.02V25.1C84.0619 25.7267 84.2219 26.2267 84.5419 26.6C84.8752 26.9733 85.3352 27.16 85.9219 27.16C86.5219 27.16 87.0019 26.9733 87.3619 26.6C87.7219 26.2267 87.9019 25.7267 87.9019 25.1V19.02ZM98.3022 20.42C98.3022 20.4867 98.2755 20.5467 98.2222 20.6C98.1822 20.64 98.1289 20.66 98.0622 20.66H96.0222C95.9555 20.66 95.9222 20.6933 95.9222 20.76V25.58C95.9222 26.0867 96.0289 26.4533 96.2422 26.68C96.4689 26.9067 96.8222 27.02 97.3022 27.02H97.9022C97.9689 27.02 98.0222 27.0467 98.0622 27.1C98.1155 27.14 98.1422 27.1933 98.1422 27.26V28.76C98.1422 28.9067 98.0622 28.9933 97.9022 29.02L96.8622 29.04C95.8089 29.04 95.0222 28.86 94.5022 28.5C93.9822 28.14 93.7155 27.46 93.7022 26.46V20.76C93.7022 20.6933 93.6689 20.66 93.6022 20.66H92.4622C92.3955 20.66 92.3355 20.64 92.2822 20.6C92.2422 20.5467 92.2222 20.4867 92.2222 20.42V19.02C92.2222 18.9533 92.2422 18.9 92.2822 18.86C92.3355 18.8067 92.3955 18.78 92.4622 18.78H93.6022C93.6689 18.78 93.7022 18.7467 93.7022 18.68V16.34C93.7022 16.2733 93.7222 16.22 93.7622 16.18C93.8155 16.1267 93.8755 16.1 93.9422 16.1H95.6822C95.7489 16.1 95.8022 16.1267 95.8422 16.18C95.8955 16.22 95.9222 16.2733 95.9222 16.34V18.68C95.9222 18.7467 95.9555 18.78 96.0222 18.78H98.0622C98.1289 18.78 98.1822 18.8067 98.2222 18.86C98.2755 18.9 98.3022 18.9533 98.3022 19.02V20.42ZM104.363 29.12C103.523 29.12 102.783 29 102.143 28.76C101.516 28.5067 101.029 28.1667 100.683 27.74C100.336 27.3 100.163 26.8133 100.163 26.28V26.1C100.163 26.0333 100.183 25.98 100.223 25.94C100.276 25.8867 100.336 25.86 100.403 25.86H102.163C102.229 25.86 102.283 25.8867 102.323 25.94C102.376 25.98 102.403 26.0333 102.403 26.1V26.14C102.403 26.4733 102.583 26.7667 102.943 27.02C103.316 27.26 103.783 27.38 104.343 27.38C104.876 27.38 105.309 27.2733 105.643 27.06C105.976 26.8333 106.143 26.5533 106.143 26.22C106.143 25.9133 106.003 25.6867 105.723 25.54C105.456 25.38 105.016 25.2133 104.403 25.04L103.643 24.8C102.963 24.6 102.389 24.3867 101.923 24.16C101.456 23.9333 101.063 23.6267 100.743 23.24C100.423 22.84 100.263 22.3333 100.263 21.72C100.263 20.7867 100.629 20.0467 101.363 19.5C102.096 18.94 103.063 18.66 104.263 18.66C105.076 18.66 105.789 18.7933 106.403 19.06C107.016 19.3133 107.489 19.6733 107.823 20.14C108.156 20.5933 108.323 21.1133 108.323 21.7C108.323 21.7667 108.296 21.8267 108.243 21.88C108.203 21.92 108.149 21.94 108.083 21.94H106.383C106.316 21.94 106.256 21.92 106.203 21.88C106.163 21.8267 106.143 21.7667 106.143 21.7C106.143 21.3533 105.969 21.0667 105.623 20.84C105.289 20.6 104.829 20.48 104.243 20.48C103.723 20.48 103.296 20.58 102.963 20.78C102.643 20.9667 102.483 21.2333 102.483 21.58C102.483 21.9 102.636 22.1467 102.943 22.32C103.263 22.48 103.789 22.66 104.523 22.86L104.963 22.98C105.669 23.1933 106.263 23.4133 106.743 23.64C107.223 23.8533 107.629 24.16 107.963 24.56C108.296 24.9467 108.463 25.4533 108.463 26.08C108.463 27.0267 108.089 27.7733 107.343 28.32C106.596 28.8533 105.603 29.12 104.363 29.12ZM116.026 20.42C116.026 20.4867 116 20.5467 115.946 20.6C115.906 20.64 115.853 20.66 115.786 20.66H113.746C113.68 20.66 113.646 20.6933 113.646 20.76V25.58C113.646 26.0867 113.753 26.4533 113.966 26.68C114.193 26.9067 114.546 27.02 115.026 27.02H115.626C115.693 27.02 115.746 27.0467 115.786 27.1C115.84 27.14 115.866 27.1933 115.866 27.26V28.76C115.866 28.9067 115.786 28.9933 115.626 29.02L114.586 29.04C113.533 29.04 112.746 28.86 112.226 28.5C111.706 28.14 111.44 27.46 111.426 26.46V20.76C111.426 20.6933 111.393 20.66 111.326 20.66H110.186C110.12 20.66 110.06 20.64 110.006 20.6C109.966 20.5467 109.946 20.4867 109.946 20.42V19.02C109.946 18.9533 109.966 18.9 110.006 18.86C110.06 18.8067 110.12 18.78 110.186 18.78H111.326C111.393 18.78 111.426 18.7467 111.426 18.68V16.34C111.426 16.2733 111.446 16.22 111.486 16.18C111.54 16.1267 111.6 16.1 111.666 16.1H113.406C113.473 16.1 113.526 16.1267 113.566 16.18C113.62 16.22 113.646 16.2733 113.646 16.34V18.68C113.646 18.7467 113.68 18.78 113.746 18.78H115.786C115.853 18.78 115.906 18.8067 115.946 18.86C116 18.9 116.026 18.9533 116.026 19.02V20.42ZM122.187 18.62C123.027 18.62 123.767 18.7667 124.407 19.06C125.047 19.3533 125.54 19.76 125.887 20.28C126.234 20.7867 126.407 21.3667 126.407 22.02V28.76C126.407 28.8267 126.38 28.8867 126.327 28.94C126.287 28.98 126.234 29 126.167 29H124.327C124.26 29 124.2 28.98 124.147 28.94C124.107 28.8867 124.087 28.8267 124.087 28.76V28.12C124.087 28.08 124.074 28.06 124.047 28.06C124.02 28.0467 123.994 28.0533 123.967 28.08C123.314 28.8 122.367 29.16 121.127 29.16C120.127 29.16 119.3 28.9067 118.647 28.4C118.007 27.8933 117.687 27.14 117.687 26.14C117.687 25.1 118.047 24.2933 118.767 23.72C119.5 23.1333 120.527 22.84 121.847 22.84H123.987C124.054 22.84 124.087 22.8067 124.087 22.74V22.26C124.087 21.74 123.934 21.34 123.627 21.06C123.32 20.7667 122.86 20.62 122.247 20.62C121.74 20.62 121.327 20.7133 121.007 20.9C120.7 21.0733 120.507 21.32 120.427 21.64C120.387 21.8 120.294 21.8667 120.147 21.84L118.207 21.6C118.14 21.5867 118.08 21.5667 118.027 21.54C117.987 21.5 117.974 21.4533 117.987 21.4C118.094 20.5867 118.527 19.92 119.287 19.4C120.06 18.88 121.027 18.62 122.187 18.62ZM121.707 27.32C122.36 27.32 122.92 27.1467 123.387 26.8C123.854 26.4533 124.087 26.0133 124.087 25.48V24.54C124.087 24.4733 124.054 24.44 123.987 24.44H122.307C121.6 24.44 121.04 24.5733 120.627 24.84C120.227 25.1067 120.027 25.4867 120.027 25.98C120.027 26.4067 120.18 26.74 120.487 26.98C120.807 27.2067 121.214 27.32 121.707 27.32ZM133.836 18.62C134.916 18.62 135.776 18.94 136.416 19.58C137.069 20.22 137.396 21.0933 137.396 22.2V28.76C137.396 28.8267 137.369 28.8867 137.316 28.94C137.276 28.98 137.223 29 137.156 29H135.316C135.249 29 135.189 28.98 135.136 28.94C135.096 28.8867 135.076 28.8267 135.076 28.76V22.68C135.076 22.0667 134.903 21.5733 134.556 21.2C134.209 20.8133 133.749 20.62 133.176 20.62C132.603 20.62 132.136 20.8067 131.776 21.18C131.429 21.5533 131.256 22.0467 131.256 22.66V28.76C131.256 28.8267 131.229 28.8867 131.176 28.94C131.136 28.98 131.083 29 131.016 29H129.176C129.109 29 129.049 28.98 128.996 28.94C128.956 28.8867 128.936 28.8267 128.936 28.76V19.02C128.936 18.9533 128.956 18.9 128.996 18.86C129.049 18.8067 129.109 18.78 129.176 18.78H131.016C131.083 18.78 131.136 18.8067 131.176 18.86C131.229 18.9 131.256 18.9533 131.256 19.02V19.66C131.256 19.7 131.269 19.7267 131.296 19.74C131.323 19.7533 131.343 19.74 131.356 19.7C131.903 18.98 132.729 18.62 133.836 18.62ZM146.277 15.24C146.277 15.1733 146.297 15.12 146.337 15.08C146.39 15.0267 146.45 15 146.517 15H148.357C148.424 15 148.477 15.0267 148.517 15.08C148.57 15.12 148.597 15.1733 148.597 15.24V28.76C148.597 28.8267 148.57 28.8867 148.517 28.94C148.477 28.98 148.424 29 148.357 29H146.517C146.45 29 146.39 28.98 146.337 28.94C146.297 28.8867 146.277 28.8267 146.277 28.76V28.16C146.277 28.12 146.264 28.0933 146.237 28.08C146.21 28.0667 146.184 28.08 146.157 28.12C145.57 28.8133 144.804 29.16 143.857 29.16C142.91 29.16 142.11 28.9133 141.457 28.42C140.804 27.9267 140.33 27.24 140.037 26.36C139.797 25.6133 139.677 24.78 139.677 23.86C139.677 22.9133 139.79 22.1 140.017 21.42C140.31 20.54 140.784 19.8533 141.437 19.36C142.09 18.8667 142.91 18.62 143.897 18.62C144.817 18.62 145.57 18.9533 146.157 19.62C146.184 19.6467 146.21 19.66 146.237 19.66C146.264 19.6467 146.277 19.62 146.277 19.58V15.24ZM145.797 26.2C146.104 25.6533 146.257 24.88 146.257 23.88C146.257 22.84 146.09 22.0467 145.757 21.5C145.397 20.9133 144.89 20.62 144.237 20.62C143.557 20.62 143.024 20.9 142.637 21.46C142.237 22.0467 142.037 22.86 142.037 23.9C142.037 24.8333 142.197 25.6 142.517 26.2C142.89 26.84 143.457 27.16 144.217 27.16C144.897 27.16 145.424 26.84 145.797 26.2ZM152.629 17.38C152.215 17.38 151.875 17.2467 151.609 16.98C151.342 16.7133 151.209 16.3733 151.209 15.96C151.209 15.5467 151.342 15.2067 151.609 14.94C151.875 14.6733 152.215 14.54 152.629 14.54C153.042 14.54 153.382 14.6733 153.649 14.94C153.915 15.2067 154.049 15.5467 154.049 15.96C154.049 16.3733 153.915 16.7133 153.649 16.98C153.382 17.2467 153.042 17.38 152.629 17.38ZM151.669 29C151.602 29 151.542 28.98 151.489 28.94C151.449 28.8867 151.429 28.8267 151.429 28.76V19C151.429 18.9333 151.449 18.88 151.489 18.84C151.542 18.7867 151.602 18.76 151.669 18.76H153.509C153.575 18.76 153.629 18.7867 153.669 18.84C153.722 18.88 153.749 18.9333 153.749 19V28.76C153.749 28.8267 153.722 28.8867 153.669 28.94C153.629 28.98 153.575 29 153.509 29H151.669ZM161.506 18.62C162.586 18.62 163.446 18.94 164.086 19.58C164.74 20.22 165.066 21.0933 165.066 22.2V28.76C165.066 28.8267 165.04 28.8867 164.986 28.94C164.946 28.98 164.893 29 164.826 29H162.986C162.92 29 162.86 28.98 162.806 28.94C162.766 28.8867 162.746 28.8267 162.746 28.76V22.68C162.746 22.0667 162.573 21.5733 162.226 21.2C161.88 20.8133 161.42 20.62 160.846 20.62C160.273 20.62 159.806 20.8067 159.446 21.18C159.1 21.5533 158.926 22.0467 158.926 22.66V28.76C158.926 28.8267 158.9 28.8867 158.846 28.94C158.806 28.98 158.753 29 158.686 29H156.846C156.78 29 156.72 28.98 156.666 28.94C156.626 28.8867 156.606 28.8267 156.606 28.76V19.02C156.606 18.9533 156.626 18.9 156.666 18.86C156.72 18.8067 156.78 18.78 156.846 18.78H158.686C158.753 18.78 158.806 18.8067 158.846 18.86C158.9 18.9 158.926 18.9533 158.926 19.02V19.66C158.926 19.7 158.94 19.7267 158.966 19.74C158.993 19.7533 159.013 19.74 159.026 19.7C159.573 18.98 160.4 18.62 161.506 18.62ZM173.945 19.02C173.945 18.9533 173.965 18.9 174.005 18.86C174.059 18.8067 174.119 18.78 174.185 18.78H176.025C176.092 18.78 176.145 18.8067 176.185 18.86C176.239 18.9 176.265 18.9533 176.265 19.02V28.32C176.265 29.9867 175.785 31.1733 174.825 31.88C173.879 32.6 172.632 32.96 171.085 32.96C170.672 32.96 170.265 32.94 169.865 32.9C169.719 32.8867 169.645 32.8 169.645 32.64L169.705 31C169.705 30.8533 169.799 30.78 169.985 30.78C170.372 30.82 170.719 30.84 171.025 30.84C172.025 30.84 172.759 30.64 173.225 30.24C173.705 29.8533 173.945 29.1933 173.945 28.26V28.1C173.945 28.06 173.932 28.04 173.905 28.04C173.879 28.0267 173.852 28.0333 173.825 28.06C173.279 28.6467 172.505 28.94 171.505 28.94C170.639 28.94 169.845 28.72 169.125 28.28C168.405 27.84 167.905 27.1667 167.625 26.26C167.452 25.6333 167.365 24.8267 167.365 23.84C167.365 22.7333 167.472 21.8867 167.685 21.3C167.952 20.4867 168.412 19.84 169.065 19.36C169.719 18.8667 170.485 18.62 171.365 18.62C172.419 18.62 173.239 18.9267 173.825 19.54C173.852 19.58 173.879 19.5933 173.905 19.58C173.932 19.5667 173.945 19.54 173.945 19.5V19.02ZM173.805 25.6C173.859 25.4 173.892 25.1867 173.905 24.96C173.932 24.72 173.945 24.34 173.945 23.82C173.945 23.3133 173.932 22.9533 173.905 22.74C173.892 22.5133 173.852 22.2933 173.785 22.08C173.679 21.64 173.459 21.2867 173.125 21.02C172.805 20.7533 172.392 20.62 171.885 20.62C171.405 20.62 170.999 20.7533 170.665 21.02C170.332 21.2867 170.092 21.64 169.945 22.08C169.785 22.4533 169.705 23.04 169.705 23.84C169.705 24.6667 169.772 25.2467 169.905 25.58C170.039 26.0067 170.279 26.36 170.625 26.64C170.985 26.9067 171.412 27.04 171.905 27.04C172.425 27.04 172.845 26.9067 173.165 26.64C173.485 26.3733 173.699 26.0267 173.805 25.6Z" fill="#691889" style="fill:#691889;fill:color(display-p3 0.4121 0.0935 0.5375);fill-opacity:1;"/>
<path d="M69.8374 50H68.3232L71.7255 40.5455H73.3736L76.7759 50H75.2617L72.5888 42.2628H72.5149L69.8374 50ZM70.0913 46.2976H75.0032V47.4979H70.0913V46.2976ZM78.1412 50V40.5455H79.5216V44.0586H79.6047C79.6847 43.9109 79.8001 43.7401 79.9509 43.5462C80.1017 43.3523 80.311 43.183 80.5787 43.0384C80.8465 42.8906 81.2004 42.8168 81.6405 42.8168C82.213 42.8168 82.7239 42.9614 83.1732 43.2507C83.6225 43.54 83.9749 43.957 84.2304 44.5018C84.4889 45.0465 84.6182 45.7021 84.6182 46.4684C84.6182 47.2347 84.4904 47.8918 84.235 48.4396C83.9796 48.9844 83.6287 49.4045 83.1824 49.6999C82.7362 49.9923 82.2268 50.1385 81.6544 50.1385C81.2235 50.1385 80.8711 50.0662 80.5972 49.9215C80.3264 49.7769 80.114 49.6076 79.9601 49.4137C79.8063 49.2198 79.6878 49.0475 79.6047 48.8967H79.4893V50H78.1412ZM79.4939 46.4545C79.4939 46.9531 79.5662 47.3902 79.7108 47.7656C79.8555 48.1411 80.0648 48.435 80.3387 48.6474C80.6126 48.8567 80.9481 48.9613 81.3451 48.9613C81.7575 48.9613 82.1022 48.852 82.3792 48.6335C82.6562 48.4119 82.8654 48.1119 83.007 47.7333C83.1517 47.3548 83.224 46.9285 83.224 46.4545C83.224 45.9867 83.1532 45.5666 83.0116 45.1942C82.8731 44.8219 82.6639 44.5279 82.3838 44.3125C82.1068 44.0971 81.7606 43.9893 81.3451 43.9893C80.945 43.9893 80.6064 44.0924 80.3295 44.2987C80.0555 44.5049 79.8478 44.7926 79.7062 45.1619C79.5647 45.5312 79.4939 45.9621 79.4939 46.4545ZM89.155 50.1431C88.4902 50.1431 87.9101 49.9908 87.4146 49.6861C86.9191 49.3814 86.5344 48.9551 86.2605 48.4073C85.9866 47.8595 85.8496 47.2193 85.8496 46.4869C85.8496 45.7513 85.9866 45.1081 86.2605 44.5572C86.5344 44.0063 86.9191 43.5785 87.4146 43.2738C87.9101 42.9691 88.4902 42.8168 89.155 42.8168C89.8198 42.8168 90.3999 42.9691 90.8954 43.2738C91.3909 43.5785 91.7756 44.0063 92.0495 44.5572C92.3234 45.1081 92.4604 45.7513 92.4604 46.4869C92.4604 47.2193 92.3234 47.8595 92.0495 48.4073C91.7756 48.9551 91.3909 49.3814 90.8954 49.6861C90.3999 49.9908 89.8198 50.1431 89.155 50.1431ZM89.1596 48.9844C89.5905 48.9844 89.9475 48.8705 90.2306 48.6428C90.5138 48.415 90.7231 48.1119 90.8585 47.7333C90.997 47.3548 91.0662 46.9377 91.0662 46.4822C91.0662 46.0298 90.997 45.6143 90.8585 45.2358C90.7231 44.8542 90.5138 44.5479 90.2306 44.3171C89.9475 44.0863 89.5905 43.9709 89.1596 43.9709C88.7257 43.9709 88.3656 44.0863 88.0794 44.3171C87.7962 44.5479 87.5854 44.8542 87.4469 45.2358C87.3115 45.6143 87.2438 46.0298 87.2438 46.4822C87.2438 46.9377 87.3115 47.3548 87.4469 47.7333C87.5854 48.1119 87.7962 48.415 88.0794 48.6428C88.3656 48.8705 88.7257 48.9844 89.1596 48.9844ZM99.826 42.9091L97.2546 50H95.7773L93.2013 42.9091H94.6832L96.479 48.3658H96.5529L98.3441 42.9091H99.826ZM103.938 50.1431C103.239 50.1431 102.638 49.9938 102.133 49.6953C101.631 49.3937 101.244 48.9705 100.97 48.4258C100.699 47.878 100.563 47.2363 100.563 46.5007C100.563 45.7744 100.699 45.1342 100.97 44.5803C101.244 44.0263 101.625 43.5939 102.115 43.283C102.607 42.9722 103.183 42.8168 103.841 42.8168C104.241 42.8168 104.629 42.8829 105.005 43.0153C105.38 43.1476 105.717 43.3554 106.016 43.6385C106.314 43.9216 106.55 44.2894 106.722 44.7418C106.894 45.1912 106.98 45.7375 106.98 46.3807V46.87H101.344V45.8359H105.628C105.628 45.4728 105.554 45.1512 105.406 44.8711C105.258 44.5879 105.051 44.3648 104.783 44.2017C104.518 44.0386 104.207 43.957 103.85 43.957C103.463 43.957 103.124 44.0524 102.835 44.2433C102.549 44.431 102.327 44.6772 102.17 44.9819C102.016 45.2835 101.939 45.6113 101.939 45.9652V46.7731C101.939 47.247 102.022 47.6502 102.188 47.9826C102.358 48.315 102.593 48.5689 102.895 48.7443C103.196 48.9167 103.549 49.0028 103.952 49.0028C104.214 49.0028 104.452 48.9659 104.668 48.892C104.883 48.8151 105.069 48.7012 105.226 48.5504C105.383 48.3996 105.503 48.2134 105.586 47.9918L106.893 48.2273C106.788 48.612 106.6 48.949 106.329 49.2383C106.062 49.5245 105.725 49.7476 105.318 49.9077C104.915 50.0646 104.455 50.1431 103.938 50.1431ZM114.016 50.157C113.567 50.157 113.16 50.0739 112.797 49.9077C112.434 49.7384 112.146 49.4937 111.934 49.1737C111.725 48.8536 111.62 48.4612 111.62 47.9964C111.62 47.5964 111.697 47.267 111.851 47.0085C112.005 46.75 112.212 46.5453 112.474 46.3945C112.736 46.2437 113.028 46.1299 113.351 46.0529C113.674 45.976 114.004 45.9175 114.339 45.8775C114.764 45.8282 115.108 45.7882 115.373 45.7575C115.638 45.7236 115.83 45.6697 115.95 45.5959C116.07 45.522 116.13 45.402 116.13 45.2358V45.2035C116.13 44.8003 116.016 44.4879 115.789 44.2663C115.564 44.0447 115.228 43.9339 114.782 43.9339C114.318 43.9339 113.951 44.037 113.684 44.2433C113.419 44.4464 113.236 44.6726 113.134 44.9219L111.837 44.6264C111.991 44.1955 112.215 43.8478 112.511 43.5831C112.809 43.3153 113.153 43.1214 113.54 43.0014C113.928 42.8783 114.336 42.8168 114.764 42.8168C115.047 42.8168 115.347 42.8506 115.664 42.9183C115.984 42.983 116.283 43.103 116.56 43.2784C116.84 43.4538 117.069 43.7047 117.247 44.0309C117.426 44.354 117.515 44.7741 117.515 45.2912V50H116.167V49.0305H116.112C116.023 49.209 115.889 49.3845 115.71 49.5568C115.532 49.7292 115.302 49.8723 115.022 49.9862C114.742 50.1 114.407 50.157 114.016 50.157ZM114.316 49.049C114.698 49.049 115.024 48.9736 115.295 48.8228C115.569 48.672 115.776 48.475 115.918 48.2319C116.063 47.9857 116.135 47.7225 116.135 47.4425V46.5284C116.086 46.5777 115.99 46.6238 115.849 46.6669C115.71 46.7069 115.552 46.7423 115.373 46.7731C115.195 46.8008 115.021 46.8269 114.851 46.8516C114.682 46.8731 114.541 46.8916 114.427 46.907C114.159 46.9408 113.914 46.9978 113.693 47.0778C113.474 47.1578 113.299 47.2732 113.166 47.424C113.037 47.5717 112.973 47.7687 112.973 48.0149C112.973 48.3565 113.099 48.6151 113.351 48.7905C113.603 48.9628 113.925 49.049 114.316 49.049ZM120.734 45.7898V50H119.354V42.9091H120.679V44.0632H120.766C120.929 43.6877 121.185 43.3861 121.533 43.1584C121.884 42.9306 122.325 42.8168 122.858 42.8168C123.341 42.8168 123.764 42.9183 124.127 43.1214C124.49 43.3215 124.772 43.62 124.972 44.017C125.172 44.4141 125.272 44.9049 125.272 45.4897V50H123.892V45.6559C123.892 45.1419 123.758 44.7403 123.49 44.451C123.222 44.1586 122.855 44.0124 122.387 44.0124C122.067 44.0124 121.782 44.0817 121.533 44.2202C121.286 44.3587 121.091 44.5618 120.946 44.8295C120.805 45.0942 120.734 45.4143 120.734 45.7898ZM129.778 50.1385C129.205 50.1385 128.694 49.9923 128.245 49.6999C127.799 49.4045 127.448 48.9844 127.192 48.4396C126.94 47.8918 126.814 47.2347 126.814 46.4684C126.814 45.7021 126.942 45.0465 127.197 44.5018C127.456 43.957 127.81 43.54 128.259 43.2507C128.708 42.9614 129.218 42.8168 129.787 42.8168C130.227 42.8168 130.581 42.8906 130.849 43.0384C131.12 43.183 131.329 43.3523 131.477 43.5462C131.627 43.7401 131.744 43.9109 131.827 44.0586H131.911V40.5455H133.291V50H131.943V48.8967H131.827C131.744 49.0475 131.624 49.2198 131.467 49.4137C131.313 49.6076 131.101 49.7769 130.83 49.9215C130.559 50.0662 130.209 50.1385 129.778 50.1385ZM130.082 48.9613C130.479 48.9613 130.815 48.8567 131.089 48.6474C131.366 48.435 131.575 48.1411 131.717 47.7656C131.861 47.3902 131.934 46.9531 131.934 46.4545C131.934 45.9621 131.863 45.5312 131.721 45.1619C131.58 44.7926 131.372 44.5049 131.098 44.2987C130.824 44.0924 130.486 43.9893 130.082 43.9893C129.667 43.9893 129.321 44.0971 129.044 44.3125C128.767 44.5279 128.557 44.8219 128.416 45.1942C128.277 45.5666 128.208 45.9867 128.208 46.4545C128.208 46.9285 128.279 47.3548 128.42 47.7333C128.562 48.1119 128.771 48.4119 129.048 48.6335C129.328 48.852 129.673 48.9613 130.082 48.9613ZM138.812 50V40.5455H140.192V44.0586H140.276C140.356 43.9109 140.471 43.7401 140.622 43.5462C140.773 43.3523 140.982 43.183 141.25 43.0384C141.517 42.8906 141.871 42.8168 142.311 42.8168C142.884 42.8168 143.395 42.9614 143.844 43.2507C144.293 43.54 144.646 43.957 144.901 44.5018C145.16 45.0465 145.289 45.7021 145.289 46.4684C145.289 47.2347 145.161 47.8918 144.906 48.4396C144.65 48.9844 144.3 49.4045 143.853 49.6999C143.407 49.9923 142.898 50.1385 142.325 50.1385C141.894 50.1385 141.542 50.0662 141.268 49.9215C140.997 49.7769 140.785 49.6076 140.631 49.4137C140.477 49.2198 140.359 49.0475 140.276 48.8967H140.16V50H138.812ZM140.165 46.4545C140.165 46.9531 140.237 47.3902 140.382 47.7656C140.526 48.1411 140.736 48.435 141.01 48.6474C141.283 48.8567 141.619 48.9613 142.016 48.9613C142.428 48.9613 142.773 48.852 143.05 48.6335C143.327 48.4119 143.536 48.1119 143.678 47.7333C143.823 47.3548 143.895 46.9285 143.895 46.4545C143.895 45.9867 143.824 45.5666 143.683 45.1942C143.544 44.8219 143.335 44.5279 143.055 44.3125C142.778 44.0971 142.431 43.9893 142.016 43.9893C141.616 43.9893 141.277 44.0924 141 44.2987C140.726 44.5049 140.519 44.7926 140.377 45.1619C140.236 45.5312 140.165 45.9621 140.165 46.4545ZM149.895 50.1431C149.197 50.1431 148.595 49.9938 148.09 49.6953C147.588 49.3937 147.201 48.9705 146.927 48.4258C146.656 47.878 146.521 47.2363 146.521 46.5007C146.521 45.7744 146.656 45.1342 146.927 44.5803C147.201 44.0263 147.582 43.5939 148.072 43.283C148.564 42.9722 149.14 42.8168 149.798 42.8168C150.198 42.8168 150.586 42.8829 150.962 43.0153C151.337 43.1476 151.674 43.3554 151.973 43.6385C152.271 43.9216 152.507 44.2894 152.679 44.7418C152.851 45.1912 152.937 45.7375 152.937 46.3807V46.87H147.301V45.8359H151.585C151.585 45.4728 151.511 45.1512 151.363 44.8711C151.215 44.5879 151.008 44.3648 150.74 44.2017C150.475 44.0386 150.164 43.957 149.807 43.957C149.42 43.957 149.081 44.0524 148.792 44.2433C148.506 44.431 148.284 44.6772 148.127 44.9819C147.973 45.2835 147.896 45.6113 147.896 45.9652V46.7731C147.896 47.247 147.979 47.6502 148.146 47.9826C148.315 48.315 148.55 48.5689 148.852 48.7443C149.153 48.9167 149.506 49.0028 149.909 49.0028C150.171 49.0028 150.409 48.9659 150.625 48.892C150.84 48.8151 151.026 48.7012 151.183 48.5504C151.34 48.3996 151.46 48.2134 151.543 47.9918L152.85 48.2273C152.745 48.612 152.557 48.949 152.286 49.2383C152.019 49.5245 151.682 49.7476 151.275 49.9077C150.872 50.0646 150.412 50.1431 149.895 50.1431ZM155.138 52.6591C154.932 52.6591 154.744 52.6422 154.575 52.6083C154.406 52.5775 154.28 52.5437 154.197 52.5067L154.529 51.3757C154.781 51.4434 155.006 51.4727 155.203 51.4634C155.4 51.4542 155.574 51.3803 155.725 51.2418C155.878 51.1033 156.014 50.8771 156.131 50.5632L156.302 50.0923L153.707 42.9091H155.184L156.98 48.4119H157.054L158.85 42.9091H160.332L157.41 50.9464C157.274 51.3157 157.102 51.6281 156.893 51.8835C156.683 52.142 156.434 52.3359 156.145 52.4652C155.855 52.5945 155.52 52.6591 155.138 52.6591ZM164.375 50.1431C163.71 50.1431 163.13 49.9908 162.634 49.6861C162.139 49.3814 161.754 48.9551 161.48 48.4073C161.206 47.8595 161.069 47.2193 161.069 46.4869C161.069 45.7513 161.206 45.1081 161.48 44.5572C161.754 44.0063 162.139 43.5785 162.634 43.2738C163.13 42.9691 163.71 42.8168 164.375 42.8168C165.04 42.8168 165.62 42.9691 166.115 43.2738C166.611 43.5785 166.995 44.0063 167.269 44.5572C167.543 45.1081 167.68 45.7513 167.68 46.4869C167.68 47.2193 167.543 47.8595 167.269 48.4073C166.995 48.9551 166.611 49.3814 166.115 49.6861C165.62 49.9908 165.04 50.1431 164.375 50.1431ZM164.379 48.9844C164.81 48.9844 165.167 48.8705 165.45 48.6428C165.734 48.415 165.943 48.1119 166.078 47.7333C166.217 47.3548 166.286 46.9377 166.286 46.4822C166.286 46.0298 166.217 45.6143 166.078 45.2358C165.943 44.8542 165.734 44.5479 165.45 44.3171C165.167 44.0863 164.81 43.9709 164.379 43.9709C163.945 43.9709 163.585 44.0863 163.299 44.3171C163.016 44.5479 162.805 44.8542 162.667 45.2358C162.531 45.6143 162.464 46.0298 162.464 46.4822C162.464 46.9377 162.531 47.3548 162.667 47.7333C162.805 48.1119 163.016 48.415 163.299 48.6428C163.585 48.8705 163.945 48.9844 164.379 48.9844ZM170.601 45.7898V50H169.221V42.9091H170.546V44.0632H170.634C170.797 43.6877 171.052 43.3861 171.4 43.1584C171.751 42.9306 172.192 42.8168 172.725 42.8168C173.208 42.8168 173.631 42.9183 173.994 43.1214C174.357 43.3215 174.639 43.62 174.839 44.017C175.039 44.4141 175.139 44.9049 175.139 45.4897V50H173.759V45.6559C173.759 45.1419 173.625 44.7403 173.357 44.451C173.089 44.1586 172.722 44.0124 172.254 44.0124C171.934 44.0124 171.649 44.0817 171.4 44.2202C171.154 44.3587 170.958 44.5618 170.814 44.8295C170.672 45.0942 170.601 45.4143 170.601 45.7898ZM179.645 50.1385C179.072 50.1385 178.562 49.9923 178.112 49.6999C177.666 49.4045 177.315 48.9844 177.06 48.4396C176.807 47.8918 176.681 47.2347 176.681 46.4684C176.681 45.7021 176.809 45.0465 177.064 44.5018C177.323 43.957 177.677 43.54 178.126 43.2507C178.575 42.9614 179.085 42.8168 179.654 42.8168C180.094 42.8168 180.448 42.8906 180.716 43.0384C180.987 43.183 181.196 43.3523 181.344 43.5462C181.495 43.7401 181.612 43.9109 181.695 44.0586H181.778V40.5455H183.158V50H181.81V48.8967H181.695C181.612 49.0475 181.491 49.2198 181.335 49.4137C181.181 49.6076 180.968 49.7769 180.697 49.9215C180.427 50.0662 180.076 50.1385 179.645 50.1385ZM179.95 48.9613C180.347 48.9613 180.682 48.8567 180.956 48.6474C181.233 48.435 181.442 48.1411 181.584 47.7656C181.728 47.3902 181.801 46.9531 181.801 46.4545C181.801 45.9621 181.73 45.5312 181.588 45.1619C181.447 44.7926 181.239 44.5049 180.965 44.2987C180.691 44.0924 180.353 43.9893 179.95 43.9893C179.534 43.9893 179.188 44.0971 178.911 44.3125C178.634 44.5279 178.425 44.8219 178.283 45.1942C178.145 45.5666 178.075 45.9867 178.075 46.4545C178.075 46.9285 178.146 47.3548 178.288 47.7333C178.429 48.1119 178.638 48.4119 178.915 48.6335C179.196 48.852 179.54 48.9613 179.95 48.9613ZM186.869 40.5455L186.748 47.2809H185.47L185.35 40.5455H186.869ZM186.111 50.0877C185.856 50.0877 185.637 49.9985 185.456 49.82C185.274 49.6384 185.185 49.4199 185.188 49.1644C185.185 48.9121 185.274 48.6966 185.456 48.5181C185.637 48.3365 185.856 48.2457 186.111 48.2457C186.361 48.2457 186.576 48.3365 186.758 48.5181C186.939 48.6966 187.032 48.9121 187.035 49.1644C187.032 49.3337 186.987 49.4891 186.901 49.6307C186.818 49.7692 186.707 49.88 186.568 49.9631C186.43 50.0462 186.278 50.0877 186.111 50.0877Z" fill="#70829A" style="fill:#70829A;fill:color(display-p3 0.4379 0.5116 0.6033);fill-opacity:1;"/>
</svg>
