<svg width="20" height="21" viewBox="0 0 20 21" fill="none" xmlns="http://www.w3.org/2000/svg">
<g clip-path="url(#clip0_3797_11630)">
<path d="M6.5625 13C8.80616 13 10.625 11.1812 10.625 8.9375C10.625 6.69384 8.80616 4.875 6.5625 4.875C4.31884 4.875 2.5 6.69384 2.5 8.9375C2.5 11.1812 4.31884 13 6.5625 13Z" stroke="#94A4BB" style="stroke:#94A4BB;stroke:color(display-p3 0.5804 0.6431 0.7333);stroke-opacity:1;" stroke-linecap="round" stroke-linejoin="round"/>
<path d="M0.799194 16.1266C1.42348 15.1668 2.27763 14.378 3.28409 13.832C4.29055 13.286 5.41745 13 6.56248 13C7.70751 13 8.8344 13.286 9.84086 13.832C10.8473 14.378 11.7015 15.1668 12.3258 16.1266" stroke="#94A4BB" style="stroke:#94A4BB;stroke:color(display-p3 0.5804 0.6431 0.7333);stroke-opacity:1;" stroke-linecap="round" stroke-linejoin="round"/>
<path d="M13.4375 13C14.5825 12.9993 15.7095 13.2849 16.716 13.8306C17.7225 14.3764 18.5767 15.1651 19.2008 16.125" stroke="#94A4BB" style="stroke:#94A4BB;stroke:color(display-p3 0.5804 0.6431 0.7333);stroke-opacity:1;" stroke-linecap="round" stroke-linejoin="round"/>
<path d="M11.929 5.16406C12.4847 4.94242 13.0825 4.84625 13.6797 4.88244C14.2769 4.91862 14.8587 5.08626 15.3836 5.37338C15.9085 5.66051 16.3635 6.06002 16.716 6.54337C17.0686 7.02672 17.3101 7.58198 17.4232 8.16948C17.5363 8.75698 17.5183 9.36221 17.3703 9.94192C17.2224 10.5216 16.9483 11.0615 16.5675 11.523C16.1868 11.9845 15.7088 12.3562 15.1677 12.6115C14.6266 12.8668 14.0358 12.9995 13.4375 13" stroke="#94A4BB" style="stroke:#94A4BB;stroke:color(display-p3 0.5804 0.6431 0.7333);stroke-opacity:1;" stroke-linecap="round" stroke-linejoin="round"/>
</g>
<defs>
<clipPath id="clip0_3797_11630">
<rect width="20" height="20" fill="white" style="fill:white;fill-opacity:1;" transform="translate(0 0.5)"/>
</clipPath>
</defs>
</svg>
