<svg width="230" height="56" viewBox="0 0 230 56" fill="none" xmlns="http://www.w3.org/2000/svg">
<path d="M7.50536 35.4255C7.36055 34.6122 7.26277 33.7893 7.21267 32.963C7.16794 32.8514 7.16094 32.7278 7.1943 32.6105C7.18052 32.296 7.17188 31.9811 7.17188 31.6662C7.17188 30.016 7.36219 28.3752 7.73712 26.7773C5.57325 27.0392 3.89062 28.886 3.89062 31.1193C3.89062 33.2574 5.45895 35.0617 7.50536 35.4255Z" fill="#F5811F" style="fill:#F5811F;fill:color(display-p3 0.9608 0.5059 0.1216);fill-opacity:1;"/>
<path d="M9.40137 38.3552C10.0042 40.0708 10.8319 41.6745 11.8457 43.1355L36.5225 13.0941C36.1749 12.9435 35.8222 12.8033 35.4655 12.672C35.511 12.622 35.5491 12.5639 35.5743 12.4968L38.8555 3.74679C38.9616 3.46406 38.8182 3.14884 38.5355 3.04275C38.2521 2.93676 37.9374 3.08004 37.8313 3.36278L34.5501 12.1128C34.5208 12.1908 34.5121 12.2709 34.5186 12.3489C33.1119 11.9089 31.6451 11.6204 30.1403 11.498V3.55473C30.1403 3.25275 29.8955 3.00786 29.5934 3.00786C29.2913 3.00786 29.0465 3.25275 29.0465 3.55473V12.3047C29.0465 12.3625 29.0579 12.4171 29.0745 12.4693L9.40137 38.3552Z" fill="#F5811F" style="fill:#F5811F;fill:color(display-p3 0.9608 0.5059 0.1216);fill-opacity:1;"/>
<path d="M8.27539 31.0815L21.9497 12.5234C15.7342 14.6579 10.7673 19.7536 8.97517 26.3397C8.55528 27.8832 8.32133 29.4757 8.27539 31.0815Z" fill="#F5811F" style="fill:#F5811F;fill:color(display-p3 0.9608 0.5059 0.1216);fill-opacity:1;"/>
<path d="M49.8279 31.6662C49.8279 32.9259 49.7149 34.187 49.4945 35.4255C51.5409 35.0617 53.1092 33.2573 53.1092 31.1193C53.1092 28.886 51.4266 27.0392 49.2627 26.7773C49.6376 28.3752 49.8279 30.0162 49.8279 31.6662Z" fill="#F5811F" style="fill:#F5811F;fill:color(display-p3 0.9608 0.5059 0.1216);fill-opacity:1;"/>
<path d="M7.71875 10.3359C8.62339 10.3359 9.35938 9.59995 9.35938 8.69531C9.35938 7.79067 8.62339 7.05469 7.71875 7.05469C6.81411 7.05469 6.07812 7.79067 6.07812 8.69531C6.07812 9.59995 6.81411 10.3359 7.71875 10.3359Z" fill="#F5811F" style="fill:#F5811F;fill:color(display-p3 0.9608 0.5059 0.1216);fill-opacity:1;"/>
<path d="M49.2812 10.3359C50.1859 10.3359 50.9219 9.59995 50.9219 8.69531C50.9219 7.79067 50.1859 7.05469 49.2812 7.05469C48.3766 7.05469 47.6406 7.79067 47.6406 8.69531C47.6406 9.59995 48.3766 10.3359 49.2812 10.3359Z" fill="#F5811F" style="fill:#F5811F;fill:color(display-p3 0.9608 0.5059 0.1216);fill-opacity:1;"/>
<path d="M48.2844 35.921C48.5831 34.5258 48.7346 33.0931 48.7346 31.6626C48.7346 29.8595 48.4958 28.0678 48.0252 26.3373C46.4803 20.6598 42.5755 16.0904 37.546 13.5703L12.5166 44.041C12.5161 44.0417 12.5153 44.0424 12.5146 44.0432C16.266 48.8543 22.1203 51.8971 28.5002 51.8971C37.9812 51.897 46.3016 45.178 48.2844 35.921ZM33.969 46.4282C33.6669 46.4282 33.4221 46.1834 33.4221 45.8813C33.4221 43.1674 31.2142 40.9595 28.5002 40.9595C25.7863 40.9595 23.5784 43.1674 23.5784 45.8813C23.5784 46.1834 23.3335 46.4282 23.0315 46.4282C22.7295 46.4282 22.4846 46.1834 22.4846 45.8813C22.4846 42.5643 25.1832 39.8657 28.5002 39.8657C31.8173 39.8657 34.5159 42.5643 34.5159 45.8813C34.5159 46.1834 34.2711 46.4282 33.969 46.4282ZM37.2502 33.3032C33.9332 33.3032 31.2346 30.6046 31.2346 27.2876C31.2346 26.9856 31.4794 26.7407 31.7815 26.7407C32.0836 26.7407 32.3284 26.9856 32.3284 27.2876C32.3284 30.0016 34.5363 32.2095 37.2502 32.2095C39.9642 32.2095 42.1721 30.0015 42.1721 27.2876C42.1721 26.9856 42.4169 26.7407 42.719 26.7407C43.0211 26.7407 43.2659 26.9856 43.2659 27.2876C43.2659 30.6046 40.5673 33.3032 37.2502 33.3032Z" fill="#904E16" style="fill:#904E16;fill:color(display-p3 0.5666 0.3061 0.0859);fill-opacity:1;"/>
<path d="M5.53125 47.5234C6.43589 47.5234 7.17188 46.7875 7.17188 45.8828C7.17188 44.9782 6.43589 44.2422 5.53125 44.2422C4.62661 44.2422 3.89062 44.9782 3.89062 45.8828C3.89062 46.7875 4.62661 47.5234 5.53125 47.5234Z" fill="#F5811F" style="fill:#F5811F;fill:color(display-p3 0.9608 0.5059 0.1216);fill-opacity:1;"/>
<path d="M53.6562 51.8984H28.5H3.34375C3.04166 51.8984 2.79688 52.1432 2.79688 52.4453C2.79688 52.7474 3.04166 52.9922 3.34375 52.9922H53.6562C53.9583 52.9922 54.2031 52.7474 54.2031 52.4453C54.2031 52.1432 53.9583 51.8984 53.6562 51.8984Z" fill="#F5811F" style="fill:#F5811F;fill:color(display-p3 0.9608 0.5059 0.1216);fill-opacity:1;"/>
<path d="M23.5137 12.2323C23.5015 12.2559 23.4878 12.279 23.4715 12.3011L8.30371 32.886C8.36518 33.9079 8.50212 34.9249 8.71584 35.9227C8.79918 36.3119 8.89466 36.6961 9.0001 37.076L28.4912 11.43C27.1417 11.4305 25.8168 11.5681 24.5297 11.8266L21.3558 3.36282C21.2497 3.08009 20.9347 2.9367 20.6516 3.04279C20.3688 3.14888 20.2255 3.4641 20.3316 3.74684L23.5137 12.2323Z" fill="#F5811F" style="fill:#F5811F;fill:color(display-p3 0.9608 0.5059 0.1216);fill-opacity:1;"/>
<path d="M75.58 11.98C76.42 11.98 77.16 12.1533 77.8 12.5C78.44 12.8467 78.9333 13.34 79.28 13.98C79.64 14.6067 79.82 15.3333 79.82 16.16C79.82 16.9733 79.64 17.6933 79.28 18.32C78.92 18.9467 78.4067 19.4333 77.74 19.78C77.0867 20.1133 76.3267 20.28 75.46 20.28H72.26C72.1933 20.28 72.16 20.3133 72.16 20.38V25.76C72.16 25.8267 72.1333 25.8867 72.08 25.94C72.04 25.98 71.9867 26 71.92 26H70.08C70.0133 26 69.9533 25.98 69.9 25.94C69.86 25.8867 69.84 25.8267 69.84 25.76V12.22C69.84 12.1533 69.86 12.1 69.9 12.06C69.9533 12.0067 70.0133 11.98 70.08 11.98H75.58ZM75.24 18.4C75.92 18.4 76.4667 18.2 76.88 17.8C77.2933 17.4 77.5 16.8733 77.5 16.22C77.5 15.5533 77.2933 15.0133 76.88 14.6C76.4667 14.1867 75.92 13.98 75.24 13.98H72.26C72.1933 13.98 72.16 14.0133 72.16 14.08V18.3C72.16 18.3667 72.1933 18.4 72.26 18.4H75.24ZM85.6667 26.16C84.6134 26.16 83.7067 25.8933 82.9467 25.36C82.2001 24.8267 81.6734 24.0867 81.3667 23.14C81.1401 22.42 81.0267 21.66 81.0267 20.86C81.0267 20.0067 81.1334 19.2467 81.3467 18.58C81.6534 17.6467 82.1867 16.92 82.9467 16.4C83.7067 15.88 84.6201 15.62 85.6867 15.62C86.7001 15.62 87.5734 15.88 88.3067 16.4C89.0534 16.92 89.5801 17.64 89.8867 18.56C90.1267 19.2 90.2467 19.96 90.2467 20.84C90.2467 21.68 90.1334 22.44 89.9067 23.12C89.6001 24.0667 89.0734 24.8133 88.3267 25.36C87.5801 25.8933 86.6934 26.16 85.6667 26.16ZM85.6667 24.16C86.1601 24.16 86.5801 24.02 86.9267 23.74C87.2867 23.46 87.5467 23.0667 87.7067 22.56C87.8401 22.12 87.9067 21.56 87.9067 20.88C87.9067 20.16 87.8401 19.6 87.7067 19.2C87.5601 18.6933 87.3067 18.3067 86.9467 18.04C86.5867 17.76 86.1467 17.62 85.6267 17.62C85.1334 17.62 84.7067 17.76 84.3467 18.04C83.9867 18.3067 83.7267 18.6933 83.5667 19.2C83.4334 19.6667 83.3667 20.2267 83.3667 20.88C83.3667 21.5333 83.4334 22.0933 83.5667 22.56C83.7134 23.0667 83.9667 23.46 84.3267 23.74C84.7001 24.02 85.1467 24.16 85.6667 24.16ZM96.98 26.16C95.9267 26.16 95.02 25.8933 94.26 25.36C93.5133 24.8267 92.9867 24.0867 92.68 23.14C92.4533 22.42 92.34 21.66 92.34 20.86C92.34 20.0067 92.4467 19.2467 92.66 18.58C92.9667 17.6467 93.5 16.92 94.26 16.4C95.02 15.88 95.9333 15.62 97 15.62C98.0133 15.62 98.8867 15.88 99.62 16.4C100.367 16.92 100.893 17.64 101.2 18.56C101.44 19.2 101.56 19.96 101.56 20.84C101.56 21.68 101.447 22.44 101.22 23.12C100.913 24.0667 100.387 24.8133 99.64 25.36C98.8933 25.8933 98.0067 26.16 96.98 26.16ZM96.98 24.16C97.4733 24.16 97.8933 24.02 98.24 23.74C98.6 23.46 98.86 23.0667 99.02 22.56C99.1533 22.12 99.22 21.56 99.22 20.88C99.22 20.16 99.1533 19.6 99.02 19.2C98.8733 18.6933 98.62 18.3067 98.26 18.04C97.9 17.76 97.46 17.62 96.94 17.62C96.4467 17.62 96.02 17.76 95.66 18.04C95.3 18.3067 95.04 18.6933 94.88 19.2C94.7467 19.6667 94.68 20.2267 94.68 20.88C94.68 21.5333 94.7467 22.0933 94.88 22.56C95.0267 23.0667 95.28 23.46 95.64 23.74C96.0133 24.02 96.46 24.16 96.98 24.16ZM108.713 15.66C109.14 15.66 109.513 15.7467 109.833 15.92C109.94 15.9733 109.98 16.0733 109.953 16.22L109.613 18.02C109.6 18.18 109.507 18.2267 109.333 18.16C109.133 18.0933 108.9 18.06 108.633 18.06C108.46 18.06 108.327 18.0667 108.233 18.08C107.673 18.1067 107.207 18.3067 106.833 18.68C106.46 19.04 106.273 19.5133 106.273 20.1V25.76C106.273 25.8267 106.247 25.8867 106.193 25.94C106.153 25.98 106.1 26 106.033 26H104.193C104.127 26 104.067 25.98 104.013 25.94C103.973 25.8867 103.953 25.8267 103.953 25.76V16.02C103.953 15.9533 103.973 15.9 104.013 15.86C104.067 15.8067 104.127 15.78 104.193 15.78H106.033C106.1 15.78 106.153 15.8067 106.193 15.86C106.247 15.9 106.273 15.9533 106.273 16.02V16.92C106.273 16.9733 106.28 17.0067 106.293 17.02C106.32 17.02 106.347 17 106.373 16.96C106.933 16.0933 107.713 15.66 108.713 15.66Z" fill="#904E16" style="fill:#904E16;fill:color(display-p3 0.5647 0.3059 0.0863);fill-opacity:1;"/>
<path d="M77.1697 37.5455V47H75.8587L71.0529 40.0661H70.9652V47H69.5387V37.5455H70.859L75.6694 44.4886H75.7571V37.5455H77.1697ZM82.1267 47.1431C81.4619 47.1431 80.8818 46.9908 80.3863 46.6861C79.8908 46.3814 79.5061 45.9551 79.2322 45.4073C78.9582 44.8595 78.8213 44.2193 78.8213 43.4869C78.8213 42.7513 78.9582 42.1081 79.2322 41.5572C79.5061 41.0063 79.8908 40.5785 80.3863 40.2738C80.8818 39.9691 81.4619 39.8168 82.1267 39.8168C82.7915 39.8168 83.3716 39.9691 83.8671 40.2738C84.3626 40.5785 84.7473 41.0063 85.0212 41.5572C85.2951 42.1081 85.4321 42.7513 85.4321 43.4869C85.4321 44.2193 85.2951 44.8595 85.0212 45.4073C84.7473 45.9551 84.3626 46.3814 83.8671 46.6861C83.3716 46.9908 82.7915 47.1431 82.1267 47.1431ZM82.1313 45.9844C82.5622 45.9844 82.9192 45.8705 83.2023 45.6428C83.4855 45.415 83.6948 45.1119 83.8302 44.7333C83.9687 44.3548 84.0379 43.9377 84.0379 43.4822C84.0379 43.0298 83.9687 42.6143 83.8302 42.2358C83.6948 41.8542 83.4855 41.5479 83.2023 41.3171C82.9192 41.0863 82.5622 40.9709 82.1313 40.9709C81.6974 40.9709 81.3373 41.0863 81.051 41.3171C80.7679 41.5479 80.5571 41.8542 80.4186 42.2358C80.2832 42.6143 80.2155 43.0298 80.2155 43.4822C80.2155 43.9377 80.2832 44.3548 80.4186 44.7333C80.5571 45.1119 80.7679 45.415 81.051 45.6428C81.3373 45.8705 81.6974 45.9844 82.1313 45.9844ZM90.2828 39.9091V41.017H86.4096V39.9091H90.2828ZM87.4483 38.2102H88.8287V44.918C88.8287 45.1857 88.8687 45.3873 88.9487 45.5227C89.0287 45.6551 89.1318 45.7459 89.258 45.7951C89.3873 45.8413 89.5273 45.8643 89.6781 45.8643C89.7889 45.8643 89.8858 45.8567 89.9689 45.8413C90.052 45.8259 90.1167 45.8136 90.1628 45.8043L90.4121 46.9446C90.3321 46.9754 90.2182 47.0062 90.0705 47.0369C89.9228 47.0708 89.7381 47.0893 89.5165 47.0923C89.1533 47.0985 88.8148 47.0339 88.5009 46.8984C88.187 46.763 87.9331 46.5537 87.7392 46.2706C87.5453 45.9875 87.4483 45.632 87.4483 45.2042V38.2102ZM98.2232 49.8068C97.66 49.8068 97.1752 49.733 96.769 49.5852C96.3658 49.4375 96.0365 49.2421 95.7811 48.9989C95.5256 48.7558 95.3348 48.4896 95.2086 48.2003L96.3951 47.7109C96.4782 47.8464 96.589 47.9895 96.7275 48.1403C96.869 48.2942 97.0598 48.425 97.2999 48.5327C97.543 48.6404 97.8554 48.6942 98.237 48.6942C98.7602 48.6942 99.1926 48.5665 99.5343 48.3111C99.8759 48.0587 100.047 47.6555 100.047 47.1016V45.7074H99.959C99.8759 45.8582 99.7559 46.0259 99.5989 46.2106C99.445 46.3952 99.2327 46.5553 98.9618 46.6907C98.691 46.8261 98.3386 46.8938 97.9047 46.8938C97.3445 46.8938 96.8398 46.763 96.3904 46.5014C95.9442 46.2367 95.5903 45.8474 95.3287 45.3335C95.0701 44.8164 94.9409 44.1809 94.9409 43.4268C94.9409 42.6728 95.0686 42.0265 95.324 41.4879C95.5826 40.9493 95.9365 40.5369 96.3858 40.2507C96.8352 39.9614 97.3445 39.8168 97.9139 39.8168C98.354 39.8168 98.7095 39.8906 98.9803 40.0384C99.2511 40.183 99.4619 40.3523 99.6127 40.5462C99.7666 40.7401 99.8851 40.9109 99.9682 41.0586H100.07V39.9091H101.422V47.157C101.422 47.7663 101.281 48.2665 100.998 48.6573C100.715 49.0482 100.331 49.3375 99.8482 49.5252C99.3681 49.7129 98.8264 49.8068 98.2232 49.8068ZM98.2093 45.7489C98.6064 45.7489 98.9418 45.6566 99.2157 45.4719C99.4927 45.2842 99.702 45.0165 99.8436 44.6687C99.9882 44.3178 100.061 43.8977 100.061 43.4084C100.061 42.9313 99.9898 42.5112 99.8482 42.1481C99.7066 41.7849 99.4989 41.5018 99.225 41.2987C98.9511 41.0924 98.6125 40.9893 98.2093 40.9893C97.7939 40.9893 97.4476 41.0971 97.1706 41.3125C96.8936 41.5249 96.6844 41.8142 96.5428 42.1804C96.4043 42.5466 96.335 42.956 96.335 43.4084C96.335 43.8731 96.4058 44.2809 96.5474 44.6317C96.689 44.9826 96.8983 45.2565 97.1752 45.4535C97.4553 45.6504 97.8 45.7489 98.2093 45.7489ZM106.26 47.1431C105.596 47.1431 105.016 46.9908 104.52 46.6861C104.025 46.3814 103.64 45.9551 103.366 45.4073C103.092 44.8595 102.955 44.2193 102.955 43.4869C102.955 42.7513 103.092 42.1081 103.366 41.5572C103.64 41.0063 104.025 40.5785 104.52 40.2738C105.016 39.9691 105.596 39.8168 106.26 39.8168C106.925 39.8168 107.505 39.9691 108.001 40.2738C108.496 40.5785 108.881 41.0063 109.155 41.5572C109.429 42.1081 109.566 42.7513 109.566 43.4869C109.566 44.2193 109.429 44.8595 109.155 45.4073C108.881 45.9551 108.496 46.3814 108.001 46.6861C107.505 46.9908 106.925 47.1431 106.26 47.1431ZM106.265 45.9844C106.696 45.9844 107.053 45.8705 107.336 45.6428C107.619 45.415 107.829 45.1119 107.964 44.7333C108.102 44.3548 108.172 43.9377 108.172 43.4822C108.172 43.0298 108.102 42.6143 107.964 42.2358C107.829 41.8542 107.619 41.5479 107.336 41.3171C107.053 41.0863 106.696 40.9709 106.265 40.9709C105.831 40.9709 105.471 41.0863 105.185 41.3171C104.902 41.5479 104.691 41.8542 104.552 42.2358C104.417 42.6143 104.349 43.0298 104.349 43.4822C104.349 43.9377 104.417 44.3548 104.552 44.7333C104.691 45.1119 104.902 45.415 105.185 45.6428C105.471 45.8705 105.831 45.9844 106.265 45.9844ZM114.093 47.1431C113.429 47.1431 112.849 46.9908 112.353 46.6861C111.858 46.3814 111.473 45.9551 111.199 45.4073C110.925 44.8595 110.788 44.2193 110.788 43.4869C110.788 42.7513 110.925 42.1081 111.199 41.5572C111.473 41.0063 111.858 40.5785 112.353 40.2738C112.849 39.9691 113.429 39.8168 114.093 39.8168C114.758 39.8168 115.338 39.9691 115.834 40.2738C116.329 40.5785 116.714 41.0063 116.988 41.5572C117.262 42.1081 117.399 42.7513 117.399 43.4869C117.399 44.2193 117.262 44.8595 116.988 45.4073C116.714 45.9551 116.329 46.3814 115.834 46.6861C115.338 46.9908 114.758 47.1431 114.093 47.1431ZM114.098 45.9844C114.529 45.9844 114.886 45.8705 115.169 45.6428C115.452 45.415 115.662 45.1119 115.797 44.7333C115.935 44.3548 116.005 43.9377 116.005 43.4822C116.005 43.0298 115.935 42.6143 115.797 42.2358C115.662 41.8542 115.452 41.5479 115.169 41.3171C114.886 41.0863 114.529 40.9709 114.098 40.9709C113.664 40.9709 113.304 41.0863 113.018 41.3171C112.735 41.5479 112.524 41.8542 112.385 42.2358C112.25 42.6143 112.182 43.0298 112.182 43.4822C112.182 43.9377 112.25 44.3548 112.385 44.7333C112.524 45.1119 112.735 45.415 113.018 45.6428C113.304 45.8705 113.664 45.9844 114.098 45.9844ZM121.594 47.1385C121.022 47.1385 120.511 46.9923 120.061 46.6999C119.615 46.4045 119.264 45.9844 119.009 45.4396C118.757 44.8918 118.63 44.2347 118.63 43.4684C118.63 42.7021 118.758 42.0465 119.013 41.5018C119.272 40.957 119.626 40.54 120.075 40.2507C120.525 39.9614 121.034 39.8168 121.603 39.8168C122.043 39.8168 122.397 39.8906 122.665 40.0384C122.936 40.183 123.145 40.3523 123.293 40.5462C123.444 40.7401 123.561 40.9109 123.644 41.0586H123.727V37.5455H125.107V47H123.759V45.8967H123.644C123.561 46.0475 123.441 46.2198 123.284 46.4137C123.13 46.6076 122.917 46.7769 122.647 46.9215C122.376 47.0662 122.025 47.1385 121.594 47.1385ZM121.899 45.9613C122.296 45.9613 122.631 45.8567 122.905 45.6474C123.182 45.435 123.391 45.1411 123.533 44.7656C123.678 44.3902 123.75 43.9531 123.75 43.4545C123.75 42.9621 123.679 42.5312 123.538 42.1619C123.396 41.7926 123.188 41.5049 122.914 41.2987C122.641 41.0924 122.302 40.9893 121.899 40.9893C121.483 40.9893 121.137 41.0971 120.86 41.3125C120.583 41.5279 120.374 41.8219 120.232 42.1942C120.094 42.5666 120.025 42.9867 120.025 43.4545C120.025 43.9285 120.095 44.3548 120.237 44.7333C120.378 45.1119 120.588 45.4119 120.865 45.6335C121.145 45.852 121.489 45.9613 121.899 45.9613ZM133.574 47.1431C132.875 47.1431 132.274 46.9938 131.769 46.6953C131.267 46.3937 130.879 45.9705 130.605 45.4258C130.335 44.878 130.199 44.2363 130.199 43.5007C130.199 42.7744 130.335 42.1342 130.605 41.5803C130.879 41.0263 131.261 40.5939 131.75 40.283C132.243 39.9722 132.818 39.8168 133.477 39.8168C133.877 39.8168 134.265 39.8829 134.64 40.0153C135.016 40.1476 135.353 40.3554 135.651 40.6385C135.95 40.9216 136.185 41.2894 136.358 41.7418C136.53 42.1912 136.616 42.7375 136.616 43.3807V43.87H130.979V42.8359H135.263C135.263 42.4728 135.19 42.1512 135.042 41.8711C134.894 41.5879 134.686 41.3648 134.419 41.2017C134.154 41.0386 133.843 40.957 133.486 40.957C133.098 40.957 132.76 41.0524 132.471 41.2433C132.184 41.431 131.963 41.6772 131.806 41.9819C131.652 42.2835 131.575 42.6113 131.575 42.9652V43.7731C131.575 44.247 131.658 44.6502 131.824 44.9826C131.993 45.315 132.229 45.5689 132.531 45.7443C132.832 45.9167 133.185 46.0028 133.588 46.0028C133.849 46.0028 134.088 45.9659 134.303 45.892C134.519 45.8151 134.705 45.7012 134.862 45.5504C135.019 45.3996 135.139 45.2134 135.222 44.9918L136.528 45.2273C136.424 45.612 136.236 45.949 135.965 46.2383C135.697 46.5245 135.36 46.7476 134.954 46.9077C134.551 47.0646 134.091 47.1431 133.574 47.1431ZM139.528 42.7898V47H138.148V39.9091H139.473V41.0632H139.56C139.723 40.6877 139.979 40.3861 140.327 40.1584C140.677 39.9306 141.119 39.8168 141.652 39.8168C142.135 39.8168 142.558 39.9183 142.921 40.1214C143.284 40.3215 143.566 40.62 143.766 41.017C143.966 41.4141 144.066 41.9049 144.066 42.4897V47H142.686V42.6559C142.686 42.1419 142.552 41.7403 142.284 41.451C142.016 41.1586 141.648 41.0124 141.181 41.0124C140.861 41.0124 140.576 41.0817 140.327 41.2202C140.08 41.3587 139.885 41.5618 139.74 41.8295C139.599 42.0942 139.528 42.4143 139.528 42.7898ZM148.904 47.1431C148.239 47.1431 147.659 46.9908 147.164 46.6861C146.668 46.3814 146.283 45.9551 146.009 45.4073C145.736 44.8595 145.599 44.2193 145.599 43.4869C145.599 42.7513 145.736 42.1081 146.009 41.5572C146.283 41.0063 146.668 40.5785 147.164 40.2738C147.659 39.9691 148.239 39.8168 148.904 39.8168C149.569 39.8168 150.149 39.9691 150.644 40.2738C151.14 40.5785 151.525 41.0063 151.799 41.5572C152.072 42.1081 152.209 42.7513 152.209 43.4869C152.209 44.2193 152.072 44.8595 151.799 45.4073C151.525 45.9551 151.14 46.3814 150.644 46.6861C150.149 46.9908 149.569 47.1431 148.904 47.1431ZM148.909 45.9844C149.34 45.9844 149.697 45.8705 149.98 45.6428C150.263 45.415 150.472 45.1119 150.608 44.7333C150.746 44.3548 150.815 43.9377 150.815 43.4822C150.815 43.0298 150.746 42.6143 150.608 42.2358C150.472 41.8542 150.263 41.5479 149.98 41.3171C149.697 41.0863 149.34 40.9709 148.909 40.9709C148.475 40.9709 148.115 41.0863 147.828 41.3171C147.545 41.5479 147.334 41.8542 147.196 42.2358C147.061 42.6143 146.993 43.0298 146.993 43.4822C146.993 43.9377 147.061 44.3548 147.196 44.7333C147.334 45.1119 147.545 45.415 147.828 45.6428C148.115 45.8705 148.475 45.9844 148.909 45.9844ZM158.242 44.0593V39.9091H159.627V47H158.27V45.772H158.196C158.033 46.1506 157.771 46.466 157.411 46.7184C157.054 46.9677 156.609 47.0923 156.077 47.0923C155.621 47.0923 155.218 46.9923 154.867 46.7923C154.52 46.5891 154.246 46.2891 154.046 45.892C153.849 45.495 153.75 45.0041 153.75 44.4194V39.9091H155.131V44.2532C155.131 44.7364 155.264 45.1211 155.532 45.4073C155.8 45.6935 156.148 45.8366 156.575 45.8366C156.834 45.8366 157.091 45.772 157.346 45.6428C157.605 45.5135 157.819 45.3181 157.988 45.0565C158.16 44.7949 158.245 44.4625 158.242 44.0593ZM164.455 49.8068C163.891 49.8068 163.407 49.733 163 49.5852C162.597 49.4375 162.268 49.2421 162.013 48.9989C161.757 48.7558 161.566 48.4896 161.44 48.2003L162.627 47.7109C162.71 47.8464 162.82 47.9895 162.959 48.1403C163.1 48.2942 163.291 48.425 163.531 48.5327C163.774 48.6404 164.087 48.6942 164.468 48.6942C164.992 48.6942 165.424 48.5665 165.766 48.3111C166.107 48.0587 166.278 47.6555 166.278 47.1016V45.7074H166.19C166.107 45.8582 165.987 46.0259 165.83 46.2106C165.676 46.3952 165.464 46.5553 165.193 46.6907C164.922 46.8261 164.57 46.8938 164.136 46.8938C163.576 46.8938 163.071 46.763 162.622 46.5014C162.176 46.2367 161.822 45.8474 161.56 45.3335C161.302 44.8164 161.172 44.1809 161.172 43.4268C161.172 42.6728 161.3 42.0265 161.555 41.4879C161.814 40.9493 162.168 40.5369 162.617 40.2507C163.067 39.9614 163.576 39.8168 164.145 39.8168C164.585 39.8168 164.941 39.8906 165.212 40.0384C165.483 40.183 165.693 40.3523 165.844 40.5462C165.998 40.7401 166.117 40.9109 166.2 41.0586H166.301V39.9091H167.654V47.157C167.654 47.7663 167.512 48.2665 167.229 48.6573C166.946 49.0482 166.563 49.3375 166.08 49.5252C165.6 49.7129 165.058 49.8068 164.455 49.8068ZM164.441 45.7489C164.838 45.7489 165.173 45.6566 165.447 45.4719C165.724 45.2842 165.933 45.0165 166.075 44.6687C166.22 44.3178 166.292 43.8977 166.292 43.4084C166.292 42.9313 166.221 42.5112 166.08 42.1481C165.938 41.7849 165.73 41.5018 165.456 41.2987C165.182 41.0924 164.844 40.9893 164.441 40.9893C164.025 40.9893 163.679 41.0971 163.402 41.3125C163.125 41.5249 162.916 41.8142 162.774 42.1804C162.636 42.5466 162.566 42.956 162.566 43.4084C162.566 43.8731 162.637 44.2809 162.779 44.6317C162.92 44.9826 163.13 45.2565 163.407 45.4535C163.687 45.6504 164.031 45.7489 164.441 45.7489ZM170.885 42.7898V47H169.505V37.5455H170.867V41.0632H170.955C171.121 40.6816 171.375 40.3784 171.716 40.1538C172.058 39.9291 172.504 39.8168 173.055 39.8168C173.541 39.8168 173.966 39.9168 174.329 40.1168C174.696 40.3169 174.979 40.6154 175.179 41.0124C175.382 41.4064 175.483 41.8988 175.483 42.4897V47H174.103V42.6559C174.103 42.1358 173.969 41.7326 173.701 41.4464C173.434 41.1571 173.061 41.0124 172.584 41.0124C172.258 41.0124 171.966 41.0817 171.707 41.2202C171.452 41.3587 171.25 41.5618 171.102 41.8295C170.958 42.0942 170.885 42.4143 170.885 42.7898Z" fill="#70829A" style="fill:#70829A;fill:color(display-p3 0.4379 0.5116 0.6033);fill-opacity:1;"/>
</svg>
