<svg width="28" height="28" viewBox="0 0 28 28" fill="none" xmlns="http://www.w3.org/2000/svg">
<rect x="0.000732422" width="28" height="28" rx="14" fill="#717171" style="fill:#717171;fill:color(display-p3 0.4432 0.4432 0.4432);fill-opacity:1;"/>
<path d="M5.67012 17.2457V15.8839L9.68184 9.54545H10.8175V11.4844H10.125L7.42438 15.7638V15.8377H13.0242V17.2457H5.67012ZM10.1804 19V16.8303L10.1989 16.2209V9.54545H11.8147V19H10.1804ZM16.7962 13.5455V14.5398H13.6605V13.5455H16.7962ZM14.4347 12.2386H15.7202V17.3594C15.7202 17.5322 15.7462 17.6648 15.7983 17.7571C15.8528 17.8471 15.9238 17.9086 16.0114 17.9418C16.099 17.9749 16.196 17.9915 16.3026 17.9915C16.3831 17.9915 16.4564 17.9856 16.5227 17.9737C16.5914 17.9619 16.6435 17.9512 16.679 17.9418L16.8956 18.9467C16.8269 18.9704 16.7287 18.9964 16.6009 19.0249C16.4754 19.0533 16.3215 19.0698 16.1392 19.0746C15.8172 19.084 15.5272 19.0355 15.2692 18.929C15.0111 18.8201 14.8063 18.652 14.6548 18.4247C14.5057 18.1974 14.4323 17.9134 14.4347 17.5724V12.2386ZM19.084 15.804V19H17.7985V11.7273H19.0556V14.4723H19.1195C19.2473 14.1645 19.445 13.9219 19.7125 13.7443C19.9824 13.5644 20.3257 13.4744 20.7424 13.4744C21.1211 13.4744 21.4514 13.5537 21.7331 13.7124C22.0148 13.871 22.2326 14.103 22.3865 14.4084C22.5428 14.7138 22.6209 15.0866 22.6209 15.527V19H21.3354V15.7259C21.3354 15.3589 21.2407 15.0736 21.0513 14.87C20.8643 14.6641 20.6015 14.5611 20.263 14.5611C20.0357 14.5611 19.8321 14.6108 19.6522 14.7102C19.4746 14.8073 19.3349 14.9482 19.2331 15.1328C19.1337 15.3175 19.084 15.5412 19.084 15.804Z" fill="white" style="fill:white;fill-opacity:1;"/>
</svg>
