<svg width="28" height="28" viewBox="0 0 28 28" fill="none" xmlns="http://www.w3.org/2000/svg">
<rect x="0.000366211" width="28" height="28" rx="14" fill="#717171" style="fill:#717171;fill:color(display-p3 0.4432 0.4432 0.4432);fill-opacity:1;"/>
<path d="M9.1275 19.1293C8.51197 19.1293 7.96107 19.0138 7.4748 18.783C6.98853 18.5491 6.60228 18.229 6.31606 17.8228C6.03292 17.4165 5.88211 16.9518 5.86365 16.4286H7.52558C7.55636 16.8164 7.72409 17.1334 8.02878 17.3796C8.33346 17.6228 8.6997 17.7443 9.1275 17.7443C9.46296 17.7443 9.76149 17.6674 10.0231 17.5135C10.2847 17.3596 10.4909 17.1457 10.6417 16.8718C10.7925 16.5979 10.8664 16.2855 10.8633 15.9347C10.8664 15.5777 10.791 15.2607 10.6371 14.9837C10.4832 14.7067 10.2724 14.4897 10.0046 14.3327C9.73687 14.1727 9.42911 14.0927 9.08133 14.0927C8.79819 14.0896 8.51966 14.1419 8.24575 14.2496C7.97184 14.3574 7.75486 14.4989 7.59483 14.6744L6.04831 14.4205L6.54227 9.54545H12.0266V10.9766H7.95953L7.68716 13.4833H7.74255C7.91798 13.2771 8.16573 13.1063 8.48581 12.9709C8.80588 12.8324 9.15673 12.7631 9.53836 12.7631C10.1108 12.7631 10.6217 12.8986 11.071 13.1694C11.5204 13.4371 11.8743 13.8065 12.1328 14.2773C12.3913 14.7482 12.5206 15.2868 12.5206 15.8931C12.5206 16.5179 12.376 17.0749 12.0867 17.5643C11.8004 18.0505 11.4019 18.4337 10.891 18.7138C10.3832 18.9908 9.79535 19.1293 9.1275 19.1293ZM16.3642 13.5455V14.5398H13.2285V13.5455H16.3642ZM14.0027 12.2386H15.2882V17.3594C15.2882 17.5322 15.3142 17.6648 15.3663 17.7571C15.4207 17.8471 15.4918 17.9086 15.5794 17.9418C15.667 17.9749 15.764 17.9915 15.8706 17.9915C15.951 17.9915 16.0244 17.9856 16.0907 17.9737C16.1594 17.9619 16.2115 17.9512 16.247 17.9418L16.4636 18.9467C16.3949 18.9704 16.2967 18.9964 16.1688 19.0249C16.0434 19.0533 15.8895 19.0698 15.7072 19.0746C15.3852 19.084 15.0952 19.0355 14.8372 18.929C14.5791 18.8201 14.3743 18.652 14.2228 18.4247C14.0737 18.1974 14.0003 17.9134 14.0027 17.5724V12.2386ZM18.652 15.804V19H17.3665V11.7273H18.6236V14.4723H18.6875C18.8153 14.1645 19.013 13.9219 19.2805 13.7443C19.5504 13.5644 19.8937 13.4744 20.3103 13.4744C20.6891 13.4744 21.0194 13.5537 21.3011 13.7124C21.5828 13.871 21.8006 14.103 21.9545 14.4084C22.1108 14.7138 22.1889 15.0866 22.1889 15.527V19H20.9034V15.7259C20.9034 15.3589 20.8087 15.0736 20.6193 14.87C20.4323 14.6641 20.1695 14.5611 19.8309 14.5611C19.6037 14.5611 19.4001 14.6108 19.2201 14.7102C19.0426 14.8073 18.9029 14.9482 18.8011 15.1328C18.7017 15.3175 18.652 15.5412 18.652 15.804Z" fill="white" style="fill:white;fill-opacity:1;"/>
</svg>
