<svg width="28" height="29" viewBox="0 0 28 29" fill="none" xmlns="http://www.w3.org/2000/svg">
<rect y="0.5" width="28" height="28" rx="14" fill="#2BB07B" style="fill:#2BB07B;fill:color(display-p3 0.1684 0.6894 0.4810);fill-opacity:1;"/>
<path d="M11.6857 9.54545V19H9.97301V11.212H9.91761L7.70632 12.6246V11.055L10.0561 9.54545H11.6857ZM17.9707 14.9872L16.7988 15.1151C16.7657 14.9967 16.7077 14.8854 16.6248 14.7812C16.5443 14.6771 16.4354 14.593 16.2981 14.5291C16.1608 14.4652 15.9927 14.4332 15.7938 14.4332C15.5263 14.4332 15.3014 14.4912 15.1191 14.6072C14.9392 14.7232 14.8504 14.8736 14.8528 15.0582C14.8504 15.2169 14.9084 15.3459 15.0268 15.4453C15.1475 15.5447 15.3464 15.6264 15.6234 15.6903L16.5538 15.8892C17.0699 16.0005 17.4534 16.1768 17.7043 16.4183C17.9577 16.6598 18.0855 16.9759 18.0879 17.3665C18.0855 17.7098 17.9849 18.0128 17.786 18.2756C17.5895 18.536 17.3161 18.7396 16.9657 18.8864C16.6153 19.0331 16.2129 19.1065 15.7583 19.1065C15.0907 19.1065 14.5533 18.9669 14.1461 18.6875C13.7389 18.4058 13.4963 18.014 13.4181 17.5121L14.6717 17.3913C14.7285 17.6375 14.8492 17.8234 15.0339 17.9489C15.2186 18.0743 15.4588 18.1371 15.7548 18.1371C16.0602 18.1371 16.3052 18.0743 16.4899 17.9489C16.6769 17.8234 16.7704 17.6683 16.7704 17.4837C16.7704 17.3274 16.71 17.1984 16.5893 17.0966C16.4709 16.9948 16.2863 16.9167 16.0353 16.8622L15.1049 16.6669C14.5817 16.558 14.1946 16.3745 13.9437 16.1165C13.6927 15.8561 13.5685 15.527 13.5708 15.1293C13.5685 14.7931 13.6596 14.5019 13.8443 14.2557C14.0313 14.0071 14.2905 13.8153 14.622 13.6804C14.9558 13.5431 15.3405 13.4744 15.7761 13.4744C16.4153 13.4744 16.9184 13.6106 17.2853 13.8828C17.6546 14.1551 17.8831 14.5232 17.9707 14.9872ZM21.6816 13.5455V14.5398H18.546V13.5455H21.6816ZM19.3201 12.2386H20.6056V17.3594C20.6056 17.5322 20.6317 17.6648 20.6837 17.7571C20.7382 17.8471 20.8092 17.9086 20.8968 17.9418C20.9844 17.9749 21.0815 17.9915 21.188 17.9915C21.2685 17.9915 21.3419 17.9856 21.4082 17.9737C21.4768 17.9619 21.5289 17.9512 21.5644 17.9418L21.781 18.9467C21.7124 18.9704 21.6141 18.9964 21.4863 19.0249C21.3608 19.0533 21.2069 19.0698 21.0246 19.0746C20.7027 19.084 20.4127 19.0355 20.1546 18.929C19.8966 18.8201 19.6918 18.652 19.5403 18.4247C19.3911 18.1974 19.3177 17.9134 19.3201 17.5724V12.2386Z" fill="white" style="fill:white;fill-opacity:1;"/>
</svg>
