<svg width="28" height="28" viewBox="0 0 28 28" fill="none" xmlns="http://www.w3.org/2000/svg">
<rect x="-0.000396729" width="28" height="28" rx="14" fill="#B58320" style="fill:#B58320;fill:color(display-p3 0.7086 0.5137 0.1240);fill-opacity:1;"/>
<path d="M4.8398 18.5V17.2628L8.12212 14.0451C8.43604 13.7281 8.69764 13.4465 8.90692 13.2003C9.1162 12.9541 9.27316 12.7156 9.3778 12.4847C9.48244 12.2539 9.53476 12.0077 9.53476 11.7461C9.53476 11.4476 9.46705 11.1921 9.33163 10.9798C9.19622 10.7643 9.01002 10.5981 8.77304 10.4812C8.53606 10.3642 8.26677 10.3058 7.96516 10.3058C7.65431 10.3058 7.38194 10.3704 7.14804 10.4996C6.91414 10.6258 6.73256 10.8059 6.6033 11.0398C6.47711 11.2737 6.41402 11.5522 6.41402 11.8754H4.7844C4.7844 11.2752 4.92136 10.7536 5.19527 10.3104C5.46918 9.86719 5.84619 9.52403 6.32631 9.28089C6.8095 9.03776 7.36348 8.91619 7.98824 8.91619C8.62224 8.91619 9.17929 9.03468 9.6594 9.27166C10.1395 9.50864 10.5119 9.83333 10.7766 10.2457C11.0443 10.6581 11.1782 11.129 11.1782 11.6584C11.1782 12.0123 11.1105 12.3601 10.9751 12.7017C10.8397 13.0433 10.6012 13.4219 10.2595 13.8374C9.921 14.2528 9.44551 14.756 8.83306 15.3469L7.20344 17.0043V17.0689H11.3213V18.5H4.8398ZM13.7728 15.304V18.5H12.4873V13.0455H13.716V13.9723H13.7799C13.9054 13.6669 14.1055 13.4242 14.3801 13.2443C14.6571 13.0644 14.9992 12.9744 15.4064 12.9744C15.7828 12.9744 16.1107 13.0549 16.39 13.2159C16.6718 13.3769 16.8896 13.6101 17.0434 13.9155C17.1997 14.2209 17.2766 14.5914 17.2743 15.027V18.5H15.9888V15.2259C15.9888 14.8613 15.8941 14.576 15.7047 14.37C15.5176 14.1641 15.2584 14.0611 14.927 14.0611C14.7021 14.0611 14.502 14.1108 14.3268 14.2102C14.154 14.3073 14.0179 14.4482 13.9184 14.6328C13.8214 14.8175 13.7728 15.0412 13.7728 15.304ZM20.4152 18.5959C19.9867 18.5959 19.6032 18.4858 19.2647 18.2656C18.9261 18.0455 18.6586 17.7259 18.4621 17.3068C18.2656 16.8878 18.1674 16.3788 18.1674 15.7798C18.1674 15.1738 18.2668 14.6624 18.4657 14.2457C18.6669 13.8267 18.938 13.5107 19.2789 13.2976C19.6198 13.0821 19.9997 12.9744 20.4188 12.9744C20.7384 12.9744 21.0012 13.0289 21.2071 13.1378C21.4131 13.2443 21.5765 13.3733 21.6972 13.5249C21.8179 13.674 21.9114 13.8149 21.9777 13.9474H22.031V11.2273H23.3201V18.5H22.0559V17.6406H21.9777C21.9114 17.7732 21.8156 17.9141 21.6901 18.0632C21.5646 18.21 21.3989 18.3355 21.1929 18.4396C20.987 18.5438 20.7277 18.5959 20.4152 18.5959ZM20.7739 17.5412C21.0461 17.5412 21.2782 17.4678 21.4699 17.321C21.6617 17.1719 21.8073 16.9647 21.9067 16.6996C22.0061 16.4344 22.0559 16.1255 22.0559 15.7727C22.0559 15.42 22.0061 15.1134 21.9067 14.853C21.8096 14.5926 21.6652 14.3902 21.4735 14.2457C21.2841 14.1013 21.0509 14.0291 20.7739 14.0291C20.4874 14.0291 20.2483 14.1037 20.0566 14.2528C19.8648 14.402 19.7204 14.608 19.6233 14.8707C19.5263 15.1335 19.4777 15.4342 19.4777 15.7727C19.4777 16.1136 19.5263 16.4179 19.6233 16.6854C19.7228 16.9505 19.8684 17.16 20.0601 17.3139C20.2542 17.4654 20.4922 17.5412 20.7739 17.5412Z" fill="white" style="fill:white;fill-opacity:1;"/>
</svg>
