<svg width="28" height="28" viewBox="0 0 28 28" fill="none" xmlns="http://www.w3.org/2000/svg">
<rect x="-0.000793457" width="28" height="28" rx="14" fill="#7959DB" style="fill:#7959DB;fill:color(display-p3 0.4759 0.3484 0.8586);fill-opacity:1;"/>
<path d="M9.23252 19.1293C8.56774 19.1293 7.97683 19.0154 7.45979 18.7876C6.94582 18.5599 6.53957 18.2429 6.24104 17.8366C5.94251 17.4304 5.78401 16.9611 5.76554 16.4286H7.50134C7.51673 16.6841 7.60136 16.9072 7.75524 17.098C7.90913 17.2857 8.11379 17.4319 8.36924 17.5366C8.62468 17.6412 8.9109 17.6935 9.2279 17.6935C9.56644 17.6935 9.86651 17.6351 10.1281 17.5181C10.3897 17.3981 10.5944 17.2319 10.7421 17.0195C10.8898 16.8072 10.9622 16.5625 10.9591 16.2855C10.9622 15.9993 10.8883 15.7469 10.7375 15.5284C10.5867 15.3099 10.3682 15.1391 10.0819 15.016C9.7988 14.8929 9.45718 14.8313 9.05709 14.8313H8.22151V13.511H9.05709C9.3864 13.511 9.67416 13.4541 9.92037 13.3402C10.1697 13.2263 10.3651 13.0663 10.5067 12.8601C10.6482 12.6508 10.7175 12.4092 10.7144 12.1353C10.7175 11.8675 10.6575 11.6352 10.5344 11.4382C10.4143 11.2382 10.2435 11.0827 10.0219 10.9719C9.80342 10.8612 9.54644 10.8058 9.25098 10.8058C8.96168 10.8058 8.69393 10.8581 8.44772 10.9627C8.2015 11.0674 8.00299 11.2166 7.85219 11.4105C7.70138 11.6013 7.62137 11.8291 7.61213 12.0938H5.96405C5.97636 11.5644 6.1287 11.0997 6.42108 10.6996C6.71654 10.2964 7.11048 9.98248 7.6029 9.75781C8.09532 9.53007 8.64776 9.41619 9.26022 9.41619C9.89113 9.41619 10.439 9.53468 10.9037 9.77166C11.3715 10.0056 11.7331 10.321 11.9886 10.718C12.244 11.1151 12.3717 11.5536 12.3717 12.0337C12.3748 12.5662 12.2178 13.0124 11.9008 13.3725C11.5869 13.7326 11.1745 13.968 10.6636 14.0788V14.1527C11.3284 14.245 11.8377 14.4912 12.1917 14.8913C12.5487 15.2884 12.7257 15.7823 12.7226 16.3732C12.7226 16.9026 12.5718 17.3765 12.2702 17.7951C11.9716 18.2106 11.5592 18.5368 11.0329 18.7738C10.5097 19.0108 9.9096 19.1293 9.23252 19.1293ZM13.8805 19V13.5455H15.1269V14.4545H15.1838C15.2832 14.1397 15.4536 13.897 15.6951 13.7266C15.939 13.5537 16.2171 13.4673 16.5296 13.4673C16.6007 13.4673 16.68 13.4709 16.7676 13.478C16.8575 13.4827 16.9321 13.491 16.9913 13.5028V14.6854C16.9368 14.6664 16.8504 14.6499 16.7321 14.6357C16.6161 14.6191 16.5036 14.6108 16.3947 14.6108C16.1603 14.6108 15.9496 14.6617 15.7626 14.7635C15.5779 14.8629 15.4323 15.0014 15.3258 15.179C15.2193 15.3565 15.166 15.5613 15.166 15.7933V19H13.8805ZM19.4549 19.0959C19.0264 19.0959 18.6428 18.9858 18.3043 18.7656C17.9658 18.5455 17.6982 18.2259 17.5017 17.8068C17.3053 17.3878 17.207 16.8788 17.207 16.2798C17.207 15.6738 17.3064 15.1624 17.5053 14.7457C17.7065 14.3267 17.9776 14.0107 18.3185 13.7976C18.6594 13.5821 19.0394 13.4744 19.4584 13.4744C19.778 13.4744 20.0408 13.5289 20.2468 13.6378C20.4527 13.7443 20.6161 13.8733 20.7368 14.0249C20.8576 14.174 20.9511 14.3149 21.0174 14.4474H21.0706V11.7273H22.3597V19H21.0955V18.1406H21.0174C20.9511 18.2732 20.8552 18.4141 20.7297 18.5632C20.6043 18.71 20.4385 18.8355 20.2326 18.9396C20.0266 19.0438 19.7674 19.0959 19.4549 19.0959ZM19.8135 18.0412C20.0858 18.0412 20.3178 17.9678 20.5096 17.821C20.7013 17.6719 20.8469 17.4647 20.9464 17.1996C21.0458 16.9344 21.0955 16.6255 21.0955 16.2727C21.0955 15.92 21.0458 15.6134 20.9464 15.353C20.8493 15.0926 20.7049 14.8902 20.5131 14.7457C20.3237 14.6013 20.0905 14.5291 19.8135 14.5291C19.5271 14.5291 19.288 14.6037 19.0962 14.7528C18.9044 14.902 18.76 15.108 18.663 15.3707C18.5659 15.6335 18.5174 15.9342 18.5174 16.2727C18.5174 16.6136 18.5659 16.9179 18.663 17.1854C18.7624 17.4505 18.908 17.66 19.0998 17.8139C19.2939 17.9654 19.5318 18.0412 19.8135 18.0412Z" fill="white" style="fill:white;fill-opacity:1;"/>
</svg>
