<svg width="230" height="62" viewBox="0 0 230 62" fill="none" xmlns="http://www.w3.org/2000/svg">
<path d="M48.3516 35.875H40.1484C38.9423 35.875 37.9609 36.8564 37.9609 38.0625C37.9609 39.2687 38.9423 40.25 40.1484 40.25H48.3516C49.5577 40.25 50.5391 39.2687 50.5391 38.0625C50.5391 36.8564 49.5577 35.875 48.3516 35.875Z" fill="#4FD91E" style="fill:#4FD91E;fill:color(display-p3 0.3083 0.8490 0.1184);fill-opacity:1;"/>
<path d="M48.3516 41.3438H40.1484C38.9423 41.3438 37.9609 42.3251 37.9609 43.5312C37.9609 44.7374 38.9423 45.7188 40.1484 45.7188H48.3516C49.5577 45.7188 50.5391 44.7374 50.5391 43.5312C50.5391 42.3251 49.5577 41.3438 48.3516 41.3438Z" fill="#4FD91E" style="fill:#4FD91E;fill:color(display-p3 0.3083 0.8490 0.1184);fill-opacity:1;"/>
<path d="M38.3365 40.7973C36.4862 39.5638 36.262 36.7805 38.3365 35.3283C36.3574 33.943 36.3923 31.2203 38.3365 29.8594C36.5732 28.6838 36.4446 26.3203 37.7046 24.9376C36.7316 24.8735 35.6981 25.1424 34.788 24.5053C34.5979 27.9823 33.4833 31.5557 30.6212 33.5865C30.5253 33.6548 30.4146 33.6876 30.3051 33.6876C29.7748 33.6876 29.5537 33.0031 29.9883 32.6947C33.5226 30.1863 33.8009 25.0998 33.7056 22.6173C33.5494 21.8275 33.5865 21.5498 33.5859 16.8984C33.5859 15.3002 32.2857 14 30.6875 14H29.2109V21.1094C29.2109 23.0228 27.8528 27.4516 25.9297 28.1241V45.7193H37.7047C36.3865 44.2516 36.6483 41.9228 38.3365 40.7973Z" fill="#4FD91E" style="fill:#4FD91E;fill:color(display-p3 0.3083 0.8490 0.1184);fill-opacity:1;"/>
<path d="M48.3516 30.4062H40.1484C38.9423 30.4062 37.9609 31.3877 37.9609 32.5938C37.9609 33.7998 38.9423 34.7812 40.1484 34.7812H48.3516C49.5577 34.7812 50.5391 33.7998 50.5391 32.5938C50.5391 31.3877 49.5577 30.4062 48.3516 30.4062Z" fill="#4FD91E" style="fill:#4FD91E;fill:color(display-p3 0.3083 0.8490 0.1184);fill-opacity:1;"/>
<path d="M37.9609 27.125C37.9609 28.3311 38.9423 29.3125 40.1484 29.3125H48.3516C49.5577 29.3125 50.5391 28.3311 50.5391 27.125C50.5391 25.9189 49.5577 24.9375 48.3516 24.9375H40.1484C38.9423 24.9375 37.9609 25.9189 37.9609 27.125Z" fill="#4FD91E" style="fill:#4FD91E;fill:color(display-p3 0.3083 0.8490 0.1184);fill-opacity:1;"/>
<path d="M20.5156 27.6719C20.5156 27.3698 20.2707 27.125 19.9688 27.125H11.7656C11.4636 27.125 11.2188 27.3698 11.2188 27.6719C11.2188 27.974 11.4636 28.2188 11.7656 28.2188H19.4219V45.7188H14.9375V38.6094C14.9375 38.3073 14.6926 38.0625 14.3906 38.0625C14.0886 38.0625 13.8438 38.3073 13.8438 38.6094V45.7188H6.29688C5.99489 45.7188 5.75 45.9635 5.75 46.2656C5.75 46.5677 5.99489 46.8125 6.29688 46.8125H19.9688C20.2707 46.8125 20.5156 46.5677 20.5156 46.2656V45.7188H24.8359V28.2188H20.5156V27.6719Z" fill="#166E1A" style="fill:#166E1A;fill:color(display-p3 0.0847 0.4298 0.1020);fill-opacity:1;"/>
<path d="M44.3654 10C43.4747 10 42.75 10.7247 42.75 11.6154C42.75 12.5061 43.4747 13.2308 44.3654 13.2308C45.2561 13.2308 45.9808 12.5061 45.9808 11.6154C45.9808 10.7247 45.2561 10 44.3654 10Z" fill="#166E1A" style="fill:#166E1A;fill:color(display-p3 0.0847 0.4298 0.1020);fill-opacity:1;"/>
<path d="M22.1346 18.6923C22.1346 17.2078 20.9268 16 19.4423 16C17.9578 16 16.75 17.2078 16.75 18.6923C16.75 20.1768 17.9578 21.3846 19.4423 21.3846C20.9268 21.3846 22.1346 20.1768 22.1346 18.6923Z" fill="#166E1A" style="fill:#166E1A;fill:color(display-p3 0.0847 0.4298 0.1020);fill-opacity:1;"/>
<path d="M51.5577 22.6154C52.0038 22.6154 52.3654 22.2538 52.3654 21.8077C52.3654 21.3616 52.0038 21 51.5577 21C51.1116 21 50.75 21.3616 50.75 21.8077C50.75 22.2538 51.1116 22.6154 51.5577 22.6154Z" fill="#166E1A" style="fill:#166E1A;fill:color(display-p3 0.0847 0.4298 0.1020);fill-opacity:1;"/>
<path d="M13.5577 10.6154C14.0038 10.6154 14.3654 10.2538 14.3654 9.80769C14.3654 9.36162 14.0038 9 13.5577 9C13.1116 9 12.75 9.36162 12.75 9.80769C12.75 10.2538 13.1116 10.6154 13.5577 10.6154Z" fill="#166E1A" style="fill:#166E1A;fill:color(display-p3 0.0847 0.4298 0.1020);fill-opacity:1;"/>
<path d="M43.5577 48.6154C44.0038 48.6154 44.3654 48.2538 44.3654 47.8077C44.3654 47.3616 44.0038 47 43.5577 47C43.1116 47 42.75 47.3616 42.75 47.8077C42.75 48.2538 43.1116 48.6154 43.5577 48.6154Z" fill="#166E1A" style="fill:#166E1A;fill:color(display-p3 0.0847 0.4298 0.1020);fill-opacity:1;"/>
<path d="M23.75 54C24.3023 54 24.75 53.5523 24.75 53C24.75 52.4477 24.3023 52 23.75 52C23.1977 52 22.75 52.4477 22.75 53C22.75 53.5523 23.1977 54 23.75 54Z" fill="#166E1A" style="fill:#166E1A;fill:color(display-p3 0.0847 0.4298 0.1020);fill-opacity:1;"/>
<path d="M74.73 29.16C73.69 29.16 72.7833 28.9933 72.01 28.66C71.2367 28.3267 70.6367 27.86 70.21 27.26C69.7967 26.66 69.59 25.9533 69.59 25.14V24.64C69.59 24.5733 69.61 24.52 69.65 24.48C69.7033 24.4267 69.7633 24.4 69.83 24.4H71.61C71.6767 24.4 71.73 24.4267 71.77 24.48C71.8233 24.52 71.85 24.5733 71.85 24.64V25.02C71.85 25.6333 72.1233 26.1467 72.67 26.56C73.2167 26.96 73.9633 27.16 74.91 27.16C75.7233 27.16 76.3367 26.9867 76.75 26.64C77.1633 26.2933 77.37 25.8467 77.37 25.3C77.37 24.9267 77.2567 24.6133 77.03 24.36C76.8033 24.0933 76.4767 23.8533 76.05 23.64C75.6367 23.4267 75.01 23.16 74.17 22.84C73.2233 22.4933 72.4567 22.1667 71.87 21.86C71.2833 21.5533 70.79 21.14 70.39 20.62C70.0033 20.0867 69.81 19.4267 69.81 18.64C69.81 17.4667 70.2367 16.54 71.09 15.86C71.9433 15.18 73.0833 14.84 74.51 14.84C75.51 14.84 76.39 15.0133 77.15 15.36C77.9233 15.7067 78.5233 16.1933 78.95 16.82C79.3767 17.4333 79.59 18.1467 79.59 18.96V19.3C79.59 19.3667 79.5633 19.4267 79.51 19.48C79.47 19.52 79.4167 19.54 79.35 19.54H77.55C77.4833 19.54 77.4233 19.52 77.37 19.48C77.33 19.4267 77.31 19.3667 77.31 19.3V19.08C77.31 18.4533 77.05 17.9267 76.53 17.5C76.0233 17.06 75.3167 16.84 74.41 16.84C73.6767 16.84 73.1033 16.9933 72.69 17.3C72.29 17.6067 72.09 18.04 72.09 18.6C72.09 19 72.1967 19.3267 72.41 19.58C72.6233 19.8333 72.9433 20.0667 73.37 20.28C73.7967 20.48 74.4567 20.74 75.35 21.06C76.2967 21.42 77.05 21.7467 77.61 22.04C78.1833 22.3333 78.67 22.7467 79.07 23.28C79.4833 23.8 79.69 24.4533 79.69 25.24C79.69 26.44 79.2433 27.3933 78.35 28.1C77.47 28.8067 76.2633 29.16 74.73 29.16ZM85.8087 18.62C86.6488 18.62 87.3888 18.7667 88.0288 19.06C88.6688 19.3533 89.1621 19.76 89.5088 20.28C89.8554 20.7867 90.0288 21.3667 90.0288 22.02V28.76C90.0288 28.8267 90.0021 28.8867 89.9488 28.94C89.9088 28.98 89.8554 29 89.7888 29H87.9488C87.8821 29 87.8221 28.98 87.7688 28.94C87.7288 28.8867 87.7088 28.8267 87.7088 28.76V28.12C87.7088 28.08 87.6954 28.06 87.6688 28.06C87.6421 28.0467 87.6154 28.0533 87.5888 28.08C86.9354 28.8 85.9888 29.16 84.7488 29.16C83.7487 29.16 82.9221 28.9067 82.2687 28.4C81.6287 27.8933 81.3087 27.14 81.3087 26.14C81.3087 25.1 81.6687 24.2933 82.3887 23.72C83.1221 23.1333 84.1487 22.84 85.4688 22.84H87.6087C87.6754 22.84 87.7088 22.8067 87.7088 22.74V22.26C87.7088 21.74 87.5554 21.34 87.2488 21.06C86.9421 20.7667 86.4821 20.62 85.8688 20.62C85.3621 20.62 84.9488 20.7133 84.6288 20.9C84.3221 21.0733 84.1288 21.32 84.0488 21.64C84.0088 21.8 83.9154 21.8667 83.7687 21.84L81.8287 21.6C81.7621 21.5867 81.7021 21.5667 81.6487 21.54C81.6087 21.5 81.5954 21.4533 81.6087 21.4C81.7154 20.5867 82.1487 19.92 82.9087 19.4C83.6821 18.88 84.6487 18.62 85.8087 18.62ZM85.3288 27.32C85.9821 27.32 86.5421 27.1467 87.0087 26.8C87.4754 26.4533 87.7088 26.0133 87.7088 25.48V24.54C87.7088 24.4733 87.6754 24.44 87.6087 24.44H85.9288C85.2221 24.44 84.6621 24.5733 84.2487 24.84C83.8487 25.1067 83.6487 25.4867 83.6487 25.98C83.6487 26.4067 83.8021 26.74 84.1087 26.98C84.4287 27.2067 84.8354 27.32 85.3288 27.32ZM97.8217 20.42C97.8217 20.4867 97.7951 20.5467 97.7417 20.6C97.7017 20.64 97.6484 20.66 97.5817 20.66H95.5417C95.4751 20.66 95.4417 20.6933 95.4417 20.76V25.58C95.4417 26.0867 95.5484 26.4533 95.7617 26.68C95.9884 26.9067 96.3417 27.02 96.8217 27.02H97.4217C97.4884 27.02 97.5417 27.0467 97.5817 27.1C97.6351 27.14 97.6617 27.1933 97.6617 27.26V28.76C97.6617 28.9067 97.5817 28.9933 97.4217 29.02L96.3817 29.04C95.3284 29.04 94.5417 28.86 94.0217 28.5C93.5017 28.14 93.2351 27.46 93.2217 26.46V20.76C93.2217 20.6933 93.1884 20.66 93.1217 20.66H91.9817C91.9151 20.66 91.8551 20.64 91.8017 20.6C91.7617 20.5467 91.7417 20.4867 91.7417 20.42V19.02C91.7417 18.9533 91.7617 18.9 91.8017 18.86C91.8551 18.8067 91.9151 18.78 91.9817 18.78H93.1217C93.1884 18.78 93.2217 18.7467 93.2217 18.68V16.34C93.2217 16.2733 93.2417 16.22 93.2817 16.18C93.3351 16.1267 93.3951 16.1 93.4617 16.1H95.2017C95.2684 16.1 95.3217 16.1267 95.3617 16.18C95.4151 16.22 95.4417 16.2733 95.4417 16.34V18.68C95.4417 18.7467 95.4751 18.78 95.5417 18.78H97.5817C97.6484 18.78 97.7017 18.8067 97.7417 18.86C97.7951 18.9 97.8217 18.9533 97.8217 19.02V20.42ZM101.402 17.38C100.989 17.38 100.649 17.2467 100.382 16.98C100.116 16.7133 99.9822 16.3733 99.9822 15.96C99.9822 15.5467 100.116 15.2067 100.382 14.94C100.649 14.6733 100.989 14.54 101.402 14.54C101.816 14.54 102.156 14.6733 102.422 14.94C102.689 15.2067 102.822 15.5467 102.822 15.96C102.822 16.3733 102.689 16.7133 102.422 16.98C102.156 17.2467 101.816 17.38 101.402 17.38ZM100.442 29C100.376 29 100.316 28.98 100.262 28.94C100.222 28.8867 100.202 28.8267 100.202 28.76V19C100.202 18.9333 100.222 18.88 100.262 18.84C100.316 18.7867 100.376 18.76 100.442 18.76H102.282C102.349 18.76 102.402 18.7867 102.442 18.84C102.496 18.88 102.522 18.9333 102.522 19V28.76C102.522 28.8267 102.496 28.8867 102.442 28.94C102.402 28.98 102.349 29 102.282 29H100.442ZM109.18 29.12C108.34 29.12 107.6 29 106.96 28.76C106.333 28.5067 105.847 28.1667 105.5 27.74C105.153 27.3 104.98 26.8133 104.98 26.28V26.1C104.98 26.0333 105 25.98 105.04 25.94C105.093 25.8867 105.153 25.86 105.22 25.86H106.98C107.047 25.86 107.1 25.8867 107.14 25.94C107.193 25.98 107.22 26.0333 107.22 26.1V26.14C107.22 26.4733 107.4 26.7667 107.76 27.02C108.133 27.26 108.6 27.38 109.16 27.38C109.693 27.38 110.127 27.2733 110.46 27.06C110.793 26.8333 110.96 26.5533 110.96 26.22C110.96 25.9133 110.82 25.6867 110.54 25.54C110.273 25.38 109.833 25.2133 109.22 25.04L108.46 24.8C107.78 24.6 107.207 24.3867 106.74 24.16C106.273 23.9333 105.88 23.6267 105.56 23.24C105.24 22.84 105.08 22.3333 105.08 21.72C105.08 20.7867 105.447 20.0467 106.18 19.5C106.913 18.94 107.88 18.66 109.08 18.66C109.893 18.66 110.607 18.7933 111.22 19.06C111.833 19.3133 112.307 19.6733 112.64 20.14C112.973 20.5933 113.14 21.1133 113.14 21.7C113.14 21.7667 113.113 21.8267 113.06 21.88C113.02 21.92 112.967 21.94 112.9 21.94H111.2C111.133 21.94 111.073 21.92 111.02 21.88C110.98 21.8267 110.96 21.7667 110.96 21.7C110.96 21.3533 110.787 21.0667 110.44 20.84C110.107 20.6 109.647 20.48 109.06 20.48C108.54 20.48 108.113 20.58 107.78 20.78C107.46 20.9667 107.3 21.2333 107.3 21.58C107.3 21.9 107.453 22.1467 107.76 22.32C108.08 22.48 108.607 22.66 109.34 22.86L109.78 22.98C110.487 23.1933 111.08 23.4133 111.56 23.64C112.04 23.8533 112.447 24.16 112.78 24.56C113.113 24.9467 113.28 25.4533 113.28 26.08C113.28 27.0267 112.907 27.7733 112.16 28.32C111.413 28.8533 110.42 29.12 109.18 29.12ZM120.744 18.76C120.81 18.76 120.864 18.7867 120.904 18.84C120.957 18.88 120.984 18.9333 120.984 19V20.58C120.984 20.6467 120.957 20.7067 120.904 20.76C120.864 20.8 120.81 20.82 120.744 20.82H118.764C118.697 20.82 118.664 20.8533 118.664 20.92V28.76C118.664 28.8267 118.637 28.8867 118.584 28.94C118.544 28.98 118.49 29 118.424 29H116.584C116.517 29 116.457 28.98 116.404 28.94C116.364 28.8867 116.344 28.8267 116.344 28.76V20.92C116.344 20.8533 116.31 20.82 116.244 20.82H115.004C114.937 20.82 114.877 20.8 114.824 20.76C114.784 20.7067 114.764 20.6467 114.764 20.58V19C114.764 18.9333 114.784 18.88 114.824 18.84C114.877 18.7867 114.937 18.76 115.004 18.76H116.244C116.31 18.76 116.344 18.7267 116.344 18.66V18.3C116.344 17.4333 116.457 16.7667 116.684 16.3C116.91 15.82 117.284 15.48 117.804 15.28C118.324 15.08 119.057 14.9867 120.004 15H120.704C120.77 15 120.824 15.0267 120.864 15.08C120.917 15.12 120.944 15.1733 120.944 15.24V16.64C120.944 16.7067 120.917 16.7667 120.864 16.82C120.824 16.86 120.77 16.88 120.704 16.88H120.184C119.61 16.88 119.21 16.9933 118.984 17.22C118.77 17.4467 118.664 17.86 118.664 18.46V18.66C118.664 18.7267 118.697 18.76 118.764 18.76H120.744ZM126.828 18.62C127.668 18.62 128.408 18.7667 129.048 19.06C129.688 19.3533 130.182 19.76 130.528 20.28C130.875 20.7867 131.048 21.3667 131.048 22.02V28.76C131.048 28.8267 131.022 28.8867 130.968 28.94C130.928 28.98 130.875 29 130.808 29H128.968C128.902 29 128.842 28.98 128.788 28.94C128.748 28.8867 128.728 28.8267 128.728 28.76V28.12C128.728 28.08 128.715 28.06 128.688 28.06C128.662 28.0467 128.635 28.0533 128.608 28.08C127.955 28.8 127.008 29.16 125.768 29.16C124.768 29.16 123.942 28.9067 123.288 28.4C122.648 27.8933 122.328 27.14 122.328 26.14C122.328 25.1 122.688 24.2933 123.408 23.72C124.142 23.1333 125.168 22.84 126.488 22.84H128.628C128.695 22.84 128.728 22.8067 128.728 22.74V22.26C128.728 21.74 128.575 21.34 128.268 21.06C127.962 20.7667 127.502 20.62 126.888 20.62C126.382 20.62 125.968 20.7133 125.648 20.9C125.342 21.0733 125.148 21.32 125.068 21.64C125.028 21.8 124.935 21.8667 124.788 21.84L122.848 21.6C122.782 21.5867 122.722 21.5667 122.668 21.54C122.628 21.5 122.615 21.4533 122.628 21.4C122.735 20.5867 123.168 19.92 123.928 19.4C124.702 18.88 125.668 18.62 126.828 18.62ZM126.348 27.32C127.002 27.32 127.562 27.1467 128.028 26.8C128.495 26.4533 128.728 26.0133 128.728 25.48V24.54C128.728 24.4733 128.695 24.44 128.628 24.44H126.948C126.242 24.44 125.682 24.5733 125.268 24.84C124.868 25.1067 124.668 25.4867 124.668 25.98C124.668 26.4067 124.822 26.74 125.128 26.98C125.448 27.2067 125.855 27.32 126.348 27.32ZM137.838 29.16C136.811 29.16 135.924 28.9 135.178 28.38C134.431 27.8467 133.911 27.1333 133.618 26.24C133.404 25.64 133.298 24.84 133.298 23.84C133.298 22.88 133.404 22.0933 133.618 21.48C133.898 20.6 134.411 19.9067 135.158 19.4C135.918 18.88 136.811 18.62 137.838 18.62C138.878 18.62 139.784 18.88 140.558 19.4C141.331 19.92 141.844 20.5733 142.098 21.36C142.164 21.5733 142.211 21.7867 142.238 22V22.04C142.238 22.1733 142.164 22.2533 142.018 22.28L140.218 22.54H140.178C140.058 22.54 139.978 22.4733 139.938 22.34C139.938 22.2733 139.931 22.22 139.918 22.18C139.891 22.0733 139.864 21.98 139.838 21.9C139.718 21.5267 139.478 21.22 139.118 20.98C138.758 20.74 138.331 20.62 137.838 20.62C137.331 20.62 136.898 20.7533 136.538 21.02C136.191 21.2733 135.958 21.6267 135.838 22.08C135.704 22.5067 135.638 23.1 135.638 23.86C135.638 24.5933 135.698 25.1867 135.818 25.64C135.951 26.1067 136.191 26.48 136.538 26.76C136.884 27.0267 137.318 27.16 137.838 27.16C138.344 27.16 138.778 27.0333 139.138 26.78C139.511 26.5133 139.751 26.16 139.858 25.72C139.871 25.6933 139.878 25.66 139.878 25.62C139.891 25.6067 139.898 25.5867 139.898 25.56C139.938 25.4 140.031 25.3333 140.178 25.36L141.978 25.64C142.044 25.6533 142.098 25.6867 142.138 25.74C142.191 25.78 142.211 25.84 142.198 25.92C142.158 26.1333 142.124 26.2867 142.098 26.38C141.844 27.2333 141.331 27.9133 140.558 28.42C139.784 28.9133 138.878 29.16 137.838 29.16ZM149.822 20.42C149.822 20.4867 149.796 20.5467 149.742 20.6C149.702 20.64 149.649 20.66 149.582 20.66H147.542C147.476 20.66 147.442 20.6933 147.442 20.76V25.58C147.442 26.0867 147.549 26.4533 147.762 26.68C147.989 26.9067 148.342 27.02 148.822 27.02H149.422C149.489 27.02 149.542 27.0467 149.582 27.1C149.636 27.14 149.662 27.1933 149.662 27.26V28.76C149.662 28.9067 149.582 28.9933 149.422 29.02L148.382 29.04C147.329 29.04 146.542 28.86 146.022 28.5C145.502 28.14 145.236 27.46 145.222 26.46V20.76C145.222 20.6933 145.189 20.66 145.122 20.66H143.982C143.916 20.66 143.856 20.64 143.802 20.6C143.762 20.5467 143.742 20.4867 143.742 20.42V19.02C143.742 18.9533 143.762 18.9 143.802 18.86C143.856 18.8067 143.916 18.78 143.982 18.78H145.122C145.189 18.78 145.222 18.7467 145.222 18.68V16.34C145.222 16.2733 145.242 16.22 145.282 16.18C145.336 16.1267 145.396 16.1 145.462 16.1H147.202C147.269 16.1 147.322 16.1267 147.362 16.18C147.416 16.22 147.442 16.2733 147.442 16.34V18.68C147.442 18.7467 147.476 18.78 147.542 18.78H149.582C149.649 18.78 149.702 18.8067 149.742 18.86C149.796 18.9 149.822 18.9533 149.822 19.02V20.42ZM156.228 29.16C155.174 29.16 154.268 28.8933 153.508 28.36C152.761 27.8267 152.234 27.0867 151.928 26.14C151.701 25.42 151.588 24.66 151.588 23.86C151.588 23.0067 151.694 22.2467 151.908 21.58C152.214 20.6467 152.748 19.92 153.508 19.4C154.268 18.88 155.181 18.62 156.248 18.62C157.261 18.62 158.134 18.88 158.868 19.4C159.614 19.92 160.141 20.64 160.448 21.56C160.688 22.2 160.808 22.96 160.808 23.84C160.808 24.68 160.694 25.44 160.468 26.12C160.161 27.0667 159.634 27.8133 158.888 28.36C158.141 28.8933 157.254 29.16 156.228 29.16ZM156.228 27.16C156.721 27.16 157.141 27.02 157.488 26.74C157.848 26.46 158.108 26.0667 158.268 25.56C158.401 25.12 158.468 24.56 158.468 23.88C158.468 23.16 158.401 22.6 158.268 22.2C158.121 21.6933 157.868 21.3067 157.508 21.04C157.148 20.76 156.708 20.62 156.188 20.62C155.694 20.62 155.268 20.76 154.908 21.04C154.548 21.3067 154.288 21.6933 154.128 22.2C153.994 22.6667 153.928 23.2267 153.928 23.88C153.928 24.5333 153.994 25.0933 154.128 25.56C154.274 26.0667 154.528 26.46 154.888 26.74C155.261 27.02 155.708 27.16 156.228 27.16ZM167.961 18.66C168.388 18.66 168.761 18.7467 169.081 18.92C169.188 18.9733 169.228 19.0733 169.201 19.22L168.861 21.02C168.848 21.18 168.754 21.2267 168.581 21.16C168.381 21.0933 168.148 21.06 167.881 21.06C167.708 21.06 167.574 21.0667 167.481 21.08C166.921 21.1067 166.454 21.3067 166.081 21.68C165.708 22.04 165.521 22.5133 165.521 23.1V28.76C165.521 28.8267 165.494 28.8867 165.441 28.94C165.401 28.98 165.348 29 165.281 29H163.441C163.374 29 163.314 28.98 163.261 28.94C163.221 28.8867 163.201 28.8267 163.201 28.76V19.02C163.201 18.9533 163.221 18.9 163.261 18.86C163.314 18.8067 163.374 18.78 163.441 18.78H165.281C165.348 18.78 165.401 18.8067 165.441 18.86C165.494 18.9 165.521 18.9533 165.521 19.02V19.92C165.521 19.9733 165.528 20.0067 165.541 20.02C165.568 20.02 165.594 20 165.621 19.96C166.181 19.0933 166.961 18.66 167.961 18.66ZM171.052 32.98C171.012 32.98 170.979 32.9533 170.952 32.9C170.926 32.86 170.912 32.8067 170.912 32.74V31.3C170.912 31.2333 170.932 31.1733 170.972 31.12C171.026 31.08 171.086 31.06 171.152 31.06H171.172C171.719 31.0467 172.146 30.9867 172.452 30.88C172.759 30.7867 173.012 30.6 173.212 30.32C173.412 30.04 173.592 29.62 173.752 29.06C173.766 29.0333 173.766 28.9933 173.752 28.94L170.452 19.04C170.439 19.0133 170.432 18.98 170.432 18.94C170.432 18.82 170.499 18.76 170.632 18.76H172.592C172.739 18.76 172.832 18.8267 172.872 18.96L174.872 26C174.886 26.04 174.906 26.06 174.932 26.06C174.959 26.06 174.979 26.04 174.992 26L176.992 18.96C177.032 18.8267 177.126 18.76 177.272 18.76H179.172C179.252 18.76 179.306 18.7867 179.332 18.84C179.372 18.88 179.379 18.9467 179.352 19.04L175.832 29.56C175.499 30.5067 175.172 31.2133 174.852 31.68C174.532 32.1467 174.092 32.48 173.532 32.68C172.986 32.88 172.206 32.98 171.192 32.98H171.052Z" fill="#166E1A" style="fill:#166E1A;fill:color(display-p3 0.0847 0.4298 0.1020);fill-opacity:1;"/>
<path d="M73.4634 40.5455H74.8853V47.2486C74.8853 47.8549 74.7653 48.3735 74.5252 48.8043C74.2882 49.2352 73.9543 49.5645 73.5234 49.7923C73.0926 50.0169 72.5878 50.1293 72.0092 50.1293C71.4768 50.1293 70.9982 50.0323 70.5735 49.8384C70.1519 49.6445 69.8179 49.3629 69.5717 48.9936C69.3286 48.6212 69.207 48.1688 69.207 47.6364H70.6243C70.6243 47.898 70.6843 48.1242 70.8043 48.315C70.9274 48.5058 71.0952 48.6551 71.3075 48.7628C71.523 48.8674 71.7692 48.9197 72.0462 48.9197C72.3478 48.9197 72.6032 48.8567 72.8125 48.7305C73.0249 48.6012 73.1864 48.4119 73.2972 48.1626C73.408 47.9134 73.4634 47.6087 73.4634 47.2486V40.5455ZM81.3426 47.0593V42.9091H82.7275V50H81.3703V48.772H81.2964C81.1333 49.1506 80.8717 49.466 80.5116 49.7184C80.1546 49.9677 79.7099 50.0923 79.1775 50.0923C78.722 50.0923 78.3188 49.9923 77.968 49.7923C77.6202 49.5891 77.3463 49.2891 77.1462 48.892C76.9492 48.495 76.8508 48.0041 76.8508 47.4194V42.9091H78.2311V47.2532C78.2311 47.7364 78.365 48.1211 78.6327 48.4073C78.9005 48.6935 79.2483 48.8366 79.676 48.8366C79.9346 48.8366 80.1916 48.772 80.447 48.6428C80.7055 48.5135 80.9194 48.3181 81.0887 48.0565C81.261 47.7949 81.3457 47.4625 81.3426 47.0593ZM89.8958 44.6403L88.6447 44.8619C88.5924 44.7018 88.5093 44.5495 88.3954 44.4048C88.2846 44.2602 88.1338 44.1417 87.943 44.0494C87.7522 43.957 87.5137 43.9109 87.2275 43.9109C86.8366 43.9109 86.5104 43.9986 86.2488 44.174C85.9872 44.3464 85.8564 44.5695 85.8564 44.8434C85.8564 45.0804 85.9441 45.2712 86.1195 45.4158C86.2949 45.5605 86.5781 45.679 86.9689 45.7713L88.0953 46.0298C88.7478 46.1806 89.2341 46.413 89.5542 46.7269C89.8742 47.0408 90.0343 47.4486 90.0343 47.9503C90.0343 48.375 89.9112 48.7536 89.665 49.0859C89.4218 49.4152 89.0817 49.6738 88.6447 49.8615C88.2108 50.0492 87.7076 50.1431 87.1351 50.1431C86.3411 50.1431 85.6932 49.9738 85.1916 49.6353C84.6899 49.2937 84.3822 48.8089 84.2683 48.1811L85.6025 47.978C85.6855 48.3258 85.8564 48.5889 86.1149 48.7674C86.3734 48.9428 86.7104 49.0305 87.1259 49.0305C87.5783 49.0305 87.9399 48.9367 88.2108 48.7489C88.4816 48.5581 88.617 48.3258 88.617 48.0518C88.617 47.8303 88.5339 47.6441 88.3677 47.4933C88.2046 47.3424 87.9538 47.2286 87.6152 47.1516L86.415 46.8885C85.7533 46.7377 85.2639 46.4976 84.9469 46.1683C84.633 45.839 84.476 45.422 84.476 44.9173C84.476 44.4987 84.593 44.1325 84.8269 43.8185C85.0608 43.5046 85.3839 43.2599 85.7963 43.0845C86.2087 42.906 86.6812 42.8168 87.2136 42.8168C87.9799 42.8168 88.5832 42.983 89.0233 43.3153C89.4634 43.6446 89.7542 44.0863 89.8958 44.6403ZM94.8619 42.9091V44.017H90.9887V42.9091H94.8619ZM92.0274 41.2102H93.4078V47.918C93.4078 48.1857 93.4478 48.3873 93.5278 48.5227C93.6078 48.6551 93.7109 48.7459 93.8371 48.7951C93.9664 48.8413 94.1064 48.8643 94.2572 48.8643C94.368 48.8643 94.4649 48.8567 94.548 48.8413C94.6311 48.8259 94.6958 48.8136 94.7419 48.8043L94.9912 49.9446C94.9112 49.9754 94.7973 50.0062 94.6496 50.0369C94.5019 50.0708 94.3172 50.0893 94.0956 50.0923C93.7325 50.0985 93.3939 50.0339 93.08 49.8984C92.7661 49.763 92.5122 49.5537 92.3183 49.2706C92.1244 48.9875 92.0274 48.632 92.0274 48.2042V41.2102ZM102.885 50.1431C102.187 50.1431 101.585 49.9938 101.08 49.6953C100.579 49.3937 100.191 48.9705 99.917 48.4258C99.6462 47.878 99.5107 47.2363 99.5107 46.5007C99.5107 45.7744 99.6462 45.1342 99.917 44.5803C100.191 44.0263 100.573 43.5939 101.062 43.283C101.554 42.9722 102.13 42.8168 102.788 42.8168C103.189 42.8168 103.576 42.8829 103.952 43.0153C104.327 43.1476 104.664 43.3554 104.963 43.6385C105.261 43.9216 105.497 44.2894 105.669 44.7418C105.841 45.1912 105.928 45.7375 105.928 46.3807V46.87H100.291V45.8359H104.575C104.575 45.4728 104.501 45.1512 104.353 44.8711C104.206 44.5879 103.998 44.3648 103.73 44.2017C103.466 44.0386 103.155 43.957 102.798 43.957C102.41 43.957 102.071 44.0524 101.782 44.2433C101.496 44.431 101.274 44.6772 101.117 44.9819C100.963 45.2835 100.886 45.6113 100.886 45.9652V46.7731C100.886 47.247 100.97 47.6502 101.136 47.9826C101.305 48.315 101.54 48.5689 101.842 48.7443C102.144 48.9167 102.496 49.0028 102.899 49.0028C103.161 49.0028 103.399 48.9659 103.615 48.892C103.83 48.8151 104.016 48.7012 104.173 48.5504C104.33 48.3996 104.45 48.2134 104.533 47.9918L105.84 48.2273C105.735 48.612 105.548 48.949 105.277 49.2383C105.009 49.5245 104.672 49.7476 104.266 49.9077C103.863 50.0646 103.402 50.1431 102.885 50.1431ZM108.839 45.7898V50H107.459V42.9091H108.784V44.0632H108.872C109.035 43.6877 109.29 43.3861 109.638 43.1584C109.989 42.9306 110.431 42.8168 110.963 42.8168C111.446 42.8168 111.869 42.9183 112.233 43.1214C112.596 43.3215 112.877 43.62 113.077 44.017C113.277 44.4141 113.377 44.9049 113.377 45.4897V50H111.997V45.6559C111.997 45.1419 111.863 44.7403 111.596 44.451C111.328 44.1586 110.96 44.0124 110.492 44.0124C110.172 44.0124 109.887 44.0817 109.638 44.2202C109.392 44.3587 109.196 44.5618 109.052 44.8295C108.91 45.0942 108.839 45.4143 108.839 45.7898ZM118.216 50.1431C117.551 50.1431 116.971 49.9908 116.475 49.6861C115.98 49.3814 115.595 48.9551 115.321 48.4073C115.047 47.8595 114.91 47.2193 114.91 46.4869C114.91 45.7513 115.047 45.1081 115.321 44.5572C115.595 44.0063 115.98 43.5785 116.475 43.2738C116.971 42.9691 117.551 42.8168 118.216 42.8168C118.88 42.8168 119.46 42.9691 119.956 43.2738C120.451 43.5785 120.836 44.0063 121.11 44.5572C121.384 45.1081 121.521 45.7513 121.521 46.4869C121.521 47.2193 121.384 47.8595 121.11 48.4073C120.836 48.9551 120.451 49.3814 119.956 49.6861C119.46 49.9908 118.88 50.1431 118.216 50.1431ZM118.22 48.9844C118.651 48.9844 119.008 48.8705 119.291 48.6428C119.574 48.415 119.784 48.1119 119.919 47.7333C120.058 47.3548 120.127 46.9377 120.127 46.4822C120.127 46.0298 120.058 45.6143 119.919 45.2358C119.784 44.8542 119.574 44.5479 119.291 44.3171C119.008 44.0863 118.651 43.9709 118.22 43.9709C117.786 43.9709 117.426 44.0863 117.14 44.3171C116.857 44.5479 116.646 44.8542 116.507 45.2358C116.372 45.6143 116.304 46.0298 116.304 46.4822C116.304 46.9377 116.372 47.3548 116.507 47.7333C116.646 48.1119 116.857 48.415 117.14 48.6428C117.426 48.8705 117.786 48.9844 118.22 48.9844ZM127.554 47.0593V42.9091H128.938V50H127.581V48.772H127.507C127.344 49.1506 127.083 49.466 126.723 49.7184C126.366 49.9677 125.921 50.0923 125.388 50.0923C124.933 50.0923 124.53 49.9923 124.179 49.7923C123.831 49.5891 123.557 49.2891 123.357 48.892C123.16 48.495 123.062 48.0041 123.062 47.4194V42.9091H124.442V47.2532C124.442 47.7364 124.576 48.1211 124.844 48.4073C125.111 48.6935 125.459 48.8366 125.887 48.8366C126.146 48.8366 126.402 48.772 126.658 48.6428C126.916 48.5135 127.13 48.3181 127.3 48.0565C127.472 47.7949 127.557 47.4625 127.554 47.0593ZM133.766 52.8068C133.203 52.8068 132.718 52.733 132.312 52.5852C131.909 52.4375 131.579 52.2421 131.324 51.9989C131.069 51.7558 130.878 51.4896 130.752 51.2003L131.938 50.7109C132.021 50.8464 132.132 50.9895 132.27 51.1403C132.412 51.2942 132.603 51.425 132.843 51.5327C133.086 51.6404 133.398 51.6942 133.78 51.6942C134.303 51.6942 134.736 51.5665 135.077 51.3111C135.419 51.0587 135.59 50.6555 135.59 50.1016V48.7074H135.502C135.419 48.8582 135.299 49.0259 135.142 49.2106C134.988 49.3952 134.776 49.5553 134.505 49.6907C134.234 49.8261 133.882 49.8938 133.448 49.8938C132.887 49.8938 132.383 49.763 131.933 49.5014C131.487 49.2367 131.133 48.8474 130.872 48.3335C130.613 47.8164 130.484 47.1809 130.484 46.4268C130.484 45.6728 130.612 45.0265 130.867 44.4879C131.126 43.9493 131.479 43.5369 131.929 43.2507C132.378 42.9614 132.887 42.8168 133.457 42.8168C133.897 42.8168 134.252 42.8906 134.523 43.0384C134.794 43.183 135.005 43.3523 135.156 43.5462C135.31 43.7401 135.428 43.9109 135.511 44.0586H135.613V42.9091H136.965V50.157C136.965 50.7663 136.824 51.2665 136.541 51.6573C136.258 52.0482 135.874 52.3375 135.391 52.5252C134.911 52.7129 134.369 52.8068 133.766 52.8068ZM133.752 48.7489C134.149 48.7489 134.485 48.6566 134.759 48.4719C135.036 48.2842 135.245 48.0165 135.387 47.6687C135.531 47.3178 135.604 46.8977 135.604 46.4084C135.604 45.9313 135.533 45.5112 135.391 45.1481C135.25 44.7849 135.042 44.5018 134.768 44.2987C134.494 44.0924 134.155 43.9893 133.752 43.9893C133.337 43.9893 132.991 44.0971 132.714 44.3125C132.437 44.5249 132.227 44.8142 132.086 45.1804C131.947 45.5466 131.878 45.956 131.878 46.4084C131.878 46.8731 131.949 47.2809 132.09 47.6317C132.232 47.9826 132.441 48.2565 132.718 48.4535C132.998 48.6504 133.343 48.7489 133.752 48.7489ZM140.197 45.7898V50H138.817V40.5455H140.178V44.0632H140.266C140.432 43.6816 140.686 43.3784 141.028 43.1538C141.369 42.9291 141.816 42.8168 142.367 42.8168C142.853 42.8168 143.278 42.9168 143.641 43.1168C144.007 43.3169 144.29 43.6154 144.49 44.0124C144.693 44.4064 144.795 44.8988 144.795 45.4897V50H143.415V45.6559C143.415 45.1358 143.281 44.7326 143.013 44.4464C142.745 44.1571 142.373 44.0124 141.896 44.0124C141.57 44.0124 141.277 44.0817 141.019 44.2202C140.763 44.3587 140.562 44.5618 140.414 44.8295C140.269 45.0942 140.197 45.4143 140.197 45.7898ZM153.133 50.1431C152.435 50.1431 151.833 49.9938 151.328 49.6953C150.827 49.3937 150.439 48.9705 150.165 48.4258C149.894 47.878 149.759 47.2363 149.759 46.5007C149.759 45.7744 149.894 45.1342 150.165 44.5803C150.439 44.0263 150.821 43.5939 151.31 43.283C151.802 42.9722 152.378 42.8168 153.036 42.8168C153.437 42.8168 153.824 42.8829 154.2 43.0153C154.575 43.1476 154.912 43.3554 155.211 43.6385C155.509 43.9216 155.745 44.2894 155.917 44.7418C156.09 45.1912 156.176 45.7375 156.176 46.3807V46.87H150.539V45.8359H154.823C154.823 45.4728 154.749 45.1512 154.601 44.8711C154.454 44.5879 154.246 44.3648 153.978 44.2017C153.714 44.0386 153.403 43.957 153.046 43.957C152.658 43.957 152.319 44.0524 152.03 44.2433C151.744 44.431 151.522 44.6772 151.365 44.9819C151.211 45.2835 151.134 45.6113 151.134 45.9652V46.7731C151.134 47.247 151.218 47.6502 151.384 47.9826C151.553 48.315 151.789 48.5689 152.09 48.7443C152.392 48.9167 152.744 49.0028 153.147 49.0028C153.409 49.0028 153.647 48.9659 153.863 48.892C154.078 48.8151 154.264 48.7012 154.421 48.5504C154.578 48.3996 154.698 48.2134 154.782 47.9918L156.088 48.2273C155.983 48.612 155.796 48.949 155.525 49.2383C155.257 49.5245 154.92 49.7476 154.514 49.9077C154.111 50.0646 153.65 50.1431 153.133 50.1431ZM161.082 42.9091V44.017H157.075V42.9091H161.082ZM158.173 50V42.0874C158.173 41.6442 158.27 41.2764 158.464 40.984C158.658 40.6886 158.915 40.4685 159.235 40.3239C159.555 40.1761 159.903 40.1023 160.279 40.1023C160.556 40.1023 160.793 40.1254 160.99 40.1715C161.186 40.2146 161.333 40.2546 161.428 40.2915L161.105 41.4087C161.04 41.3903 160.957 41.3687 160.856 41.3441C160.754 41.3164 160.631 41.3026 160.486 41.3026C160.151 41.3026 159.911 41.3857 159.766 41.5518C159.625 41.718 159.554 41.9581 159.554 42.272V50H158.173ZM165.881 42.9091V44.017H161.874V42.9091H165.881ZM162.972 50V42.0874C162.972 41.6442 163.069 41.2764 163.263 40.984C163.457 40.6886 163.714 40.4685 164.034 40.3239C164.354 40.1761 164.702 40.1023 165.077 40.1023C165.354 40.1023 165.591 40.1254 165.788 40.1715C165.985 40.2146 166.132 40.2546 166.227 40.2915L165.904 41.4087C165.839 41.3903 165.756 41.3687 165.654 41.3441C165.553 41.3164 165.43 41.3026 165.285 41.3026C164.95 41.3026 164.71 41.3857 164.565 41.5518C164.423 41.718 164.353 41.9581 164.353 42.272V50H162.972ZM170.012 50.1431C169.348 50.1431 168.768 49.9908 168.272 49.6861C167.777 49.3814 167.392 48.9551 167.118 48.4073C166.844 47.8595 166.707 47.2193 166.707 46.4869C166.707 45.7513 166.844 45.1081 167.118 44.5572C167.392 44.0063 167.777 43.5785 168.272 43.2738C168.768 42.9691 169.348 42.8168 170.012 42.8168C170.677 42.8168 171.257 42.9691 171.753 43.2738C172.248 43.5785 172.633 44.0063 172.907 44.5572C173.181 45.1081 173.318 45.7513 173.318 46.4869C173.318 47.2193 173.181 47.8595 172.907 48.4073C172.633 48.9551 172.248 49.3814 171.753 49.6861C171.257 49.9908 170.677 50.1431 170.012 50.1431ZM170.017 48.9844C170.448 48.9844 170.805 48.8705 171.088 48.6428C171.371 48.415 171.58 48.1119 171.716 47.7333C171.854 47.3548 171.924 46.9377 171.924 46.4822C171.924 46.0298 171.854 45.6143 171.716 45.2358C171.58 44.8542 171.371 44.5479 171.088 44.3171C170.805 44.0863 170.448 43.9709 170.017 43.9709C169.583 43.9709 169.223 44.0863 168.937 44.3171C168.654 44.5479 168.443 44.8542 168.304 45.2358C168.169 45.6143 168.101 46.0298 168.101 46.4822C168.101 46.9377 168.169 47.3548 168.304 47.7333C168.443 48.1119 168.654 48.415 168.937 48.6428C169.223 48.8705 169.583 48.9844 170.017 48.9844ZM174.859 50V42.9091H176.193V44.0355H176.267C176.396 43.6539 176.624 43.3538 176.95 43.1353C177.279 42.9137 177.652 42.8029 178.067 42.8029C178.153 42.8029 178.255 42.806 178.372 42.8121C178.492 42.8183 178.586 42.826 178.653 42.8352V44.1555C178.598 44.1402 178.499 44.1232 178.358 44.1048C178.216 44.0832 178.075 44.0724 177.933 44.0724C177.607 44.0724 177.316 44.1417 177.061 44.2802C176.808 44.4156 176.608 44.6049 176.46 44.848C176.313 45.0881 176.239 45.362 176.239 45.6697V50H174.859ZM183.577 42.9091V44.017H179.704V42.9091H183.577ZM180.742 41.2102H182.123V47.918C182.123 48.1857 182.163 48.3873 182.243 48.5227C182.323 48.6551 182.426 48.7459 182.552 48.7951C182.681 48.8413 182.821 48.8643 182.972 48.8643C183.083 48.8643 183.18 48.8567 183.263 48.8413C183.346 48.8259 183.411 48.8136 183.457 48.8043L183.706 49.9446C183.626 49.9754 183.512 50.0062 183.364 50.0369C183.217 50.0708 183.032 50.0893 182.81 50.0923C182.447 50.0985 182.109 50.0339 181.795 49.8984C181.481 49.763 181.227 49.5537 181.033 49.2706C180.839 48.9875 180.742 48.632 180.742 48.2042V41.2102Z" fill="#70829A" style="fill:#70829A;fill:color(display-p3 0.4379 0.5116 0.6033);fill-opacity:1;"/>
</svg>
